<?xml version="1.0" encoding="iso-8859-1"?>
<!-- Uploaded to: SVG Repo, www.svgrepo.com, Generator: SVG Repo Mixer Tools -->
<svg height="800px" width="800px" version="1.1" id="Layer_1" xmlns="http://www.w3.org/2000/svg" xmlns:xlink="http://www.w3.org/1999/xlink" 
	 viewBox="0 0 512 512" xml:space="preserve">
<g>
	<path style="fill:#556080;" d="M447.616,97.103h-97.907c-9.039,0-17.602,4.017-23.384,10.955L102.343,373.38
		c-3.319,3.937-8.21,6.206-13.356,6.206H64.384c-33.836,0-63.338,26.068-64.353,59.895c-1.05,34.993,27.004,63.691,61.767,63.691
		h82.838c9.039,0,17.602-4.017,23.384-10.964l220.16-264.395c3.761-4.511,9.331-7.124,15.21-7.124h46.822
		c34.754,0,62.808-28.698,61.758-63.691C510.954,123.171,481.452,97.103,447.616,97.103"/>
	<path style="fill:#FDC693;" d="M229.518,52.966C229.518,23.711,205.807,0,176.553,0c-29.255,0-52.966,23.711-52.966,52.966
		s23.711,52.966,52.966,52.966C205.807,105.931,229.518,82.22,229.518,52.966"/>
	<path style="fill:#E1705C;" d="M229.518,222.731v-63.832c0-29.255-23.711-52.966-52.966-52.966
		c-29.255,0-52.966,23.711-52.966,52.966v189.316L229.518,222.731z"/>
	<g>
		<path style="fill:#25B99A;" d="M423.725,512c-4.882,0-8.828-3.946-8.828-8.828V326.621c0-4.882,3.946-8.828,8.828-8.828
			s8.828,3.946,8.828,8.828v176.552C432.553,508.054,428.607,512,423.725,512"/>
		<path style="fill:#25B99A;" d="M485.518,397.241c-2.26,0-4.52-0.865-6.241-2.586l-55.552-55.552l-55.552,55.552
			c-3.452,3.452-9.031,3.452-12.482,0c-3.452-3.452-3.452-9.031,0-12.482l61.793-61.793c3.452-3.452,9.031-3.452,12.482,0
			l61.793,61.793c3.452,3.452,3.452,9.031,0,12.482C490.038,396.376,487.778,397.241,485.518,397.241"/>
	</g>
</g>
</svg>