<?xml version="1.0" ?>
<!-- Uploaded to: SVG Repo, www.svgrepo.com, Generator: SVG Repo Mixer Tools -->
<svg width="800px" height="800px" viewBox="0 0 64 64" xmlns="http://www.w3.org/2000/svg">
<g id="a"/>
<g id="b"/>
<g id="c"/>
<g id="d"/>
<g id="e">
<path d="M9.01,7.06c-3.97,.01-4.01,2.33-4.01,3.8V29.89L25.63,12.89s-5.6-5.86-16.62-5.83Z" fill="#6dd4a1" fill-rule="evenodd"/>
<path d="M59,29.9c0-1.88-.01-4.85-.42-5.87-1.61-4.04-6.84-13.17-21.11-13.17S9.13,21.21,6.19,25.06c-.99,1.29-1.19,3.45-1.19,4.83l27.62,4.52,26.38-4.51Z" fill="#6dd4a1" fill-rule="evenodd"/>
<path d="M34.86,10.97c-13.77,1.1-25.9,10.47-28.67,14.09-.99,1.29-1.19,3.45-1.19,4.83l10.05,1.65c.74-2.46,.92-4.53,.92-4.53,.04-1.21,.13-2.31,.4-2.97,1.51-3.78,6.19-12.03,18.49-13.07Z" fill="#91deb3" fill-rule="evenodd"/>
<path d="M55.62,27.02h1.41c1.09,0,1.96,.87,1.96,1.96v25.95c0,1.09-.87,1.96-1.96,1.96h-6.22l-21.9-24.02s5.9-5.46,6.35-5.32c.45,.15,20.36-.53,20.36-.53Zm-33.29,0H6.96c-1.09,0-1.96,.87-1.96,1.96v24.77l3.97,1.72s19.61,.76,18.98-11.83c-.63-12.58-5.61-16.62-5.61-16.62Z" fill="#feccba" fill-rule="evenodd"/>
<path d="M47.3,56.89h3.51c.3-.91,.65-1.96,1.04-3.15,3.29-12.7-12.22-18.31-15.57-20.04-8.76-3.47,11.11-5.74,19.33-6.69h-18.59l-4.65,.99-1.09-.99h-8.95c-.96,.94-1.75,1.99-2.21,3.14-.78,2.39-.24,5.28,2.4,8.38,3.81,4.47,3.64,15.21-11.08,15.21H5v1.18c0,1.09,.87,1.96,1.96,1.96H23.55l14.86-5.03,8.89,5.03Z" fill="#f0f4f6" fill-rule="evenodd"/>
<path d="M31.29,27.02c-6.39,0-11.13,3.88-6.36,9.48,5.87,6.9,3.41,20.39-13.48,20.39H47.3c7.24-12.8-7.4-17.78-12.46-20.39-10.79-5.57-.03-9.48,6.36-9.48h-9.92Z" fill="#9dacb9" fill-rule="evenodd"/>
<circle cx="17.2" cy="46.44" fill="#ffded4" r="1"/>
<circle cx="15.12" cy="38.37" fill="#ffded4" r="1"/>
<circle cx="11.41" cy="33.03" fill="#ffded4" r="1"/>
<circle cx="10.01" cy="44.44" fill="#ffded4" r="1"/>
<circle cx="48.92" cy="33.99" fill="#ffded4" r="1"/>
<circle cx="54.78" cy="33.92" fill="#ffded4" r="1"/>
<circle cx="55.44" cy="44.15" fill="#ffded4" r="1"/>
<path d="M35.89,55.15c-.26-.03-.53,.05-.74,.21-.58,.46-.94,.64-.94,.64-.33,.17-.54,.52-.54,.89h2.76c.4-.35,.45-.96,.12-1.37-.16-.21-.4-.34-.67-.37Zm3.87-5.35c-.07-.01-.14-.02-.21-.02-.47,0-.88,.33-.98,.79-.16,.76-.5,1.49-.94,2.16-.3,.46-.17,1.08,.29,1.38,.46,.3,1.08,.17,1.38-.29,.54-.83,1-1.78,1.23-2.84,.01-.07,.02-.14,.02-.21,0-.47-.33-.88-.79-.98Zm-2.24-6.09c-.27-.01-.52,.09-.72,.27-.2,.19-.32,.46-.32,.73,0,.25,.1,.5,.27,.68,.65,.7,1.1,1.37,1.4,1.99,.17,.34,.52,.56,.9,.56,.15,0,.3-.03,.44-.1,.34-.17,.56-.52,.56-.9,0-.15-.03-.3-.1-.44-.4-.83-.97-1.65-1.74-2.48-.18-.19-.43-.31-.7-.32Zm-4.85-4.67c-.27,0-.52,.12-.7,.31-.18,.19-.27,.43-.27,.69,0,.28,.11,.54,.31,.73,.64,.6,1.3,1.23,1.98,1.88,.19,.18,.43,.28,.69,.28,.27,0,.53-.11,.72-.31,.18-.19,.28-.43,.28-.69,0-.27-.11-.53-.31-.72-.69-.66-1.35-1.29-1.99-1.89-.19-.18-.45-.28-.71-.27Zm-4.59-4.74h0c-.26-.02-.53,.06-.73,.23-.42,.35-.48,.99-.13,1.41,.56,.67,1.21,1.35,1.92,2.07,.39,.39,1.03,.39,1.41,0,.39-.39,.39-1.03,0-1.41-.69-.69-1.3-1.34-1.8-1.94-.17-.2-.41-.33-.68-.36Zm-.99-5.83c-.17,.04-.33,.12-.46,.24-.98,.9-1.5,2.06-1.42,3.21,.04,.52,.47,.93,1,.93,.02,0,.05,0,.07,0,.52-.04,.93-.47,.93-1,0-.02,0-.05,0-.07-.04-.55,.11-.98,.78-1.6,.21-.19,.32-.46,.32-.74,0-.25-.09-.49-.26-.68-.24-.26-.6-.38-.95-.3Zm4.2-1.44c-.5,0-.98,.03-1.45,.08-.12,.24-.14,.52-.05,.77,.15,.38,.52,.63,.93,.63,.13,0,.26-.02,.37-.07,.38-.15,.79-.31,1.24-.46,.4-.14,.67-.52,.67-.94h-1.71Z" fill="#f0f4f6" fill-rule="evenodd"/>
</g>
<g id="f"/>
<g id="g"/>
<g id="h"/>
<g id="i"/>
<g id="j"/>
<g id="k"/>
<g id="l"/>
<g id="m"/>
<g id="n"/>
<g id="o"/>
<g id="p"/>
<g id="q"/>
<g id="r"/>
<g id="s"/>
<g id="t"/>
<g id="u"/>
<g id="v"/>
<g id="w"/>
<g id="x"/>
<g id="y"/>
<g id="a`"/>
<g id="aa"/>
<g id="ab"/>
<g id="ac"/>
<g id="ad"/>
<g id="ae"/>
<g id="af"/>
<g id="ag"/>
<g id="ah"/>
<g id="ai"/>
<g id="aj"/>
<g id="ak"/>
<g id="al"/>
<g id="am"/>
<g id="an"/>
<g id="ao"/>
<g id="ap"/>
<g id="aq"/>
<g id="ar"/>
<g id="as"/>
<g id="at"/>
<g id="au"/>
<g id="av"/>
<g id="aw"/>
<g id="ax"/>
</svg>