<?xml version="1.0" encoding="iso-8859-1"?>
<!-- Uploaded to: SVG Repo, www.svgrepo.com, Generator: SVG Repo Mixer Tools -->
<svg height="800px" width="800px" version="1.1" id="Layer_1" xmlns="http://www.w3.org/2000/svg" xmlns:xlink="http://www.w3.org/1999/xlink" 
	 viewBox="0 0 512 512" xml:space="preserve">
<path style="fill:#894BA2;" d="M361.412,230.78h-75.627c-4.721,0-8.547,3.827-8.547,8.547v264.127c0,4.72,3.826,8.547,8.547,8.547
	h75.627c4.721,0,8.547-3.827,8.547-8.547V239.326C369.958,234.606,366.133,230.78,361.412,230.78z"/>
<path style="fill:#763794;" d="M361.412,230.78h-34.187V512h34.187c4.721,0,8.547-3.827,8.547-8.547V239.326
	C369.958,234.606,366.133,230.78,361.412,230.78z"/>
<path style="fill:#3FC8F2;" d="M496.607,156.599h-75.626c-4.721,0-8.547,3.827-8.547,8.547v338.308c0,4.72,3.826,8.547,8.547,8.547
	h75.626c4.721,0,8.547-3.827,8.547-8.547V165.146C505.154,160.426,501.327,156.599,496.607,156.599z"/>
<path style="fill:#0DAACE;" d="M496.607,156.599h-34.187V512h34.187c4.721,0,8.547-3.827,8.547-8.547V165.146
	C505.154,160.426,501.327,156.599,496.607,156.599z"/>
<path style="fill:#F77935;" d="M226.216,315.555h-75.627c-4.72,0-8.547,3.827-8.547,8.547v179.351c0,4.72,3.827,8.547,8.547,8.547
	h75.627c4.72,0,8.547-3.827,8.547-8.547V324.102C234.762,319.382,230.936,315.555,226.216,315.555z"/>
<path style="fill:#D9510D;" d="M226.216,315.555h-34.187V512h34.187c4.72,0,8.547-3.827,8.547-8.547V324.102
	C234.762,319.382,230.936,315.555,226.216,315.555z"/>
<path style="fill:#FFDB56;" d="M91.021,405.09H15.394c-4.72,0-8.547,3.827-8.547,8.547v89.817c0,4.72,3.827,8.547,8.547,8.547
	h75.626c4.72,0,8.547-3.827,8.547-8.547v-89.817C99.567,408.916,95.741,405.09,91.021,405.09z"/>
<path style="fill:#FBA806;" d="M91.021,405.09H56.833V512h34.187c4.72,0,8.547-3.827,8.547-8.547v-89.817
	C99.567,408.916,95.741,405.09,91.021,405.09z"/>
<path style="fill:#E93233;" d="M397.958,88.143l-86.78-85.678c-3.203-3.162-8.309-3.299-11.675-0.312L202.88,87.831
	c-2.656,2.356-3.581,6.108-2.32,9.428c1.26,3.318,4.441,5.514,7.991,5.514h34.441c-29.444,58.575-82.553,99.4-123.199,123.831
	c-47.446,28.519-88.797,41.584-89.21,41.713c-4.032,1.256-6.541,5.268-5.906,9.445c0.635,4.175,4.226,7.263,8.45,7.263
	c62.773,0,118.791-9.791,166.498-29.101c38.432-15.555,71.577-37.279,98.513-64.566c36.584-37.06,51.563-73.952,56.43-88.583h37.385
	c3.467,0,6.59-2.095,7.906-5.301C401.177,94.264,400.425,90.578,397.958,88.143z"/>
<path style="fill:#B32426;" d="M399.86,97.471c1.316-3.207,0.565-6.892-1.902-9.327l-86.78-85.678
	c-3.203-3.162-8.309-3.299-11.675-0.312L281.067,18.5l66.197,65.356h-30.918l-2.319,10.369c0,0-40.471,164.887-277.092,180.984
	c-4.488,0.358-8.588,0.836-12.344,1.406c0.007,0.379,0.03,0.76,0.088,1.144c0.635,4.175,4.226,7.263,8.45,7.263
	c62.773,0,118.791-9.791,166.498-29.101c38.432-15.555,71.577-37.279,98.513-64.566c36.584-37.06,51.563-73.952,56.43-88.583h37.385
	C395.42,102.772,398.544,100.677,399.86,97.471z"/>
</svg>