<?xml version="1.0" encoding="utf-8"?>
<!-- Uploaded to: SVG Repo, www.svgrepo.com, Generator: SVG Repo Mixer Tools -->
<svg version="1.1" id="Uploaded to svgrepo.com" xmlns="http://www.w3.org/2000/svg" xmlns:xlink="http://www.w3.org/1999/xlink" 
	 width="800px" height="800px" viewBox="0 0 32 32" xml:space="preserve">
<style type="text/css">
	.cubies_zesentwintig{fill:#65C3AB;}
	.cubies_tweeentwintig{fill:#D97360;}
	.cubies_twintig{fill:#F9E0BD;}
	.cubies_negentien{fill:#F2C99E;}
	.cubies_dertien{fill:#A4C83F;}
	.cubies_veertien{fill:#BCD269;}
	.st0{fill:#C9483A;}
	.st1{fill:#EDB57E;}
	.st2{fill:#98D3BC;}
	.st3{fill:#E3D4C0;}
	.st4{fill:#FFF2DF;}
	.st5{fill:#CCE2CD;}
	.st6{fill:#4C4842;}
	.st7{fill:#67625D;}
	.st8{fill:#EDEAE5;}
	.st9{fill:#C9C6C0;}
	.st10{fill:#837F79;}
	.st11{fill:#EC9B5A;}
	.st12{fill:#2EB39A;}
	.st13{fill:#725A48;}
	.st14{fill:#8E7866;}
	.st15{fill:#E69D8A;}
	.st16{fill:#65C3AB;}
	.st17{fill:#A5A29C;}
	.st18{fill:#D1DE8B;}
	.st19{fill:#E8E8B5;}
</style>
<g>
	<path class="cubies_dertien" d="M29,0L3,0C1.343,0,0,1.343,0,3l0,13h32V3C32,1.343,30.657,0,29,0z"/>
	<path class="cubies_negentien" d="M29,32H3c-1.657,0-3-1.343-3-3V16h32v13C32,30.657,30.657,32,29,32z"/>
	<path class="cubies_veertien" d="M30,16H0V3c0-1.657,1.343-3,3-3h24c1.657,0,3,1.343,3,3V16z"/>
	<path class="cubies_twintig" d="M15,16v16h12c1.657,0,3-1.343,3-3V16h-6v-2c0.552,0,1-0.448,1-1v-1c0-0.552-0.448-1-1-1h-3
		c-0.552,0-1,0.448-1,1v1c0,0.552,0.448,1,1,1v2H15z"/>
	<path class="cubies_zesentwintig" d="M15,16H0l0,13c0,1.657,1.343,3,3,3h12v-7h2c0,0.552,0.448,1,1,1h1c0.552,0,1-0.448,1-1v-3
		c0-0.552-0.448-1-1-1h-1c-0.552,0-1,0.448-1,1h-2V16z"/>
	<path class="cubies_tweeentwintig" d="M15,16v-6h-2c0,0.552-0.448,1-1,1h-1c-0.552,0-1-0.448-1-1V7c0-0.552,0.448-1,1-1h1
		c0.552,0,1,0.448,1,1h2V0H3C1.343,0,0,1.343,0,3v13h6v2c-0.552,0-1,0.448-1,1v1c0,0.552,0.448,1,1,1h3c0.552,0,1-0.448,1-1v-1
		c0-0.552-0.448-1-1-1v-2H15z"/>
</g>
</svg>