<?xml version="1.0" encoding="iso-8859-1"?>
<!-- Uploaded to: SVG Repo, www.svgrepo.com, Generator: SVG Repo Mixer Tools -->
<svg height="800px" width="800px" version="1.1" id="Layer_1" xmlns="http://www.w3.org/2000/svg" xmlns:xlink="http://www.w3.org/1999/xlink" 
	 viewBox="0 0 512 512" xml:space="preserve">
<path style="fill:#FFDC64;" d="M423.887,70.442c-9.966,0-19.001-5.505-23.566-14.367c-0.397-0.772-1.899-3.305-4.357-3.305H116.039
	c-2.46,0-3.961,2.533-4.357,3.309c-4.565,8.857-13.6,14.363-23.566,14.363c-14.617,0-26.508-11.891-26.508-26.508
	c0-4.88,3.952-8.836,8.836-8.836s8.836,3.956,8.836,8.836c0,4.871,3.961,8.836,8.836,8.836c3.322,0,6.333-1.833,7.861-4.789
	c4.16-8.068,11.658-12.883,20.062-12.883h279.925c8.404,0,15.903,4.815,20.062,12.879c1.528,2.96,4.538,4.794,7.861,4.794
	c4.875,0,8.836-3.965,8.836-8.836c0-4.88,3.952-8.836,8.836-8.836s8.836,3.956,8.836,8.836
	C450.395,58.551,438.504,70.442,423.887,70.442z"/>
<g>
	<path style="fill:#FFC350;" d="M299.29,35.098H212.71c-0.58,2.855-0.89,5.81-0.89,8.836c0,3.026,0.31,5.981,0.89,8.836h25.618
		v415.297h35.344V52.77h25.618c0.58-2.855,0.89-5.81,0.89-8.836C300.181,40.908,299.87,37.953,299.29,35.098z"/>
	<path style="fill:#FFC350;" d="M96.615,50.34c-1.087-3.793-4.556-6.407-8.499-6.407s-7.412,2.614-8.499,6.407L8.927,297.751
		l17,4.858L88.115,84.934l62.19,217.675l17-4.858L96.615,50.34z"/>
	<path style="fill:#FFC350;" d="M432.386,50.34c-1.087-3.793-4.556-6.407-8.499-6.407s-7.412,2.614-8.499,6.407l-70.689,247.411
		l17,4.858l62.19-217.675l62.19,217.675l17-4.858L432.386,50.34z"/>
</g>
<g>
	<path style="fill:#FFDC64;" d="M353.198,494.575H158.804c-9.761,0-17.672-7.912-17.672-17.672l0,0
		c0-9.761,7.912-17.672,17.672-17.672h194.394c9.761,0,17.672,7.912,17.672,17.672l0,0
		C370.871,486.662,362.958,494.575,353.198,494.575z"/>
	<circle style="fill:#FFDC64;" cx="256.005" cy="43.934" r="26.508"/>
	<path style="fill:#FFDC64;" d="M169.575,291.345c3.765,0,6.925,3.145,6.635,6.899c-3.519,45.577-41.617,81.462-88.096,81.462
		S3.539,343.819,0.018,298.243c-0.289-3.754,2.87-6.899,6.635-6.899H169.575z"/>
</g>
<path style="fill:#FFC350;" d="M61.62,298.242c-0.218-3.754,2.158-6.899,4.99-6.899H6.654c-3.765,0-6.925,3.145-6.635,6.899
	c3.52,45.577,41.617,81.462,88.096,81.462c7.856,0,15.443-1.103,22.694-3.027C84,367.218,63.819,336.115,61.62,298.242z"/>
<path style="fill:#FFDC64;" d="M505.347,291.345c3.765,0,6.925,3.145,6.635,6.899c-3.519,45.577-41.617,81.462-88.096,81.462
	s-84.576-35.887-88.096-81.462c-0.289-3.754,2.87-6.899,6.635-6.899H505.347z"/>
<g>
	<path style="fill:#FFC350;" d="M397.392,298.242c-0.218-3.754,2.158-6.899,4.99-6.899h-59.956c-3.765,0-6.925,3.145-6.635,6.899
		c3.52,45.577,41.617,81.462,88.096,81.462c7.856,0,15.443-1.103,22.694-3.027C419.772,367.218,399.591,336.115,397.392,298.242z"/>
	<path style="fill:#FFC350;" d="M220.657,476.903c0-9.761,7.913-17.672,17.672-17.672h-79.525c-9.759,0-17.672,7.912-17.672,17.672
		c0,9.759,7.913,17.672,17.672,17.672h79.525C228.569,494.575,220.657,486.662,220.657,476.903z"/>
</g>
</svg>