<?xml version="1.0" encoding="utf-8"?>
<!-- Generator: Adobe Illustrator 26.3.1, SVG Export Plug-In . SVG Version: 6.00 Build 0)  -->
<svg version="1.1" id="Capa_1" xmlns="http://www.w3.org/2000/svg" xmlns:xlink="http://www.w3.org/1999/xlink" x="0px" y="0px"
	 viewBox="0 0 31.2 31.2" style="enable-background:new 0 0 31.2 31.2;" xml:space="preserve">
<g>
	<g>
		<path fill="hsl(192, 50%, 30%)" d="M4.9,13.6c-4.8,0.8-4.6,3.7-4.9,5c-0.6,3.5,3,7.3,3,7.3l-0.2,4h5.8l0.4-1.8c0,0,0.3,0.4,1.8,0.5c1.5,0.1,1.3-1.7,1.3-1.7
			s1-0.4,1-0.8s-0.6-0.8-0.6-0.8s0.6,0.1,0.9-0.2c0.2-0.3-0.3-1.2-0.3-1.2s0.8,0,1.2-0.5s-1.5-2-1.5-3C14,15.3,9.7,12.9,4.9,13.6z"
			/>
		<path fill="hsl(192, 50%, 30%)" d="M31.2,19.7c-0.3-1.4-0.1-4.3-4.9-5c-4.8-0.8-9.1,1.7-8,7c0,1-1.9,2.5-1.5,3s1.2,0.5,1.2,0.5s-0.5,1-0.3,1.2
			c0.2,0.3,0.9,0.2,0.9,0.2s-0.6,0.4-0.6,0.8c0,0.3,1,0.8,1,0.8s-0.2,1.8,1.3,1.7c1.5-0.1,1.8-0.5,1.8-0.5l0.4,1.9h5.8l-0.2-4
			C28.2,27,31.7,23.2,31.2,19.7z"/>
		<path fill="hsl(192, 50%, 30%)" d="M14.6,11.5l-1.8,3.1l0.8-0.1c0.1,0,5.1-0.8,8.5-1.8c4.5-1.3,7.1-3.6,7.1-6.1c0-3.5-4.1-6.3-9.1-6.3c-5,0-9.1,2.8-9.1,6.3
			C11,8.4,12.4,10.3,14.6,11.5z"/>
	</g>
</g>
</svg>
