<svg xmlns="http://www.w3.org/2000/svg" viewBox="0 0 234.5 397.09"><defs><style>.cls-1{fill:#010000;}.cls-2{fill:#890201;}.cls-3{fill:#115bcb;}</style></defs><g id="Layer_2" data-name="Layer 2"><g id="Layer_1-2" data-name="Layer 1"><path class="cls-1" d="M113.82,0c29.26-.22,54.65,9.74,77.45,27.46C207.53,40.09,217.59,56.76,223,76.2a387.66,387.66,0,0,1,9.61,42.36,137.59,137.59,0,0,1,1.51,31.85c-1.15,15.45-5.1,30.49-9.55,45.41-2.67,9-3.72,18.45-5.11,27.76-1.08,7.29-1.82,14.66-2.2,22a33.35,33.35,0,0,0,1.41,10.12,17.78,17.78,0,0,1-2.3,14.7c-13,20.77-26.11,41.48-39,62.31-8.22,13.26-16.23,26.65-24.17,40.08-1.65,2.79-2.33,6.14-3.92,9-4.1,7.35-10.57,11.58-18.69,13.52-9.29,2.22-18.69,2.67-27.72-.46C92.33,391.19,86.05,383.21,81.41,373a267,267,0,0,0-19.2-35.45c-8.16-12.53-17.7-24.19-26.84-36.07C29.51,293.86,23.8,286,17,279.22c-5-5.07-6.57-10.44-5.57-16.92a69.84,69.84,0,0,1,2.91-12.4c2.44-7.05.88-14-.52-20.72-3.33-16.1-7.51-32-10.67-48.15C1.61,173,1.4,164.62.82,156.39.36,149.94-.3,143.43.15,137c1-13.87.34-27.94,4.38-41.48,5.64-18.91,13.33-36.82,25.35-52.69C46.21,21.29,66.92,6.68,94,2.16,100.53,1.07,107.2.7,113.82,0ZM202.6,249.93l-.72-.08c-1.37,4.19-2.69,8.41-4.15,12.57-.23.65-1.07,1.08-1.62,1.6-.47-.6-1.18-1.13-1.36-1.81-.85-3.14-1.56-6.32-2.32-9.48-1.24,8.18-2.6,16.06-5.85,23.45l-1.39-.12v-16.6l-1.06-.08c-.22.74-.5,1.47-.65,2.22-1.48,7.77-2.89,15.56-4.45,23.33-.17.86-1.07,1.58-1.63,2.36a8.9,8.9,0,0,1-1.24-2.64c-.57-6.14-1-12.28-1.5-18.43-2.07,11-1.73,22.23-4.34,33l-1.37,0-2.79-23.17c-2.46,10.22-1.89,20.83-4.93,30.8l-1.3-.1-2.82-22.56h-.34l-3.45,26.32-1.72-.09c-.64-12.22-1.27-24.45-1.92-36.93-.32.45-.56.64-.58.85-1.29,11.08-2.53,22.16-3.87,33.23a18.12,18.12,0,0,1-1.4,3.86l-1.14-.38L140,278.28c-.72,5.28-1,10.55-1.44,15.79q-1.05,12.06-2.4,24.07c-.09.81-1.18,1.51-2.34,2.89-1.26-14.47-2.43-27.82-3.59-41.18l-.6,0L125,322.51h-1.84q-1.84-12.48-3.7-25a151.63,151.63,0,0,0-2.59,15.76c-.15,1.1-1.06,2.09-1.62,3.12a12.7,12.7,0,0,1-1.3-3.33c-.84-10.36-1.58-20.73-2.34-31.1a1.57,1.57,0,0,0-.8,1.33c-.51,10.43-1,20.86-1.55,31.28a8.92,8.92,0,0,1-1.21,2.74c-.57-.8-1.48-1.52-1.63-2.39-.88-5-1.53-10-2.35-15-1-6.43-2.17-12.84-3.26-19.26l-1,0v35.68l-1.59.26c-2.73-9.24-5.47-18.48-8.29-28-.71,7.7-1.39,15.12-2.06,22.54l-1.44,0-5.41-23.39-.72.08q-.7,9.78-1.4,19.56l-1.66.07q-2.94-14.32-5.87-28.66l-.77-.1-2.25,23.49-1.23.16c-3.61-7.86-3.43-16.67-5.39-25.84-.92,4.38-1.67,7.93-2.42,11.48l-1.46,0c-1.53-6.51-3.05-13-4.83-20.6,0,3.37.1,5.7-.05,8A10.12,10.12,0,0,1,52,278.31c-.73-.82-1.84-1.52-2.14-2.48-1.89-6.14-3.61-12.34-5.4-18.57q-.72,5.33-1.43,10.62l-1.11.09q-1.31-3.5-2.59-7l-.55.1c1.36,7.8,2.73,15.59,4.21,24l2.37-12,1.73,0L50.68,296c2-10.14,2-10.14,4.28-11.19q1.82,12.64,3.61,25.25a99,99,0,0,0,2.19-11.74c.11-.69,1.14-1.23,1.75-1.84a6.57,6.57,0,0,1,1,2.14c.15,2.87-.18,5.78.2,8.6.9,6.51,2.11,13,3.2,19.46l.91-.22,2-19.34,1.76-.11c2.29,10.16,1.83,20.83,4.88,30.95a19.49,19.49,0,0,0,.74-4.12c.47-4.18.85-8.37,1.46-12.53.12-.83,1.11-1.53,1.7-2.29a9.16,9.16,0,0,1,1.23,2.72c.36,4.57.47,9.18.84,13.75.22,2.66.78,5.29,1.18,7.94,1.13-3.93,1.23-7.77,1.91-11.51s.14-7.78,3.88-11.39c.67,9.86,1.27,18.79,1.88,27.72l1.11,0c1.42-8,.46-16.53,4.16-24l1.13.25q1.75,20.13,3.52,40.25c2.08-11.79,2.36-23.81,5.76-35.28l1.3.05q1.71,14.58,3.43,29.16h1c1.15-7,2.27-14.09,3.51-21.12a10.55,10.55,0,0,1,1.45-2.83c.49,1.09,1.32,2.15,1.42,3.27.56,6.66,1,13.33,1.41,20,2-6.75,3.32-13.53,4.71-20.29a16.42,16.42,0,0,1,1.45-3.25l1.18.4q2,13.81,4,27.64l.62-.09q1.35-14.23,2.71-28.47h1.54l3.75,15.23.75,0q1.08-10.65,2.15-21.31l1.67,0q1.71,11.3,3.43,22.58c1.83-9,2.75-18,3.76-26.95a8.77,8.77,0,0,1,1.14-2.43c.61.74,1.61,1.4,1.78,2.22,1.51,7.5,2.88,15,4.44,23.31,1.39-11.72,2.71-22.79,4-33.85l1.58,0q1.38,6.49,2.77,13l.55-.06q1.82-10.54,3.65-21.07l1.22,0,1.15,11.38c1.78-6.45,2.8-12.92,4-19.36.17-1,1-1.83,1.6-2.74l1.48.46v10.66h1q3.44-12.3,6.86-24.6l1.25.12v10.54a3.44,3.44,0,0,0,1.8-2.25c1.56-5.87,3-11.76,4.64-17.62.19-.67.92-1.19,1.4-1.78a14.6,14.6,0,0,1,1.47,2.06,5.51,5.51,0,0,1,.25,1.76l.89,0ZM28.92,170.58c1.53,10.5,4,19.63,9.25,27.83,10.07,15.65,28.84,8.85,34.56-3.28Zm177.43-.06L162,195.43c1.74,2.13,3,3.87,4.42,5.36,8.16,8.29,20.06,9.19,27.29,1.63C201.86,193.86,204.23,182.79,206.35,170.52ZM31.22,249.69c.66,6.15,1.27,11.9,1.92,17.92.5-.39.63-.44.68-.54,1.58-3.4,0-8.11,4.35-10.4.16-.09.12-.72,0-1.07-.51-2.23-1.05-4.44-1.61-6.74l-1.79,3.31Z"/><path class="cls-2" d="M202.6,249.93l-1.55,23.54-.89,0a5.51,5.51,0,0,0-.25-1.76,14.6,14.6,0,0,0-1.47-2.06c-.48.59-1.21,1.11-1.4,1.78-1.59,5.86-3.08,11.75-4.64,17.62a3.44,3.44,0,0,1-1.8,2.25V280.74l-1.25-.12q-3.42,12.3-6.86,24.6h-1V294.55l-1.48-.46c-.55.91-1.43,1.77-1.6,2.74-1.17,6.44-2.19,12.91-4,19.36l-1.15-11.38-1.22,0q-1.83,10.53-3.65,21.07l-.55.06q-1.38-6.5-2.77-13l-1.58,0c-1.31,11.06-2.63,22.13-4,33.85-1.56-8.28-2.93-15.81-4.44-23.31-.17-.82-1.17-1.48-1.78-2.22a8.77,8.77,0,0,0-1.14,2.43c-1,9-1.93,18-3.76,26.95q-1.71-11.29-3.43-22.58l-1.67,0q-1.07,10.66-2.15,21.31l-.75,0L136.62,334h-1.54q-1.37,14.24-2.71,28.47l-.62.09q-2-13.83-4-27.64l-1.18-.4a16.42,16.42,0,0,0-1.45,3.25c-1.39,6.76-2.67,13.54-4.71,20.29-.45-6.67-.85-13.34-1.41-20-.1-1.12-.93-2.18-1.42-3.27a10.55,10.55,0,0,0-1.45,2.83c-1.24,7-2.36,14.08-3.51,21.12h-1q-1.71-14.58-3.43-29.16l-1.3-.05c-3.4,11.47-3.68,23.49-5.76,35.28q-1.77-20.13-3.52-40.25l-1.13-.25c-3.7,7.43-2.74,16-4.16,24l-1.11,0c-.61-8.93-1.21-17.86-1.88-27.72-3.74,3.61-3.22,7.76-3.88,11.39s-.78,7.58-1.91,11.51c-.4-2.65-1-5.28-1.18-7.94-.37-4.57-.48-9.18-.84-13.75A9.16,9.16,0,0,0,80.34,319c-.59.76-1.58,1.46-1.7,2.29-.61,4.16-1,8.35-1.46,12.53a19.49,19.49,0,0,1-.74,4.12c-3-10.12-2.59-20.79-4.88-30.95l-1.76.11-2,19.34-.91.22c-1.09-6.48-2.3-12.95-3.2-19.46-.38-2.82-.05-5.73-.2-8.6a6.57,6.57,0,0,0-1-2.14c-.61.61-1.64,1.15-1.75,1.84A99,99,0,0,1,58.57,310q-1.8-12.61-3.61-25.25c-2.3,1.05-2.3,1.05-4.28,11.19l-3.63-22.78-1.73,0-2.37,12c-1.48-8.45-2.85-16.24-4.21-24l.55-.1q1.29,3.48,2.59,7l1.11-.09q.72-5.29,1.43-10.62c1.79,6.23,3.51,12.43,5.4,18.57.3,1,1.41,1.66,2.14,2.48A10.12,10.12,0,0,0,53,275.52c.15-2.32.05-4.65.05-8,1.78,7.59,3.3,14.09,4.83,20.6l1.46,0c.75-3.55,1.5-7.1,2.42-11.48,2,9.17,1.78,18,5.39,25.84l1.23-.16,2.25-23.49.77.1q2.94,14.33,5.87,28.66l1.66-.07q.7-9.78,1.4-19.56l.72-.08,5.41,23.39,1.44,0c.67-7.42,1.35-14.84,2.06-22.54,2.82,9.51,5.56,18.75,8.29,28l1.59-.26V280.71l1,0c1.09,6.42,2.22,12.83,3.26,19.26.82,5,1.47,10.05,2.35,15,.15.87,1.06,1.59,1.63,2.39a8.92,8.92,0,0,0,1.21-2.74c.57-10.42,1-20.85,1.55-31.28a1.57,1.57,0,0,1,.8-1.33c.76,10.37,1.5,20.74,2.34,31.1a12.7,12.7,0,0,0,1.3,3.33c.56-1,1.47-2,1.62-3.12a151.63,151.63,0,0,1,2.59-15.76q1.85,12.49,3.7,25H125l4.56-42.69.6,0c1.16,13.36,2.33,26.71,3.59,41.18,1.16-1.38,2.25-2.08,2.34-2.89q1.35-12,2.4-24.07c.46-5.24.72-10.51,1.44-15.79l2.73,32.77,1.14.38a18.12,18.12,0,0,0,1.4-3.86c1.34-11.07,2.58-22.15,3.87-33.23,0-.21.26-.4.58-.85.65,12.48,1.28,24.71,1.92,36.93l1.72.09,3.45-26.32h.34l2.82,22.56,1.3.1c3-10,2.47-20.58,4.93-30.8L169,299.23l1.37,0c2.61-10.8,2.27-22,4.34-33,.48,6.15.93,12.29,1.5,18.43a8.9,8.9,0,0,0,1.24,2.64c.56-.78,1.46-1.5,1.63-2.36,1.56-7.77,3-15.56,4.45-23.33.15-.75.43-1.48.65-2.22l1.06.08v16.6l1.39.12c3.25-7.39,4.61-15.27,5.85-23.45.76,3.16,1.47,6.34,2.32,9.48.18.68.89,1.21,1.36,1.81.55-.52,1.39-.95,1.62-1.6,1.46-4.16,2.78-8.38,4.15-12.57Z"/><path class="cls-3" d="M28.92,170.58l43.81,24.55c-5.72,12.13-24.49,18.93-34.56,3.28C32.9,190.21,30.45,181.08,28.92,170.58Z"/><path class="cls-3" d="M206.35,170.52c-2.12,12.27-4.49,23.34-12.69,31.9-7.23,7.56-19.13,6.66-27.29-1.63-1.47-1.49-2.68-3.23-4.42-5.36Z"/><path class="cls-2" d="M31.22,249.69l3.59,2.48,1.79-3.31c.56,2.3,1.1,4.51,1.61,6.74.08.35.12,1,0,1.07-4.3,2.29-2.77,7-4.35,10.4,0,.1-.18.15-.68.54C32.49,261.59,31.88,255.84,31.22,249.69Z"/></g></g></svg>