<?xml version="1.0" encoding="utf-8"?>
<!-- Generator: Adobe Illustrator 25.3.1, SVG Export Plug-In . SVG Version: 6.00 Build 0)  -->
<svg version="1.1" id="Layer_1" xmlns="http://www.w3.org/2000/svg" xmlns:xlink="http://www.w3.org/1999/xlink" x="0px" y="0px"
	 viewBox="0 0 350 350" style="enable-background:new 0 0 350 350;" xml:space="preserve">
<style type="text/css">
	.st0{fill:url(#SVGID_1_);}
	.st1{fill:#FFFFFF;}
</style>
<linearGradient id="SVGID_1_" gradientUnits="userSpaceOnUse" x1="0" y1="2" x2="350" y2="352" gradientTransform="matrix(1 0 0 -1 0 352)">
	<stop  offset="0" style="stop-color:#303653"/>
	<stop  offset="1" style="stop-color:#637BBA"/>
</linearGradient>
<path class="st0" d="M350,0H0v350h350V0z"/>
<path class="st1" d="M47.2,149.1h8.4v51.8h-8.4v24h54.1v-24h-8.4v-51.8h8.4v-24H47.2V149.1z"/>
<path class="st1" d="M154.9,163.4v-14.3h14.4c1.9,0.1,3.6,0.9,4.9,2.2c1.3,1.3,2,3.1,2.1,5c0,1.9-0.8,3.7-2.2,5
	c-1.3,1.3-3.1,2.1-5,2.2H154.9z M169.9,201.1h-14.9v-14.9h15c2,0,3.9,0.8,5.3,2.2c1.4,1.4,2.2,3.3,2.2,5.3c0,1-0.2,2-0.6,2.9
	s-0.9,1.7-1.6,2.4c-0.7,0.7-1.5,1.2-2.4,1.6C171.8,200.9,170.8,201.1,169.9,201.1L169.9,201.1z M196.8,173
	c1.9-0.6,13.5-6.3,13.5-23.2c0-12.9-10.1-25-27.4-25h-70.8v24h8.4v52h-8.4v24h75.8c7-0.4,13.7-3.6,18.4-8.8c4.8-5.2,7.4-12,7.3-19.1
	c0-5.2-1.7-10.2-4.7-14.4c-3-4.2-7.3-7.4-12.2-9V173z"/>
<path class="st1" d="M258.6,163.4c-1.9,0-3.7-0.8-5-2.1c-1.3-1.3-2.1-3.1-2.1-5c0-1.9,0.8-3.7,2.1-5c1.3-1.3,3.2-2.1,5.1-2.1h14.3v7
	h30.8v-30.8h-51.5c-19.4,0-34.6,11.5-34.6,31c0,4,0.8,8,2.4,11.6c1.6,3.7,3.9,7,6.7,9.8c2.9,2.8,6.3,5,10,6.4
	c3.7,1.5,7.7,2.2,11.7,2.1h20.6c2,0,3.9,0.8,5.3,2.2c1.4,1.4,2.2,3.3,2.2,5.3c0,2-0.8,3.9-2.2,5.3c-1.4,1.4-3.3,2.2-5.3,2.2h-15.2
	v-7.5h-31.2v31.1h56.6c8.2,0,16.2-3.3,22-9.1c5.8-5.8,9.1-13.7,9.1-22c0-4.1-0.9-8.1-2.4-11.8c-1.6-3.7-3.9-7.1-6.8-9.9
	c-2.9-2.8-6.3-5.1-10.1-6.6c-3.8-1.5-7.8-2.2-11.8-2.2H258.6z"/>
</svg>
