<svg xmlns="http://www.w3.org/2000/svg" viewBox="0 0 140.95 167.85"><defs><style>.cls-1{fill:#feca09;}.cls-2{fill:#fecb0e;}</style></defs><g id="Layer_2" data-name="Layer 2"><g id="Layer_1-2" data-name="Layer 1"><path class="cls-1" d="M140.93,84q0,34.13,0,68.25c0,5.95-1.09,11.38-7.12,14.06a19.36,19.36,0,0,1-7.58,1.48q-40.87.15-81.75,0c-10,0-15.93-6.59-14.14-15.26,1.19-5.78,6-9.69,12.5-9.73,13.25-.09,26.5,0,39.75,0,4.88,0,4.89,0,4.89-5.05,0-16.75-.11-33.5.09-50.25,0-3.73-.85-5-4.75-4.9-13.5.23-27,.14-40.5,0a11.56,11.56,0,0,1-11.21-7.33,11.94,11.94,0,0,1,1.76-13c2.82-3.46,6.71-4.47,11-4.47q33.56.06,67.12,0c5,0,5,0,5-4.9,0-8-.14-16,.08-24,.08-3.18-1-4-4-4q-34.32.16-68.63,0c-9.24,0-14.87-6.79-13-15.44C31.6,3.93,36.52.15,43.15.07,52.77,0,62.4,0,72,0q26.82,0,53.63,0c10.71,0,15.25,4.54,15.27,15.31Q141,49.66,140.93,84Z"/><path class="cls-2" d="M25.08,155.21a12.61,12.61,0,0,1-12.7,12.51C5.64,167.61-.14,161.77,0,155.19a12.85,12.85,0,0,1,12.61-12.35A12.66,12.66,0,0,1,25.08,155.21Z"/><path class="cls-2" d="M25.08,12.63A12.49,12.49,0,0,1,12.58,24.9,12.7,12.7,0,0,1,0,12.58C-.09,5.88,6,0,12.8.11A12.51,12.51,0,0,1,25.08,12.63Z"/><path class="cls-2" d="M25.08,70A12.43,12.43,0,0,1,12.91,82.61,12.76,12.76,0,0,1,0,70.26,12.53,12.53,0,0,1,25.08,70Z"/></g></g></svg>