<svg xmlns="http://www.w3.org/2000/svg" xmlns:xlink="http://www.w3.org/1999/xlink" width="55.324" height="46.324" viewBox="0 0 55.324 46.324">
  <defs>
    <clipPath id="clip-path">
      <rect id="Rectangle_446" data-name="Rectangle 446" width="256.92" height="46.324" fill="none"/>
    </clipPath>
  </defs>
  <g id="Group_103" data-name="Group 103" transform="translate(0 0)">
    <g id="Group_102" data-name="Group 102" transform="translate(0 0)" clip-path="url(#clip-path)">
      <path id="Path_299" data-name="Path 299" d="M56.827,74.733C35.084,76.02,22.534,79.68,17.521,81.474a1.254,1.254,0,0,0-.138,2.246c2.307,1.211,6.795,3.612,15.507,8.375a1.1,1.1,0,0,0,1.588-.717C37.933,79.185,53.041,77.443,56.959,77.2a1.18,1.18,0,0,0,1.054-1.252v-.037a1.165,1.165,0,0,0-1.185-1.173" transform="translate(-10.327 -46.073)" fill="#083"/>
      <path id="Path_314" data-name="Path 314" d="M41.812,24.885l-.048-.1a.569.569,0,0,0-.029-.054,4.877,4.877,0,0,0-.347-.621L27.489.965A1.663,1.663,0,0,0,24.508.89L17.539,11.363a1.165,1.165,0,0,1-.965.556,1.136,1.136,0,0,1-.765-.31L13.355,9.393a2.209,2.209,0,0,0-3.335.392L.489,23.207c-.417.587-.6.947-.422,1.286a.567.567,0,0,0,.507.3c.218,0,.451-.094.993-.572l9.8-8.64a1.386,1.386,0,0,1,.919-.344,1.43,1.43,0,0,1,1.071.481l4.212,4.761a1.543,1.543,0,0,0,1.086.649.757.757,0,0,0,.586-.271,1.621,1.621,0,0,0,.2-1.337L19.2,18.057a1.284,1.284,0,0,1,1.212-1.54c2.548-.334,3.97,1.956,5.425,3.63a1.516,1.516,0,0,0,1.074.663.72.72,0,0,0,.566-.268,1.579,1.579,0,0,0,.143-1.341l-1.206-6c-.154-.767-.488-2.233.232-2.835a1.279,1.279,0,0,1,.525-.229,1.2,1.2,0,0,1,.845.028,1.659,1.659,0,0,1,.453.354c2.344,2.818,4.643,5.613,6.993,8.427.22.263.44.526.657.792l3.841,4.705.359.44c.06.073.121.15.184.225l.086.1a.546.546,0,0,0,.069.071,1.832,1.832,0,0,0,.262.227l.029.025a.549.549,0,0,0,.235.114.573.573,0,0,0,.072.018.466.466,0,0,0,.167-.009.456.456,0,0,0,.118-.044c.013-.006.028-.008.041-.015a.554.554,0,0,0,.229-.719" transform="translate(0 0)" fill="#083"/>
      <path id="Path_315" data-name="Path 315" d="M111.6,28.6a2.445,2.445,0,0,0-.557-.872c-.46-.581-.915-1.163-1.373-1.744L97.9,10.74a2.228,2.228,0,0,0-2.68-.672c-1.8.657-3.38,3.039-3.38,3.039a4.693,4.693,0,0,0-1.226,3.37,1.257,1.257,0,0,0,1.242,1.176,2.063,2.063,0,0,0,1.285-.54,1.306,1.306,0,0,1,.842-.308,1.276,1.276,0,0,1,1.016.5,1.489,1.489,0,0,0,1.13.7c.23,0,.989-.1,1.075-1.454a.947.947,0,0,1,.052-.282.245.245,0,0,1,.149-.149.328.328,0,0,1,.267.076,7.273,7.273,0,0,1,.893.861l.729.728,1.961,1.958,2.348,2.344L106,24.48l2.109,2.106,1.483,1.48.52.519c.27.27.564.641.982.671a.5.5,0,0,0,.51-.657" transform="translate(-55.849 -6.073)" fill="#083"/>
    </g>
  </g>
</svg>