<svg xmlns="http://www.w3.org/2000/svg" xmlns:xlink="http://www.w3.org/1999/xlink" width="256.92" height="46.324" viewBox="0 0 256.92 46.324">
  <defs>
    <clipPath id="clip-path">
      <rect id="Rectangle_446" data-name="Rectangle 446" width="256.92" height="46.324" fill="none"/>
    </clipPath>
  </defs>
  <g id="Group_103" data-name="Group 103" transform="translate(0 0)">
    <g id="Group_102" data-name="Group 102" transform="translate(0 0)" clip-path="url(#clip-path)">
      <path id="Path_299" data-name="Path 299" d="M56.827,74.733C35.084,76.02,22.534,79.68,17.521,81.474a1.254,1.254,0,0,0-.138,2.246c2.307,1.211,6.795,3.612,15.507,8.375a1.1,1.1,0,0,0,1.588-.717C37.933,79.185,53.041,77.443,56.959,77.2a1.18,1.18,0,0,0,1.054-1.252v-.037a1.165,1.165,0,0,0-1.185-1.173" transform="translate(-10.327 -46.073)" fill="#083"/>
      <path id="Path_300" data-name="Path 300" d="M189.607,16.21c0,4.243-3.918,7.13-11.4,7.13-5.3,0-9.752-1.444-12.993-4.037l3.153-3.713a15.124,15.124,0,0,0,9.958,3.212c3.536,0,5.3-.648,5.3-2,0-1.326-1.65-1.767-5.893-2.121-6.128-.53-11.7-1.886-11.7-6.482,0-4.42,4.773-6.836,11.314-6.836,4.419,0,8.485,1.061,11.314,3.064L185.63,8.167a14.157,14.157,0,0,0-8.279-2.3c-2.416,0-5.333.383-5.333,1.856,0,1.385,2.386,1.562,6.069,1.856,6.747.56,11.52,1.886,11.52,6.629" transform="translate(-101.856 -0.839)" fill="#67737a"/>
      <path id="Path_301" data-name="Path 301" d="M258.129,19.156v4.6H236.12V3.128H257.8v4.6H242.042v3.388h12.993V15.5H242.042v3.653Z" transform="translate(-145.572 -1.929)" fill="#67737a"/>
      <path id="Path_302" data-name="Path 302" d="M318.16,15.3l5.156,2.652c-1.916,3.035-6.069,5.392-11.638,5.392-7.779,0-13.023-4.037-13.023-10.99S303.9,1.361,311.914,1.361c5.332,0,9.457,2.416,11.313,5.362l-5.185,2.651a6.844,6.844,0,0,0-6.217-3.123c-4.243,0-7.071,2.151-7.071,6.1s2.828,6.1,7.071,6.1A6.975,6.975,0,0,0,318.16,15.3" transform="translate(-184.126 -0.839)" fill="#67737a"/>
      <path id="Path_303" data-name="Path 303" d="M393.748,3.128v10.9c0,6.276-4.272,10.4-11.962,10.4S369.8,20.305,369.8,14.029V3.128h6.01v10.43c0,3.595,2,5.922,5.981,5.922s5.951-2.327,5.951-5.922V3.128Z" transform="translate(-227.985 -1.928)" fill="#67737a"/>
      <path id="Path_304" data-name="Path 304" d="M461.431,23.752l-5.45-6.512h-6.069v6.512H443.93V3.128H458.4c5.274,0,9.369,2.328,9.369,7.042,0,3.447-2.18,5.627-5.421,6.57l6.069,7.012ZM457.954,12.88c2.151,0,3.712-.589,3.712-2.593s-1.561-2.593-3.712-2.593h-8.073V12.88Z" transform="translate(-273.69 -1.928)" fill="#67737a"/>
      <rect id="Rectangle_445" data-name="Rectangle 445" width="6.01" height="20.624" transform="translate(197.932 1.2)" fill="#67737a"/>
      <path id="Path_305" data-name="Path 305" d="M562.517,7.93h-8.574V23.752h-6.011V7.93h-8.515v-4.8h23.1Z" transform="translate(-332.56 -1.928)" fill="#67737a"/>
      <path id="Path_306" data-name="Path 306" d="M610.284,3.128l6.01,8.9,5.981-8.9h6.688L619.27,16.8v6.953h-6.01V16.8L603.566,3.128Z" transform="translate(-372.108 -1.929)" fill="#67737a"/>
      <path id="Path_307" data-name="Path 307" d="M172.124,89.975c3.6,0,5.039-2.069,5.039-5.307v-9.64h2.921v9.86c0,4.309-2.459,7.693-7.96,7.693-3.286,0-5.4-1.12-6.744-2.946l2.215-1.7c.974,1.387,2.264,2.045,4.528,2.045" transform="translate(-101.959 -46.256)" fill="#67737a"/>
      <path id="Path_308" data-name="Path 308" d="M231.6,82.727c0-5.624,4.041-9.032,10.59-9.032s10.59,3.408,10.59,9.032-4.042,9.032-10.59,9.032-10.59-3.408-10.59-9.032m18.185,0c0-4.139-2.97-6.451-7.6-6.451s-7.62,2.312-7.62,6.451,2.97,6.451,7.62,6.451c4.625,0,7.6-2.312,7.6-6.451" transform="translate(-142.783 -45.434)" fill="#67737a"/>
      <path id="Path_309" data-name="Path 309" d="M333.289,75.028v9.007c0,5.039-3.238,8.545-9.275,8.545-6.013,0-9.251-3.506-9.251-8.545V75.028h2.921V83.84c0,3.822,2.264,6.135,6.33,6.135,4.09,0,6.354-2.313,6.354-6.135V75.028Z" transform="translate(-194.057 -46.256)" fill="#67737a"/>
      <path id="Path_310" data-name="Path 310" d="M409.442,92.069l-5.283-6.183h-7.182v6.183h-2.921V75.028h11.588c3.968,0,6.89,1.9,6.89,5.429,0,2.946-2.045,4.747-5.016,5.283l5.526,6.329Zm-3.992-8.691c2.434,0,4.089-.779,4.089-2.9s-1.655-2.9-4.089-2.9h-8.5v5.794Z" transform="translate(-242.942 -46.256)" fill="#67737a"/>
      <path id="Path_311" data-name="Path 311" d="M490.1,75.028V92.069h-2.581L474.206,78.631V92.069h-2.824V75.028H474.5l12.757,12.927V75.028Z" transform="translate(-290.614 -46.256)" fill="#67737a"/>
      <path id="Path_312" data-name="Path 312" d="M568.977,89.513V92.07H552.009V75.029h16.725v2.556H554.906v4.552h11.636v2.556H554.906v4.82Z" transform="translate(-340.323 -46.256)" fill="#67737a"/>
      <path id="Path_313" data-name="Path 313" d="M621.991,75.028l6.5,8.642,6.451-8.642h3.36l-8.374,11.15v5.891h-2.921V86.178l-8.4-11.15Z" transform="translate(-381.381 -46.256)" fill="#67737a"/>
      <path id="Path_314" data-name="Path 314" d="M41.812,24.885l-.048-.1a.569.569,0,0,0-.029-.054,4.877,4.877,0,0,0-.347-.621L27.489.965A1.663,1.663,0,0,0,24.508.89L17.539,11.363a1.165,1.165,0,0,1-.965.556,1.136,1.136,0,0,1-.765-.31L13.355,9.393a2.209,2.209,0,0,0-3.335.392L.489,23.207c-.417.587-.6.947-.422,1.286a.567.567,0,0,0,.507.3c.218,0,.451-.094.993-.572l9.8-8.64a1.386,1.386,0,0,1,.919-.344,1.43,1.43,0,0,1,1.071.481l4.212,4.761a1.543,1.543,0,0,0,1.086.649.757.757,0,0,0,.586-.271,1.621,1.621,0,0,0,.2-1.337L19.2,18.057a1.284,1.284,0,0,1,1.212-1.54c2.548-.334,3.97,1.956,5.425,3.63a1.516,1.516,0,0,0,1.074.663.72.72,0,0,0,.566-.268,1.579,1.579,0,0,0,.143-1.341l-1.206-6c-.154-.767-.488-2.233.232-2.835a1.279,1.279,0,0,1,.525-.229,1.2,1.2,0,0,1,.845.028,1.659,1.659,0,0,1,.453.354c2.344,2.818,4.643,5.613,6.993,8.427.22.263.44.526.657.792l3.841,4.705.359.44c.06.073.121.15.184.225l.086.1a.546.546,0,0,0,.069.071,1.832,1.832,0,0,0,.262.227l.029.025a.549.549,0,0,0,.235.114.573.573,0,0,0,.072.018.466.466,0,0,0,.167-.009.456.456,0,0,0,.118-.044c.013-.006.028-.008.041-.015a.554.554,0,0,0,.229-.719" transform="translate(0 0)" fill="#083"/>
      <path id="Path_315" data-name="Path 315" d="M111.6,28.6a2.445,2.445,0,0,0-.557-.872c-.46-.581-.915-1.163-1.373-1.744L97.9,10.74a2.228,2.228,0,0,0-2.68-.672c-1.8.657-3.38,3.039-3.38,3.039a4.693,4.693,0,0,0-1.226,3.37,1.257,1.257,0,0,0,1.242,1.176,2.063,2.063,0,0,0,1.285-.54,1.306,1.306,0,0,1,.842-.308,1.276,1.276,0,0,1,1.016.5,1.489,1.489,0,0,0,1.13.7c.23,0,.989-.1,1.075-1.454a.947.947,0,0,1,.052-.282.245.245,0,0,1,.149-.149.328.328,0,0,1,.267.076,7.273,7.273,0,0,1,.893.861l.729.728,1.961,1.958,2.348,2.344L106,24.48l2.109,2.106,1.483,1.48.52.519c.27.27.564.641.982.671a.5.5,0,0,0,.51-.657" transform="translate(-55.849 -6.073)" fill="#083"/>
    </g>
  </g>
</svg>
