<svg xmlns="http://www.w3.org/2000/svg" viewBox="0 0 446.74 224.26"><defs><style>.cls-1{fill:#feed37;}.cls-2{fill:#01a487;}.cls-3{fill:#272a54;}.cls-4{fill:#ee877a;}</style></defs><g id="Layer_2" data-name="Layer 2"><g id="Layer_1-2" data-name="Layer 1"><path class="cls-1" d="M146.24,111.54V6.18c0-6.72.26-6.81,6.72-5.56,20,3.87,40,7.5,60,11.45,18.34,3.62,36.62,7.6,54.95,11.3,9.89,2,19.84,3.69,29.75,5.6a19.15,19.15,0,0,1,3.57,1.46l-.21,81.25q-48.94,0-97.89,0C184.19,111.69,165.22,111.6,146.24,111.54Z"/><path class="cls-2" d="M146.24,111.54c19,.06,37.95.15,56.92.16q48.94,0,97.89,0a.49.49,0,0,0,.58.23c-.09,8.81-.26,17.62-.25,26.44q0,41.43.11,82.86a26,26,0,0,1-.46,3L146.1,193.48q0-40.83,0-81.64Z"/><path class="cls-3" d="M146.08,111.84q0,40.82,0,81.64-33.88-6.57-67.78-13.14c-24.86-4.86-49.71-9.74-74.53-14.79-1.43-.29-3.6-2.17-3.62-3.33C-.06,145.59,0,129,0,111.84Z"/><path class="cls-4" d="M301.63,111.91a.49.49,0,0,1-.58-.23l.21-81.25q24.62,4.73,49.23,9.44Q388.73,47.25,427,54.7c6.49,1.27,12.92,2.79,19.78,4.29v52.62c-3.05-.22-5.94-.6-8.83-.6Q375,111,312,111C308.55,111,305.09,111.6,301.63,111.91Z"/></g></g></svg>