<svg xmlns="http://www.w3.org/2000/svg" viewBox="0 0 257 257"><defs><style>.cls-1{fill:#3499d3;}.cls-2{fill:#cbe5f4;}.cls-3{fill:#68b4e0;}.cls-4{fill:#99ccea;}.cls-5{fill:#0d153b;}.cls-6{fill:#fcfcfc;}.cls-7{fill:#0da0ec;}.cls-8{fill:#181f43;}</style></defs><g id="Layer_2" data-name="Layer 2"><g id="Layer_1-2" data-name="Layer 1"><path class="cls-1" d="M256,257H1q0-20.49,0-41Q1,108.59,1.08,1.16C3.24,1.1,5.41,1,7.57,1Q85.26,1,162.94,1q46.45,0,92.92.1c0,2.17.13,4.33.13,6.49Q256,132.3,256,257ZM13.37,14.06v229.7H242.94V14.06Z"/><path class="cls-2" d="M255.86,1.1q-46.46,0-92.92-.1Q85.26,1,7.57,1c-2.16,0-4.33.1-6.49.16L0,1C.67.66,1.33,0,2,0Q128.5,0,255,0c.67,0,1.33.63,2,1Z"/><path class="cls-3" d="M0,1l1.08.17Q1.05,108.59,1,216q0,20.47,0,41a21.83,21.83,0,0,1-1-4.49Q0,126.75,0,1Z"/><path class="cls-4" d="M255.86,1.1,257,1q0,125.76,0,251.51a21.92,21.92,0,0,1-1,4.5q0-124.71,0-249.41C256,5.43,255.9,3.27,255.86,1.1Z"/><path class="cls-5" d="M13.37,14.06H242.94v229.7H13.37ZM152.88,134c.69,1.13,1.44,2.23,2.07,3.39,8,14.75,15.93,29.52,24,44.21.77,1.42,2.32,3.37,3.56,3.41,9.09.29,18.2.15,28.2.15-4.18-7.46-8-14.2-11.75-20.95s-7.51-13.48-11.26-20.2c16-9,22-21.92,19.27-40.6-2.27-15.27-12.1-26.8-28.24-28.7-18.54-2.18-37.39-1.84-56.24-2.61V184.8h28.87V134ZM68.15,97.88v86.84H97.3V97.78h21.36V73.26H46.25V97.88Z"/><path class="cls-6" d="M151.37,134V184.8H122.5V72.1c18.85.77,37.7.43,56.24,2.61,16.14,1.9,26,13.43,28.24,28.7,2.77,18.68-3.24,31.62-19.27,40.6q5.63,10.08,11.26,20.2c3.77,6.75,7.57,13.49,11.75,20.95-10,0-19.11.14-28.2-.15-1.24,0-2.79-2-3.56-3.41-8.08-14.69-16-29.46-24-44.21-.63-1.16-1.38-2.26-2.07-3.39l-1.09-2.74c5.36-.43,10.46-.6,15.48-1.32,7.35-1,11.7-6.07,12.58-13.91.82-7.28-2.77-14.25-9.62-16.1-6-1.63-12.48-1.77-18.86-2.58Z"/><path class="cls-7" d="M68.15,97.88H46.25V73.26h72.41V97.78H97.3v86.94H68.15Z"/><path class="cls-8" d="M151.37,134V97.35c6.38.81,12.83,1,18.86,2.58,6.85,1.85,10.44,8.82,9.62,16.1-.88,7.84-5.23,12.87-12.58,13.91-5,.72-10.12.89-15.48,1.32l1.09,2.74Z"/></g></g></svg>