<?xml version="1.0" encoding="UTF-8"?><svg id="Layer_2" xmlns="http://www.w3.org/2000/svg" viewBox="0 0 917 917"><defs><style>.cls-1{fill:#fab817;}.cls-2{fill:#010102;}.cls-3{fill:#d8b081;}.cls-4{fill:#fcfcfc;}</style></defs><g id="Layer_1-2"><g><path class="cls-1" d="M917,917H0V0c305.67,0,611.33,0,917,0V917Zm-451-309c.75,.59,1.58,1.1,2.25,1.77,5.3,5.26,10.58,10.54,15.84,15.84,.82,.83,1.55,1.75,2.91,1.4,.26,.33,.51,.94,.8,.95,1.49,.1,3,.05,4.5,.05h352.42c1.5,0,3,.05,4.5-.05,.28-.02,.53-.62,.8-.95,2.18-.99,.93-2.89,.94-4.28,.08-39.06,.06-78.12,.06-117.18v-4.04c-3.25-3.25-6.22-6.16-9.12-9.14-3.33-3.42-6.59-6.91-9.88-10.36v-2h-2c-1.46-.75-2.76-1.65-3.11-3.39,2.21-2.21,4.32-4.32,6.44-6.44,2-2,3.98-4.03,6.01-6,1.95-1.89,3.2-4.63,5.36-6.02,2.55-1.66,4.17-4.03,6.3-5.6v-120.26c0-1.5,.05-3-.05-4.49-.02-.28-.62-.53-.95-.79-.26-.33-.51-.94-.8-.95-1.49-.1-3-.05-4.5-.05H492.29c-1.5,0-3-.05-4.5,.05-.28,.02-.53,.62-.8,.95-1.36-.35-2.08,.56-2.91,1.39-6.19,6.22-12.4,12.43-18.62,18.63-.78,.78-1.6,1.5-2.56,2.39-3.16-3.16-6.12-6.01-8.96-8.98-4.14-4.33-9-8.03-11.95-13.43-.26-.33-.51-.94-.79-.95-1.49-.1-2.99-.05-4.49-.05-118.42,0-236.84,0-355.25,0-.46,0-.91-.15-1.29-.21l-.67-2.42c-1.41,1.46-2.45,2.55-3.5,3.64-2.19,1-.93,2.9-.94,4.29-.08,38.33-.06,76.66-.06,114.99v6.22c3.03,3.03,5.87,5.84,8.68,8.69,2.41,2.46,4.51,5.17,7.25,7.37,3.05,2.45,5.63,5.5,8.46,8.32-8.42,8.42-16.52,16.52-24.38,24.38v120.44c0,1.5-.05,3,.05,4.5,.02,.28,.62,.53,.95,.8,.26,.33,.51,.94,.8,.95,1.49,.1,3,.05,4.5,.05H434.71c1.5,0,3,.05,4.5-.05,.28-.02,.53-.62,.8-.95,2.51-2.35,5.04-4.67,7.53-7.04,4.17-3.97,8.31-7.97,12.47-11.96h6Z"/><path class="cls-2" d="M832,482c3.29,3.46,6.55,6.94,9.88,10.36,2.9,2.98,5.87,5.88,9.12,9.14v4.04c0,39.06,.02,78.12-.06,117.18,0,1.39,1.25,3.28-.94,4.28H487c-1.36,.35-2.09-.57-2.91-1.4-5.26-5.29-10.54-10.58-15.84-15.84-.67-.67-1.49-1.18-2.25-1.77-.64-1.47-1.71-2.48-3.36-3.29l-2.64,3.29c-4.15,3.99-8.3,7.99-12.47,11.96-2.49,2.37-5.02,4.7-7.53,7.04H76c-.33-.26-.94-.51-.95-.8-.1-1.49-.05-3-.05-4.5v-120.44c7.87-7.87,15.96-15.96,24.38-24.38-2.83-2.83-5.41-5.87-8.46-8.32-2.74-2.2-4.83-4.92-7.25-7.37-2.8-2.85-5.65-5.66-8.68-8.69v-6.22c0-38.33-.02-76.66,.06-114.99,0-1.39-1.25-3.29,.94-4.29H442c2.95,5.39,7.81,9.1,11.95,13.43,2.84,2.97,5.8,5.83,8.96,8.98,.96-.89,1.79-1.62,2.56-2.39,6.21-6.2,12.43-12.41,18.62-18.63,.82-.83,1.55-1.74,2.91-1.39h363c.33,.26,.94,.51,.95,.79,.1,1.49,.05,2.99,.05,4.49v120.26c-2.14,1.57-3.75,3.94-6.3,5.6-2.15,1.4-3.41,4.13-5.36,6.02-2.03,1.97-4.01,4-6.01,6-2.12,2.12-4.23,4.23-6.44,6.44,.35,1.74,1.65,2.64,3.11,3.39,.67,.67,1.33,1.33,2,2ZM155.81,403c5.71,7.75,11.38,15.02,17.04,22.3,5.78,7.44,11.26,15.09,17.23,22.4,5.93,7.25,11.31,14.95,17.01,22.56-18.81,24.62-37.64,49.26-56.61,74.1,4.56,.87,36.15,1.11,50.57,.46,10.35-13.51,20.83-27.21,31.58-41.24,10.66,13.91,21.15,27.6,31.68,41.34h76.4c.95-1.32,1.86-2.62,2.81-3.89,1.04-1.41,2.12-2.79,3.18-4.19,.95-1.27,1.83-2.6,2.85-3.81,1.03-1.22,2.2-2.24,2.89-3.81,.69-1.56,1.99-2.87,3.12-4.2,1.03-1.22,2.15-2.28,2.91-3.79,.71-1.41,2.76-2.21,3.31-3.63,.71-1.83,2.68-2.59,3.15-4.19,.53-1.81,2.43-2.36,2.9-3.8,.56-1.73,1.95-2.54,2.92-3.8,.97-1.26,1.88-2.55,2.84-3.82,1.05-1.4,2.13-2.78,3.18-4.18,.95-1.27,1.89-2.55,2.83-3.83,.94-1.28,1.88-2.56,2.83-3.83,1.05-1.4,2.13-2.78,3.18-4.18,.95-1.27,1.81-2.61,2.85-3.81,1.09-1.26,2.93-2.19,3.37-3.6,.61-1.95,2.32-2.67,3.24-4.17,1.16-1.9,1.24-1.86,2.83-2.88v34.48h-11.73c-9.73,12.66-19.45,25.32-29.18,37.97l.15,1.68c2.57-.22,4.91-.59,7.26-.59,23.5-.04,47-.03,70.5-.03h4.92v-141.98h-41.35c-7.17,7.66-12.87,16.63-19.56,24.82-6.63,8.13-12.78,16.68-19.13,25.05-6.35,8.38-12.7,16.75-19.15,25.05-6.45,8.29-12.73,16.72-19.11,25.07-6.34,8.3-12.72,16.58-19.12,24.92-2.8-3.54-5.91-6.85-8.25-10.65-1.8-2.92-4.72-4.75-6.31-7.85-1.66-3.24-4.08-6.08-6.58-8.8-1.6-1.73-2.8-3.83-4.22-5.73-2.48-3.31-4.95-6.64-7.5-9.89-2.78-3.54-5.95-6.81-8.33-10.58-1.04-1.65-3.56-3.32-2.29-5.43,8.81-11.34,17.53-21.99,25.6-33.11,7.97-10.98,16.77-21.34,24.75-32.79h-51c-8.29,10.99-16.6,22.01-24.86,32.95-.86-.06-1.49-.1-1.61-.11-8.57-11.25-16.86-22.14-25.09-32.94h-50.86Zm303.29,141.82h41.9c0-19.15,0-38.13,0-57.11,0-.14,.11-.3,.2-.41,.09-.11,.23-.17,.48-.33,10.8,8.35,21.63,16.74,32.49,25.13,5.34-4.25,10.59-8.46,15.86-12.62,2.88-2.27,5.79-4.5,8.72-6.72,2.58-1.95,5.2-3.85,8.36-6.18v58.27h41.69c.69-13.99,.41-136.65-.38-141.26-2.95,2.09-5.79,4.04-8.57,6.09-3.71,2.74-7.44,5.46-11.03,8.36-2.6,2.09-5.69,3.62-8.03,5.87-4.67,4.48-10.24,7.74-15.25,11.75-5.78,4.62-11.78,9.07-17.91,13.3-4.69,3.24-9.11,6.86-13.68,10.35-2.36-1.89-4.42-3.67-6.6-5.28-4.58-3.38-9.27-6.63-13.83-10.04-3.33-2.49-6.35-5.46-9.87-7.64-1.87-1.15-3.08-2.87-4.83-3.98-6.31-3.98-11.93-8.88-18.02-13.17-6.12-4.32-11.87-9.17-17.86-13.69-1.02-.77-2.38-1.08-3.84-1.7v141.03Zm211.08-.5v-72.98c18.66,25.01,36.87,49.43,54.93,73.66h47.06l3.01,1.56c-.38-1.72-.56-2.71-.82-3.69-.62-2.38-3.05-3.37-4.18-5.28-2.37-3.98-5.39-7.51-8.31-11-4.33-5.18-8.28-10.67-12.44-15.96-5.19-6.62-10.36-13.29-15.39-20.06-1.54-2.07-3.69-3.78-4.82-6.02-1.11-2.21-2.79-3.8-4.24-5.65-1.97-2.53-3.93-5.06-5.96-7.67v-2.57c1.19-1.99,2.93-3.16,4.1-5.03,2.37-3.78,5.48-7.1,8.32-10.58,1.73-2.13,3.82-4.03,5.24-6.34,3.25-5.3,7.22-10.09,11.15-14.81,3.3-3.97,6-8.37,9.63-12.15,3.59-3.74,6.08-8.54,9.64-12.45,.96-1.05,1.39-2.58,2.22-4.2h-50.13c-16.18,21.57-32.42,43.21-49.32,65.74v-65.69h-41.7c-.75,16.38-.44,137.62,.35,141.84,11.67,0,23.33-.02,35,.02,1.24,0,2.63-.54,3.73,.68,.25,.27,.86,.22,1.23,.31l1.69-1.69Z"/><path class="cls-3" d="M442,327H76c1.05-1.09,2.09-2.18,3.5-3.64l.67,2.42c.38,.06,.83,.21,1.29,.21,118.42,0,236.84,0,355.25,0,1.5,0,3-.05,4.49,.05,.28,.02,.53,.62,.79,.95Z"/><path class="cls-3" d="M76,627H440c-.26,.33-.51,.94-.8,.95-1.49,.1-3,.05-4.5,.05H81.29c-1.5,0-3,.05-4.5-.05-.28-.02-.53-.62-.8-.95Z"/><path class="cls-3" d="M850,327H487c.26-.33,.51-.94,.8-.95,1.49-.1,3-.05,4.5-.05h352.42c1.5,0,3-.05,4.5,.05,.28,.02,.53,.62,.8,.95Z"/><path class="cls-3" d="M487,627h363c-.26,.33-.51,.94-.8,.95-1.49,.1-3,.05-4.5,.05H492.29c-1.5,0-3,.05-4.5-.05-.28-.02-.53-.62-.8-.95Z"/><path class="cls-3" d="M460,608l2.64-3.29c1.65,.81,2.72,1.82,3.36,3.29h-6Z"/><path class="cls-3" d="M832,482c-.67-.67-1.33-1.33-2-2h2v2Z"/><path class="cls-4" d="M155.81,403h50.86c8.23,10.8,16.52,21.69,25.09,32.94,.11,0,.75,.05,1.61,.11,8.26-10.94,16.57-21.96,24.86-32.95h51c-7.98,11.45-16.78,21.81-24.75,32.79-8.08,11.12-16.79,21.77-25.6,33.11-1.27,2.11,1.25,3.78,2.29,5.43,2.38,3.78,5.56,7.05,8.33,10.58,2.55,3.25,5.02,6.58,7.5,9.89,1.42,1.9,2.62,4,4.22,5.73,2.51,2.72,4.92,5.56,6.58,8.8,1.59,3.11,4.52,4.93,6.31,7.85,2.33,3.8,5.45,7.11,8.25,10.65,6.4-8.34,12.77-16.62,19.12-24.92,6.38-8.35,12.66-16.78,19.11-25.07,6.46-8.29,12.8-16.67,19.15-25.05,6.35-8.38,12.5-16.92,19.13-25.05,6.68-8.2,12.39-17.16,19.56-24.82h41.35v141.98h-4.92c-23.5,0-47-.02-70.5,.03-2.34,0-4.68,.37-7.26,.59l-.15-1.68c9.72-12.66,19.45-25.32,29.18-37.97h11.73v-34.48c-1.6,1.02-1.67,.97-2.83,2.88-.92,1.5-2.63,2.22-3.24,4.17-.44,1.41-2.28,2.34-3.37,3.6-1.04,1.2-1.9,2.54-2.85,3.81-1.05,1.4-2.13,2.78-3.18,4.18-.95,1.27-1.89,2.55-2.83,3.83-.94,1.28-1.88,2.56-2.83,3.83-1.05,1.4-2.13,2.78-3.18,4.18-.95,1.27-1.87,2.57-2.84,3.82-.97,1.26-2.36,2.08-2.92,3.8-.47,1.45-2.37,1.99-2.9,3.8-.47,1.6-2.43,2.36-3.15,4.19-.55,1.42-2.6,2.22-3.31,3.63-.76,1.51-1.88,2.57-2.91,3.79-1.13,1.34-2.43,2.65-3.12,4.2-.69,1.57-1.86,2.59-2.89,3.81-1.02,1.21-1.89,2.54-2.85,3.81-1.05,1.4-2.13,2.78-3.18,4.19-.94,1.27-1.86,2.57-2.81,3.89h-76.4c-10.53-13.74-21.02-27.43-31.68-41.34-10.75,14.03-21.23,27.73-31.58,41.24-14.42,.65-46.01,.42-50.57-.46,18.98-24.84,37.8-49.48,56.61-74.1-5.7-7.61-11.08-15.31-17.01-22.56-5.97-7.3-11.45-14.96-17.23-22.4-5.65-7.28-11.33-14.55-17.04-22.3Z"/><path class="cls-4" d="M459.1,544.82v-141.03c1.46,.63,2.82,.93,3.84,1.7,5.98,4.52,11.73,9.37,17.86,13.69,6.08,4.29,11.71,9.19,18.02,13.17,1.75,1.1,2.97,2.83,4.83,3.98,3.52,2.17,6.53,5.14,9.87,7.64,4.56,3.41,9.25,6.65,13.83,10.04,2.18,1.61,4.24,3.38,6.6,5.28,4.57-3.48,8.99-7.11,13.68-10.35,6.13-4.23,12.13-8.68,17.91-13.3,5.01-4.01,10.58-7.27,15.25-11.75,2.34-2.25,5.43-3.77,8.03-5.87,3.59-2.89,7.32-5.62,11.03-8.36,2.78-2.05,5.63-4,8.57-6.09,.8,4.61,1.08,127.28,.38,141.26h-41.69v-58.27c-3.15,2.33-5.78,4.23-8.36,6.18-2.93,2.21-5.84,4.44-8.72,6.72-5.28,4.17-10.52,8.37-15.86,12.62-10.85-8.4-21.69-16.78-32.49-25.13-.25,.17-.39,.23-.48,.33-.1,.12-.2,.27-.2,.41,0,18.98,0,37.96,0,57.11h-41.9Z"/><path class="cls-4" d="M670.18,544.32l-1.69,1.69c-.37-.08-.98-.03-1.23-.31-1.09-1.22-2.48-.68-3.73-.68-11.67-.04-23.33-.02-35-.02-.79-4.22-1.1-125.45-.35-141.84h41.7v65.69c16.9-22.53,33.14-44.17,49.32-65.74h50.13c-.83,1.61-1.26,3.14-2.22,4.2-3.56,3.91-6.05,8.71-9.64,12.45-3.63,3.78-6.32,8.18-9.63,12.15-3.93,4.72-7.9,9.51-11.15,14.81-1.42,2.32-3.5,4.22-5.24,6.34-2.84,3.48-5.95,6.8-8.32,10.58-1.17,1.87-2.91,3.04-4.1,5.03v2.57c2.03,2.61,4,5.14,5.96,7.67,1.44,1.85,3.12,3.44,4.24,5.65,1.13,2.24,3.28,3.95,4.82,6.02,5.02,6.77,10.19,13.44,15.39,20.06,4.15,5.29,8.1,10.78,12.44,15.96,2.92,3.49,5.94,7.01,8.31,11,1.14,1.9,3.56,2.9,4.18,5.28,.25,.98,.44,1.97,.82,3.69l-3.01-1.56h-47.06c-18.07-24.23-36.28-48.64-54.93-73.66v72.98Z"/></g></g></svg>