<svg xmlns="http://www.w3.org/2000/svg" viewBox="0 0 440.21 719.73"><defs><style>.cls-1{fill:#fe3333;}.cls-2{fill:#df0101;}</style></defs><g id="Layer_2" data-name="Layer 2"><g id="Layer_1-2" data-name="Layer 1"><path class="cls-1" d="M235.12,439.92c-17.09-1-34.37-.59-51.22-3.09C98.09,424.09,24.47,355.37,6,270.81c-16.9-77.53,1.64-146,56.13-203.72,35.14-37.22,79-58.56,129.89-65.22,3-.4,6-1.24,9-1.87h37c7.43,1.27,14.89,2.42,22.29,3.83,53.87,10.27,97.92,37,132.15,79.7,26.48,33,41.65,70.92,46.37,112.93,3.26,28.95.51,57.53-6.39,85.75-.18.71-1,1.26-1.5,1.88-6.63,15-12.67,30.28-20,44.9-8.95,17.78-21.74,33-35.74,47a235.4,235.4,0,0,1-28.27,23.54C319.58,419.36,289,431.62,255.65,437,248.83,438.15,242,439,235.12,439.92ZM130,220c0,49.52,40.39,90,90,90.06A90.22,90.22,0,0,0,310,220.09c0-49.52-40.39-90-90-90.06A90.23,90.23,0,0,0,130,220Z"/><path class="cls-2" d="M235.12,439.92c6.84-.95,13.71-1.77,20.53-2.88,33.33-5.42,63.93-17.68,91.27-37.51A235.4,235.4,0,0,0,375.19,376c14-14,26.79-29.22,35.74-47,7.35-14.62,13.39-29.91,20-44.9-.18,2.27,0,4.63-.58,6.8-11.46,45.25-30.33,87.54-51.91,128.7-32.49,62-69.58,121.15-108.36,179.32-25.58,38.36-50.83,76.93-76.24,115.4-1,1.48-2.05,2.91-3.82,5.42,11.05-68.38,21.9-135.39,32.72-202.42Q229,478.63,235.12,439.92Z"/></g></g></svg>