<?xml version="1.0" encoding="iso-8859-1"?>
<!-- Generator: Adobe Illustrator 18.1.1, SVG Export Plug-In . SVG Version: 6.00 Build 0)  -->
<svg version="1.1" id="Capa_1" xmlns="http://www.w3.org/2000/svg" xmlns:xlink="http://www.w3.org/1999/xlink" x="0px" y="0px"
	 viewBox="0 0 612 612" style="enable-background:new 0 0 612 612;" xml:space="preserve">
<g>
	<g>
		<path fill="hsl(192, 50%, 30%)" d="M59.455,171.702h493.078c14.83,0,20.192-19.57,7.433-27.126L313.43,10.799c-4.586-2.712-10.287-2.712-14.867,0
			L52.022,144.57C39.263,152.132,44.625,171.702,59.455,171.702z"/>
		<path fill="hsl(192, 50%, 30%)" d="M106.842,455.251c-5.689,0-10.3,4.61-10.3,10.3c0,5.695,4.61,10.306,10.3,10.306h67.215c5.689,0,10.3-4.61,10.3-10.306
			c0-5.689-4.61-10.3-10.3-10.3h-9.991V227.755h9.991c5.689,0,10.3-4.61,10.3-10.3s-4.61-10.306-10.3-10.306h-67.215
			c-5.689,0-10.3,4.617-10.3,10.306s4.61,10.3,10.3,10.3h9.991v227.496H106.842z"/>
		<path fill="hsl(192, 50%, 30%)" d="M437.931,455.251c-5.689,0-10.3,4.61-10.3,10.3c0,5.695,4.61,10.306,10.3,10.306h67.215
			c5.695,0,10.306-4.61,10.306-10.306c0-5.689-4.61-10.3-10.306-10.3h-9.985V227.755h9.985c5.695,0,10.306-4.61,10.306-10.3
			s-4.61-10.306-10.306-10.306h-67.215c-5.689,0-10.3,4.617-10.3,10.306s4.61,10.3,10.3,10.3h9.991v227.496H437.931z"/>
		<rect fill="hsl(192, 50%, 30%)" x="50.296" y="507.353" width="511.408" height="37.642"/>
		<rect fill="hsl(192, 50%, 30%)" y="565.6" width="612" height="37.636"/>
		<path fill="hsl(192, 50%, 30%)" d="M292.221,243.694v17.443c-9.141,1.023-17.357,2.829-24.642,5.424c-7.285,2.601-13.474,6.016-18.553,10.25
			c-5.085,4.241-8.974,9.264-11.686,15.076c-2.706,5.812-4.068,12.451-4.068,19.903c0,9.147,1.757,16.599,5.258,22.362
			c3.495,5.763,8.05,10.392,13.64,13.893c5.59,3.501,11.884,6.127,18.886,7.877c7.002,1.744,14.059,3.131,21.172,4.148v37.093
			c-5.757-0.111-11.064-0.419-15.921-0.931c-4.857-0.505-9.486-1.183-13.893-2.028c-4.401-0.851-8.691-1.861-12.87-3.051
			c-4.185-1.183-8.469-2.57-12.876-4.148v33.204c6.435,2.934,14.534,5.221,24.303,6.854c9.763,1.64,20.186,2.626,31.25,2.965v16.599
			h26.935v-17.443c18.639-2.04,33-7.175,43.109-15.415c10.108-8.247,15.169-19.594,15.169-34.054c0-9.036-1.726-16.432-5.171-22.189
			c-3.452-5.757-7.908-10.423-13.388-13.979s-11.686-6.275-18.627-8.13c-6.946-1.861-13.973-3.359-21.092-4.487v-37.611
			c15.021,0.684,31.225,3.846,48.619,9.486v-33.531c-7.113-2.484-14.935-4.438-23.465-5.849c-8.524-1.411-16.907-2.336-25.154-2.792
			v-16.938L292.221,243.694L292.221,243.694z M292.221,326.695c-7.341-1.356-12.82-3.267-16.426-5.757
			c-3.618-2.478-5.424-6.096-5.424-10.842c0-4.179,1.584-7.643,4.746-10.417c3.162-2.761,8.863-4.598,17.104-5.504V326.695z
			 M334.997,369.643c3.452,2.435,5.171,6.016,5.171,10.762c0,8.586-7.008,13.776-21.006,15.576v-31.848
			C326.276,365.378,331.552,367.215,334.997,369.643z"/>
	</g>
</g>
<g>
</g>
<g>
</g>
<g>
</g>
<g>
</g>
<g>
</g>
<g>
</g>
<g>
</g>
<g>
</g>
<g>
</g>
<g>
</g>
<g>
</g>
<g>
</g>
<g>
</g>
<g>
</g>
<g>
</g>
</svg>
