<?xml version="1.0" encoding="utf-8"?>
<!-- Generator: Adobe Illustrator 25.3.1, SVG Export Plug-In . SVG Version: 6.00 Build 0)  -->
<svg version="1.1" id="Layer_1" xmlns="http://www.w3.org/2000/svg" xmlns:xlink="http://www.w3.org/1999/xlink" x="0px" y="0px"
	 viewBox="0 0 520 520" style="enable-background:new 0 0 520 520;" xml:space="preserve">
<g transform="translate(1 1)">
	<g>
		<g>
			<path fill="hsl(192, 50%, 30%)" d="M11.9,473c-7.4,0-12.5-5.2-12.5-12.5v-51.2c0-7.4,5.2-12.5,12.5-12.5h18.4l6.3-10c6.9-12.4,6.9-27.1,0-39.4l-6.9-10.8
				H11.9c-4.5,0-8.4-2.1-11-6s-2.6-9.1,0-13l10.1-16c6.9-12.4,6.9-27.1,0-39.4L0.8,246.1c-2.5-3.7-2.5-8.8-0.1-12.7
				c3-5.9,7.7-7.1,11.2-7.1h18.4l6.3-10c6.9-12.4,6.9-27.1,0-39.4l-10.2-16.1c-2.5-3.7-2.5-8.8-0.1-12.7c3-5.9,7.7-7.1,11.2-7.1
				h247.4c5.7,0,11.3,0.9,16.7,2.6l-16.3-60.7l-0.1-0.3c-0.6-3-0.1-6.3,1.5-9.1c1.7-3,4.4-5.1,7.5-5.8l82.7-22.4l0.2-0.1
				c0.8-0.2,1.6-0.2,2.5-0.2c6,0,11.3,3.9,12.4,9.2l11.9,44.2c1.2,1.5,2,3,2.3,3.6l0.3,0.8l8.5,33.3v0.2c0.3,1.3,0.3,2.7,0.1,4.1
				l42.3,156.9c0.6,0.9,1.2,1.8,1.6,2.7l0.3,0.8l8.5,33.3v0.2c0.2,0.9,0.3,1.9,0.2,2.8l12.5,46.3c1.1,3.5,0.2,6-0.6,8.3
				c-0.1,0.3-0.2,0.6-0.3,0.9c-0.6,1.8-1.7,3.2-2.9,4.1h29.8c3.5,0,6.7,1.2,9,3.5s3.5,5.5,3.5,9v51.2c0,7.4-5.2,12.5-12.5,12.5H11.9
				V473z M494.3,447.9v-26.1H24.4v26.1H494.3z M369.7,396.7l-8.5-31.6c-0.2-0.3-0.4-0.6-0.5-1l-0.3-0.8l-7.3-28.6L325.8,233
				c-6.2,6.8-13.8,11.9-22.5,15c7.3,9.6,11.3,21.2,11.3,33.3s-4,23.7-11.3,33.3c21.7,7.7,36.9,28.7,36.9,52c0,10.8-3.2,21.2-9,30.1
				H369.7z M284.9,396.7c16.6,0,30.1-13.5,30.1-30.1s-13.5-30.1-30.1-30.1H59.4c9.8,18.6,9.8,41.7,0,60.3L284.9,396.7L284.9,396.7z
				 M394.4,394.1l58-15.8l-6.8-25.5l-58.1,15.6L394.4,394.1z M381.7,344.6l57.7-15.7l-2.3-8.5l-57.7,15L381.7,344.6z M259.3,311.4
				c16.6,0,30.1-13.5,30.1-30.1s-13.5-30.1-30.1-30.1H33.8c9.8,18.6,9.8,41.7,0,60.3L259.3,311.4L259.3,311.4z M372.2,311l58.3-15.6
				l-37.2-140.7l-58.5,16.1l1,3.7c2,4.7,3.3,9.6,3.9,14.6L372.2,311z M284.9,226.1c16.6,0,30.1-13.5,30.1-30.1
				c0-1.1-0.1-2.3-0.2-3.5l-2.3-8.5c-4.8-11-15.6-18.2-27.6-18.2H59.4c9.8,18.6,9.8,41.7,0,60.3H284.9z M328.7,146.7l58-15.8
				l-2.2-8.5l-58,15.8L328.7,146.7z M319.4,113l58.8-15.8l-6.5-24.4l-58.8,15.9L319.4,113z"/>
			<path fill="hsl(192, 50%, 30%)" d="M506.8,400.7h-54.9l19.1-5.1c1.7-0.9,4.3-1.7,5.1-4.3s1.7-4.3,0.9-6.8l-12.7-47c0.1-0.8,0-1.7-0.1-2.5l-8.5-33.3
				c-0.4-0.8-1-1.8-1.7-2.7l-42.7-158.5c0.2-1.2,0.3-2.4,0-3.5l-8.5-33.3c-0.5-1.1-1.4-2.4-2.4-3.5l-12.2-45.1
				c-0.9-4.3-6-6.8-10.2-6l-82.8,22.2c-4.3,0.9-6.8,6-6,10.2l18.4,68.5c-6.8-3.4-14.5-5.3-22.7-5.3H37.5c-3.4,0-6,1.7-7.7,5.1
				c-1.7,2.6-1.7,6,0,8.5L40,174.5c7.7,13.7,7.7,29.9,0,43.5l-7.5,11.9H11.9c-3.4,0-6,1.7-7.7,5.1c-1.7,2.6-1.7,6,0,8.5l10.2,16.2
				c7.7,13.7,7.7,29.9,0,43.5L4.2,319.7c-1.7,2.6-1.7,6,0,8.5s4.3,4.3,7.7,4.3h20l8.1,12.8c7.7,13.7,7.7,29.9,0,43.5l-7.5,11.9H11.9
				c-5.1,0-8.5,3.4-8.5,8.5v51.2c0,5.1,3.4,8.5,8.5,8.5h494.9c5.1,0,8.5-3.4,8.5-8.5v-51.2C515.3,404.2,511.9,400.7,506.8,400.7z
				 M296.2,316.7c8.9-9.2,14.3-21.7,14.3-35.4s-5.5-26.2-14.3-35.4c13-2.9,24.1-10.9,31.3-21.6l29.4,109.4l7.3,28.6
				c0.2,0.4,0.4,0.8,0.7,1.1l10,37.3h-52c8.1-9.1,13.1-21,13.1-34.1C336.1,342.3,319,321.9,296.2,316.7z M391.6,133.7l-65.7,17.9
				l-4.3-16.2l65.7-17.9L391.6,133.7z M396.2,149.8l39.2,148.4l-66,17.7l-33.6-126c-0.6-4.9-1.9-9.7-3.8-14.1l-2.1-7.8L396.2,149.8z
				 M374.5,332.5l65.4-17l4.3,16.2l-65.4,17.8L374.5,332.5z M391.6,399l-9-33.5l65.9-17.7l8.8,33.3L391.6,399z M374.5,67.9l8.5,32.2
				l-66.5,17.8l-8.6-32.1L374.5,67.9z M54.5,165.2l-1.7-3.4h232.1c14.1,0,26.2,8.6,31.4,20.8l2.4,9.1c0.2,1.4,0.3,2.8,0.3,4.2
				c0,18.8-15.4,34.1-34.1,34.1h-25.6H52.8l1.7-3.4C65.6,207.9,65.6,184,54.5,165.2z M28.9,250.6l-1.7-3.4h10.2h221.9
				c18.8,0,34.1,15.4,34.1,34.1s-15.4,34.1-34.1,34.1H37.5H27.2l1.7-3.4C40,293.2,40,269.3,28.9,250.6z M54.5,335.9l-1.7-3.4h206.5
				h25.6c18.8,0,34.1,15.4,34.1,34.1s-15.4,34.1-34.1,34.1H52.8l1.7-3.4C65.6,378.6,65.6,354.7,54.5,335.9z M498.3,451.9H20.4v-34.1
				h17.1h247.4h101.5h1.7h110.1L498.3,451.9L498.3,451.9z"/>
			<path fill="hsl(192, 50%, 30%)" d="M97.2,379.1c-7.4,0-12.5-5.2-12.5-12.5s5.2-12.5,12.5-12.5h187.7c7.4,0,12.5,5.2,12.5,12.5s-5.2,12.5-12.5,12.5H97.2z"/>
			<path fill="hsl(192, 50%, 30%)" d="M97.2,375.1h187.7c5.1,0,8.5-3.4,8.5-8.5s-3.4-8.5-8.5-8.5H97.2c-5.1,0-8.5,3.4-8.5,8.5S92.1,375.1,97.2,375.1z"/>
			<path fill="hsl(192, 50%, 30%)" d="M71.6,293.8c-7.4,0-12.5-5.2-12.5-12.5s5.2-12.5,12.5-12.5h187.7c7.4,0,12.5,5.2,12.5,12.5s-5.2,12.5-12.5,12.5H71.6z"/>
			<path fill="hsl(192, 50%, 30%)" d="M71.6,289.8h187.7c5.1,0,8.5-3.4,8.5-8.5s-3.4-8.5-8.5-8.5H71.6c-5.1,0-8.5,3.4-8.5,8.5
				C63.1,286.4,66.5,289.8,71.6,289.8z"/>
			<path fill="hsl(192, 50%, 30%)" d="M97.2,208.5c-7.4,0-12.5-5.2-12.5-12.5c0-7.4,5.2-12.5,12.5-12.5h187.7c7.4,0,12.5,5.2,12.5,12.5
				c0,7.4-5.2,12.5-12.5,12.5H97.2z"/>
			<path fill="hsl(192, 50%, 30%)" d="M97.2,204.5h187.7c5.1,0,8.5-3.4,8.5-8.5s-3.4-8.5-8.5-8.5H97.2c-5.1,0-8.5,3.4-8.5,8.5S92.1,204.5,97.2,204.5z"/>
			<path fill="hsl(192, 50%, 30%)" d="M396.7,295.5c-4.8,0-9.7-3.3-12.1-8.2l-0.3-0.8l-26.5-99l-0.1-0.2c-0.6-3-0.1-6.3,1.5-9.1c1.7-3.1,4.5-5.2,7.6-5.8
				c0.8-0.2,1.6-0.2,2.5-0.2c6,0,11.3,3.9,12.4,9.2l26.4,98l0.1,0.3c0.6,3,0.1,6.3-1.5,9.1c-1.5,2.7-3.9,4.7-6.5,5.5
				C398.7,295.4,397.2,295.5,396.7,295.5z"/>
			<path fill="hsl(192, 50%, 30%)" d="M361.7,186.6l26.5,99c1.7,3.4,5.1,6,8.5,6c0,0,0.9,0,1.7-0.9c4.3-0.9,6.8-6,6-10.2l-26.5-98.2c-0.9-4.3-6-6.8-10.2-6
				S360.9,182.3,361.7,186.6z"/>
		</g>
	</g>
</g>
</svg>
