<?xml version="1.0" encoding="iso-8859-1"?>
<!-- Generator: Adobe Illustrator 19.0.0, SVG Export Plug-In . SVG Version: 6.00 Build 0)  -->
<svg version="1.1" id="Layer_1" xmlns="http://www.w3.org/2000/svg" xmlns:xlink="http://www.w3.org/1999/xlink" x="0px" y="0px"
	 viewBox="0 0 512 512" style="enable-background:new 0 0 512 512;" xml:space="preserve">
<g>
	<g>
		<path fill="hsl(196, 65%, 76%)" d="M490.667,85.333H237.184l-26.091-52.203c-3.627-7.232-11.008-11.797-19.093-11.797H21.333C9.536,21.333,0,30.869,0,42.667
			v426.667c0,11.797,9.536,21.333,21.333,21.333h469.333c11.797,0,21.333-9.536,21.333-21.333V170.667v-64
			C512,94.869,502.464,85.333,490.667,85.333z M335.083,335.083c-4.16,4.16-9.621,6.251-15.083,6.251s-10.923-2.091-15.083-6.251
			l-27.584-27.584V384c0,11.797-9.536,21.333-21.333,21.333s-21.333-9.536-21.333-21.333v-76.501l-27.584,27.584
			c-8.341,8.341-21.824,8.341-30.165,0c-8.341-8.341-8.341-21.824,0-30.165l63.979-63.979c1.963-1.984,4.331-3.541,6.955-4.629
			c5.205-2.155,11.093-2.155,16.299,0c2.624,1.088,4.992,2.645,6.955,4.629l63.979,63.979
			C343.424,313.259,343.424,326.741,335.083,335.083z M469.333,149.333H269.184L258.517,128h210.816V149.333z"/>
	</g>
</g>
<g>
</g>
<g>
</g>
<g>
</g>
<g>
</g>
<g>
</g>
<g>
</g>
<g>
</g>
<g>
</g>
<g>
</g>
<g>
</g>
<g>
</g>
<g>
</g>
<g>
</g>
<g>
</g>
<g>
</g>
</svg>
