<?xml version="1.0" encoding="iso-8859-1"?>
<!-- Generator: Adobe Illustrator 19.0.0, SVG Export Plug-In . SVG Version: 6.00 Build 0)  -->
<svg version="1.1" id="Layer_1" xmlns="http://www.w3.org/2000/svg" xmlns:xlink="http://www.w3.org/1999/xlink" x="0px" y="0px"
	 viewBox="0 0 511.999 511.999" style="enable-background:new 0 0 511.999 511.999;" xml:space="preserve">
<g>
	<g>
		<path fill="hsl(192, 50%, 30%)" d="M503.065,240.13l-35.117-35.117V86.751c0-8.329-6.751-15.08-15.08-15.08h-58.561c-8.329,0-15.08,6.751-15.08,15.08v29.539
			L267.84,4.904c-6.538-6.539-17.141-6.539-23.68,0L8.935,240.13c-4.789,4.789-6.222,11.991-3.63,18.248
			c2.592,6.257,8.698,10.337,15.47,10.337h36.23v225.851c0,9.628,7.805,17.433,17.433,17.433h110.172h142.782h120.501
			c9.628,0,17.433-7.805,17.433-17.433V268.715h25.901c6.773,0,12.879-4.08,15.47-10.337
			C509.286,252.121,507.854,244.919,503.065,240.13z M409.387,101.831h28.4v73.02l-28.4-28.4V101.831z M309.958,477.133H202.042
			v-0.001V343.434c0-0.775,0.63-1.405,1.405-1.405h105.105c0.775,0,1.405,0.63,1.405,1.405V477.133z M430.458,477.132h-0.001
			h-85.633V343.434c0-20.001-16.271-36.272-36.272-36.272H203.448c-20.001,0-36.272,16.271-36.272,36.272v133.699H91.871v-207.73
			h338.588V477.132z M61.2,234.722L256,40.425l194.296,194.296C449.18,234.567,61.2,234.722,61.2,234.722z"/>
	</g>
</g>
<g>
	<g>
		<path fill="hsl(192, 50%, 30%)" d="M256,106.943c-29.494,0-53.49,23.996-53.49,53.49s23.995,53.49,53.49,53.49c29.494,0,53.49-23.996,53.49-53.49
			S285.494,106.943,256,106.943z M256,179.056c-10.269,0-18.622-8.354-18.622-18.623c0-10.269,8.353-18.623,18.622-18.623
			c10.269,0,18.623,8.354,18.623,18.623C274.623,170.701,266.269,179.056,256,179.056z"/>
	</g>
</g>
<g>
	<g>
		<circle fill="hsl(192, 50%, 30%)" cx="291.59" cy="426.115" r="16.745"/>
	</g>
</g>
<g>
</g>
<g>
</g>
<g>
</g>
<g>
</g>
<g>
</g>
<g>
</g>
<g>
</g>
<g>
</g>
<g>
</g>
<g>
</g>
<g>
</g>
<g>
</g>
<g>
</g>
<g>
</g>
<g>
</g>
</svg>
