<?xml version="1.0" encoding="iso-8859-1"?>
<!-- Generator: Adobe Illustrator 16.0.0, SVG Export Plug-In . SVG Version: 6.00 Build 0)  -->
<!DOCTYPE svg PUBLIC "-//W3C//DTD SVG 1.1//EN" "http://www.w3.org/Graphics/SVG/1.1/DTD/svg11.dtd">
<svg version="1.1" id="Capa_1" xmlns="http://www.w3.org/2000/svg" xmlns:xlink="http://www.w3.org/1999/xlink" x="0px" y="0px"
	 width="579.193px" height="579.193px" viewBox="0 0 579.193 579.193" style="enable-background:new 0 0 579.193 579.193;"
	 xml:space="preserve">
<g>
	<g>
		<g>
			<path fill="hsl(192, 50%, 30%)" d="M521.259,0.5H260.695c-11.83,0-21.42,9.59-21.42,21.42s9.59,21.42,21.42,21.42h255.918v492.514H261.501
				c-11.83,0-21.42,9.59-21.42,21.42s9.59,21.42,21.42,21.42h259.757c21.061,0,38.194-17.134,38.194-38.194V38.694
				C559.453,17.634,542.319,0.5,521.259,0.5z"/>
			<path fill="hsl(192, 50%, 30%)" d="M521.259,579.193H261.501c-12.087,0-21.92-9.833-21.92-21.92s9.833-21.92,21.92-21.92h254.612V43.84H260.695
				c-12.087,0-21.92-9.833-21.92-21.92S248.608,0,260.695,0h260.564c21.336,0,38.694,17.358,38.694,38.694v501.805
				C559.953,561.835,542.595,579.193,521.259,579.193z M261.501,536.354c-11.535,0-20.92,9.385-20.92,20.92s9.385,20.92,20.92,20.92
				h259.757c20.785,0,37.694-16.909,37.694-37.694V38.694C558.953,17.91,542.044,1,521.259,1H260.695
				c-11.535,0-20.92,9.385-20.92,20.92s9.385,20.92,20.92,20.92h256.418v493.514H261.501z"/>
		</g>
		<g>
			<path fill="hsl(192, 50%, 30%)" d="M19.74,226.701v122.247c0,30.678,24.958,55.638,55.637,55.638H214.92v19.746c0,7.869,1.601,15.472,4.758,22.597
				c3.012,6.798,7.297,12.832,12.736,17.934c10.401,9.759,23.976,15.134,38.222,15.134c13.837,0,27.125-5.171,37.416-14.558
				l149.65-136.508c11.529-10.517,18.143-25.499,18.143-41.104c0-15.606-6.612-30.588-18.142-41.106L308.053,110.212
				c-10.291-9.388-23.578-14.558-37.415-14.558c-14.248,0-27.822,5.374-38.223,15.132c-5.439,5.102-9.724,11.136-12.736,17.935
				c-3.157,7.125-4.758,14.727-4.758,22.595v19.747H75.377C44.699,171.063,19.74,196.023,19.74,226.701z M244.963,213.904
				c7.068,0,12.797-5.73,12.797-12.798v-49.789c0-7.67,6.282-12.823,12.877-12.823c2.966,0,5.995,1.043,8.545,3.368l149.65,136.507
				c5.563,5.075,5.563,13.834,0,18.909l-149.65,136.508c-2.55,2.326-5.579,3.368-8.545,3.368c-6.594,0-12.877-5.153-12.877-12.822
				v-49.789c0-7.068-5.729-12.798-12.797-12.798H75.377c-7.068,0-12.797-5.729-12.797-12.798V226.701
				c0-7.068,5.729-12.798,12.797-12.798L244.963,213.904L244.963,213.904z"/>
			<path fill="hsl(192, 50%, 30%)" d="M270.637,480.496c-14.374,0-28.07-5.423-38.564-15.27c-5.487-5.147-9.811-11.235-12.851-18.096
				c-3.186-7.189-4.801-14.859-4.801-22.799v-19.246H75.377c-30.954,0-56.137-25.184-56.137-56.138V226.701
				c0-30.955,25.183-56.138,56.137-56.138h139.043v-19.247c0-7.938,1.615-15.609,4.801-22.798
				c3.039-6.86,7.363-12.949,12.851-18.097c10.494-9.845,24.19-15.268,38.565-15.268c13.961,0,27.369,5.216,37.752,14.688
				l149.651,136.509c11.633,10.613,18.305,25.73,18.305,41.476s-6.672,30.862-18.306,41.473L308.39,465.808
				C298.006,475.279,284.598,480.496,270.637,480.496z M75.377,171.563c-30.403,0-55.137,24.735-55.137,55.138v122.247
				c0,30.403,24.734,55.138,55.137,55.138H215.42v20.246c0,7.799,1.586,15.333,4.715,22.395c2.985,6.736,7.231,12.716,12.621,17.771
				c10.308,9.672,23.761,14.998,37.88,14.998c13.711,0,26.88-5.124,37.079-14.427l149.65-136.508
				c11.426-10.423,17.979-25.271,17.979-40.735c0-15.465-6.553-30.313-17.979-40.737L307.716,110.582
				c-10.198-9.304-23.367-14.427-37.078-14.427c-14.12,0-27.573,5.326-37.88,14.997c-5.39,5.056-9.637,11.036-12.622,17.773
				c-3.128,7.061-4.715,14.594-4.715,22.393v20.247H75.377z M270.638,437.654c-6.434,0-13.377-5.094-13.377-13.322v-49.789
				c0-6.781-5.517-12.298-12.297-12.298H75.377c-7.332,0-13.297-5.966-13.297-13.298V226.701c0-7.333,5.965-13.298,13.297-13.298
				h169.585c0,0,0.001,0,0.001,0c3.284,0,6.372-1.279,8.694-3.601c2.323-2.323,3.602-5.411,3.602-8.696v-49.789
				c0-8.229,6.944-13.323,13.377-13.323c3.3,0,6.372,1.209,8.882,3.498L429.17,278c2.756,2.514,4.336,6.094,4.336,9.824
				s-1.58,7.31-4.336,9.824L279.52,434.155C277.011,436.444,273.939,437.654,270.638,437.654z M75.377,214.403
				c-6.781,0-12.297,5.517-12.297,12.298v122.247c0,6.781,5.517,12.298,12.297,12.298h169.585c7.332,0,13.297,5.966,13.297,13.298
				v49.789c0,7.611,6.425,12.322,12.377,12.322c3.048,0,5.886-1.119,8.208-3.237l149.65-136.508c2.548-2.325,4.01-5.636,4.01-9.085
				c0-3.449-1.462-6.761-4.01-9.085l-149.65-136.507c-2.323-2.118-5.161-3.237-8.208-3.237c-7.748,0-12.377,6.266-12.377,12.323
				v49.789c0,7.333-5.965,13.298-13.297,13.298L75.377,214.403z"/>
		</g>
	</g>
</g>
<g>
</g>
<g>
</g>
<g>
</g>
<g>
</g>
<g>
</g>
<g>
</g>
<g>
</g>
<g>
</g>
<g>
</g>
<g>
</g>
<g>
</g>
<g>
</g>
<g>
</g>
<g>
</g>
<g>
</g>
</svg>
