<?xml version="1.0" encoding="UTF-8"?><svg id="Layer_2" xmlns="http://www.w3.org/2000/svg" viewBox="0 0 1100 1100"><defs><style>.cls-1{opacity:1;}</style></defs><g id="Layer_1-2"><g class="cls-1"><path d="M1089,86c-4.45,5.33-8.8,10.74-13.33,16.02-9.56,11.14-19.74,21.65-30.15,31.96-3.07,5.37-8.74,8.12-12.73,12.61-3.97,4.48-8.24,8.75-12.71,12.73-6.21,5.53-12.52,10.95-18.63,16.6-5.43,5.02-11.36,9.51-17.09,14.2-5.34,4.38-10.5,9.03-16.13,13.01-6.97,4.92-13.81,10.05-20.63,15.14-6.49,4.84-13.23,9.37-19.77,14.12-5.77,4.19-11.83,8.11-18.05,11.75-5.11,2.99-10.03,6.4-15.05,9.6-4.59,2.92-9.14,5.9-14.06,8.28-2.51,1.21-4.89,2.75-7.23,4.22-5.27,3.32-10.82,6.09-16.22,9.15-13.45,7.65-27.5,14.1-41.28,21.09-6.17,3.13-12.61,5.76-18.98,8.49-7.36,3.15-14.79,6.14-22.2,9.18-6.27,2.57-12.62,4.95-18.92,7.42-5.74,2.25-11.73,3.87-18.37,6.02,3.37,.3,5.8,1.61,8.65,1.45,3.66-.2,7.35,.18,10.99-.15,1.61-.15,2.88,1.24,4.77,.28,1.22-.61,3.29,.64,5,.78,1.99,.17,4,.04,6,.04h5.5c1.83,0,3.77-.38,5.48,.07,6.83,1.79,13.83-.01,20.58,1.07,8.39,1.35,16.83-.11,25.08,1.04,7.41,1.03,14.85-.14,22.08,1,7.41,1.16,14.85-.17,22.08,.99,7.58,1.22,15.17-.14,22.59,.99,7.9,1.2,15.86-.2,23.58,1.04,7.59,1.22,15.1,.19,22.84,.95,.27,.3,.71,.79,1.17,1.31-.12,.14-.27,.39-.47,.54-1.02,.75-2.18,1.35-3.06,2.24-4.49,4.48-9.33,8.53-14.37,12.39-2.96,2.27-5.53,5.06-8.48,7.36-6.05,4.71-11.59,10.05-18.07,14.25-3.89,2.52-7.24,5.86-10.9,8.75-2.49,1.96-5.2,3.61-7.72,5.58-5.08,3.96-10.54,7.45-15.89,11.04-8.21,5.51-16.33,11.17-24.74,16.34-7.81,4.8-15.66,9.57-23.55,14.24-7.23,4.28-14.61,8.28-21.79,12.62-4.66,2.81-9.98,4.46-14.17,8.07-4.23,.78-7.32,3.92-11.26,5.41-3.88,1.46-7.37,3.91-11.14,5.7-6.54,3.11-13.14,6.09-19.76,9.03-7.88,3.5-15.76,6.98-23.78,10.2-6.27,2.52-12.56,5.09-18.76,7.82-.46,.2-.8,.71-1.68,1.52,1.24,.24,1.82,.49,2.37,.43,2.45-.23,4.74,.41,7.1,.96,2.31,.54,4.89-.61,7.09,1.04,.21,.16,.65,0,.98,.02,4.36,.33,8.72,.76,13.09,.95,1.94,.09,3.49,1.45,5.6,1.14,1.64-.24,3.64-.85,5.1,.88,.14,.16,.64,0,.97,.02,4.7,.33,9.4,.61,14.08,1.02,1.88,.17,3.72,.72,5.59,.95,1.89,.23,3.92-.44,5.59,1.01,.09,.08,.32,0,.49,.01,4.2,.33,8.4,.61,12.58,1.02,2.04,.2,4.06,.62,6.09,.98,1.86,.33,3.99-.88,5.61,.97,.14,.17,.64,0,.97,.02,4.7,.33,9.4,.61,14.08,1.02,1.88,.17,3.72,.73,5.59,.95,1.89,.21,3.92-.41,5.59,1.02,.1,.08,.33,0,.49,.01,4.2,.33,8.4,.61,12.58,1.02,2.04,.2,4.06,.62,6.09,.98,1.86,.33,3.68-.29,5.69,.81,1.62,.89,4.13,.18,7.4,.18-3.8,2.33-6.45,4.24-9.34,5.68-7.83,3.91-15.16,8.62-22.42,13.47-5.47,3.66-11.06,7.15-16.48,10.88-4.31,2.96-8.41,6.24-12.67,9.27-3.61,2.56-6.9,5.55-10.72,7.88-2.59,1.58-4.73,3.92-7.06,5.93-4.91,4.24-9.65,8.7-14.76,12.68-9.5,7.39-17.84,16-26.38,24.42-2.31,2.27-5.29,3.94-7.26,6.45-5.54,7.05-12.42,12.78-18.44,19.34-4.72,5.15-9.59,10.23-13.71,15.84-4.25,5.79-9.04,11.14-13.36,16.87-3.85,5.1-7.76,10.21-11.75,15.23-4.29,5.4-7.85,11.38-11.74,17.1-1.77,2.6-3.59,5.17-5.32,7.8-3.26,4.98-6.56,9.92-9.66,15-3.8,6.24-7.38,12.61-10.95,18.97-4.98,8.89-9.5,18.04-14.05,27.17-3.16,6.34-6.15,12.78-9,19.27-3.6,8.17-6.89,16.48-10.13,24.8-3.31,8.49-6.36,17.04-9.21,25.69-2.27,6.89-4.62,13.76-6.72,20.72-2.65,8.79-5.05,17.62-7.07,26.59-1.38,6.11-3.24,12.1-3.9,18.36-1.84,2.06-1.01,4.83-1.85,7.22-.76,2.15-.84,4.75-1.35,6.99-.89,3.93-.92,8.1-2.71,11.84-.2,.41-.04,.97-.09,1.46-.33,3.53-.24,7.17-1.13,10.55-.68,2.58-.14,5.32-1.03,7.56-1.04,2.63-.11,5.28-.95,7.61-.98,2.73-.35,5.51-.99,8.1-.96,3.87-.15,7.89-1.06,11.57-1.25,5.09-.14,10.15-.9,15.12-1.79,11.68-.51,23.4-.95,35.09,0,.12-.22,.24-.66,.67-1.48-4.33-2.85-8.49-4.33-12.61-1.87-5.22-3.69-10.49-5.41-15.74-1.63-4.98-3.61-9.91-4.62-15.11-.38-1.95-1.48-3.75-1.92-5.69-1.52-6.68-3.58-13.22-5.19-19.88-1.27-5.27-2.78-10.51-4.11-15.79-.95-3.77-1.65-7.61-2.63-11.38-.47-1.79-1.4-3.48-1.24-5.57,.14-1.75-.5-3.8-1.43-5.33-1.09-1.78-.08-3.66-1.13-5.58-1.21-2.22-.8-5.28-1.35-7.92-.54-2.6-.69-5.28-1.66-7.81-.85-2.23,.43-4.88-1.31-6.96,.15-5.16-1.78-10.04-2.14-15.16-.16-2.33-1.02-4.66-.87-7.1,.15-2.43-.84-4.71-1.22-7.05-.43-2.72,0-5.69-.95-8.05-1.56-3.88-.46-7.87-1.61-11.8-1.29-4.42-1.18-9.33-1.11-14.02,.04-2.67-1.24-4.98-1.14-7.59,.11-2.66,.7-5.57-.14-7.94-1.1-3.11-.89-6.13-.76-9.14,.23-5.26-1.56-10.3-1.16-15.59,.38-5.14,.82-10.46-.11-15.46-1.07-5.76-.59-11.42-.77-17.12-.18-5.66-.72-11.44,.12-16.97,1.35-8.89-.05-17.81,1.03-26.59,.66-5.4,.09-10.83,.97-16.08,.74-4.4,.22-8.83,1-13.08,.65-3.56-.02-7.32,1.05-10.55,1.3-3.92,.29-7.88,1.6-11.8,1.25-3.72,.81-8,1.22-12.02,.18-1.71,.66-3.39,.97-5.09,.3-1.7-.16-3.35,.81-5.19,.95-1.8,.23-4.27,1.05-6.54,.96-2.63,.68-5.69,1.18-8.53,.73-4.17,1.69-8.29,2.53-12.44,.52-2.57,.99-5.14,.8-7.99-2.12,2.88-4.72,5.53-6.26,8.69-2.7,5.53-6.75,10.14-9.73,15.46-2.89,5.18-6.59,9.86-9.44,15.09-2.24,4.11-5,7.93-7.51,11.9-2.25,3.56-4.38,7.21-6.75,10.7-2.37,3.5-4.71,6.97-6.81,10.67-3.56,6.26-7.95,12.04-11.88,18.1-3.74,5.77-7.33,11.63-11,17.44-2.58,4.1-5.31,8.11-7.73,12.3-3.52,6.09-7.94,11.61-11.33,17.79-1.95,3.57-4.52,6.79-6.72,10.23-3.12,4.86-6.14,9.79-9.22,14.68-2.08,3.31-4.19,6.61-6.58,10.37-.71-3.84-2.33-6.97-2.49-10.58-.09-2.02-1-3.94-1.05-6.09-.04-1.82-.52-3.82-1.05-5.54-.64-2.08-.25-4.26-.94-6.1-1.57-4.17-1.34-8.64-2.75-12.85-.83-2.47-.52-5.36-.92-8.07-.32-2.2-1.26-4.28-1.25-6.55,0-2.23,.58-4.57-.96-6.59-.08-.11,0-.33-.01-.49-.33-4.36-.76-8.72-.96-13.09-.11-2.25-1.42-4.18-1.15-6.6,.24-2.14,.89-4.59-.87-6.59-.17-.19,0-.65-.02-.98-.33-6.7-.78-13.39-.95-20.09-.09-3.57-1.44-6.94-1.12-10.59,.32-3.64,.78-7.51-.09-10.95-1.37-5.41-.71-10.77-.78-16.13-.17-14,.1-28-.16-42-.08-4.13,1.19-8.02,1.11-12.09-.08-4.16-.68-8.47,.15-12.46,.99-4.75,.18-9.49,.95-14.1,.71-4.22,.23-8.52,1.08-12.56,.65-3.09,.53-6.09,.82-9.12,.2-2.04,.61-4.07,.98-6.09,.35-1.86-.88-3.95,.94-5.64,.33-.31,0-1.29,.05-1.95,.32-4.03,.35-8.11,1.07-12.07,.8-4.38,1.48-8.76,2-13.18,.19-1.65,1.54-3.16,.46-5.39-1.92,2.45-3.74,4.75-5.53,7.07-3.69,4.78-6.71,10.06-10.86,14.52-2.27,2.44-3.67,5.54-5.95,8.06-2.73,3.02-4.78,6.65-7.17,9.99-1.85,2.58-3.74,5.13-5.65,7.66-3.16,4.19-6.36,8.37-9.54,12.55-3.28,4.31-6.76,8.48-9.77,12.97-2.39,3.56-5.09,6.86-7.56,10.35-4.4,6.21-9.22,12.11-13.56,18.37-3.36,4.85-7.24,9.33-10.81,14.04-1.62,2.13-3.02,4.42-4.95,7.26-.08-3.02-.47-5.28,.24-7.73,.42-1.46-.39-3.23-.4-4.86-.05-8.17-.2-16.34,.07-24.5,.1-3.16-1.22-6-1.11-9.09,.1-3,.61-6.16-.13-8.96-.87-3.25-.64-6.42-.87-9.62-.15-2.04-1.31-3.89-1.03-6.1,.25-2.04,.39-4.21-.94-6.08,.7-3.63-.67-7.07-1.12-10.57-.35-2.7-1.08-5.34-.88-8.1-2.21-2.15,.26-5.53-2-7.67,.25-2.44-.33-4.75-.94-7.1-.6-2.29-.07-5.12-1.23-6.97-1.4-2.24,.29-4.98-1.8-6.79,.52-4.25-1.74-8.01-2.17-12.14-.47-4.45-1.85-8.84-3.19-13.14-1.24-3.99-2.64-7.99-3.51-12.01-1.36-6.26-3.59-12.22-5.21-18.38-1.06-4.02-2.63-7.9-3.94-11.86-1.02-3.08-1.72-6.3-3.08-9.22-1.37-2.95-2.52-6.04-3.48-9.05-2.72-8.54-7.03-16.46-9.47-25.1-.25-.87-.89-1.62-1.29-2.46-1.58-3.35-3.25-6.65-4.65-10.07-1.35-3.28-3.76-6.1-4.19-9.76-4.02-5.39-5.23-12.28-9.48-17.6-1.51-1.89-2.32-4.34-3.35-6.59-2.15-4.68-5.09-8.91-7.55-13.39-3.15-5.74-6.71-11.2-9.99-16.85-3.85-6.64-8.13-13-12.43-19.34-5.25-7.74-10.8-15.27-16.51-22.7-4.78-6.21-9.42-12.51-14.51-18.49-5.88-6.91-11.59-13.94-17.61-20.74-3.82-4.31-7.9-8.33-11.79-12.56-.92-1-1.56-2.53-2.68-3-1.63-.69-1.66-2.23-2.58-3.23-1.87-2.04-4.68-3.15-5.89-5.88-2.19-.14-1.69-3.01-3.47-3.47-1.96-.51-2.78-2.17-3.99-3.5-1.2-1.31-2.7-2.33-4-3.55-1.34-1.25-2.56-2.62-3.91-3.87-4.2-3.91-8.27-7.99-12.7-11.62-6.11-5.01-12.05-10.26-18.25-15.14-6.22-4.9-12.62-9.63-18.93-14.41-10.22-7.75-20.9-14.79-31.45-22.03-6-4.12-12.58-7.39-18.9-11.04-2.27-1.31-4.53-2.64-7.5-4.36,1.59,0,2.72-.34,3.42,.07,1.81,1.06,3.74,.69,5.61,1.01,1.69,.28,3.48,.58,5.06,1.06,4.05,1.24,8.26,1.85,12.34,2.64,5.25,1.02,10.39,2.54,15.71,3.28,3.08,.43,5.95,1.95,9.13,2.07,1.4,1.74,3.44,.38,5.06,1.05,1.57,.65,3.13,1.33,4.75,1.79,1.66,.47,3.41,.6,5.07,1.05,4.19,1.13,8.31,2.57,12.54,3.49,7.91,1.72,15.6,4.28,23.24,6.74,8.03,2.58,16.16,5.06,24.03,8.32,5.79,2.41,11.84,4.43,17.83,6.45,3.94,1.33,7.84,2.79,11.69,4.36,4.85,1.97,9.6,4.16,14.63,5.75,2.44,.77,4.69,2.23,7.18,3.17,4.6,1.74,8.86,4.36,13.43,6.2,7.17,2.9,13.76,7.03,20.92,9.86,9.54,3.77,17.84,9.89,27.35,13.64,2.83,2.85,6.79,3.77,10.09,5.84,3.26,2.04,6.89,3.5,10.25,5.39,4.06,2.29,7.82,5.05,12.03,7.15,4.18,2.09,7.75,5.36,11.89,7.54,6.53,3.45,12.42,7.83,18.6,11.8,3.17,2.04,6.31,4.12,9.4,6.28,6.73,4.71,13.76,8.96,20.16,14.16,4.02,3.26,8.8,5.61,12.7,9,3.41,2.96,7.11,5.51,10.58,8.38,6.6,5.47,13.39,10.7,19.67,16.56,3.14,2.94,6.84,5.28,10.33,7.84-.02,.01-.08,.08-.15,.14l.7,.82,.32-.32c-.27-.23-.54-.46-.86-.64-.16-.57-.16-1.24-.42-1.79-4.39-9.36-8.93-18.69-13.94-27.69-5.12-9.2-9.43-18.8-14.6-27.97-3.71-6.58-6.59-13.64-10.41-20.15-2.67-4.56-4.86-9.36-7.59-13.88-2.62-4.34-4.5-9.12-6.81-13.66-3.37-6.61-6.83-13.17-10.28-19.73-5.11-9.7-9.8-19.64-15.15-29.19-5-8.92-8.96-18.33-14.08-27,1.14-1.5,1.72-.4,2.59-.11,7.3,2.5,14.7,4.73,21.99,7.26,6.25,2.17,12.39,4.67,18.61,6.95,4.48,1.65,8.81,3.67,13.37,5.15,2.56,.84,5.02,2.3,7.6,3.35,4.28,1.73,8.47,3.69,12.67,5.62,7.14,3.27,14.3,6.52,21.38,9.91,6.96,3.32,13.95,6.6,20.72,10.28,6.12,3.33,12.43,6.31,18.42,9.81,8.05,4.7,16.35,9,24.17,14.01,9.62,6.16,19.54,11.84,28.94,18.38,4.72,3.29,9.78,6.18,14.51,9.51,5.56,3.91,11.07,7.88,16.59,11.84,4.24,3.04,8.5,6.06,12.69,9.16,3.59,2.66,7.12,5.39,10.61,8.16,3.65,2.9,7.22,5.9,10.87,8.79,.31,.24,.98,.03,1.52-.02-.02,.01-.08,.08-.15,.14l.7,.82,.32-.32c-.27-.23-.54-.46-.86-.64-.52-1.59-.82-3.3-1.49-4.85-2.63-6.07-5.51-12.05-8.06-18.15-2.97-7.1-6.14-14.12-9.12-21.21-3.16-7.52-6.34-15.03-9.64-22.5-1.25-2.82-2.9-5.53-3.62-8.48-.71-2.92-2.79-5.11-3.29-8.2-.45-2.77-2.47-5.26-3.67-7.93-2.64-5.9-5.36-11.78-7.74-17.78-2.79-7.02-5.8-13.93-8.86-20.82-1.25-2.81-2.38-5.68-3.69-8.82,2.04,1.01,3.99,1.72,5.65,2.85,6.82,4.65,14.07,8.56,21.4,12.31,7.14,3.65,14.34,7.18,21.59,10.61,7.94,3.75,15.82,7.69,23.99,10.84,5.31,2.05,10.57,4.25,15.94,6.18,5.22,1.88,10.43,3.8,15.68,5.58,3.66,1.24,7.53,1.95,11.04,3.51,3.4,1.52,7.25,1.76,10.38,3.9,8.37,1.17,16.09,4.98,24.5,6,5.5,2.73,11.92,2.28,17.43,4.97,4.09-.5,7.75,1.48,11.62,2.19,4.11,.75,8.28,1.45,12.37,2.57,2.5,.69,5.31,1.07,8,1.21,3.23,.17,6.27,1.79,9.58,1.06,2.73,2.16,6.2,.33,9.25,1.83,1.96,.96,4.64,.55,7.03,1.01,4.59,.88,9.36,.77,14.05,1.18,2.37,.21,4.71,.78,7.09,.94,2.49,.17,5.13-.48,7.47,.14,6.02,1.6,12.08,.7,18.11,.78,1.45,.02,2.72,2.52,4.26,.33,1.54,1.07,3.29,.76,4.99,.78,1.67,.02,3.33,0,5,0h15.49c1.67,0,3.33-.02,5,0,4.06,.05,7.94-1.45,12.09-1.08,4.13,.37,8.45,.71,12.45-.1,3.92-.8,7.76-.51,11.61-.87,2.2-.21,4.26-1.19,6.59-1,2.21,.18,4.54,.48,6.59-.93,.23-.16,.65,0,.98-.02,4.36-.33,8.73-.61,13.08-1.03,1.38-.13,2.72-.67,4.09-.96,1.38-.29,2.95,.59,4.18-.85,.29-.34,1.25-.14,1.9-.16,1.91-.07,3.76,.12,5.63-.91,1.47-.81,3.53,.59,5.2-.72,1.57-1.22,3.59-.18,5.54-1.13,1.89-.92,4.64-.48,6.98-1.19,1.95-.59,4.04-.72,6.07-1.05,2.03-.33,4.33-.18,6.01-1.13,1.87-1.06,4.25-.07,5.74-1.87,3.52,.01,6.8-1.23,10.16-2.03,4.53-1.08,8.94-2.73,13.5-3.53,5.71-1,10.95-3.56,16.67-4.49,2.11-.34,4.12-1.28,6.18-1.95,5.14-1.67,10.36-3.13,15.4-5.06,4.92-1.88,10.04-3.16,14.89-5.08,5.86-2.32,11.74-4.64,17.54-7.13,2.39-1.03,4.74-2.19,7.35-2.81,2.52-.6,4.39-2.85,7.27-3.02,1.26-.08,2.43-1.28,3.68-1.89,8.73-4.25,17.69-8.05,26.19-12.78,8.82-4.91,18.16-8.93,26.2-15.19,.31-.24,.98-.03,1.48-.03Z"/><path d="M1088.9,85.91c.23-.27,.46-.54,.7-.82l.32,.32c-.27,.23-.54,.46-.82,.7l-.2-.2Z"/></g></g></svg>