<svg xmlns="http://www.w3.org/2000/svg" viewBox="0 0 761.45 886.35"><defs><style>.cls-1{fill:#f47c00;}.cls-2{fill:#1bae5d;}.cls-3{fill:#039ae4;}</style></defs><g id="Layer_2" data-name="Layer 2"><g id="Layer_1-2" data-name="Layer 1"><path class="cls-1" d="M0,886.24V696.12H5.63q374.67,0,749.35-.1c4.81,0,6.49.82,6.47,6.17q-.33,89,0,178c0,4.64-.95,6.2-5.93,6.19q-375.18-.18-750.35-.11Z"/><path class="cls-2" d="M219.89,540.8V345.42H761V540.8Z"/><path class="cls-3" d="M411.9,192.26V.1h5.49Q586.34.1,755.28,0c4.7,0,6.17,1.07,6.16,6q-.26,90.23,0,180.44c0,4.39-.86,6-5.69,6q-169.44-.23-338.88-.11Z"/></g></g></svg>