<?xml version="1.0" encoding="utf-8"?>
<!-- Generator: Adobe Illustrator 25.3.1, SVG Export Plug-In . SVG Version: 6.00 Build 0)  -->
<svg version="1.1"
	 id="Layer_1" xmlns:cc="http://creativecommons.org/ns#" xmlns:dc="http://purl.org/dc/elements/1.1/" xmlns:rdf="http://www.w3.org/1999/02/22-rdf-syntax-ns#"
	 xmlns="http://www.w3.org/2000/svg" xmlns:xlink="http://www.w3.org/1999/xlink" x="0px" y="0px" viewBox="0 0 300 300"
	 style="enable-background:new 0 0 300 300;" xml:space="preserve">
<style type="text/css">
	.st0{fill:#004685;}
	.st1{fill:#EE1C25;}
</style>
<g transform="translate(-109.82969,-563.50386)">
	<g transform="matrix(8.5031131,0,0,-8.5031131,-3071.7606,1310.7362)">
		<g>
			<g>
				<g transform="translate(385.01691,69.543594)">
					<path class="st0" d="M0-6.2L0-6.2c-1.1-1.1-2.2-1.6-3.4-1.6c-2.5,0-4.3,1.9-4.3,4.5c0,2.6,1.8,4.5,4.3,4.5
						c1.2,0,2.4-0.5,3.4-1.6L0-0.5l1.6,1.9l0,0.1C0.2,3.1-1.4,3.8-3.4,3.8c-2,0-3.8-0.7-5.1-1.9c-1.4-1.3-2.2-3.1-2.2-5.3
						s0.7-4,2.2-5.3c1.3-1.2,3.1-1.9,5.1-1.9c2,0,3.6,0.8,4.9,2.4l0,0L0-6.2"/>
				</g>
			</g>
		</g>
		<path class="st0" d="M388.3,59.3h2.8v13.9h-2.8V59.3"/>
		<g>
			<g>
				<g transform="translate(402.22749,68.4785)">
					<path class="st0" d="M0-6.2c-0.8-0.5-1.5-0.7-2.1-0.7c-0.9,0-1.3,0.5-1.3,1.6v7.4h2.9v2.6h-2.9V9l-2.8-1.5V4.7h-2.4V2.1h2.4
						v-7.8c0-2.1,1.3-3.6,3.2-3.6c1.3,0,2.1,0.4,2.5,0.6l0,0l0.7,2.7L0-6.2"/>
				</g>
			</g>
		</g>
		<path class="st0" d="M404.6,59.3h2.8v13.9h-2.8V59.3"/>
		<g transform="translate(409.08369,81.770294)">
			<path class="st1" d="M0-6.2c-2.6,3.7-6.9,5.9-11.3,5.9c-4.4,0-8.7-2.2-11.3-5.9l-0.1-0.2h3.3l0,0c2.2,2.3,5.1,3.5,8.1,3.5
				S-5.4-4-3.2-6.3l0,0h3.3L0-6.2"/>
		</g>
	</g>
</g>
</svg>
