<?xml version="1.0" encoding="UTF-8"?><svg id="Layer_2" xmlns="http://www.w3.org/2000/svg" viewBox="0 0 256 256"><defs><style>.cls-1{fill:#ba3f3f;}.cls-2{fill:#b63535;}</style></defs><g id="Layer_1-2"><g><path class="cls-2" d="M143.05,53.9c-.32,5.47-.15,10.91,4.27,14.93,2.6,.16,5.13-.01,7.47,.57,2.04,.51,3.87,1.88,5.54,2.74,2.67-1.37,4.99-2.57,7.67-3.95v-4.75c.65-.58,1.08-1.13,1.64-1.41,.4-.2,.98-.04,2.04-.04,.46,.8,1.13,1.95,1.8,3.1l.55-.51v5.4c.92,2.03,1.62,3.58,2.54,5.61,1.06,1.06,2.58,2.57,4.4,4.38,1.64-.81,3.69-1.82,5.55-2.73l1.93-6.41c.85,.41,1.64,1.1,2.45,1.13,3.83,.12,7.66,.05,11.73,.05l2.01,2.91c2.68,2.68,5.87-.2,9.02-.06,.92-2.49,.8-5.41,3.37-7.34v-7.99c2.74-3.46,5.56,.21,8.04-.52,3.06-2.52,6.02-4.95,9.66-7.94l.37,6.17c-1.86,2.12-2.37,4.71-2.04,7.63-5.42,.97-9.83,3.33-13.1,8.04,.93,1.77,1.98,3.75,5.48,2.88-.66,2.09-1.12,3.53-1.61,5.08-1.36,.38-2.68,.85-4.05,1.11-5.25,.99-6.75,2.11-9.8,7.44-.24,.42-.65,.74-.98,1.1v7.72c2.19,5.09,8.16,7.26,9.16,13.47-2.4,1.21-4.84,2.44-7.52,3.78,.9,1.6,1.66,2.95,2.46,4.39h3.39c.51,1.48,.96,2.79,1.52,4.4-2.42,3.89-5.52,7.83-4.95,13.46l-3.09,.45c-1.12,2.31-2.34,4.82-3.93,8.08,.21,1.91-1.05,5.18,2.77,7.05v6.82c2.25,3.89,5.04,6.71,8.76,8.87,2.88-.15,5.9,.26,8.91-.94,2.92-1.17,5.17-2.64,6.65-5.6,1.84-3.66,3.96-7.11,3.91-11.41,0-.66,.79-1.33,1.27-2.08,1.13,1.66,1.8,3.25,1.71,5.22-.14,2.91,1.31,5.4,2.55,7.92,.83,1.68,2.03,3.32,1.07,5.72-1.57,1.67-3.71,3.15-6.21,4.42-3.07,1.56-5.72,4.01-8.41,6.26-1.96,1.64-3.61,3.54-6.11,4.58-1.85,.77-3.44,2.26-4.08,4.51-.55,1.92-1.45,3.74-1.67,5.93-1.84,1.53-3.68,3.07-5.34,4.45h-6.28c-5.4,3.03-7.76,7.7-7.56,13.78,.07,2.24,.02,4.41,.89,6.63,.61,1.57,.12,3.56,.12,5.35-5.85,1.26-11.57,2.52-16.48,5.42-6.3,3.72-11.22,8.89-12.56,16.63-.42,2.41-1.41,4.73-2.11,7.01-4.72,1.11-7.97-3.3-12.4-2.82-.69-1.23-1.86-1.99-2.59-3.4-1.99-3.87-9.08-8.77-13.34-9.49-3.56-.6-6.98,.5-9.78,2.76-2.24,1.8-4.1,3.96-5.08,6.87-.49,1.47-1.23,3.05-3.35,3.63-1.8,.48-3.28,1.21-4.8-.34-5.13,.24-8.05-3.92-12.82-6.01h-5.95c-4.55,3.48-9.52,5.61-14.99,6.97-2.49-.43-1.68-3.12-2.56-4.64-.86-1.5-.19-3.88-.19-5.75-3.79-4.14-7.66-8.06-12.95-9.98-4.23-1.54-8.3-3.77-13.01-3.59-2.4-1.99-5.49-.75-8.25-1.79-2.63-.99-5.92-.21-9.34-.21l-2.4-3.04s.07-.63,.39-.84c1.16-.77,2.36-1.9,3.63-2.02,3.36-.3,4.48-3,4.77-5.22,.68-5.09,.51-10.36-2.89-14.7-1.76-2.25-3.95-4.19-6.05-6.16-1.88-1.76-4.35-.71-6.36-1.09-5.42-4.84-10.03-10.16-12.84-16.79-.6-1.42-.67-3.08-1.08-5.14,2.18,0,4,.24,5.73-.05,2.76-.47,5.84-.69,8.06-2.13,2.48-1.61,4.95-3.82,6.09-6.86,.77-2.05,1.46-4.09,1.55-6.38,.21-5.37-.45-10.57-2.08-15.66-.18-.58-.64-1.06-.8-1.31l1.14-6.1-9.27-6.72v-3.63c.94-.86,2.12-2.03,3.4-3.08,.97-.79,2.14-1.35,3.09-2.15,2.63-2.22,4.1-4.95,3.35-8.54-3.55-3.34-7.92-3.82-12.52-3.32-1.58-3.43,1.71-6.38,.16-10.03-1.41-1.63-1.94-4.02-1.28-7.14,1.27,.53,2.67,.79,3.62,1.59,1.37,1.15,3.03,1.66,4.44,2.58,3.79,2.51,7.79,3.57,10.08,3.17,8.13-2.3,10.86-7.5,14.06-12.52l5.77,3.56c2.01-1.21,5-1.01,4.8-4.71l-3.24-2.64c.99-6.63,.04-12.09-6.53-15.23-1.63-2.06-1.28-4.68-1.22-7.48h7.99c3.55-2.73,5.33-6.17,7.21-9.76,2.34-4.48,5.02-8.93,9.23-12.34,2.11-.97,3.01,1.01,4.42,2.23v5.6c2.33,3.96,5.91,4.41,9.45,3.99,2.5,1.59,1.45,3.75,1.67,5.7l-6.86,5.46v3.53l2.86,2.86c3.67,1.23,7.04,2.37,10.67,3.59,3.42-1.24,5.99-3.62,7.79-7.02,2.76-5.2,5.21-10.52,6.78-16.67l3.88-3.35c.14-.04,1.03-.33,1.93-.59,.6-.17,1.47-.64,1.77-.4,2.16,1.69,4.86,.83,7.26,1.82,7.29,2.98,13.44-.15,19.17-4.59,2.77-2.15,3.57-5.6,5.71-8.16,1.61-1.93,2.86-4.17,4.13-6.06,2.84-.2,5.12,0,7.19,1.66,2.01,1.61,4.54,1.37,6.57,1.28,1.73-.76,3.19-1.29,4.54-2.02,1.24-.68,2.46-1.46,3.5-2.4,4.39-4.02,5.6-4.76,10.54-2.4,3.31,1.58,5.62,.21,7.85-1.1,4.19-2.46,7.77-5.76,10.29-10.07,.33-.56,1.22-.8,2.44-1.55,0,3.22,.13,5.84-.04,8.45-.15,2.37-.27,4.86-1.06,7.05-.77,2.14-1.6,4.4-3.41,6.09-4.71,4.39-8.35,9.52-10.64,15.58-.16,.43-.68,.72-1.21,1.25h-8.51c-1.83,.95-3.07,1.59-4.26,2.21-5.06-1.8-9.79-1.95-13.89,2.15-4.45-1.88-8.85-4.56-13.67-2.89-4.45,1.54-7.94,4.7-10.26,9.57Zm-21.2,171.1c4.08-.23,8.61,.36,13.15-.92,6.11-1.73,12.21-3.3,18.02-6.01,7.31-3.41,13.99-7.74,20.16-12.83,4.38-3.62,7.84-8.2,10.96-12.93,4.92-7.44,8.31-13.69,9.87-23.39,1.82-2.51,.14-5.62,1.15-8.02,1.17-2.78,.63-5.44,.83-8.15,.2-2.58-1.26-4.89-1.08-7.59,.26-3.95-.9-7.82-1.89-11.66-1.15-4.5-2.3-9.09-4.38-13.17-2.61-5.14-5.75-10.03-9.25-14.73-3.38-4.55-7.71-7.86-11.85-11.38-4.95-4.21-15.77-9.04-22.29-11.24-6.3-2.12-12.85-3.19-19.36-3.82-6.72-.66-13.45-.07-20.2,1.66-5.93,1.52-11.5,3.82-16.86,6.4-3.86,1.85-7.59,4.39-11.03,7.3-6.28,5.33-11.98,10.84-16.13,16.29-2.57,3.37-3.73,7.61-6.68,10.73-.25,3.02-2.11,5.53-2.85,8.29-1.72,6.42-2.55,13.08-3.05,19.72-.22,2.85-.66,5.8,.57,8.72,1.18,2.79-.55,6.16,1.34,8.94-.36,5.56,3.39,10.03,4.03,15.33,3.62,3.25,3.76,8.79,7.77,11.77,3.6,6.27,8.79,11.07,14.44,15.42,1.5,1.15,2.99,2.38,4.66,3.24,4.93,2.55,9.59,5.53,14.89,7.51,6.88,2.57,13.68,4.81,21.11,4.54,1.16-.04,2.33,0,3.95,0Z"/><path class="cls-1" d="M239.64,138.23c-1.51-2.47-2.9-4.69-3.64-7.57,1.54-2.72,3.21-5.69,4.83-8.55h3.94c.08,.43,.34,.95,.2,1.32-.38,1.01-.92,1.95-1.91,3.96-.33,2.27-.83,5.72-1.38,9.51l-2.03,1.33Z"/></g></g></svg>