<svg xmlns="http://www.w3.org/2000/svg" width="132" height="45" viewBox="0 0 132 45" aria-hidden="true" focusable="false" class="text-part"><path d="M108.788 44.625a5.02 5.02 0 01-5.01-5.033V6.667a5.01 5.01 0 1110.019 0v32.927a5.02 5.02 0 01-5.01 5.033M99.68 29.145c0-8.649-6.6-15.151-15.446-15.151a15.504 15.504 0 000 31.008 7.562 7.562 0 002.988-.557 3.915 3.915 0 002.366-3.653 3.663 3.663 0 00-2.271-3.546 13.877 13.877 0 00-3.561-.545 6.957 6.957 0 01-6.332-7.326 7.2 7.2 0 016.809-7.492c4.289-.2 6.387 2.73 6.387 4.416h-3.188a3.611 3.611 0 000 7.222h8.657a3.6 3.6 0 003.59-3.557v-.819zM58.721 14.297a5.02 5.02 0 015.013 5.025v20.273a5.011 5.011 0 11-10.022 0V19.322a5.02 5.02 0 015.01-5.025m5.511-8.77A5.509 5.509 0 1158.723 0a5.517 5.517 0 015.51 5.527m62.26 39.098a5.018 5.018 0 01-5.013-5.025V19.327a5.011 5.011 0 1110.022 0V39.6a5.018 5.018 0 01-5.01 5.025m-5.509-39.098a5.509 5.509 0 115.51 5.524 5.519 5.519 0 01-5.51-5.524M34.374 14.05c-3.856.162-8.128 2.536-9.956 5.394-1.828-2.858-6.1-5.231-9.956-5.394C5.6 13.676.003 19.499.003 27.95v11.835a4.186 4.186 0 00.338 1.622 5 5 0 009.5-.464 3.905 3.905 0 00.182-1.158V27.736a4.79 4.79 0 119.58 0v5a4.793 4.793 0 004.816 4.521 4.791 4.791 0 004.816-4.521v-5a4.79 4.79 0 119.58 0v12.047a3.9 3.9 0 00.182 1.158 5 5 0 009.5.464 4.186 4.186 0 00.338-1.622V27.948c0-8.449-5.6-14.272-14.459-13.9" fill="#00d132"></path></svg>