<?xml version="1.0" encoding="UTF-8"?><svg id="Layer_2" xmlns="http://www.w3.org/2000/svg" viewBox="0 0 288 288"><defs><style>.cls-1{fill:#fdfefd;}.cls-2{fill:#a9a9a9;}.cls-3{fill:#62b052;}.cls-4{fill:#60b050;}.cls-5{fill:#fdfdfd;}.cls-6{fill:#aaa;}.cls-7{fill:#60af50;}.cls-8{fill:#60b051;}.cls-9{fill:#fefefe;}</style></defs><g id="Layer_1-2"><g><path class="cls-7" d="M197.04,288H0V0H197.04V151.47h-3.56v11.49h3.56v125.03ZM39.16,128.18v34.54c1.51,0,2.99,.01,4.46,0,1.46-.01,2.92,.06,4.33-.04v-41.68c-4.4-.18-32.98-.1-34,.08v41.6c3.03,.14,7.88,.09,8.88-.09v-34.41h16.32Zm24.72,31.07c.79,1.03,1.42,1.98,2.38,2.7,1.31,.97,2.69,1.66,4.33,1.73,1.04,.04,2.08,.01,3.12,0,.58,0,1.13-.06,1.71-.21,1.98-.51,3.78-1.28,5.21-2.77,.47-.49,.97-.96,1.44-1.45,.18-.19,.33-.42,.5-.63,.63-.8,1.02-1.73,1.43-2.65,.3-.67,.52-1.39,.72-2.1,.2-.68,.44-1.38,.46-2.08,.02-.78,.23-1.53,.26-2.3,.04-1.32,.02-2.64,0-3.96-.01-1.31-.22-2.6-.48-3.88-.16-.81-.26-1.64-.5-2.43-.32-1.06-.8-2.08-1.42-3.01-.7-1.06-1.63-1.92-2.54-2.78-1.2-1.13-2.71-1.69-4.26-2.15-.32-.1-.65-.2-.98-.23-.38-.04-.76-.18-1.1-.21-1.75-.15-3.5-.08-5.18,.48-.8,.27-1.65,.58-2.28,1.11-1.02,.86-2,1.79-2.74,2.92-.16,.24-.3,.49-.59,.96v-4.32c-2.56,0-5.03,0-7.5,0-.04,0-.07,.02-.1,.04-.03,.02-.06,.05-.05,.05v42.61h7.77l.39-.36v-15.08Zm118.72,2c-.25-.27-.5-.48-.68-.74-.51-.78-.72-1.65-.72-2.58,0-5.96,0-11.91-.01-17.87,0-.81,0-1.67-.27-2.4-.27-.72-.36-1.52-.88-2.16-.43-.53-.74-1.16-1.21-1.65-1.09-1.13-2.51-1.75-3.94-2.33-1.48-.61-3.08-.5-4.62-.69-1.34-.16-2.71-.03-4.07-.04-.74,0-1.42,.37-2.17,.26-1.61,.65-3.33,1.08-4.74,2.15-.62,.47-1.34,.9-1.75,1.52-.84,1.26-1.81,2.47-2.16,4.02-.23,1.02-.81,1.98-.5,3.1,2.42,0,4.82,0,7.22,0,.33,0,.64,.02,.87-.41-.27-.74,.47-1.33,.51-2.13,1.08-1.32,2.51-1.9,4.24-1.79,.6,.04,1.2-.04,1.8,.02,.55,.06,1.12,.19,1.64,.38,.83,.32,1.28,1.01,1.68,1.79,.23,.46,.36,.95,.14,1.31-.26,.43-.04,.85-.25,1.3l-1.28,.96c-.4,.02-.83,.08-1.29,.2-.81,.21-1.68,.18-2.53,.28-.33,.04-.65,.19-.98,.22-.36,.04-.79-.11-1.06,.04-.42,.23-.82,.17-1.23,.22-.41,.05-.81,.21-1.22,.22-.92,.02-1.8,.27-2.68,.49-1.06,.26-1.96,.86-2.95,1.28-1.02,1.16-2.32,2.05-2.96,3.57-.5,1.2-.8,2.43-.9,3.7-.07,.88-.16,1.8,.22,2.66-.17,1.2,.42,2.22,.9,3.22,.69,1.44,1.69,2.66,3.21,3.34,.61,.27,1.19,.61,1.72,.88,.78,.11,1.5,.3,2.22,.29,1.41-.01,2.81,.05,4.23-.17,1.35-.21,2.5-.77,3.6-1.45,.82-.51,1.47-1.28,2.21-1.92,.32-.28,.68-.51,1.12-.84-.03,1.29-.11,2.41,.63,3.44h8.92v-1.72Zm-61.4-14.53c-.13-.98,.09-2.13-.2-3.32-.32-1.35-.65-2.67-1.23-3.93-.66-1.44-1.42-2.82-2.46-4.01-1.32-1.51-2.96-2.62-4.79-3.46-1.8-.82-3.72-1.01-5.62-1.15-1.51-.11-3.06-.19-4.57,.2-.63,.16-1.33,.12-1.91,.33-1.07,.38-2.17,.7-3.17,1.32-.81,.51-1.53,1.13-2.32,1.64-.85,.56-1.15,1.55-1.99,2.06-.68,1.28-1.59,2.42-2.14,3.79-.45,1.11-.64,2.29-1,3.42-.15,.47,0,1.03-.03,1.55-.04,.49-.16,.97-.23,1.46-.17,1.3,.33,2.56,.24,3.86,.5,.4,0,1.08,.42,1.51,.02,.92,.47,1.73,.81,2.54,.53,1.28,1.1,2.57,2.15,3.55,.47,.44,.95,.87,1.35,1.36,.73,.89,1.68,1.53,2.64,2.06,1.02,.56,2.04,1.3,3.32,1.24,.36,.43,.93,.19,1.38,.45,.37,.21,.91,.11,1.37,.15,.5,.04,1.01,.13,1.51,.12,1.17-.03,2.34,.12,3.51-.2,.61-.17,1.29-.03,1.94-.25,1.05-.36,2.17-.55,3.13-1.11,1.31-.77,2.66-1.53,3.68-2.7,.38-.44,.77-.87,1.1-1.35,.59-.87,1.29-1.71,1.66-2.67,.33-.85,.71-1.71,.86-2.66,.09-.61,.39-1.2,.41-1.86,.02-.65,.3-1.26,.24-1.94-.06-.59-.01-1.2-.01-1.98Zm3.39,5.96c-.17,1.73,.19,3.34,.93,4.87,.63,1.29,1.6,2.37,2.73,3.16,1.2,.83,2.5,1.65,4.05,1.78,.43,.42,1.03,.06,1.44,.27,.43,.23,.83,.15,1.24,.21,.41,.06,.82,.24,1.22,.22,1.69-.08,3.37,.17,5.07-.18,.81-.17,1.63-.3,2.43-.53,1.07-.31,2.11-.75,3.01-1.41,.82-.6,1.54-1.33,2.29-2.02,1.5-1.4,2-3.25,2.2-5.2,.06-.59,.03-1.2,0-1.8-.03-.8-.16-1.58-.71-2.23-.19-.23-.38-.48-.48-.76-.42-1.13-1.44-1.6-2.34-2.24-.75-.53-1.7-.53-2.48-1.02,1.87-.57,3.28-1.67,4.09-3.47,.15-.34,.45-.67,.45-1,.01-.74,.12-1.46,.24-2.18,.06-.34-.21-.73-.2-1.1,.01-.99-.65-1.75-.83-2.66-.97-1.32-2.06-2.52-3.54-3.29-1.83-.95-3.8-1.47-5.84-1.51-1.36-.03-2.74-.23-4.11,.19-.57,.18-1.25-.11-1.81,.26-1.32-.01-2.44,.68-3.61,1.14-1.25,.49-2.84,1.79-3.5,2.78-.39,.58-.75,1.21-1,1.86-.19,.49-.22,1.04-.25,1.57-.04,.58,0,1.17,0,1.73h7.59l.35-1.78c.15-.15,.27-.25,.37-.38,1.03-1.28,2.49-1.52,4-1.65,.98-.08,1.85,.31,2.7,.72,.17,.08,.36,.14,.49,.26,1.05,.95,1.25,2.2,1.01,3.49-.22,1.2-.85,1.92-1.99,2.22-.87,.23-1.75,.52-2.67,.51-1.06-.01-2.13,0-3.15,0v5.25c1.84,.13,3.64-.08,5.45,.24,2.03,.37,3.02,1.81,2.92,3.2-.03,.4-.01,.8,0,1.2,.05,2.01-1.79,3.84-3.79,3.79-.6-.02-1.21,.05-1.8-.02-.55-.06-1.13-.17-1.63-.39-1.31-.57-2.27-1.46-2.73-2.9-.13-.42,.06-.86-.24-1.26-2.37,0-4.77,0-7.16,0-.11,0-.23,.02-.37,.03Z"/><path class="cls-2" d="M200.88,0h87.12V288h-87.12v-125.02h3.2l.83-.55v-11.01h-4.03V0Zm21.6,159.4c.39,.52,.63,.86,.89,1.2,.28,.37,.53,.76,.86,1.08,.29,.3,.67,.51,.99,.77,1.26,1.03,2.78,1.54,4.33,1.66,1.35,.11,2.72,.17,4.1-.15,.92-.21,1.83-.44,2.66-.83,1.46-.69,2.71-1.69,3.87-2.84,1.3-1.29,2.22-2.77,2.78-4.49,.23-.71,.49-1.4,.67-2.13,.17-.69,.34-1.4,.41-2.09,.07-.77,.27-1.54,.25-2.29-.04-1.57,.21-3.13-.18-4.71-.17-.69,.02-1.51-.31-2.15-.35-.69,.04-1.48-.45-2.1-.2-1.44-.99-2.63-1.66-3.87-.52-.95-1.39-1.59-2.12-2.36-.96-1.01-2.22-1.53-3.45-2.09-.89-.41-1.87-.66-2.82-.69-1.48-.04-2.96-.12-4.47,.15-1.27,.23-2.28,.88-3.43,1.31-1.02,1.16-2.42,2.01-2.95,3.58-.04,.11-.19,.17-.44,.39-.01-.64-.03-1.1-.03-1.57,0-.52,0-1.04,0-1.56,0-.46-.02-.93-.03-1.34h-7.6v42.88h8.1v-15.76Zm25-27.13c-.21,.85,.23,1.6,.53,2.26,.44,.95,.66,1.96,1.09,2.91,.43,.94,.65,1.97,.99,2.95,.51,1.47,.88,3.01,1.49,4.42,.8,1.88,1.33,3.84,2.07,5.74,.86,2.2,1.59,4.46,2.34,6.7,.78,2.32,1.69,4.58,2.38,6.93,.14,.5,.17,1.11,.01,1.59-.35,1.05-1.14,1.83-2.05,2.44-.49,.34-1.05,.57-1.71,.51-.86-.07-1.73-.02-2.59-.02v6.36c.52,.13,.99,.27,1.47,.35,.7,.12,4.78,0,5.53-.26,.6-.22,1.27-.22,1.81-.55,.96-.58,1.9-1.21,2.6-2.11,.37-.48,.82-.95,.99-1.5,.39-1.25,1.09-2.35,1.5-3.58,.1-.31,.36-.57,.46-.89,.4-1.23,.81-2.47,1.26-3.68,.42-1.11,.76-2.24,1.16-3.36,.41-1.11,.78-2.24,1.2-3.34,.55-1.46,.9-2.99,1.51-4.41,.9-2.12,1.43-4.36,2.31-6.48,.73-1.74,1.26-3.56,1.88-5.34,.76-2.2,1.57-4.4,2.26-6.63,.12-.39,.17-.7,.16-1.03-1.68-.21-3.31,.24-4.9-.28-.11-.04-.27-.05-.35,0-.61,.42-1.3,.19-1.95,.23-.55,.03-1.09,0-1.65,0,0,.26,.06,.45,0,.57-.43,.73-.48,1.56-.71,2.35-.3,1.04-.59,2.08-.87,3.12-.35,1.29-.69,2.59-1.05,3.88-.29,1.04-.6,2.07-.9,3.11-.35,1.22-.65,2.45-1,3.66-.31,1.07-.62,2.15-.87,3.24-.2,.87-.47,1.73-.71,2.6-.06-.05-.18-.1-.2-.18-.07-.25-.06-.53-.16-.78-.81-2-1.14-4.15-1.89-6.17-.43-1.15-.64-2.37-.98-3.55-.29-1-.75-1.96-.91-2.97-.11-.72-.41-1.37-.57-2.06-.16-.71-.4-1.42-.63-2.13-.51-1.51-.88-3.08-1.3-4.59-1.45-.44-2.95-.26-4.43-.35-1.54-.09-3.04,.27-4.59,.29Z"/><path class="cls-9" d="M200.88,0V151.42h4.03v11.01l-.83,.55h-3.2v125.02h-3.84v-125.03h-3.56v-11.49h3.56V0h3.84Z"/><path class="cls-9" d="M39.16,128.18H22.84v34.41c-1,.18-5.85,.23-8.88,.09v-41.6c1.02-.18,29.6-.26,34-.08v41.68c-1.41,.11-2.88,.03-4.33,.04-1.47,.01-2.95,0-4.46,0v-34.54Z"/><path class="cls-1" d="M63.88,159.25v15.08l-.39,.36h-7.77v-42.61s.02-.03,.05-.05c.03-.02,.07-.04,.1-.04,2.47,0,4.94,0,7.5,0v4.32c.29-.48,.44-.72,.59-.96,.74-1.14,1.72-2.07,2.74-2.92,.63-.53,1.48-.85,2.28-1.11,1.68-.56,3.43-.63,5.18-.48,.34,.03,.72,.18,1.1,.21,.33,.03,.66,.14,.98,.23,1.55,.46,3.06,1.02,4.26,2.15,.91,.86,1.84,1.73,2.54,2.78,.62,.93,1.09,1.94,1.42,3.01,.24,.79,.33,1.62,.5,2.43,.26,1.28,.47,2.57,.48,3.88,.01,1.32,.03,2.64,0,3.96-.03,.77-.24,1.52-.26,2.3-.02,.7-.26,1.4-.46,2.08-.2,.71-.43,1.42-.72,2.1-.41,.92-.8,1.85-1.43,2.65-.17,.21-.31,.44-.5,.63-.47,.49-.97,.96-1.44,1.45-1.44,1.5-3.24,2.27-5.21,2.77-.58,.15-1.13,.2-1.71,.21-1.04,0-2.08,.04-3.12,0-1.63-.07-3.02-.75-4.33-1.73-.96-.71-1.59-1.67-2.38-2.7Zm-.57-12.34c.05,.78-.03,1.48,.18,2.09,.22,.67-.15,1.41,.35,2.01,.3,2.17,1.62,3.69,3.25,4.97,.36,.28,.9,.32,1.34,.5,.79,.31,1.61,.2,2.42,.24,1.78,.1,2.95-1.03,4.21-1.99,.44-.9,1.19-1.64,1.44-2.64,.26-1.03,.67-2.04,.54-3.13-.08-.69,.08-1.36-.2-2.07-.26-.65-.02-1.43-.23-2.18-.17-.6-.26-1.26-.39-1.88-.23-1.1-.89-2-1.62-2.79-.74-.81-1.69-1.31-2.81-1.6-1.03-.27-2.02-.1-3.03-.19-.13-.01-.27,.11-.41,.16-1.53,.54-1.95,.87-3.07,2.09-.93,1.01-1.28,2.28-1.65,3.51-.28,.95-.24,2-.32,2.9Z"/><path class="cls-1" d="M182.6,161.24v1.72h-8.92c-.74-1.03-.67-2.15-.63-3.44-.44,.33-.8,.57-1.12,.84-.74,.64-1.39,1.41-2.21,1.92-1.1,.68-2.25,1.24-3.6,1.45-1.42,.22-2.82,.16-4.23,.17-.72,0-1.44-.18-2.22-.29-.53-.28-1.11-.61-1.72-.88-1.52-.69-2.52-1.9-3.21-3.34-.48-1-1.07-2.02-.9-3.22-.38-.86-.29-1.78-.22-2.66,.11-1.27,.4-2.49,.9-3.7,.64-1.53,1.94-2.41,2.96-3.57,.99-.42,1.89-1.02,2.95-1.28,.88-.22,1.76-.47,2.68-.49,.41-.01,.81-.17,1.22-.22,.41-.05,.82,.01,1.23-.22,.28-.15,.71,0,1.06-.04,.33-.04,.65-.18,.98-.22,.84-.1,1.72-.07,2.53-.28,.45-.12,.89-.18,1.29-.2l1.28-.96c.22-.45,0-.88,.25-1.3,.22-.36,.09-.86-.14-1.31-.4-.78-.85-1.47-1.68-1.79-.52-.2-1.08-.32-1.64-.38-.59-.06-1.2,.02-1.8-.02-1.73-.1-3.16,.47-4.24,1.79-.04,.8-.78,1.39-.51,2.13-.23,.43-.55,.41-.87,.41-2.4,0-4.79,0-7.22,0-.31-1.12,.26-2.08,.5-3.1,.35-1.54,1.32-2.75,2.16-4.02,.41-.62,1.13-1.05,1.75-1.52,1.42-1.07,3.13-1.5,4.74-2.15,.75,.11,1.43-.27,2.17-.26,1.36,.01,2.73-.12,4.07,.04,1.54,.19,3.14,.08,4.62,.69,1.43,.59,2.85,1.2,3.94,2.33,.47,.48,.78,1.12,1.21,1.65,.52,.63,.61,1.44,.88,2.16,.28,.73,.27,1.6,.27,2.4,.02,5.96,0,11.91,.01,17.87,0,.92,.22,1.8,.72,2.58,.17,.26,.43,.47,.68,.74Zm-20.36-5.62c.36,.37,.73,.65,.94,1.01,.51,.88,1.35,1.19,2.24,1.25,.88,.06,1.77-.12,2.65-.22,.1-.01,.17-.16,.27-.21,.49-.25,.98-.53,1.49-.74,1.84-.76,2.98-3.07,2.97-4.86,0-.24-.1-.55,.02-.71,.37-.51,.2-1.06,.21-1.59,.02-.57,.07-1.16-.04-1.74-1.04,.61-2.1,.96-3.18,1.18-1.18,.24-2.36,.44-3.54,.7-1.5,.33-2.74,1.01-3.69,1.96-.22,.76-.5,1.35-.55,1.97-.05,.64,.13,1.29,.22,1.97Z"/><path class="cls-1" d="M121.2,146.71c0,.79-.04,1.39,.01,1.98,.06,.68-.22,1.29-.24,1.94-.02,.66-.32,1.25-.41,1.86-.14,.95-.53,1.81-.86,2.66-.37,.96-1.07,1.8-1.66,2.67-.32,.48-.72,.91-1.1,1.35-1.02,1.17-2.36,1.93-3.68,2.7-.96,.56-2.08,.75-3.13,1.11-.65,.22-1.33,.08-1.94,.25-1.17,.33-2.34,.17-3.51,.2-.5,.01-1-.08-1.51-.12-.46-.04-1,.06-1.37-.15-.45-.25-1.02-.01-1.38-.45-1.28,.05-2.3-.68-3.32-1.24-.96-.53-1.91-1.17-2.64-2.06-.4-.49-.88-.93-1.35-1.36-1.05-.98-1.63-2.26-2.15-3.55-.34-.81-.79-1.62-.81-2.54-.41-.43,.08-1.1-.42-1.51,.1-1.3-.41-2.56-.24-3.86,.06-.49,.19-.97,.23-1.46,.04-.52-.11-1.08,.03-1.55,.35-1.13,.55-2.31,1-3.42,.55-1.37,1.46-2.51,2.14-3.79,.84-.51,1.14-1.5,1.99-2.06,.79-.51,1.51-1.13,2.32-1.64,1-.63,2.1-.94,3.17-1.32,.58-.21,1.28-.16,1.91-.33,1.51-.39,3.06-.32,4.57-.2,1.91,.14,3.83,.34,5.62,1.15,1.84,.84,3.47,1.95,4.79,3.46,1.04,1.19,1.8,2.57,2.46,4.01,.58,1.26,.91,2.59,1.23,3.93,.28,1.19,.07,2.34,.2,3.32Zm-22.56-3.49c0,.22,.12,.62-.03,.83-.29,.41-.16,.83-.22,1.24-.06,.45-.2,.89-.23,1.34-.04,.68-.15,1.4,.03,2.03,.17,.61,.25,1.25,.4,1.86,.41,1.62,1.05,3.05,2.25,4.24,1.18,1.17,2.55,1.77,4.21,1.73,.52-.01,1.04,.03,1.56,0,.95-.07,1.89-.16,2.64-.88,.18-.18,.43-.31,.66-.43,1.21-.62,1.7-1.75,2.16-2.92,.52-1.33,.58-2.75,.69-4.14,.1-1.24,0-2.49-.17-3.74-.19-1.34-.65-2.57-1.35-3.64-.6-.92-1.52-1.64-2.55-2.16-.81-.4-1.69-.38-2.53-.53-.71-.13-1.45,.06-2.18,.17-1.72,.26-2.93,1.1-3.92,2.49-.55,.77-.86,1.66-1.42,2.53Z"/><path class="cls-5" d="M124.59,152.67c.15-.01,.26-.03,.37-.03,2.39,0,4.79,0,7.16,0,.29,.4,.11,.84,.24,1.26,.46,1.44,1.42,2.33,2.73,2.9,.51,.22,1.08,.33,1.63,.39,.59,.07,1.2,0,1.8,.02,2,.06,3.85-1.77,3.79-3.79-.01-.4-.03-.8,0-1.2,.1-1.39-.89-2.84-2.92-3.2-1.8-.33-3.61-.11-5.45-.24v-5.25c1.02,0,2.09,0,3.15,0,.93,0,1.8-.28,2.67-.51,1.14-.3,1.77-1.01,1.99-2.22,.24-1.29,.04-2.54-1.01-3.49-.13-.12-.32-.18-.49-.26-.85-.41-1.72-.8-2.7-.72-1.5,.13-2.96,.37-4,1.65-.1,.12-.22,.23-.37,.38l-.35,1.78h-7.59c0-.56-.03-1.15,0-1.73,.04-.53,.06-1.09,.25-1.57,.25-.65,.61-1.28,1-1.86,.66-.99,2.25-2.28,3.5-2.78,1.17-.46,2.28-1.15,3.61-1.14,.57-.38,1.24-.09,1.81-.26,1.36-.42,2.74-.22,4.11-.19,2.05,.04,4.01,.56,5.84,1.51,1.48,.77,2.57,1.96,3.54,3.29,.18,.91,.84,1.67,.83,2.66,0,.37,.26,.75,.2,1.1-.13,.73-.23,1.44-.24,2.18,0,.34-.3,.66-.45,1-.81,1.81-2.21,2.91-4.09,3.47,.77,.49,1.73,.49,2.48,1.02,.89,.63,1.92,1.1,2.34,2.24,.1,.28,.28,.53,.48,.76,.55,.65,.68,1.42,.71,2.23,.02,.6,.06,1.2,0,1.8-.2,1.95-.69,3.8-2.2,5.2-.74,.69-1.47,1.42-2.29,2.02-.9,.66-1.94,1.09-3.01,1.41-.79,.23-1.62,.36-2.43,.53-1.7,.36-3.38,.1-5.07,.18-.4,.02-.81-.16-1.22-.22-.41-.06-.81,.02-1.24-.21-.41-.22-1.01,.15-1.44-.27-1.55-.13-2.85-.96-4.05-1.78-1.13-.78-2.1-1.86-2.73-3.16-.74-1.53-1.1-3.14-.93-4.87Z"/><path class="cls-9" d="M222.48,159.4v15.76h-8.1v-42.88h7.6c0,.41,.02,.87,.03,1.34,0,.52,0,1.04,0,1.56,0,.46,.02,.93,.03,1.57,.25-.21,.4-.28,.44-.39,.53-1.57,1.92-2.42,2.95-3.58,1.14-.43,2.16-1.09,3.43-1.31,1.5-.27,2.99-.19,4.47-.15,.94,.03,1.93,.28,2.82,.69,1.23,.56,2.49,1.08,3.45,2.09,.73,.77,1.6,1.41,2.12,2.36,.68,1.23,1.47,2.42,1.66,3.87,.49,.62,.1,1.41,.45,2.1,.33,.64,.14,1.47,.31,2.15,.38,1.57,.14,3.14,.18,4.71,.02,.76-.18,1.53-.25,2.29-.07,.69-.24,1.4-.41,2.09-.18,.73-.44,1.42-.67,2.13-.56,1.73-1.48,3.2-2.78,4.49-1.16,1.15-2.41,2.15-3.87,2.84-.83,.39-1.74,.62-2.66,.83-1.38,.32-2.76,.25-4.1,.15-1.56-.12-3.07-.63-4.33-1.66-.32-.27-.7-.48-.99-.77-.32-.32-.58-.71-.86-1.08-.25-.33-.5-.67-.89-1.2Zm5.94-20.84c-.24,.05-.49,.11-.75,.15-.27,.04-.57-.02-.81,.07-1.31,.53-2.33,1.44-3.19,2.56-.91,1.17-1.22,2.59-1.39,3.97-.19,1.53-.06,3.11-.04,4.67,.01,.76,.43,1.43,.5,2.19,.04,.49,.29,1.02,.59,1.42,.67,.86,1.18,1.83,2.15,2.47,.79,.53,1.56,.91,2.51,.9,1.08,0,2.16,0,3.25,0,.76-.53,1.58-1.02,2.3-1.62,.71-.59,1.17-1.36,1.43-2.28,.23-.82,.5-1.64,.76-2.44,.29-.92,.05-1.79,.17-2.67-.39-.25-.17-.65-.23-.98-.07-.37-.2-.73-.23-1.1-.04-.61-.02-1.21-.23-1.82-.22-.65-.62-1.95-.99-2.47-.2-.28-.48-.51-.68-.8-1.05-1.46-2.17-2.05-3.92-2.07-.37,0-.74-.09-1.21-.15Z"/><path class="cls-5" d="M247.48,132.27c1.56-.02,3.05-.38,4.59-.29,1.48,.08,2.98-.1,4.43,.35,.42,1.52,.79,3.08,1.3,4.59,.24,.7,.48,1.42,.63,2.13,.16,.7,.45,1.34,.57,2.06,.16,1.01,.62,1.97,.91,2.97,.35,1.18,.56,2.4,.98,3.55,.75,2.02,1.09,4.17,1.89,6.17,.1,.24,.09,.52,.16,.78,.02,.08,.15,.14,.2,.18,.24-.87,.51-1.73,.71-2.6,.25-1.09,.56-2.17,.87-3.24,.36-1.22,.66-2.44,1-3.66,.29-1.04,.61-2.07,.9-3.11,.36-1.29,.7-2.59,1.05-3.88,.28-1.04,.57-2.08,.87-3.12,.23-.78,.28-1.62,.71-2.35,.07-.12,0-.31,0-.57,.56,0,1.11,.03,1.65,0,.65-.04,1.33,.19,1.95-.23,.08-.06,.24-.04,.35,0,1.58,.52,3.22,.07,4.9,.28,.01,.33-.04,.64-.16,1.03-.69,2.23-1.5,4.43-2.26,6.63-.62,1.78-1.15,3.6-1.88,5.34-.89,2.12-1.42,4.36-2.31,6.48-.6,1.42-.95,2.96-1.51,4.41-.42,1.1-.79,2.23-1.2,3.34-.41,1.11-.75,2.24-1.16,3.36-.45,1.21-.86,2.44-1.26,3.68-.1,.31-.36,.57-.46,.89-.41,1.23-1.11,2.33-1.5,3.58-.17,.55-.63,1.03-.99,1.5-.7,.9-1.64,1.53-2.6,2.11-.54,.33-1.21,.33-1.81,.55-.75,.27-4.83,.38-5.53,.26-.48-.08-.95-.22-1.47-.35v-6.36c.86,0,1.73-.05,2.59,.02,.66,.05,1.22-.18,1.71-.51,.9-.61,1.69-1.39,2.05-2.44,.16-.48,.13-1.1-.01-1.59-.68-2.35-1.6-4.61-2.38-6.93-.75-2.24-1.48-4.5-2.34-6.7-.74-1.89-1.27-3.86-2.07-5.74-.6-1.41-.98-2.95-1.49-4.42-.34-.98-.56-2.01-.99-2.95-.43-.95-.65-1.96-1.09-2.91-.3-.66-.74-1.42-.53-2.26Z"/><path class="cls-8" d="M63.31,146.91c.09-.9,.05-1.95,.32-2.9,.36-1.23,.72-2.5,1.65-3.51,1.12-1.22,1.54-1.56,3.07-2.09,.14-.05,.28-.17,.41-.16,1,.09,2-.08,3.03,.19,1.12,.29,2.07,.79,2.81,1.6,.73,.8,1.39,1.69,1.62,2.79,.13,.63,.23,1.29,.39,1.88,.21,.75-.03,1.52,.23,2.18,.28,.71,.12,1.39,.2,2.07,.13,1.1-.28,2.1-.54,3.13-.25,1-.99,1.74-1.44,2.64-1.26,.97-2.43,2.1-4.21,1.99-.81-.05-1.63,.07-2.42-.24-.45-.18-.98-.22-1.34-.5-1.64-1.28-2.95-2.8-3.25-4.97-.5-.59-.13-1.34-.35-2.01-.2-.61-.12-1.32-.18-2.09Z"/><path class="cls-3" d="M162.24,155.63c-.08-.68-.26-1.33-.22-1.97,.05-.62,.33-1.22,.55-1.97,.95-.96,2.19-1.63,3.69-1.96,1.18-.26,2.36-.46,3.54-.7,1.08-.22,2.15-.57,3.18-1.18,.1,.58,.05,1.16,.04,1.74-.02,.53,.16,1.08-.21,1.59-.11,.16-.02,.47-.02,.71,.01,1.79-1.13,4.1-2.97,4.86-.51,.21-1,.48-1.49,.74-.1,.05-.17,.2-.27,.21-.88,.09-1.78,.28-2.65,.22-.89-.06-1.73-.36-2.24-1.25-.21-.37-.59-.64-.94-1.01Z"/><path class="cls-4" d="M98.64,143.22c.55-.87,.87-1.75,1.42-2.53,.99-1.39,2.21-2.23,3.92-2.49,.73-.11,1.47-.3,2.18-.17,.84,.15,1.73,.13,2.53,.53,1.04,.52,1.95,1.24,2.55,2.16,.7,1.07,1.17,2.3,1.35,3.64,.17,1.25,.27,2.5,.17,3.74-.11,1.39-.17,2.81-.69,4.14-.46,1.17-.95,2.31-2.16,2.92-.23,.12-.48,.25-.66,.43-.74,.72-1.69,.81-2.64,.88-.52,.04-1.04,0-1.56,0-1.66,.05-3.03-.56-4.21-1.73-1.2-1.19-1.84-2.62-2.25-4.24-.16-.61-.23-1.25-.4-1.86-.18-.63-.07-1.35-.03-2.03,.03-.45,.16-.89,.23-1.34,.06-.41-.07-.83,.22-1.24,.15-.21,.03-.61,.03-.83Z"/><path class="cls-6" d="M228.42,138.57c.47,.06,.84,.14,1.21,.15,1.75,.02,2.86,.61,3.92,2.07,.2,.28,.48,.51,.68,.8,.37,.52,.77,1.82,.99,2.47,.21,.61,.18,1.21,.23,1.82,.03,.37,.16,.73,.23,1.1,.06,.33-.16,.73,.23,.98-.12,.88,.12,1.75-.17,2.67-.25,.81-.53,1.62-.76,2.44-.26,.92-.72,1.69-1.43,2.28-.72,.6-1.54,1.09-2.3,1.62-1.1,0-2.17,0-3.25,0-.95,0-1.72-.37-2.51-.9-.97-.64-1.48-1.61-2.15-2.47-.31-.39-.55-.93-.59-1.42-.07-.77-.49-1.44-.5-2.19-.03-1.56-.16-3.13,.04-4.67,.17-1.38,.48-2.79,1.39-3.97,.86-1.11,1.88-2.03,3.19-2.56,.24-.1,.54-.04,.81-.07,.25-.03,.5-.1,.75-.15Z"/></g></g></svg>