<svg xmlns="http://www.w3.org/2000/svg" id="Layer_1" data-name="Layer 1" viewBox="0 0 500 500"><defs><clipPath id="clip-path"><circle cx="212.95" cy="234.47" r="180.05" fill="none"></circle></clipPath><style>.cls-6{fill:#3d3935}.cls-7{fill:#6f7271}</style></defs><g clip-path="url(#clip-path)"><path fill="#99cfe7" d="M282.2 61.82C186 21.37 75.29 66.55 34.85 162.72s4.73 206.91 100.9 247.35 206.91-4.73 247.35-100.9-4.73-206.91-100.9-247.35zm-110.89 83.54c72.3 33.16 114 101.8 101.65 162.89-72.3-33.16-114.03-101.8-101.65-162.89z"></path><path fill="#3cb4e5" d="M171.31 145.36c-2.05-.94-4.11-1.86-6.2-2.74-84.37-35.47-175.64-9.83-203.86 57.28s17.29 150.27 101.66 185.75 175.63 9.84 203.85-57.27a106 106 0 006.2-20.13c-72.3-33.16-114.03-101.8-101.65-162.89z"></path><path fill="#d1d3d4" d="M381.36 68C297 32.48 205.73 58.12 177.5 125.23a106.65 106.65 0 00-6.19 20.13c72.3 33.16 114 101.8 101.65 162.89q3.06 1.41 6.2 2.73c84.36 35.48 175.63 9.84 203.85-57.27S465.72 103.44 381.36 68z"></path></g></svg>