<svg xmlns="http://www.w3.org/2000/svg" viewBox="0 0 757.4 606.36"><defs><style>.cls-1{fill:#579ac9;}.cls-2{fill:#fefefc;}.cls-3{fill:#f5fbfa;}.cls-4{fill:#f4fbfa;}.cls-5{fill:#5899c7;}.cls-6{fill:#5899c6;}.cls-7{fill:#569ac7;}.cls-8{fill:#559ac9;}</style></defs><g id="Layer_2" data-name="Layer 2"><g id="Layer_1-2" data-name="Layer 1"><path class="cls-1" d="M3.41,419.56c-.38-4-.91-8-1.1-12.07s.6-8.13-.19-12c-1.32-6.39-.66-12.75-.82-19.11s.63-12.75-.18-19c-1.43-10.88-.61-21.74-.81-32.6s0-21.66,0-32.49c0-11-.71-22,.17-33,1.13-14.05.5-28.07.83-42.1,2-6.94.54-14.06,1-21.08.16-2.37.78-4.71.94-7.08s-.55-5.19.18-7.45c.94-2.92.26-5.87,1-8.6.76-2.9.53-5.77,1-8.61s.62-5.75,1.08-8.57c.42-2.54.24-5.25,1-7.55s.06-5,.93-7.1c1.93-4.67,1.4-9.92,3.82-14.41-.14-3.55,1.37-6.76,2-10.15A48.71,48.71,0,0,1,18,105.22c1.11-2.32,1-4.87,2.24-7.09s2.7-4.44,2.85-6.74c.13-2,1.72-2.64,2.24-4.15,1.82-5.33,5.27-9.81,8-14.67,1.31-2.33,3.2-4.32,4.67-6.57,3.28-5,8-8.73,12.05-13a68,68,0,0,1,9.62-8c3.59-2.59,7-5.46,10.92-7.58,6.8-3.65,13.36-7.75,20.76-10.23C95,26,98.48,24.35,102.07,23a20,20,0,0,1,4.41-1.38c3-.42,5.31-2.48,8.54-2.52,2.68,0,5.32-1.48,8.14-2,4.26-.77,8.38-2.4,12.74-3,1.12-1.51,2.75-.59,4.13-.88a21,21,0,0,1,4.09-.93c2.76,0,5.27-1.17,8.08-1.25a30.75,30.75,0,0,0,7.55-1c5-1.46,10.39-.91,15.3-2.84a3.12,3.12,0,0,1,1.49,0c5.1.73,10.08-.71,15.06-1.24,3.54-.37,7.2-.08,10.58-.89,5.88-1.42,11.84,0,17.59-1s11.86,0,17.57-1c6.25-1.15,12.5,0,18.6-.94,7.88-1.24,15.73-.74,23.6-.85s16.09.72,24-.21c11.9-1.4,23.75-.52,35.61-.77s23.66,0,35.49,0h36c11.84,0,23.72-.67,35.48.22,8.39.64,16.74.6,25.1.75s17.07-.65,25.47.24c6.9.74,13.84-.1,20.58,1,5.58.89,11.17,0,16.59.95s11.14.19,16.58,1c3.73.58,7.54.14,11.07,1s7.18.07,10.49,1.16,6.86.13,10.21.71c5,.87,10,2.24,15.17,2,1.84,1.53,4.25.36,6,1.14s3.81.47,5.63.92c4,1,8.19,1.26,12.13,2.18,4.35,1,8.84,1.79,13.1,3.26,2.8,1,5.74,1.21,8.55,2.29,1.48.57,3.85.22,4.88,1.33,1.5,1.62,3.74-.13,4.88,1.66,3.88,0,6.92,2.74,10.66,3.26,1.68.23,2.49,2.71,4.64,2,7.2,3.93,14.88,6.85,21.77,11.51,5.58,3.76,11.2,7.31,15.94,12.14,1.57,1.6,3.77,2.61,5.17,4.31,5.85,7.12,12.16,13.85,16.67,22,2.17,3.94,4.23,7.93,6.33,11.9a44,44,0,0,1,2.13,5.11c1.58,4.18,3.85,8.09,4.65,12.59a55.21,55.21,0,0,0,1.76,5.76c.39,1.34.64,2.73,1,4.06.23.73.94,1.42.91,2.1-.11,3,.89,5.54,2,8.21.76,1.85.72,4,1.1,6.05.28,1.53.72,3,1,4.59s-.54,3,1,4.08c-.68,3,1.08,5.67,1,8.58a28,28,0,0,0,1.83,10.24,4.52,4.52,0,0,1,.16,1.43,98.88,98.88,0,0,0,.84,11.11c.92,7,.32,14.11,1.31,21s.05,14.15,1,21.08c1.1,7.89.67,15.74.81,23.6s-.71,15.76.21,23.48c1.42,11.89.53,23.74.77,35.6s.26,24,0,36c-.2,8.36-1.2,16.69-1,25.09s.75,17.07-.17,25.47c-.79,7.23.1,14.49-1,21.57-.82,5.42-.1,10.82-1,16.09-.64,3.89-.24,7.85-1,11.57-.69,3.25-.62,6.41-.86,9.62a31.45,31.45,0,0,1-1,4.09c-.3,1.38.56,2.91-.79,4.21-.43.42-.21,1.56-.21,2.37,0,3.69-1.24,7.17-1.76,10.72a106.89,106.89,0,0,1-2.19,12.14c-1,3.63-1.44,7.39-2.29,11.06-.41,1.8-1.25,3.49-1.74,5.27s-.44,3.49-1.08,5.05c-1.12,2.72-1.92,5.62-3.12,8.2-2.08,4.48-3.05,9.4-5.76,13.63-2.17,3.38-3.72,7.15-5.92,10.54s-3.9,7.19-6.46,10.29a136.66,136.66,0,0,1-13.43,14.4c-4.94,4.46-10,8.87-16,12.07-4.79,2.59-9,6.06-14.08,8.22-8.66,3.69-17.2,7.66-26.3,10.12-4.65,1.26-9,3.83-14,3.52-5,2.74-11,2-16.06,4.67a2.45,2.45,0,0,1-1.36.31c-3.29-.45-6.4.61-9.58,1a33.33,33.33,0,0,0-8.69,1.93c-.57.25-1.33,0-2,0-2.08.23-4.33-.68-6.24.59-1.69,1.13-4-.7-5.46,1.37-.11.15-.64,0-1,0-3,.06-6.18-.45-9.08,1-5.6-.77-11.07.72-16.57,1.2-5,.43-10.2,0-15.06,1-5.76,1.15-11.46.16-17.11.88-5.36.68-10.85.25-16.05,1.16-5.61,1-11.11.79-16.62.67-11.4-.24-22.69,1.52-34.09,1.18-11.65-.35-23.33-.08-35-.08h-104c-11.5,0-23-.07-34.5,0-6.39.05-12.65-1.47-19.08-1.11s-12.75.73-19-.11c-5.57-.76-11.21.06-16.57-1-5.76-1.13-11.45-.26-17.12-.88-4.86-.52-9.68-1.24-14.59-.94-3-1.83-6.39-.66-9.58-1-2.37-.27-4.73-.63-7.08-1s-4.87.82-7.15-.92c-.63-.48-1.94-.1-2.94-.07a29.15,29.15,0,0,1-10.74-1.83,4,4,0,0,0-1.43-.16,51.36,51.36,0,0,1-13.19-1.93c-2.92-.75-6.06-.61-9.06-1.12-3.23-.55-6.68-.85-9.52-2.29-1.91-1-3.72-.48-5.56-1.07-4.41-1.44-8.94-2.65-13.5-3.69a96.79,96.79,0,0,1-13.2-4.29c-6.18-2.38-12.28-5-18.32-7.66a37.47,37.47,0,0,1-7.66-4.39c-2-1.58-4.59-2-6.54-3.57a63.52,63.52,0,0,0-6-4.78,43.71,43.71,0,0,1-8-6.06c-2.47-2.49-5-4.9-7.41-7.44a81.08,81.08,0,0,1-13.28-18c-1.24-2.35-3.13-4.36-4.36-6.71-1.71-3.27-3.6-6.6-4.4-10.13-.42-1.9-2.59-2.52-2.25-4.63.29-1.82-.71-3.29-1.84-4.73s-.75-3.69-1.52-5.35c-.93-2-.76-4.22-1.94-6.22-1.06-1.79-.94-4.25-1.71-6.27s-.85-4.21-1.79-6.26c-.74-1.59-.46-3.66-1-5.56s-.5-3.74-1.17-5.54c-1-2.78-.71-5.72-1.09-8.57-.65-4.89-1.91-9.7-1.9-14.68-1.74-2.52-.7-5.39-1-8.09-.26-2.2-.65-4.39-1-6.58-.31-2,.31-4-.84-6.17-.84-1.55-.16-3.92-.16-5.92Zm652.8-58.76a9.66,9.66,0,0,0-1-6.15c-.31-.54-.86-1.07-.87-1.62-.09-2.93-1.51-5.36-2.62-7.93s-1.7-5.56-3.15-8.21c-2.58-4.73-3.73-10.11-6.25-14.9-1-1.9-1.83-3.91-2.65-5.9a29.68,29.68,0,0,1-1.75-4.77c-.78-3.34-2.42-6.37-3.77-9.44-1.5-3.4-3.3-6.64-4-10.33-2.2-1.47-1.83-4.25-3.16-6.19s-2-4.52-2.66-6.9a3.6,3.6,0,0,0-.56-1.26c-2.1-2.57-3.07-5.79-4.28-8.73-2.82-6.84-5.63-13.67-8.78-20.36-.52-1.1-1-2.22-1.58-3.49a8.7,8.7,0,0,1,1.56-.37c1.33,0,2.82-.39,4,.07,2,.81,4.2,1,6.26,1.75,2.79,1,6.07.54,9,1.25s6.14,1.23,9.18,2c2.64.62,5.54.41,7.93,1.36,4.87,2,10,2.61,15,3.39,4.54.71,8.87,2.94,13.63,2.22,2.88,1.72,5.78,1,8.82.39a12.31,12.31,0,0,0,7.58-4.78c.3-1.09.48-1.85.71-2.59,1-3.36,1.22-6.92-.85-9.69a24.35,24.35,0,0,0-7.95-7.16c-3-1.59-6-3.19-8.94-5-5.47-3.34-10.85-6.8-16.28-10.21-3.16-2-6.62-3.4-9.69-5.62-3.27-2.37-6.86-4.29-10.34-6.37-4-2.4-8-4.73-12-7.13-4.28-2.56-8.41-5.39-12.81-7.71-5-2.62-9.55-5.85-14.47-8.53-2.73-1.48-5.49-3-8.68-2.58l-3.53,3.54c-4.64,9.46-9.68,17.47-13.55,26.3l-1.12.29a9,9,0,0,1-4.45,7.1,35.28,35.28,0,0,1-3.84-3.91c-3.73-5.1-7.28-10.32-11-15.44-1-1.44-2.3-2.72-3.31-3.9h-4.07c-7,4.82-12.06,11.46-18.19,16.93h-1.81a26.89,26.89,0,0,1-3.57-6.61c-1.54-3.87-3-7.73-4.88-11.49-1.06-2.17-1.88-4.3-3.72-5.86a7.44,7.44,0,0,0-6.48,2.54c-4.37,4.69-9,9.19-13,14.16-2.05,2.54-4.53,4.71-6.39,7.33-3.93,5.51-8.78,10.24-12.88,15.62-3.36,4.41-7.48,8.25-11.22,12.38a85.52,85.52,0,0,0-7,8.11,95.37,95.37,0,0,1-10.28,12.23,91,91,0,0,0-7.76,8.79c-2.92,3.86-5.7,7.83-9.26,11.13a13.11,13.11,0,0,0-4.56,7.62c-.35,2.21-.56,4.45-.79,6.38l6.69,6.69h8.55c2.44-1.54,4.6-2.83,6.68-4.23,3.79-2.55,7.46-5.27,11.31-7.73,4.59-2.95,9.4-5.54,13.93-8.57q7-4.69,14.18-9.21c4.76-3,9.59-5.93,14.29-9,1.1-.72,2.59-2.19,4.42-.87,0,1.4.42,3-.07,4.27-1.68,4.32-2,8.93-2.6,13.38-.59,4.09-2.55,7.81-2.63,11.95-1.53,1.53-.05,3.63-1.24,5.53s-1.32,4.59-1.2,6.91c.11,2.07-1.29,3.67-1.09,5.59.24,2.18-1,3.94-1.42,5.92-.17.76-.48,1.49-.59,2.25-.37,2.69-.33,5.5-1.11,8.06-.86,2.87-1.06,5.89-2,8.66s-.73,6-2,8.68c-1,2.19-.45,4.5-1,6.58-.88,3-2,6-1.89,9.2-1.84,1.49-.58,3.69-1.27,5.48-2,5.14-2.6,10.63-3.59,16-.77,4.19-2.86,8.2-2.14,12.64-2,1.19-.47,3.58-1.85,5.3-1.11,1.41-.81,3.93-1.16,6-.32,1.86-.63,3.73-1,5.58a23.38,23.38,0,0,0-.93,4.09c0,3.86-1.26,7.51-2.24,11.12a52.54,52.54,0,0,0-1.68,7.74c-.49,4.26-1.64,8.36-2.46,12.53s-2.7,8-2.72,12.38c0,1.19-.74,2.37-.92,3.59s.19,2.73-.23,3.91c-2,5.62-2.8,11.51-4.14,17.26H386.4V248.82c3.61-4.58,8.12-8.16,11.75-12.71,4.69-5.89,7.49-12.56,10-19.39,2-5.4,4.4-10.81,4.08-16.81,2-1.84.16-4.5,1.33-6.44,1.31-2.2.68-4.53.59-6.73-.26-6.36,1-12.76-.84-19.11-.83-2.89-.11-6.32-1.28-9-1-2.28-.17-4.68-1.59-6.87a17.25,17.25,0,0,1-2.14-6.57c-.39-2.45-2.28-4.13-2.83-6.33-.9-3.57-3-6.56-4.81-9.49a76,76,0,0,0-14-16.22c-1.56-1.38-3.16-2.7-4.75-4.06-1.93.15-3.89-.12-5.45.54-2.93,1.23-5.9,2.92-7.59,5.63s-4.17,4.56-6.09,7-3.62,4.81-5.31,7.3a54.3,54.3,0,0,0-4.18,6.77c-1,2.06-1.42,4.4-2.22,6.57a51,51,0,0,1-2.86,6.81c-1.2,2.16-.95,4.57-1.59,6.83a57.33,57.33,0,0,0-2.28,13c-.36,7.82-.11,15.66-.1,23.49,0,1-.23,2.29.29,2.84,1.13,1.22.45,2.52.72,3.75s1,2.39.93,3.58c0,5,2.28,9.45,3.78,14a58.06,58.06,0,0,0,5.09,10.9c3.05,5.22,6.78,9.86,10.31,14.68a14.52,14.52,0,0,0,4.66,4.38c4,2.08,5.12,5.43,5.2,9.46.07,3,.15,6,0,9s-.9,5.72-.92,8.59c-.1,13.83,0,27.66,0,41.49,0,8.17-.17,16.34,0,24.5s-.73,16.4.83,24.61c.73,3.85.11,8,.1,12-1.94,2.33-1.44,5.34-.75,7.53a23.65,23.65,0,0,1,.71,7.65c0,2.7-.92,5.4-.87,8.09.1,5.36-.61,10.73.81,16.12.73,2.8-.17,6,.21,9s-1.27,5.66-1.11,8.6c.13,2.49,0,5,0,7.5v7.5c0,2.66,0,5.33,0,8,.05,2.45-.53,5.28.49,7.27,1.4,2.74-1.58,4.53-.56,6.92.36.85-.28,2.26.22,2.88,1.72,2.17.46,4.32.69,6.29h-66.7a6.55,6.55,0,0,1-1.12-1.71c-.74-3-1.44-6.09-2-9.16-.66-3.55-1.66-7-2.36-10.57s-.89-7.14-2.66-10.36c.67-4-2.68-7.2-2-11.17-2.06-1.8.05-4.86-2-6.67.08-3.06-2-5.8-1.86-8.66.15-4.31-2.8-7.87-2.26-12.13-1.75-1.4-.38-3.44-1.06-5.06-1.44-3.48-2-7.25-2.64-10.86-.71-3.88-2.2-7.51-2.77-11.43-.72-4.91-2.66-9.65-3.29-14.57-.52-4.1-1.6-8.1-2.48-12-1.23-5.47-2.2-11-3.71-16.43-1.05-3.76-1.83-7.58-2.63-11.37s-2.07-7.24-2.45-11.06c-.2-2-.26-4.3-1-6-1.92-4.34-1.3-9.33-3.83-13.42-.18-5.09-2-9.83-3-14.76a33.33,33.33,0,0,1-.94-5.08c-.07-2.16-.36-4.13-2.1-5.84.64-3.72-2.21-7.35-.57-11.39.41,0,1-.07,1.28.17,1.84,1.5,4.47,1.74,5.95,3.78,2.46-.54,3.93,1.56,5.3,2.72,1.67,1.41,3.8,1.29,5.47,2.86a16.51,16.51,0,0,0,7.58,4.45c.57.13,1,.68,1.57,1,3.46,2.13,6.92,4.24,10.37,6.37q6.57,4.07,13.13,8.13a65.75,65.75,0,0,0,7.13,3.31c2.49,1.14,5.57,1,7.39,1.27a12,12,0,0,0,7.4-7c.14-3.25.51-7-2-10.2-1.45-1.9-2.78-3.89-4.32-5.71-2.42-2.85-5-5.55-7.53-8.32-6.47-7.15-13-14.29-19.35-21.53-5-5.68-10.33-11.07-15.52-16.58-.23-.25-.57-.43-.69-.72-1.18-2.83-3.75-4.46-5.67-6.65s-4-4.71-6-7c-3.27-3.66-6.89-6.95-10-10.81-4.74-5.88-10.22-11.17-15.46-16.63-1.43-1.49-3.13-2.72-4.48-3.88-2.83-.26-5.17-.22-7.17,1.58a52,52,0,0,1-4.89,3.88A39.9,39.9,0,0,1,224,188c-1.78.9-4,1.15-5.48,2.36-2,1.66-4.34.47-6.46,1.42-1.8.81-4.17.41-6.29.48a37.76,37.76,0,0,1-5,0c-1.55-.16-3-.72-4.6-.93a22.78,22.78,0,0,1-4.65-.84c-1.64-.57-3.52-.34-4.64-2.09-4.65-.71-8.13-3.76-12.2-6h-5.24c-.72,2-2.71,1.5-4,2.28-3.63,2.13-7.17,4.41-10.78,6.58-3.06,1.84-6.18,3.58-9.25,5.42-5.88,3.51-11.55,7.45-17.69,10.44-3.64,1.78-6.51,4.89-10.58,5.81-5.7,4.42-12.29,7.4-18.37,11.21A71.63,71.63,0,0,1,88.18,230c-3.13,1.3-5.86,3.55-8.83,5.25-4.24,2.43-9.37,6.57-11.3,9.82-1,1.7-2.47,3.79-1.62,5.68.95,2.1,1,5.16,4.4,5.67,1.14.17,2.14,1.21,3.27,1.89,3.32-.21,6.69.23,10.05-1,4.26-1.54,8.93-1.5,13.25-3a16.65,16.65,0,0,1,5.07-1c3.53-.09,6.82-1.15,10.17-2,1.67-.45,3.22-1.21,5.09-1.08,1.33.09,2.7-.7,4.08-.89a32.6,32.6,0,0,0,4.13-.87,48,48,0,0,1,9.63-2c4.69-.24,8.77-2.35,13.43-3.16.94,2.38-.4,4.5-1.51,6.08-2.08,3-2.52,6.79-5.19,9.38-.05,3.31-2.55,5.61-3.74,8.45-1.59,3.8-3.77,7.39-5.48,11.22a32.73,32.73,0,0,1-3.61,7c-1.9,2.41-1.88,5.72-4.2,7.79-.35,3.9-3.74,6.36-4.7,10.08-.42,1.62-1.86,3.1-2.41,5-.5,1.73-2.25,3.08-2.83,4.81-1.61,4.87-5.25,8.8-6.26,13.91-3.7,4-4.91,9.32-7.68,13.84-2.07,3.38-3.26,7.3-5,11.3v3.48c7.76,12,18.86,20.25,27.87,30.39,0,.58.21,1.31,0,1.55-3.59,3.44-7.25,6.82-11.44,10.73h-1.46c-3.06-2.14-5.68-4.24-8.56-5.89s-5.45-4.22-9.63-5.78a62.47,62.47,0,0,0-14.09-9l-3.31-3.32c-1.73.52-2.61-.76-3.76-1.7A38.32,38.32,0,0,0,67.84,370l-9.68,1-5.91,5.4a26.66,26.66,0,0,0-1,4c-.57,5.36,2.11,9.77,4.74,14a75.08,75.08,0,0,0,7.62,9.89,88.06,88.06,0,0,1,9.15,12.2c1.51,2.46,4.12,3.88,5.32,6.28,1.86,3.74,4.69,6.52,7.52,9.37s5.38,5.47,8.16,8.11a23.11,23.11,0,0,0,3.45,2.49c1.71,1.1,3.56,2,5.15,3.23a18.8,18.8,0,0,0,6.64,3.33,23.3,23.3,0,0,1,3.67,1.71c2.57.42,5.09,1.16,7.6,1.16s5-.73,7.67-1.17c2.73-2.05,6.49-2.52,9.33-4.75,1.15-.9,2.12-2.05,3.34-2.84a90.6,90.6,0,0,0,15-12c8.7-8.74,17.42-17.45,26-26.08h6.12a16.72,16.72,0,0,0,4.7,2c2.71.73,5.55,1.07,8.14,2.09,3.16,1.25,6.52.9,9.73,1.82,2.55.73,5.34,0,8.11.95,2.22.78,4.95,0,7.44.2s4.71.73,7.09.93c2,.16,3.95,0,5.07,0l4.13,3.91c-.17,4,3.45,7,3,11.15,2.43,3.52,2.2,7.77,3.23,11.68l1.76,1.75c-.41,2.08,4.55,16.68,5.28,19.31a101.45,101.45,0,0,0,7.15,19.06H51.47v11.1H266.08a51.1,51.1,0,0,1,3.15,5c1.16,2.34,1.85,4.92,3.09,7.21s1.6,5.19,3.09,7.18c1.72,2.29,2.68,5,4.58,7.22,2.83,3.36,5.14,6.83,9.87,7.67.65.12,1.07,1.59,1.19,1.79,8.89,0,10.71-1,20.07-10.35a62.39,62.39,0,0,1,1.59-6.53c.85-2.41.51-4.68.14-7.09-.61-3.89-2-7.72-1.49-11.89H373.9c.41.41.89.88,1.53,1.53v37.23h10.71V492.87l1.47-1.48h68.7c-.08,1.29.28,2.75-.29,3.44-1.42,1.71-.41,3.52-.75,5.23s-.67,3.72-1,5.58a.77.77,0,0,0,0,.5c1.79,2.69.64,5.73,1,8.26.76,1.15,1.46,2,2,3,2.15,4.1,4.94,7.38,9.84,8.17.92.15,2.08.18,2.66.75,1.74,1.71,4,1.26,5.61.78,6.31-1.92,12-5.11,15.86-10.69a105,105,0,0,0,10.29-18.72c.62-1.45.35-2.82,1.21-3.83l2.09-2.87H705.1V480.24H508a.77.77,0,0,1-.42-.17,4.6,4.6,0,0,1-.52-.56c.37-1.7.69-3.57,1.2-5.38a109,109,0,0,1,3.72-12,14,14,0,0,0,1.26-6c.46-.92.76-1.47,1-2,2.2-5.31,3-11,4.82-16.48,1.36-4.09,3-8.18,3.71-12.47.43-2.67,2-4.93,2.37-7.5a10.92,10.92,0,0,1,2.38-5.33c3.72-.68,7.57-1.89,11.44-1.94,4.09-.05,7.81-1.39,11.63-2.29a6.13,6.13,0,0,0,4-3.52c2.23-4.72,4.35-9.48,6.3-14.83,2.3,1.84,4.57,3.35,6.48,5.23,10,9.84,19.82,19.78,29.73,29.66,6.25,6.24,12.22,12.79,19.68,17.67a40.31,40.31,0,0,0,6.4,3.86c2.4,1,4.92,1.86,7.37,2.68,2.69.9,5.88.34,8.85.39,1.81,0,3.63,0,4.43,0a46.49,46.49,0,0,0,14.81-9c5.18-4.49,9.14-10.12,13.46-15.41.58-.71.81-1.74,1.45-2.38,5.67-5.64,10.8-11.76,15.93-17.89,4.32-5.16,9.06-10,13.36-14.64.43-1.16.77-2,1.09-2.89,1.63-4.45,1.78-5.28.23-9.05a12,12,0,0,0-9.58-7.61c-6.5-1-12.32,1.08-15.94,4.8l-30.26,16h-3.72l-10.45-10.38v-3.25c3.57-2.37,7.27-4.77,10.91-7.25,1.32-.9,2.43-2.67,3.79-2.84,3.12-.41,4.29-2.44,5.49-4.79A8.4,8.4,0,0,1,656.21,360.8ZM236.05,132.69c4-2.45,7.33-5.18,9.22-9.28,0-2.83.42-5.75-.12-8.47-.61-3.14-1.48-6.57-3.14-9.11-1.88-2.88-2-6.9-5.44-8.78-1-2.93-3.64-4.56-5.68-6.61s-4.62-4-7-6c-2.16-1.83-5.53-1.57-7.26-4.16-3.22-.13-5.65-3-8.74-2.88-3.48.18-6.69-1.26-10.07-1.09-3.87.19-7.72.64-11.58,1-.16,0-.37-.06-.49,0-3.89,2.27-8.43,2.77-12.48,4.86-7,3.62-12.24,9-17,15a52.75,52.75,0,0,0-5,8.39c-1.06,2-1.77,4.26-2.64,6.4-.47,2.23-.45,4.55-1.28,6.94s.68,5.2-1,7.36a8.29,8.29,0,0,1,.88,2.75c-.2,2.95.59,5.73,1,8.59.43,3,2.22,5.54,2.88,8.28,1.53,6.35,5.79,10.06,10.74,13.48,1.63,0,3.73-.62,4.86.15,1.63,1.12,2.49-.42,3.78-.26,1.45.17,3-.45,4.8-.78,1.37,2.56,3.2,5,4.82,7.47,2.5,3.8,5.82,6.19,9.52,8.43a18.3,18.3,0,0,0,10.23,3c2.34,1.86,5.08.91,7.59.84a33.82,33.82,0,0,0,7.86-1.46c3.51-1,6.42-2.93,9.41-5.09a27.93,27.93,0,0,0,9.52-11.07,34.93,34.93,0,0,0,3.2-9.69c.75-5.18,1-5.23.19-8.81C236.88,139,236.55,135.79,236.05,132.69Zm262.87-41.6c.43,2.69,1.29,5.53,1.25,8.36-.06,4.35.73,8.72-.77,13.12-.83,2.46-.19,5.33-1,8.07-.73,2.52-.58,5.35-1,8.06a31.07,31.07,0,0,0,1.84,16.12c.23.57.5,1.12.76,1.68,2.24,4.84,6.22,8.24,9.91,11.87a13.46,13.46,0,0,0,3.11,2.12c1.9,1,3.84,2,5.81,2.82s4.27,1.68,6.36,2.5c.2,3.18,1.92,5.93,2.35,9.08.36,2.57,2.65,4.49,5.14,5.13a26.25,26.25,0,0,0,5,1.14c4.48.23,9,.17,13.48,0a16.24,16.24,0,0,0,5.06-1c4.35-1.61,8.3-3.9,11-7.85.35-.51.93-1,.94-1.59.12-3.67,1.59-7.06,2.06-10.65.36-2.69.22-5.56,1.16-8a13.45,13.45,0,0,0,.83-5.14,27.15,27.15,0,0,1,1.86-9.21c1.1-3.2,2-6.49,3-9.73s.81-7,1.15-10.53c.06-.64-.12-1.47.22-1.89a6.15,6.15,0,0,0,.59-6.11c-1.17-2.89-.91-5.89-1.63-8.78a30.18,30.18,0,0,0-6.26-12.89A41.75,41.75,0,0,0,555.1,76.13a57.43,57.43,0,0,0-11.79-2.86c-4.74-.81-9.36.77-14,1.14-1.4.11-3.59.2-4.43,1-1.6,1.59-3.52,1.36-5.2,2.1s-3.43,1.36-5.14,2.06c-4.09,1.65-8.07,3.57-11.1,7C502.18,88,500.82,89.19,498.92,91.09ZM303.71,321.82l-.44-.13c0,2.32.74,5-.2,6.87-1.12,2.19-.45,4.16-.8,6.18s-.68,4.05-1,6.08.66,4.07.91,6.09c.39,3.35.25,6.7.91,10.1a73.73,73.73,0,0,0,2.19,9.63c1.17,3.51,1.61,7.23,3.41,10.58,4.16,7.73,7.7,15.85,14.16,22.1a2,2,0,0,1,.35.36c1.84,3.63,5,6.25,7.51,9.34,2.12,2.6,5.23,4.38,7.58,6.82,5.16,5.35,11.68,8.87,17.42,13.35,2.88.3,5.5-.11,7-1.77.69-2.23,1.66-3.77,1.51-5.19-.47-4.3,1.38-8.32,1.14-12.58a85.53,85.53,0,0,1,0-12c.45-5.12-1.17-10-1.06-15.08-1.6-2.14-.61-4.71-1.19-7-.52-2.1-1.18-4.17-1.82-6.24a38.81,38.81,0,0,0-2.05-6.14c-1.75-3.44-2.12-7.44-4.85-10.52-1.49-1.67-2-4.15-3.29-6.08-2.23-3.44-4.33-7.06-7.11-10-5.16-5.51-10.39-11-16.45-15.63-5.24-4-11.18-6.7-16.95-10l-4.21,2.89Zm146.92-5.61c-2.78-.09-6.28.11-8.94,3-3,.15-4.6,2.68-6.76,4.13a115.71,115.71,0,0,0-12,9.74,79.68,79.68,0,0,0-6.84,7.6c-6.06,7-10.09,15.05-13.71,23.36-.72,1.65-1.87,3.34-2.07,5.11-.59,5.19-3.72,9.84-3.07,15.25-1.61,1.82-.77,4-1,6.08s-1,4.08-.92,6.08c.35,6.69-1.05,13.43.84,20.11.61,2.16-.05,4.65.14,7s.69,4.71,1.08,7.19a19.93,19.93,0,0,0,1.66,1.65,6.94,6.94,0,0,0,8.16.25c4.93-3.83,10-7.51,14.63-11.7a141.4,141.4,0,0,0,20.6-23.41,97.82,97.82,0,0,0,11.74-23.13c1.17-3.21,1.44-6.75,2.08-10.14.69-3.72,1.89-7.45,1.88-11.17,0-6.18.58-12.36-.67-18.62-.82-4.15-2.17-8.3-2.2-12.62C453.76,320.33,454.54,317.31,450.63,316.21Z"/><path class="cls-2" d="M656.21,360.8a8.4,8.4,0,0,0-1.74,1.79c-1.2,2.35-2.37,4.38-5.49,4.79-1.36.17-2.47,1.94-3.79,2.84-3.64,2.48-7.34,4.88-10.91,7.25v3.25l10.45,10.38h3.72l30.26-16c3.62-3.72,9.44-5.75,15.94-4.8a12,12,0,0,1,9.58,7.61c1.55,3.77,1.4,4.6-.23,9.05-.32.87-.66,1.73-1.09,2.89-4.3,4.68-9,9.48-13.36,14.64-5.13,6.13-10.26,12.25-15.93,17.89-.64.64-.87,1.67-1.45,2.38-4.32,5.29-8.28,10.92-13.46,15.41a46.49,46.49,0,0,1-14.81,9c-.8,0-2.62,0-4.43,0-3-.05-6.16.51-8.85-.39-2.45-.82-5-1.68-7.37-2.68a40.31,40.31,0,0,1-6.4-3.86c-7.46-4.88-13.43-11.43-19.68-17.67-9.91-9.88-19.77-19.82-29.73-29.66-1.91-1.88-4.18-3.39-6.48-5.23-2,5.35-4.07,10.11-6.3,14.83a6.13,6.13,0,0,1-4,3.52c-3.82.9-7.54,2.24-11.63,2.29-3.87.05-7.72,1.26-11.44,1.94a10.92,10.92,0,0,0-2.38,5.33c-.36,2.57-1.94,4.83-2.37,7.5-.69,4.29-2.35,8.38-3.71,12.47-1.81,5.45-2.62,11.17-4.82,16.48-.24.57-.54,1.12-1,2a14,14,0,0,1-1.26,6,109,109,0,0,0-3.72,12c-.51,1.81-.83,3.68-1.2,5.38a4.6,4.6,0,0,0,.52.56.77.77,0,0,0,.42.17H705.1V491H504.81l-2.09,2.87c-.86,1-.59,2.38-1.21,3.83a105,105,0,0,1-10.29,18.72c-3.83,5.58-9.55,8.77-15.86,10.69-1.59.48-3.87.93-5.61-.78-.58-.57-1.74-.6-2.66-.75-4.9-.79-7.69-4.07-9.84-8.17-.51-1-1.21-1.86-2-3-.36-2.53.79-5.57-1-8.26a.77.77,0,0,1,0-.5c.33-1.86.64-3.73,1-5.58s-.67-3.52.75-5.23c.57-.69.21-2.15.29-3.44h-68.7l-1.47,1.48v37.27H375.43V492.91c-.64-.65-1.12-1.12-1.53-1.53H311.36c-.48,4.17.88,8,1.49,11.89.37,2.41.71,4.68-.14,7.09a62.39,62.39,0,0,0-1.59,6.53c-9.36,9.35-11.18,10.35-20.07,10.35-.12-.2-.54-1.67-1.19-1.79-4.73-.84-7-4.31-9.87-7.67-1.9-2.26-2.86-4.93-4.58-7.22-1.49-2-1.83-4.84-3.09-7.18s-1.93-4.87-3.09-7.21a51.1,51.1,0,0,0-3.15-5H51.47V480.1H262.69A101.45,101.45,0,0,1,255.54,461c-.73-2.63-5.69-17.23-5.28-19.31L248.5,440c-1-3.91-.8-8.16-3.23-11.68.41-4.12-3.21-7.18-3-11.15l-4.13-3.91c-1.12,0-3.11.13-5.07,0-2.38-.2-4.72-.77-7.09-.93s-5.22.58-7.44-.2c-2.77-1-5.56-.22-8.11-.95-3.21-.92-6.57-.57-9.73-1.82-2.59-1-5.43-1.36-8.14-2.09a16.72,16.72,0,0,1-4.7-2H181.7c-8.62,8.63-17.34,17.34-26,26.08a90.6,90.6,0,0,1-15,12c-1.22.79-2.19,1.94-3.34,2.84-2.84,2.23-6.6,2.7-9.33,4.75-2.66.44-5.17,1.17-7.67,1.17s-5-.74-7.6-1.16a23.3,23.3,0,0,0-3.67-1.71,18.8,18.8,0,0,1-6.64-3.33c-1.59-1.24-3.44-2.13-5.15-3.23a23.11,23.11,0,0,1-3.45-2.49c-2.78-2.64-5.45-5.39-8.16-8.11s-5.66-5.63-7.52-9.37c-1.2-2.4-3.81-3.82-5.32-6.28a88.06,88.06,0,0,0-9.15-12.2A75.08,75.08,0,0,1,56,394.38c-2.63-4.23-5.31-8.64-4.74-14a26.66,26.66,0,0,1,1-4l5.91-5.4,9.68-1A38.32,38.32,0,0,1,72,372.51c1.15.94,2,2.22,3.76,1.7l3.31,3.32a62.47,62.47,0,0,1,14.09,9c4.18,1.56,6.67,4.09,9.63,5.78s5.5,3.75,8.56,5.89h1.46c4.19-3.91,7.85-7.29,11.44-10.73.25-.24,0-1,0-1.55-9-10.14-20.11-18.43-27.87-30.39v-3.48c1.73-4,2.92-7.92,5-11.3,2.77-4.52,4-9.87,7.68-13.84,1-5.11,4.65-9,6.26-13.91.58-1.73,2.33-3.08,2.83-4.81.55-1.89,2-3.37,2.41-5,1-3.72,4.35-6.18,4.7-10.08,2.32-2.07,2.3-5.38,4.2-7.79a32.73,32.73,0,0,0,3.61-7c1.71-3.83,3.89-7.42,5.48-11.22,1.19-2.84,3.69-5.14,3.74-8.45,2.67-2.59,3.11-6.41,5.19-9.38,1.11-1.58,2.45-3.7,1.51-6.08-4.66.81-8.74,2.92-13.43,3.16a48,48,0,0,0-9.63,2,32.6,32.6,0,0,1-4.13.87c-1.38.19-2.75,1-4.08.89-1.87-.13-3.42.63-5.09,1.08-3.35.9-6.64,2-10.17,2a16.65,16.65,0,0,0-5.07,1c-4.32,1.52-9,1.48-13.25,3-3.36,1.21-6.73.77-10.05,1-1.13-.68-2.13-1.72-3.27-1.89-3.37-.51-3.45-3.57-4.4-5.67-.85-1.89.61-4,1.62-5.68,1.93-3.25,7.06-7.39,11.3-9.82,3-1.7,5.7-3.95,8.83-5.25a71.63,71.63,0,0,0,10.55-5.86c6.08-3.81,12.67-6.79,18.37-11.21,4.07-.92,6.94-4,10.58-5.81,6.14-3,11.81-6.93,17.69-10.44,3.07-1.84,6.19-3.58,9.25-5.42,3.61-2.17,7.15-4.45,10.78-6.58,1.32-.78,3.31-.31,4-2.28h5.24c4.07,2.21,7.55,5.26,12.2,6,1.12,1.75,3,1.52,4.64,2.09a22.78,22.78,0,0,0,4.65.84c1.55.21,3.05.77,4.6.93a37.76,37.76,0,0,0,5,0c2.12-.07,4.49.33,6.29-.48,2.12-.95,4.44.24,6.46-1.42,1.47-1.21,3.7-1.46,5.48-2.36a39.9,39.9,0,0,0,5.18-3.17,52,52,0,0,0,4.89-3.88c2-1.8,4.34-1.84,7.17-1.58,1.35,1.16,3.05,2.39,4.48,3.88,5.24,5.46,10.72,10.75,15.46,16.63,3.12,3.86,6.74,7.15,10,10.81,2.05,2.29,4,4.68,6,7s4.49,3.82,5.67,6.65c.12.29.46.47.69.72,5.19,5.51,10.51,10.9,15.52,16.58,6.38,7.24,12.88,14.38,19.35,21.53,2.5,2.77,5.11,5.47,7.53,8.32,1.54,1.82,2.87,3.81,4.32,5.71,2.46,3.22,2.09,6.95,2,10.2a12,12,0,0,1-7.4,7c-1.82-.27-4.9-.13-7.39-1.27a65.75,65.75,0,0,1-7.13-3.31q-6.57-4-13.13-8.13c-3.45-2.13-6.91-4.24-10.37-6.37-.53-.32-1-.87-1.57-1a16.51,16.51,0,0,1-7.58-4.45c-1.67-1.57-3.8-1.45-5.47-2.86-1.37-1.16-2.84-3.26-5.3-2.72-1.48-2-4.11-2.28-5.95-3.78-.29-.24-.87-.13-1.28-.17-1.64,4,1.21,7.67.57,11.39,1.74,1.71,2,3.68,2.1,5.84a33.33,33.33,0,0,0,.94,5.08c1,4.93,2.83,9.67,3,14.76,2.53,4.09,1.91,9.08,3.83,13.42.76,1.72.82,4,1,6,.38,3.82,1.67,7.38,2.45,11.06s1.58,7.61,2.63,11.37c1.51,5.41,2.48,11,3.71,16.43.88,3.95,2,7.95,2.48,12,.63,4.92,2.57,9.66,3.29,14.57.57,3.92,2.06,7.55,2.77,11.43.66,3.61,1.2,7.38,2.64,10.86.68,1.62-.69,3.66,1.06,5.06-.54,4.26,2.41,7.82,2.26,12.13-.1,2.86,1.94,5.6,1.86,8.66,2.05,1.81-.06,4.87,2,6.67-.68,4,2.67,7.21,2,11.17,1.77,3.22,2,6.91,2.66,10.36s1.7,7,2.36,10.57c.57,3.07,1.27,6.12,2,9.16a6.55,6.55,0,0,0,1.12,1.71h66.7c-.23-2,1-4.12-.69-6.29-.5-.62.14-2-.22-2.88-1-2.39,2-4.18.56-6.92-1-2-.44-4.82-.49-7.27-.06-2.67,0-5.34,0-8v-7.5c0-2.5.1-5,0-7.5-.16-2.94,1.49-5.56,1.11-8.6s.52-6.15-.21-9c-1.42-5.39-.71-10.76-.81-16.12-.05-2.69.83-5.39.87-8.09a23.65,23.65,0,0,0-.71-7.65c-.69-2.19-1.19-5.2.75-7.53,0-4,.63-8.11-.1-12-1.56-8.21-.62-16.41-.83-24.61s0-16.33,0-24.5c0-13.83-.06-27.66,0-41.49,0-2.87.76-5.72.92-8.59s.09-6,0-9c-.08-4-1.23-7.38-5.2-9.46a14.52,14.52,0,0,1-4.66-4.38c-3.53-4.82-7.26-9.46-10.31-14.68a58.06,58.06,0,0,1-5.09-10.9c-1.5-4.53-3.83-9-3.78-14,0-1.19-.66-2.37-.93-3.58s.41-2.53-.72-3.75c-.52-.55-.28-1.87-.29-2.84,0-7.83-.26-15.67.1-23.49a57.33,57.33,0,0,1,2.28-13c.64-2.26.39-4.67,1.59-6.83a51,51,0,0,0,2.86-6.81c.8-2.17,1.22-4.51,2.22-6.57a54.3,54.3,0,0,1,4.18-6.77c1.69-2.49,3.43-4.95,5.31-7.3s4.39-4.26,6.09-7,4.66-4.4,7.59-5.63c1.56-.66,3.52-.39,5.45-.54,1.59,1.36,3.19,2.68,4.75,4.06a76,76,0,0,1,14,16.22c1.85,2.93,3.91,5.92,4.81,9.49.55,2.2,2.44,3.88,2.83,6.33a17.25,17.25,0,0,0,2.14,6.57c1.42,2.19.59,4.59,1.59,6.87,1.17,2.66.45,6.09,1.28,9,1.81,6.35.58,12.75.84,19.11.09,2.2.72,4.53-.59,6.73-1.17,1.94.66,4.6-1.33,6.44.32,6-2.07,11.41-4.08,16.81-2.55,6.83-5.35,13.5-10,19.39-3.63,4.55-8.14,8.13-11.75,12.71v231.3h72.53c1.34-5.75,2.13-11.64,4.14-17.26.42-1.18,0-2.62.23-3.91s.91-2.4.92-3.59c0-4.35,1.91-8.24,2.72-12.38s2-8.27,2.46-12.53a52.54,52.54,0,0,1,1.68-7.74c1-3.61,2.2-7.26,2.24-11.12a23.38,23.38,0,0,1,.93-4.09c.38-1.85.69-3.72,1-5.58.35-2,.05-4.55,1.16-6,1.38-1.72-.19-4.11,1.85-5.3-.72-4.44,1.37-8.45,2.14-12.64,1-5.35,1.61-10.84,3.59-16,.69-1.79-.57-4,1.27-5.48-.1-3.22,1-6.16,1.89-9.2.59-2.08,0-4.39,1-6.58,1.23-2.7,1-5.81,2-8.68s1.15-5.79,2-8.66c.78-2.56.74-5.37,1.11-8.06.11-.76.42-1.49.59-2.25.42-2,1.66-3.74,1.42-5.92-.2-1.92,1.2-3.52,1.09-5.59-.12-2.32,0-5.06,1.2-6.91s-.29-4,1.24-5.53c.08-4.14,2-7.86,2.63-11.95.64-4.45.92-9.06,2.6-13.38.49-1.26.07-2.87.07-4.27-1.83-1.32-3.32.15-4.42.87-4.7,3.11-9.53,6-14.29,9s-9.49,6.08-14.18,9.21c-4.53,3-9.34,5.62-13.93,8.57-3.85,2.46-7.52,5.18-11.31,7.73-2.08,1.4-4.24,2.69-6.68,4.23h-8.55l-6.69-6.69c.23-1.93.44-4.17.79-6.38a13.11,13.11,0,0,1,4.56-7.62c3.56-3.3,6.34-7.27,9.26-11.13a91,91,0,0,1,7.76-8.79,95.37,95.37,0,0,0,10.28-12.23,85.52,85.52,0,0,1,7-8.11c3.74-4.13,7.86-8,11.22-12.38,4.1-5.38,9-10.11,12.88-15.62,1.86-2.62,4.34-4.79,6.39-7.33,4-5,8.62-9.47,13-14.16a7.44,7.44,0,0,1,6.48-2.54c1.84,1.56,2.66,3.69,3.72,5.86,1.84,3.76,3.34,7.62,4.88,11.49a26.89,26.89,0,0,0,3.57,6.61h1.81c6.13-5.47,11.19-12.11,18.19-16.93h4.07c1,1.18,2.27,2.46,3.31,3.9,3.68,5.12,7.23,10.34,11,15.44a35.28,35.28,0,0,0,3.84,3.91,9,9,0,0,0,4.45-7.1l1.12-.29c3.87-8.83,8.91-16.84,13.55-26.3l3.53-3.54c3.19-.45,5.95,1.1,8.68,2.58,4.92,2.68,9.5,5.91,14.47,8.53,4.4,2.32,8.53,5.15,12.81,7.71,4,2.4,8,4.73,12,7.13,3.48,2.08,7.07,4,10.34,6.37,3.07,2.22,6.53,3.64,9.69,5.62,5.43,3.41,10.81,6.87,16.28,10.21,2.91,1.77,5.93,3.37,8.94,5a24.35,24.35,0,0,1,7.95,7.16c2.07,2.77,1.89,6.33.85,9.69-.23.74-.41,1.5-.71,2.59a12.31,12.31,0,0,1-7.58,4.78c-3,.62-5.94,1.33-8.82-.39-4.76.72-9.09-1.51-13.63-2.22-5-.78-10.17-1.44-15-3.39-2.39-.95-5.29-.74-7.93-1.36-3-.72-6.13-1.21-9.18-2s-6.22-.25-9-1.25c-2.06-.73-4.23-.94-6.26-1.75-1.15-.46-2.64-.11-4-.07a8.7,8.7,0,0,0-1.56.37c.57,1.27,1.06,2.39,1.58,3.49,3.15,6.69,6,13.52,8.78,20.36,1.21,2.94,2.18,6.16,4.28,8.73a3.6,3.6,0,0,1,.56,1.26c.69,2.38,1.24,4.83,2.66,6.9s1,4.72,3.16,6.19c.74,3.69,2.54,6.93,4,10.33,1.35,3.07,3,6.1,3.77,9.44a29.68,29.68,0,0,0,1.75,4.77c.82,2,1.64,4,2.65,5.9,2.52,4.79,3.67,10.17,6.25,14.9,1.45,2.65,2,5.53,3.15,8.21s2.53,5,2.62,7.93c0,.55.56,1.08.87,1.62A9.66,9.66,0,0,1,656.21,360.8ZM374.84,127.23c-.48,0-.94-.09-1.11.09a40.51,40.51,0,0,0-6.6,8.21,58.55,58.55,0,0,0-4.63,9.09c-1.23,3.26-3.64,6.32-3.26,10.15-2.12,3.45-2.38,7.54-2.74,11.27-.41,4.17-1.27,8.34-1.2,12.55.07,3.7-.74,7.51,1,11.07-.71,5.56,1.5,10.75,2.06,16.15a23.47,23.47,0,0,0,1.17,5c1.12,3.33,3.14,6.35,4.41,9.65,1.36,3.57,3.9,6.37,5.83,9.54a8.53,8.53,0,0,0,5.53,4.45c0-35.53,0-70.76,0-106A4.09,4.09,0,0,0,374.84,127.23Zm11.43,103.71c2.73,1.09,1.81-1.41,2.77-2.1,3.87-2.81,4.11-8,7.23-11.43.5-5,4-9,4.21-14.3.11-3,1.41-6.06,1.76-9.16.37-3.35-.7-6.85,1-10.07L402,182.23a4.17,4.17,0,0,0,1.1-4.94c-1.27-2.56-.85-5.1-.83-7.63.05-4.2-1.11-8.15-2.05-12.15-.46-2-.95-3.95-1.35-5.64a20.67,20.67,0,0,1-1.61-3.11c-.58-1.77-.59-3.81-1.49-5.36-1.88-3.21-4.1-6.21-5.67-9.64a4,4,0,0,0-3.87-2.55Z"/><path class="cls-2" d="M236.05,132.69c.5,3.1.83,6.26,1.55,9.33.83,3.58.56,3.63-.19,8.81a34.93,34.93,0,0,1-3.2,9.69,27.93,27.93,0,0,1-9.52,11.07c-3,2.16-5.9,4.13-9.41,5.09a33.82,33.82,0,0,1-7.86,1.46c-2.51.07-5.25,1-7.59-.84a18.3,18.3,0,0,1-10.23-3c-3.7-2.24-7-4.63-9.52-8.43-1.62-2.48-3.45-4.91-4.82-7.47-1.81.33-3.35.95-4.8.78-1.29-.16-2.15,1.38-3.78.26-1.13-.77-3.23-.15-4.86-.15-4.95-3.42-9.21-7.13-10.74-13.48-.66-2.74-2.45-5.26-2.88-8.28-.4-2.86-1.19-5.64-1-8.59a8.29,8.29,0,0,0-.88-2.75c1.73-2.16.24-5,1-7.36s.81-4.71,1.28-6.94c.87-2.14,1.58-4.37,2.64-6.4a52.75,52.75,0,0,1,5-8.39c4.74-6,10-11.33,17-15,4-2.09,8.59-2.59,12.48-4.86.12-.07.33,0,.49,0,3.86-.33,7.71-.78,11.58-1,3.38-.17,6.59,1.27,10.07,1.09,3.09-.16,5.52,2.75,8.74,2.88,1.73,2.59,5.1,2.33,7.26,4.16,2.35,2,4.81,3.87,7,6s4.64,3.68,5.68,6.61c3.42,1.88,3.56,5.9,5.44,8.78,1.66,2.54,2.53,6,3.14,9.11.54,2.72.12,5.64.12,8.47C243.38,127.51,240.06,130.24,236.05,132.69Z"/><path class="cls-2" d="M498.92,91.09c1.9-1.9,3.26-3.14,4.47-4.5,3-3.42,7-5.34,11.1-7,1.71-.7,3.44-1.32,5.14-2.06s3.6-.51,5.2-2.1c.84-.83,3-.92,4.43-1,4.69-.37,9.31-2,14-1.14a57.43,57.43,0,0,1,11.79,2.86,41.75,41.75,0,0,1,16.09,11.68,30.18,30.18,0,0,1,6.26,12.89c.72,2.89.46,5.89,1.63,8.78a6.15,6.15,0,0,1-.59,6.11c-.34.42-.16,1.25-.22,1.89-.34,3.52-.15,7.21-1.15,10.53s-1.91,6.53-3,9.73a27.15,27.15,0,0,0-1.86,9.21,13.45,13.45,0,0,1-.83,5.14c-.94,2.46-.8,5.33-1.16,8-.47,3.59-1.94,7-2.06,10.65,0,.54-.59,1.08-.94,1.59-2.7,4-6.65,6.24-11,7.85a16.24,16.24,0,0,1-5.06,1c-4.49.14-9,.2-13.48,0a26.25,26.25,0,0,1-5-1.14c-2.49-.64-4.78-2.56-5.14-5.13-.43-3.15-2.15-5.9-2.35-9.08-2.09-.82-4.25-1.59-6.36-2.5s-3.91-1.81-5.81-2.82a13.46,13.46,0,0,1-3.11-2.12c-3.69-3.63-7.67-7-9.91-11.87-.26-.56-.53-1.11-.76-1.68a31.07,31.07,0,0,1-1.84-16.12c.4-2.71.25-5.54,1-8.06.8-2.74.16-5.61,1-8.07,1.5-4.4.71-8.77.77-13.12C500.21,96.62,499.35,93.78,498.92,91.09Z"/><path class="cls-3" d="M303.71,321.82l2.64-8,4.21-2.89c5.77,3.28,11.71,6,16.95,10,6.06,4.62,11.29,10.12,16.45,15.63,2.78,3,4.88,6.58,7.11,10,1.25,1.93,1.8,4.41,3.29,6.08,2.73,3.08,3.1,7.08,4.85,10.52a38.81,38.81,0,0,1,2.05,6.14c.64,2.07,1.3,4.14,1.82,6.24.58,2.3-.41,4.87,1.19,7-.11,5.05,1.51,10,1.06,15.08a85.53,85.53,0,0,0,0,12c.24,4.26-1.61,8.28-1.14,12.58.15,1.42-.82,3-1.51,5.19-1.45,1.66-4.07,2.07-7,1.77-5.74-4.48-12.26-8-17.42-13.35-2.35-2.44-5.46-4.22-7.58-6.82-2.52-3.09-5.67-5.71-7.51-9.34a2,2,0,0,0-.35-.36c-6.46-6.25-10-14.37-14.16-22.1-1.8-3.35-2.24-7.07-3.41-10.58a73.73,73.73,0,0,1-2.19-9.63c-.66-3.4-.52-6.75-.91-10.1-.25-2-1.25-4-.91-6.09s.65-4.05,1-6.08-.32-4,.8-6.18c.94-1.84.2-4.55.2-6.87Zm50.79,91.36c-.95-8.24.84-16.14-1.17-23.95-.67-2.59.65-5.53-1.06-8.05-.21-6-2.58-11.51-4.62-17.05-.8-2.16-1.15-4.73-2.56-6.38-2.71-3.16-3.4-7.59-6.82-10.19-4.06-7-10.14-12.12-16.33-17.07a75.41,75.41,0,0,0-7.5-4.67,18.85,18.85,0,0,1-.2,2.74c-.22.88-1,1.73-.93,2.58.34,9.89-1,19.83,1.84,29.65,1.78,6.14,4.05,13.23,8.1,20.11A96.11,96.11,0,0,0,340,402.42l11.46,10.76Z"/><path class="cls-4" d="M450.63,316.21c3.91,1.1,3.13,4.12,4.64,5.76,0,4.32,1.38,8.47,2.2,12.62,1.25,6.26.66,12.44.67,18.62,0,3.72-1.19,7.45-1.88,11.17-.64,3.39-.91,6.93-2.08,10.14a97.82,97.82,0,0,1-11.74,23.13,141.4,141.4,0,0,1-20.6,23.41c-4.62,4.19-9.7,7.87-14.63,11.7a6.94,6.94,0,0,1-8.16-.25,19.93,19.93,0,0,1-1.66-1.65c-.39-2.48-.9-4.82-1.08-7.19s.47-4.81-.14-7c-1.89-6.68-.49-13.42-.84-20.11-.1-2,.66-4,.92-6.08s-.59-4.26,1-6.08c-.65-5.41,2.48-10.06,3.07-15.25.2-1.77,1.35-3.46,2.07-5.11,3.62-8.31,7.65-16.39,13.71-23.36a79.68,79.68,0,0,1,6.84-7.6,115.71,115.71,0,0,1,12-9.74c2.16-1.45,3.79-4,6.76-4.13C444.35,316.32,447.85,316.12,450.63,316.21Zm-4.21,13.44c-11.27,5.29-18.38,14-25.43,22.52a39,39,0,0,0-7.13,14l-1.37.29c-.52,2.86-1,5.65-1.53,8.44-.75,1.52-1.08,3.2-1.73,4.74-1,2.31-.33,5-1.18,7-.78,1.83-.49,3.46-.79,5.16a38.51,38.51,0,0,0-.95,5.58c-.12,6.14,0,12.29,0,18l1.47,2.86c2.09-1.75,4.21-3.46,6.27-5.24s3.67-4.09,6.27-5.35a5.51,5.51,0,0,0,2.74-2.79c.62-1.89,2.2-2.77,3.28-4.14s2.35-3,3.53-4.52a45.79,45.79,0,0,0,5.83-8.56c2-4.14,5-7.73,6.26-12.4,1.07-4,3.51-7.68,3.35-12.07,2-2.34.58-5.28,1.34-7.91s.35-5.49.68-8.23C448,341.43,445.63,336.09,446.42,329.65Z"/><path class="cls-5" d="M374.84,127.23a4.09,4.09,0,0,1,.41,1.22c0,35.24,0,70.47,0,106a8.53,8.53,0,0,1-5.53-4.45c-1.93-3.17-4.47-6-5.83-9.54-1.27-3.3-3.29-6.32-4.41-9.65a23.47,23.47,0,0,1-1.17-5c-.56-5.4-2.77-10.59-2.06-16.15-1.71-3.56-.9-7.37-1-11.07-.07-4.21.79-8.38,1.2-12.55.36-3.73.62-7.82,2.74-11.27-.38-3.83,2-6.89,3.26-10.15a58.55,58.55,0,0,1,4.63-9.09,40.51,40.51,0,0,1,6.6-8.21C373.9,127.14,374.36,127.26,374.84,127.23Z"/><path class="cls-6" d="M386.27,230.94V131.21a4,4,0,0,1,3.87,2.55c1.57,3.43,3.79,6.43,5.67,9.64.9,1.55.91,3.59,1.49,5.36a20.67,20.67,0,0,0,1.61,3.11c.4,1.69.89,3.66,1.35,5.64.94,4,2.1,8,2.05,12.15,0,2.53-.44,5.07.83,7.63a4.17,4.17,0,0,1-1.1,4.94l1.23,1.65c-1.73,3.22-.66,6.72-1,10.07-.35,3.1-1.65,6.2-1.76,9.16-.21,5.27-3.71,9.3-4.21,14.3-3.12,3.39-3.36,8.62-7.23,11.43C388.08,229.53,389,232,386.27,230.94Z"/><path class="cls-7" d="M354.5,413.18h-3.09L340,402.42a96.11,96.11,0,0,1-16.7-21.52c-4.05-6.88-6.32-14-8.1-20.11-2.85-9.82-1.5-19.76-1.84-29.65,0-.85.71-1.7.93-2.58a18.85,18.85,0,0,0,.2-2.74,75.41,75.41,0,0,1,7.5,4.67c6.19,4.95,12.27,10.05,16.33,17.07,3.42,2.6,4.11,7,6.82,10.19,1.41,1.65,1.76,4.22,2.56,6.38,2,5.54,4.41,11,4.62,17.05,1.71,2.52.39,5.46,1.06,8.05C355.34,397,353.55,404.94,354.5,413.18Z"/><path class="cls-8" d="M446.42,329.65c-.79,6.44,1.55,11.78.87,17.36-.33,2.74.06,5.64-.68,8.23s.7,5.57-1.34,7.91c.16,4.39-2.28,8-3.35,12.07-1.25,4.67-4.26,8.26-6.26,12.4a45.79,45.79,0,0,1-5.83,8.56c-1.18,1.5-2.35,3-3.53,4.52s-2.66,2.25-3.28,4.14a5.51,5.51,0,0,1-2.74,2.79c-2.6,1.26-4.2,3.56-6.27,5.35s-4.18,3.49-6.27,5.24l-1.47-2.86c0-5.72-.08-11.87,0-18a38.51,38.51,0,0,1,.95-5.58c.3-1.7,0-3.33.79-5.16.85-2,.21-4.69,1.18-7,.65-1.54,1-3.22,1.73-4.74.5-2.79,1-5.58,1.53-8.44l1.37-.28a38.94,38.94,0,0,1,7.13-14C428,343.6,435.15,334.94,446.42,329.65Z"/></g></g></svg>