<?xml version="1.0" encoding="UTF-8"?><svg id="Layer_2" xmlns="http://www.w3.org/2000/svg" viewBox="0 0 256 256"><defs><style>.cls-1{fill:#a4a4a4;}.cls-2{fill:#050505;}.cls-3{fill:#e20f1b;}.cls-4{fill:#060606;}</style></defs><g id="Layer_1-2"><g><path class="cls-1" d="M6.2,175.84c-2.77-.5-2.37-3.3-3.6-4.91-.35-.45-1.06-.62-1.6-.93,0-2.67,0-5.33,0-8,.83,.19,1.65,.38,2.48,.57l2.72,13.26Z"/><path class="cls-4" d="M6.2,175.84l-2.72-13.26c1.82-.1,3.64-.28,5.46-.28,33.79-.02,67.59-.01,101.38-.01h5.7v-30.32c-1.92,0-3.69,0-5.46,0-26.64,0-53.27,.04-79.91-.03-11.32-.03-19.61-6.03-22.87-16.52-.72-2.33-.9-4.91-.93-7.38-.1-9.32-.06-18.64-.04-27.97,.03-11,5.04-18.7,15.32-22.78,1.65-.65,3.48-1.16,5.23-1.16,31.46-.02,62.92,.04,94.39,.09l3.37,1.51c1.89,1.15,3.77,2.3,5.66,3.44l3.02,3.04c1.25,2.19,2.5,4.38,3.75,6.57,.5,2.07,1,4.14,1.5,6.21v12.74h-26.18l-.57-10.03c-1.08-.45-2.17-1.29-3.25-1.29-24.7-.07-49.41-.07-74.11,0-1.1,0-2.19,.81-3.29,1.25l-.02,26.69c1.59,.44,3.19,1.27,4.78,1.28,26.47,.08,52.93,.06,79.4,.04,1.47,0,2.94-.27,4.41-.42l3.78,.61,2.12,.87c5.25,1.92,9.02,5.58,11.95,10.23,.87,1.79,1.73,3.58,2.6,5.37,.07,14.13,.37,28.27,.12,42.4-.18,10.1-11.48,20.3-21.11,20.26-26.28-.12-52.56,.01-78.83-.02-7.15,0-14.29-.26-21.44-.4-1.75-.92-3.5-1.84-5.26-2.76-.18-.2-.41-.33-.68-.39-.75-.55-1.51-1.11-2.26-1.66-.98-.99-1.96-1.98-2.95-2.98-.55-.75-1.1-1.5-1.65-2.24-.07-.27-.22-.5-.43-.69Z"/><path class="cls-2" d="M255.78,56.39v22.25h-81.12v82.82h81.14v24.22h-109.56V56.39h109.54Z"/><path class="cls-3" d="M245.95,107.3v23.6h-46.66v-23.6h46.66Z"/><path class="cls-1" d="M120.23,107.25c-1.47,.14-2.94,.41-4.41,.42-26.47,.03-52.93,.04-79.4-.04-1.59,0-3.19-.83-4.78-1.28,28.49-.04,56.98-.08,85.47-.07,1.04,0,2.08,.63,3.12,.97Z"/><path class="cls-1" d="M31.66,79.66c1.1-.43,2.19-1.24,3.29-1.25,24.7-.07,49.41-.07,74.11,0,1.09,0,2.17,.84,3.25,1.29l-80.66-.05Z"/><path class="cls-1" d="M139.07,76.99c-.5-2.07-1-4.14-1.5-6.21,2,1.71,3.21,3.61,1.5,6.21Z"/><path class="cls-1" d="M140.68,124.32c-.87-1.79-1.73-3.58-2.6-5.37,2.64,.93,3.01,2.96,2.6,5.37Z"/><path class="cls-1" d="M14.16,183.8c1.75,.92,3.5,1.84,5.26,2.76-2.5,.5-4.52,.1-5.26-2.76Z"/><path class="cls-1" d="M133.81,64.21l-3.02-3.04c2.09-.07,3.11,.93,3.02,3.04Z"/><path class="cls-1" d="M125.13,57.73l-3.37-1.51c1.5-.35,2.98-.63,3.37,1.51Z"/><path class="cls-1" d="M126.13,108.73l-2.12-.87c1.28-1.11,1.86-.51,2.12,.87Z"/><path class="cls-1" d="M6.63,176.52c.55,.75,1.1,1.5,1.65,2.24-1.71,.1-2.27-.63-1.65-2.24Z"/><path class="cls-1" d="M11.22,181.74c.75,.55,1.51,1.11,2.26,1.66-1.62,.63-2.33,.01-2.26-1.66Z"/></g></g></svg>