<?xml version="1.0" encoding="UTF-8"?><svg id="Layer_2" xmlns="http://www.w3.org/2000/svg" viewBox="0 0 187.5 187.5"><defs><style>.cls-1{fill:#c0d3e1;}.cls-2{fill:#4f9bd4;}.cls-3{fill:#ee5052;}.cls-4{fill:#044765;}.cls-5{fill:#f4b549;}.cls-6{fill:#e9edf6;}</style></defs><g id="Layer_1-2"><g><path class="cls-4" d="M153.42,93.64c-.15,19.22,3.81,37.78,9,56.14,.37,1.31,.82,2.62,1.07,3.96,1.28,6.94-4.1,11.91-10.98,10.21-12.17-2.99-24.24-6.59-36.57-8.7-9.49-1.63-19.3-1.49-28.98-1.96-20.77-1.01-37.25-10.1-49.23-26.86C12.47,91.11,29.49,41.73,71.12,28.82c36.7-11.37,76.4,14.09,81.29,52.19,.54,4.18,.68,8.42,1.01,12.63Zm-9.95-1.77c.1-.73,.27-1.47,.27-2.2,.13-37.97-39.84-64.64-74.78-49.8-12.55,5.33-22.28,13.84-27.8,26.63-4.03,6.97-5.31,14.63-5.63,22.53-1.12,27.21,21.77,53.39,48.92,54.28,20.38,.67,40.4,2.48,59.95,8.44,3.01,.92,6.07,1.67,8.93,2.45-2.69-12.62-5.28-24.75-7.86-36.89-.65-7.74-1.31-15.48-1.96-23.22l-.03-2.23Z"/><path class="cls-6" d="M145.47,117.32c2.59,12.14,5.17,24.27,7.86,36.89-2.86-.78-5.92-1.53-8.93-2.45-19.55-5.96-39.56-7.77-59.95-8.44-27.15-.89-50.04-27.07-48.92-54.28,.32-7.9,1.6-15.56,5.63-22.53,1.1-.53,2.3-.92,3.3-1.6,10.2-6.94,20.75-13.25,32.77-16.48,10.47-2.82,21.04-3.64,31.26,1.06,7.93,3.65,14.05,9.68,20.01,15.86,6.69,6.94,11.38,14.95,13.46,24.43,.17,.77,.99,1.4,1.5,2.09l.03,2.23c-.59,3.59-1.12,7.19-1.79,10.76-.91,4.83,1.27,8.68,3.75,12.46Zm-48.28-25.53c.07-4.59-3.29-8.1-7.84-8.22-4.63-.12-8.47,3.49-8.56,8.02-.08,4.37,3.93,8.4,8.35,8.38,4.32-.02,7.99-3.75,8.05-8.18Zm14.41-8.2c-4.68,.03-8.32,3.76-8.17,8.35,.14,4.24,4.13,8.1,8.31,8.05,4.2-.05,8.14-4,8.17-8.19,.04-4.63-3.62-8.24-8.32-8.21Zm-36.9,8.17c.05-4.47-3.44-8.08-7.91-8.17-4.66-.1-8.38,3.46-8.44,8.07-.06,4.45,3.84,8.34,8.33,8.32,4.27-.02,7.97-3.81,8.02-8.23Z"/><path class="cls-1" d="M143.48,91.87c-.52-.69-1.33-1.32-1.5-2.09-2.08-9.48-6.77-17.49-13.46-24.43-5.97-6.19-12.09-12.22-20.01-15.86-10.22-4.7-20.8-3.88-31.26-1.06-12.02,3.23-22.57,9.54-32.77,16.48-1,.68-2.2,1.07-3.3,1.6,5.52-12.79,15.25-21.3,27.8-26.63,34.95-14.85,74.91,11.83,74.78,49.8,0,.73-.18,1.47-.27,2.2Z"/><path class="cls-1" d="M145.47,117.32c-2.48-3.78-4.66-7.63-3.75-12.46,.67-3.57,1.2-7.17,1.79-10.76,.65,7.74,1.31,15.48,1.96,23.22Z"/><path class="cls-3" d="M97.19,91.79c-.06,4.43-3.73,8.16-8.05,8.18-4.41,.02-8.43-4.01-8.35-8.38,.09-4.54,3.93-8.14,8.56-8.02,4.55,.12,7.91,3.64,7.84,8.22Z"/><path class="cls-2" d="M111.6,83.59c4.7-.03,8.36,3.58,8.32,8.21-.04,4.2-3.98,8.15-8.17,8.19-4.19,.05-8.17-3.81-8.31-8.05-.15-4.6,3.49-8.32,8.17-8.35Z"/><path class="cls-5" d="M74.7,91.75c-.05,4.41-3.75,8.21-8.02,8.23-4.49,.02-8.39-3.88-8.33-8.32,.06-4.62,3.77-8.17,8.44-8.07,4.47,.1,7.96,3.7,7.91,8.17Z"/></g></g></svg>