<?xml version="1.0" encoding="iso-8859-1"?>
<!-- Generator: Adobe Illustrator 19.0.0, SVG Export Plug-In . SVG Version: 6.00 Build 0)  -->
<svg version="1.1" id="Layer_1" xmlns="http://www.w3.org/2000/svg" xmlns:xlink="http://www.w3.org/1999/xlink" x="0px" y="0px"
	 viewBox="0 0 511.999 511.999" style="enable-background:new 0 0 511.999 511.999;" xml:space="preserve">
<g>
	<g>
		<path fill="hsl(192, 50%, 30%)" d="M421.578,190.264l-99.847-99.847c-2.439-2.439-6.391-2.439-8.829,0L82.824,320.495c-2.439,2.439-2.439,6.392,0,8.829
			l99.847,99.847c2.439,2.439,6.391,2.439,8.829,0l230.078-230.078C424.017,196.655,424.017,192.703,421.578,190.264z"/>
	</g>
</g>
<g>
	<g>
		<path fill="hsl(192, 50%, 30%)" d="M506.511,87.672L424.323,5.484c-7.308-7.31-19.175-7.315-26.488,0l-49.616,49.616c-2.439,2.439-2.439,6.391,0,8.829
			l99.847,99.847c2.439,2.437,6.391,2.437,8.829,0l49.616-49.616C513.826,106.847,513.826,94.987,506.511,87.672z"/>
	</g>
</g>
<g>
	<g>
		<path fill="hsl(192, 50%, 30%)" d="M508.133,491.11c-1.054-9.556-9.489-16.599-19.104-16.599H111.633l36.058-15.163c4.088-1.719,5.131-7.034,1.994-10.17
			l-86.854-86.854c-3.137-3.135-8.451-2.094-10.17,1.994C52.224,365.359,2.052,484.66,1.627,485.707
			c-5.815,13.208,4.855,27.01,18.107,26.263H489.52C500.566,511.97,509.379,502.408,508.133,491.11z"/>
	</g>
</g>
<g>
</g>
<g>
</g>
<g>
</g>
<g>
</g>
<g>
</g>
<g>
</g>
<g>
</g>
<g>
</g>
<g>
</g>
<g>
</g>
<g>
</g>
<g>
</g>
<g>
</g>
<g>
</g>
<g>
</g>
</svg>
