<?xml version="1.0" encoding="iso-8859-1"?>
<!-- Generator: Adobe Illustrator 19.0.0, SVG Export Plug-In . SVG Version: 6.00 Build 0)  -->
<svg version="1.1" id="Layer_1" xmlns="http://www.w3.org/2000/svg" xmlns:xlink="http://www.w3.org/1999/xlink" x="0px" y="0px"
	 viewBox="0 0 472.615 472.615" style="enable-background:new 0 0 472.615 472.615;" xml:space="preserve">
<g>
	<g>
		<path fill="hsl(192, 50%, 30%)" d="M443.077,221.735v-14.966C443.077,92.751,350.326,0,236.308,0S29.538,92.751,29.538,206.769v14.966
			C11.618,235.028,0,256.492,0,280.615c0,40.665,33.083,73.846,73.846,73.846h14.769V206.769H73.846
			c-8.665,0-16.935,1.477-24.615,4.332v-4.332c0-103.188,83.889-187.077,187.077-187.077s187.077,83.889,187.077,187.077v4.332
			c-7.68-2.855-15.951-4.332-24.615-4.332H384v147.692h14.769c5.022,0,10.043-0.492,14.769-1.477v60.554
			c0,10.831-8.862,19.692-19.692,19.692h-110.08c-4.037-11.52-14.966-19.692-27.766-19.692h-29.538
			c-16.246,0-29.538,13.194-29.538,29.538c0,16.246,13.292,29.539,29.538,29.539H256c12.8,0,23.729-8.271,27.766-19.692h110.08
			c21.76,0,39.385-17.723,39.385-39.385v-67.742c23.434-12.308,39.385-36.923,39.385-65.182
			C472.615,256.492,460.997,235.028,443.077,221.735z"/>
	</g>
</g>
<g>
	<g>
		<path fill="hsl(192, 50%, 30%)" d="M354.462,202.463v-30.823l-27.933-4.654c-2.359-10.655-6.57-20.59-12.256-29.513l16.48-23.071l-21.795-21.794
			l-23.073,16.479c-8.921-5.685-18.857-9.895-29.511-12.256l-4.655-27.932h-30.822l-4.655,27.932
			c-10.654,2.361-20.59,6.571-29.511,12.256l-23.072-16.479l-21.794,21.794l16.479,23.071c-5.686,8.923-9.897,18.858-12.256,29.513
			l-27.932,4.654v30.823l27.932,4.655c2.359,10.654,6.57,20.589,12.256,29.512l-16.479,23.072l21.794,21.794l23.072-16.479
			c8.921,5.686,18.858,9.896,29.511,12.256l4.655,27.933h30.822l4.655-27.933c10.654-2.36,20.59-6.57,29.511-12.256l23.073,16.479
			l21.795-21.794l-16.48-23.072c5.686-8.923,9.897-18.858,12.256-29.512L354.462,202.463z M236.308,233.285
			c-25.534,0-46.235-20.7-46.235-46.234c0-25.534,20.701-46.235,46.235-46.235c25.534,0,46.234,20.701,46.234,46.235
			C282.542,212.585,261.842,233.285,236.308,233.285z"/>
	</g>
</g>
<g>
</g>
<g>
</g>
<g>
</g>
<g>
</g>
<g>
</g>
<g>
</g>
<g>
</g>
<g>
</g>
<g>
</g>
<g>
</g>
<g>
</g>
<g>
</g>
<g>
</g>
<g>
</g>
<g>
</g>
</svg>
