<?xml version="1.0" standalone="no"?>
<!DOCTYPE svg PUBLIC "-//W3C//DTD SVG 20010904//EN"
 "http://www.w3.org/TR/2001/REC-SVG-20010904/DTD/svg10.dtd">
<svg version="1.0" xmlns="http://www.w3.org/2000/svg"
 width="630.000000pt" height="630.000000pt" viewBox="0 0 630.000000 630.000000"
 preserveAspectRatio="xMidYMid meet">
<metadata>
Created by potrace 1.11, written by Peter Selinger 2001-2013
</metadata>
<g transform="translate(0.000000,630.000000) scale(0.100000,-0.100000)"
fill="#000000" stroke="none">
<path d="M2840 5794 c-424 -77 -777 -350 -1013 -785 -92 -171 -199 -469 -216
-607 -50 -396 -30 -875 48 -1163 36 -132 100 -431 116 -545 18 -121 15 -156
-26 -316 -32 -127 -22 -206 33 -261 99 -99 496 -600 592 -747 147 -224 247
-404 291 -525 26 -71 99 -179 148 -219 95 -76 187 -106 332 -106 167 0 286 40
368 123 44 44 48 52 120 207 53 117 157 293 269 460 46 69 153 240 238 380 84
140 197 322 251 404 124 186 128 199 104 317 -14 69 -16 113 -12 187 10 152
64 499 93 598 145 488 164 725 93 1149 -66 394 -198 747 -342 916 -216 254
-545 447 -882 519 -135 29 -477 37 -605 14z"/>
</g>
</svg>
