<?xml version="1.0" encoding="iso-8859-1"?>
<!-- Generator: Adobe Illustrator 19.0.0, SVG Export Plug-In . SVG Version: 6.00 Build 0)  -->
<svg version="1.1" id="Layer_1" xmlns="http://www.w3.org/2000/svg" xmlns:xlink="http://www.w3.org/1999/xlink" x="0px" y="0px"
	 viewBox="0 0 512 512" style="enable-background:new 0 0 512 512;" xml:space="preserve">
<circle style="fill:#FCD063;" cx="256" cy="256" r="256"/>
<path style="fill:#F7B84E;" d="M420.256,59.744C457.504,104.208,480,161.456,480,224c0,141.376-114.624,256-256,256
	c-62.544,0-119.792-22.496-164.256-59.744C106.704,476.32,177.152,512,256,512c141.376,0,256-114.624,256-256
	C512,177.152,476.32,106.704,420.256,59.744z"/>
<circle style="fill:#C98E3F;" cx="160" cy="256" r="32"/>
<path style="fill:#AB7934;" d="M160,240c14.896,0,27.296,10.224,30.864,24c0.672-2.576,1.136-5.216,1.136-8
	c0-17.664-14.336-32-32-32s-32,14.336-32,32c0,2.784,0.464,5.424,1.136,8C132.704,250.224,145.104,240,160,240z"/>
<circle style="fill:#C98E3F;" cx="328" cy="232" r="56"/>
<path style="fill:#AB7934;" d="M328,192c28.192,0,51.28,20.896,55.184,48c0.4-2.64,0.816-5.264,0.816-8c0-30.928-25.072-56-56-56
	s-56,25.072-56,56c0,2.736,0.416,5.36,0.816,8C276.72,212.896,299.808,192,328,192z"/>
<g>
	<circle style="fill:#F7B84E;" cx="408" cy="312" r="24"/>
	<circle style="fill:#F7B84E;" cx="104" cy="312" r="24"/>
</g>
<path style="fill:#C98E3F;" d="M336,360c0,13.2-10.8,24-24,24H200c-13.2,0-24-10.8-24-24l0,0c0-13.2,10.8-24,24-24h112
	C325.2,336,336,346.8,336,360L336,360z"/>
<path style="fill:#AB7934;" d="M177.488,352h157.024c-3.328-9.28-12.128-16-22.512-16H200C189.616,336,180.8,342.72,177.488,352z"/>
<g>
</g>
<g>
</g>
<g>
</g>
<g>
</g>
<g>
</g>
<g>
</g>
<g>
</g>
<g>
</g>
<g>
</g>
<g>
</g>
<g>
</g>
<g>
</g>
<g>
</g>
<g>
</g>
<g>
</g>
</svg>
