<?xml version="1.0" encoding="iso-8859-1"?>
<!-- Generator: Adobe Illustrator 19.0.0, SVG Export Plug-In . SVG Version: 6.00 Build 0)  -->
<svg version="1.1" id="Layer_1" xmlns="http://www.w3.org/2000/svg" xmlns:xlink="http://www.w3.org/1999/xlink" x="0px" y="0px"
	 viewBox="0 0 512 512" style="enable-background:new 0 0 512 512;" xml:space="preserve">
<path style="fill:#EFF2FA;" d="M478.33,59.324H33.67c-14.168,0-25.653,11.485-25.653,25.653v42.756h495.967V84.977
	C503.983,70.809,492.498,59.324,478.33,59.324z"/>
<path style="fill:#FF6464;" d="M503.983,127.733H8.017v299.29c0,14.168,11.485,25.653,25.653,25.653h444.66
	c14.168,0,25.653-11.485,25.653-25.653V127.733z"/>
<path d="M170.489,307.841h-9.086v-86.046c0-4.427-3.589-8.017-8.017-8.017c-4.427,0-8.017,3.589-8.017,8.017v86.046h-42.235
	l15.384-84.611c0.792-4.356-2.097-8.529-6.453-9.322c-4.355-0.79-8.53,2.097-9.322,6.454l-17.102,94.063
	c-0.425,2.339,0.21,4.746,1.733,6.57c1.523,1.825,3.777,2.88,6.155,2.88h51.841v17.637c0,4.427,3.589,8.017,8.017,8.017
	c4.427,0,8.017-3.589,8.017-8.017v-17.637h9.086c4.427,0,8.017-3.589,8.017-8.017C178.505,311.431,174.916,307.841,170.489,307.841z
	"/>
<path d="M418.472,307.841h-9.086v-86.046c0-4.427-3.589-8.017-8.017-8.017c-4.427,0-8.017,3.589-8.017,8.017v86.046h-42.235
	l15.384-84.611c0.792-4.356-2.097-8.529-6.453-9.322c-4.355-0.79-8.53,2.097-9.322,6.454l-17.102,94.063
	c-0.425,2.339,0.21,4.746,1.733,6.57s3.777,2.88,6.155,2.88h51.841v17.637c0,4.427,3.589,8.017,8.017,8.017
	c4.427,0,8.017-3.589,8.017-8.017v-17.637h9.086c4.427,0,8.017-3.589,8.017-8.017C426.489,311.431,422.899,307.841,418.472,307.841z
	"/>
<path d="M256,213.779c-32.711,0-59.324,26.612-59.324,59.324v68.409c0,2.778,1.439,5.358,3.802,6.82
	c2.363,1.461,5.315,1.594,7.8,0.351l13.517-6.759l13.517,6.759c2.256,1.129,4.914,1.129,7.17,0L256,341.923l13.517,6.759
	c2.256,1.129,4.914,1.129,7.17,0l13.517-6.759l13.517,6.759c1.132,0.565,2.36,0.847,3.585,0.847c1.467,0,2.928-0.402,4.215-1.197
	c2.363-1.46,3.802-4.041,3.802-6.82v-68.409C315.324,240.391,288.711,213.779,256,213.779z M299.29,328.54l-5.501-2.75
	c-2.256-1.129-4.914-1.129-7.17,0l-13.517,6.759l-13.517-6.759c-1.129-0.564-2.357-0.847-3.585-0.847
	c-1.228,0-2.456,0.282-3.585,0.847l-13.517,6.759l-13.517-6.759c-2.256-1.129-4.914-1.129-7.17,0l-5.501,2.75v-55.438
	c0-23.871,19.42-43.29,43.29-43.29s43.29,19.42,43.29,43.29V328.54z"/>
<path d="M238.898,256.534c-4.427,0-8.017,3.589-8.017,8.017v8.551c0,4.427,3.589,8.017,8.017,8.017s8.017-3.589,8.017-8.017v-8.551
	C246.914,260.124,243.325,256.534,238.898,256.534z"/>
<path d="M273.102,256.534c-4.427,0-8.017,3.589-8.017,8.017v8.551c0,4.427,3.589,8.017,8.017,8.017c4.427,0,8.017-3.589,8.017-8.017
	v-8.551C281.119,260.124,277.53,256.534,273.102,256.534z"/>
<path d="M478.33,51.307H33.67C15.105,51.307,0,66.411,0,84.977v342.046c0,18.566,15.105,33.67,33.67,33.67h444.66
	c18.566,0,33.67-15.105,33.67-33.67V84.977C512,66.411,496.895,51.307,478.33,51.307z M33.67,67.34h444.66
	c9.725,0,17.637,7.912,17.637,17.637v34.739H16.033V84.977C16.033,75.252,23.945,67.34,33.67,67.34z M478.33,444.66H33.67
	c-9.725,0-17.637-7.912-17.637-17.637V135.749h479.933v291.273C495.967,436.748,488.055,444.66,478.33,444.66z"/>
<path d="M127.733,101.545h342.046c4.427,0,8.017-3.589,8.017-8.017c0-4.427-3.589-8.017-8.017-8.017H127.733
	c-4.427,0-8.017,3.589-8.017,8.017C119.716,97.956,123.305,101.545,127.733,101.545z"/>
<circle cx="42.221" cy="93.528" r="8.017"/>
<circle cx="67.875" cy="93.528" r="8.017"/>
<circle cx="93.528" cy="93.528" r="8.017"/>
<g>
</g>
<g>
</g>
<g>
</g>
<g>
</g>
<g>
</g>
<g>
</g>
<g>
</g>
<g>
</g>
<g>
</g>
<g>
</g>
<g>
</g>
<g>
</g>
<g>
</g>
<g>
</g>
<g>
</g>
</svg>
