<?xml version="1.0" encoding="UTF-8" standalone="no"?>
<svg
   width="79"
   height="69.25"
   viewBox="0 0 79 69.25"
   fill="none"
   version="1.1"
   id="svg18"
   sodipodi:docname="Bun.svg"
   inkscape:version="1.4.2 (f4327f4, 2025-05-13)"
   xmlns:inkscape="http://www.inkscape.org/namespaces/inkscape"
   xmlns:sodipodi="http://sodipodi.sourceforge.net/DTD/sodipodi-0.dtd"
   xmlns="http://www.w3.org/2000/svg"
   xmlns:svg="http://www.w3.org/2000/svg">
  <sodipodi:namedview
     id="namedview18"
     pagecolor="#ffffff"
     bordercolor="#000000"
     borderopacity="0.25"
     inkscape:showpageshadow="2"
     inkscape:pageopacity="0.0"
     inkscape:pagecheckerboard="0"
     inkscape:deskcolor="#d1d1d1"
     inkscape:zoom="17.585714"
     inkscape:cx="58.968318"
     inkscape:cy="34.488221"
     inkscape:window-width="3840"
     inkscape:window-height="2131"
     inkscape:window-x="-9"
     inkscape:window-y="-9"
     inkscape:window-maximized="1"
     inkscape:current-layer="svg18" />
  <g
     clip-path="url(#clip0_5_31)"
     id="g14"
     transform="translate(-0.5,-0.5)">
    <path
       d="m 71.09,20.74 c -0.16,-0.17 -0.33,-0.34 -0.5,-0.5 -0.17,-0.16 -0.33,-0.34 -0.5,-0.5 -0.17,-0.16 -0.33,-0.34 -0.5,-0.5 -0.17,-0.16 -0.33,-0.34 -0.5,-0.5 -0.17,-0.16 -0.33,-0.34 -0.5,-0.5 -0.17,-0.16 -0.33,-0.34 -0.5,-0.5 -0.17,-0.16 -0.33,-0.34 -0.5,-0.5 4.9602,4.8747 7.8017,11.5063 7.91,18.46 0,16.57 -16.82,30.05 -37.5,30.05 -11.58,0 -21.94,-4.23 -28.83,-10.86 l 0.5,0.5 0.5,0.5 0.5,0.5 0.5,0.5 0.5,0.5 0.5,0.5 0.5,0.5 c 6.88,6.91 17.47,11.36 29.33,11.36 20.68,0 37.5,-13.48 37.5,-30 0,-7.06 -3.04,-13.75 -8.41,-19.01 z"
       fill="#000000"
       id="path1" />
    <path
       d="M 73,35.7 C 73,50.91 57.33,63.24 38,63.24 18.67,63.24 3,50.91 3,35.7 3,26.27 9,17.94 18.22,13 27.44,8.06 33.18,3 38,3 42.82,3 46.94,7.13 57.78,13 67,17.94 73,26.27 73,35.7 Z"
       fill="#fbf0df"
       id="path2" />
    <path
       d="m 73,35.7 c -0.0049,-1.9539 -0.274,-3.8982 -0.8,-5.78 -2.73,33.3 -43.35,34.9 -59.32,24.94 7.179,5.5644 16.0381,8.5197 25.12,8.38 19.3,0 35,-12.35 35,-27.54 z"
       fill="#f6dece"
       id="path3" />
    <path
       d="M 24.53,11.17 C 29,8.49 34.94,3.46 40.78,3.45 39.8816,3.1596 38.9442,3.00786 38,3 c -2.42,0 -5,1.25 -8.25,3.13 -1.13,0.66 -2.3,1.39 -3.54,2.15 -2.33,1.44 -5,3.07 -8,4.7 C 8.69,18.13 3,26.62 3,35.7 3,36.1 3,36.5 3,36.89 9.06,15.48 20.07,13.85 24.53,11.17 Z"
       fill="#fffefc"
       id="path4" />
    <path
       fill-rule="evenodd"
       clip-rule="evenodd"
       d="m 35.12,5.53 c 0.014,2.36122 -0.4818,4.6977 -1.4534,6.8497 C 32.695,14.5318 31.2703,16.4489 29.49,18 c -0.28,0.25 -0.06,0.73 0.3,0.59 3.37,-1.31 7.92,-5.23 6,-13.14 C 35.71,5 35.12,5.12 35.12,5.53 Z m 2.27,0 c 1.2236,1.99643 2.001,4.23384 2.2789,6.5588 0.2778,2.325 0.0497,4.6826 -0.6689,6.9112 -0.12,0.35 0.31,0.65 0.55,0.36 C 41.74,16.56 43.65,11 37.93,5 37.64,4.74 37.19,5.14 37.39,5.49 Z m 2.76,-0.17 c 1.9161,1.35655 3.5191,3.10823 4.7007,5.1369 1.1817,2.0287 1.9146,4.2871 2.1493,6.6231 -0.0101,0.0842 0.0125,0.169 0.0633,0.2369 0.0507,0.068 0.1257,0.1137 0.2093,0.1279 0.0836,0.0141 0.1694,-0.0044 0.2397,-0.0519 0.0702,-0.0474 0.1196,-0.1201 0.1377,-0.2029 0.92,-3.49 0.4,-9.44 -7.17,-12.53 -0.4,-0.16 -0.66,0.38 -0.33,0.62 z m -18.46,10.4 c 2.2793,-0.6809 4.3896,-1.8343 6.1935,-3.3849 1.8039,-1.5507 3.2611,-3.46391 4.2765,-5.6151 0.18,-0.36 0.75,-0.22 0.66,0.18 -1.73,8 -7.52,9.67 -11.12,9.45 -0.38,0.01 -0.37,-0.52 -0.01,-0.63 z"
       fill="#ccbea7"
       id="path5" />
    <path
       d="M 38,65.75 C 17.32,65.75 0.5,52.27 0.5,35.7 c 0,-10 6.18,-19.33 16.53,-24.92 3,-1.6 5.57,-3.21 7.86,-4.62 1.26,-0.78 2.45,-1.51 3.6,-2.19 C 32,1.89 35,0.5 38,0.5 c 3,0 5.62,1.2 8.9,3.14 1,0.57 2,1.19 3.07,1.87 2.49,1.54 5.3,3.28 9,5.27 C 69.32,16.37 75.5,25.69 75.5,35.7 75.5,52.27 58.68,65.75 38,65.75 Z M 38,3 c -2.42,0 -5,1.25 -8.25,3.13 -1.13,0.66 -2.3,1.39 -3.54,2.15 -2.33,1.44 -5,3.07 -8,4.7 C 8.69,18.13 3,26.62 3,35.7 3,50.89 18.7,63.25 38,63.25 57.3,63.25 73,50.89 73,35.7 73,26.62 67.31,18.13 57.78,13 54,11 51.05,9.12 48.66,7.64 47.57,6.97 46.57,6.35 45.66,5.8 42.63,4 40.42,3 38,3 Z"
       fill="#000000"
       id="path6" />
    <path
       d="m 45.05,43 c -0.4492,1.8399 -1.4718,3.4894 -2.92,4.71 -1.0872,1.0539 -2.4947,1.7155 -4,1.88 C 36.5795,49.4515 35.1226,48.7884 34,47.71 32.5666,46.4836 31.5584,44.8348 31.12,43 c -0.0145,-0.1089 -0.0039,-0.2197 0.031,-0.3239 0.0349,-0.1042 0.0932,-0.1991 0.1704,-0.2772 0.0772,-0.0782 0.1713,-0.1377 0.2751,-0.1739 0.1037,-0.0362 0.2144,-0.0482 0.3235,-0.035 h 12.34 c 0.1083,-0.0115 0.2178,0.0017 0.3203,0.0386 0.1025,0.037 0.1953,0.0967 0.2713,0.1746 0.0761,0.078 0.1334,0.1723 0.1678,0.2756 0.0344,0.1034 0.0448,0.2132 0.0306,0.3212 z"
       fill="#b71422"
       id="path7" />
    <path
       d="m 34,47.79 c 1.1203,1.079 2.572,1.7484 4.12,1.9 1.5445,-0.1538 2.9923,-0.823 4.11,-1.9 0.3575,-0.3333 0.6917,-0.6908 1,-1.07 -0.616,-0.6989 -1.3685,-1.2643 -2.2112,-1.6616 -0.8427,-0.3972 -1.7577,-0.6179 -2.6888,-0.6484 -0.9963,0.0236 -1.9719,0.2889 -2.8429,0.7732 -0.871,0.4843 -1.6113,1.173 -2.1571,2.0068 0.23,0.21 0.43,0.41 0.67,0.6 z"
       fill="#ff6164"
       id="path8" />
    <path
       d="m 34.16,47 c 0.4958,-0.6408 1.1304,-1.1609 1.8561,-1.5212 0.7257,-0.3603 1.5237,-0.5513 2.3339,-0.5588 1.4976,0.0442 2.9244,0.647 4,1.69 0.23,-0.25 0.45,-0.51 0.66,-0.77 -1.2722,-1.2116 -2.9534,-1.9005 -4.71,-1.93 -0.9387,0.0081 -1.864,0.2239 -2.7095,0.6319 -0.8455,0.4081 -1.5901,0.9982 -2.1805,1.7281 0.2364,0.2569 0.4868,0.5006 0.75,0.73 z"
       fill="#000000"
       id="path9" />
    <path
       d="m 38.09,50.19 c -1.6664,-0.146 -3.2345,-0.8508 -4.45,-2 -1.5479,-1.3092 -2.6375,-3.0785 -3.11,-5.05 -0.0339,-0.1755 -0.0281,-0.3564 0.0169,-0.5294 0.0449,-0.173 0.128,-0.3338 0.2431,-0.4706 0.137,-0.1655 0.3101,-0.2975 0.5059,-0.3859 0.1959,-0.0883 0.4093,-0.1308 0.6241,-0.1241 h 12.34 c 0.2144,-0.0045 0.4272,0.0389 0.6227,0.1272 0.1955,0.0882 0.3688,0.219 0.5073,0.3828 0.114,0.1373 0.1956,0.2984 0.2389,0.4715 0.0433,0.1731 0.0471,0.3537 0.0111,0.5285 -0.4725,1.9715 -1.5621,3.7408 -3.11,5.05 -1.2129,1.1472 -2.7771,1.8518 -4.44,2 z m -6.17,-7.4 c -0.16,0 -0.2,0.07 -0.21,0.09 0.4227,1.7097 1.3789,3.2403 2.73,4.37 0.988,0.9733 2.2725,1.5892 3.65,1.75 1.374,-0.159 2.657,-0.7671 3.65,-1.73 1.3469,-1.1316 2.2993,-2.6619 2.72,-4.37 C 44.4382,42.868 44.408,42.8427 44.3727,42.8268 44.3374,42.8109 44.2984,42.8051 44.26,42.81 Z"
       fill="#000000"
       id="path10" />
    <path
       d="m 53.22,43.62 c 3.2309,0 5.85,-1.5401 5.85,-3.44 0,-1.8999 -2.6191,-3.44 -5.85,-3.44 -3.2309,0 -5.85,1.5401 -5.85,3.44 0,1.8999 2.6191,3.44 5.85,3.44 z"
       fill="#febbd0"
       id="path11" />
    <path
       d="m 22.95,43.62 c 3.2309,0 5.85,-1.5401 5.85,-3.44 0,-1.8999 -2.6191,-3.44 -5.85,-3.44 -3.2309,0 -5.85,1.5401 -5.85,3.44 0,1.8999 2.6191,3.44 5.85,3.44 z"
       fill="#febbd0"
       id="path12" />
    <path
       fill-rule="evenodd"
       clip-rule="evenodd"
       d="m 25.7,38.8 c 1.0902,0.002 2.1565,-0.3195 3.0639,-0.9237 0.9074,-0.6043 1.6152,-1.4641 2.0338,-2.4708 0.4186,-1.0066 0.5291,-2.1148 0.3176,-3.1843 -0.2114,-1.0695 -0.7354,-2.0522 -1.5056,-2.8238 -0.7702,-0.7716 -1.752,-1.2974 -2.8211,-1.5108 -1.0691,-0.2134 -2.1775,-0.1049 -3.1849,0.3119 -1.0074,0.4167 -1.8685,1.1229 -2.4744,2.0293 -0.6059,0.9063 -0.9293,1.972 -0.9293,3.0622 0,1.4596 0.5791,2.8596 1.6103,3.8926 1.0312,1.0331 2.4301,1.6148 3.8897,1.6174 z m 24.77,0 c 1.0914,0.0079 2.1607,-0.3085 3.072,-0.9091 0.9114,-0.6006 1.6238,-1.4584 2.047,-2.4645 0.4232,-1.006 0.538,-2.1152 0.33,-3.1866 -0.2081,-1.0715 -0.7297,-2.057 -1.4987,-2.8316 -0.7689,-0.7746 -1.7506,-1.3034 -2.8206,-1.5192 -1.0699,-0.2159 -2.1798,-0.1091 -3.1889,0.3067 -1.0092,0.4158 -1.8721,1.122 -2.4793,2.029 C 45.3242,31.1317 45,32.1985 45,33.29 c -0.0027,1.4552 0.5715,2.8522 1.5968,3.885 1.0252,1.0327 2.418,1.6171 3.8732,1.625 z"
       fill="#000000"
       id="path13" />
    <path
       fill-rule="evenodd"
       clip-rule="evenodd"
       d="m 24,33.64 c 0.4098,0.002 0.811,-0.1177 1.1527,-0.344 0.3418,-0.2262 0.6086,-0.5488 0.7668,-0.9269 0.1583,-0.3781 0.2007,-0.7946 0.1219,-1.1968 -0.0787,-0.4022 -0.2751,-0.7719 -0.5641,-1.0624 -0.2891,-0.2905 -0.658,-0.4887 -1.0598,-0.5694 -0.4018,-0.0806 -0.8185,-0.0402 -1.1973,0.1161 -0.3789,0.1564 -0.7027,0.4217 -0.9306,0.7623 -0.2279,0.3407 -0.3496,0.7413 -0.3496,1.1511 0,0.5473 0.2167,1.0723 0.6027,1.4602 0.3861,0.3879 0.91,0.6072 1.4573,0.6098 z m 24.77,0 c 0.4098,0.002 0.811,-0.1177 1.1527,-0.344 0.3418,-0.2262 0.6086,-0.5488 0.7668,-0.9269 0.1583,-0.3781 0.2007,-0.7946 0.1219,-1.1968 -0.0787,-0.4022 -0.2751,-0.7719 -0.5642,-1.0624 -0.289,-0.2905 -0.6579,-0.4887 -1.0597,-0.5694 -0.4018,-0.0806 -0.8185,-0.0402 -1.1973,0.1161 -0.3789,0.1564 -0.7027,0.4217 -0.9306,0.7623 -0.2279,0.3407 -0.3496,0.7413 -0.3496,1.1511 -1e-4,0.5438 0.2139,1.0659 0.5956,1.4532 0.3818,0.3874 0.9006,0.6089 1.4444,0.6168 z"
       fill="#ffffff"
       id="path14" />
  </g>
  <defs
     id="defs18">
    <clipPath
       id="clip0_5_31">
      <rect
         width="80"
         height="70"
         fill="#ffffff"
         id="rect17"
         x="0"
         y="0" />
    </clipPath>
    <clipPath
       id="clip1_5_31">
      <rect
         width="121"
         height="45"
         fill="#ffffff"
         transform="translate(89,12)"
         id="rect18"
         x="0"
         y="0" />
    </clipPath>
  </defs>
</svg>
