<svg xmlns="http://www.w3.org/2000/svg" width="41" height="41" aria-hidden="true"><g fill="none"><path fill="#FFF" d="M14.53.08c.5.187.837.678.89 1.22l.004.043c.014.182.026.367.04.587.009.123.035.533.036.558.08 1.216.137 1.838.253 2.523l.024.136.01-.006a2 2 0 0 1 .527-.235l.047-.013c.423-.107.859-.07 1.245.089l.014.005.012-.022A2.79 2.79 0 0 1 20.037 3.5h.053a2.79 2.79 0 0 1 2.458 1.466l.012.023.015-.007c.373-.152.79-.191 1.198-.098l.05.012c.206.053.4.138.573.25l.007.004v-.003l.029-.165c.113-.678.17-1.295.247-2.498l.016-.258.005-.063.054-.813c.04-.559.382-1.071.895-1.263.595-.223 1.228.03 1.724.661.9 1.153 1.431 2.66 1.605 4.24.147 1.34.014 2.607-.36 3.19a3 3 0 0 1-.163.222l-.027.033.022.017c.212.172.39.388.518.64l.022.044c.195.409.24.862.142 1.287l-.007.03.035.016c.374.18.7.44.959.757l.006.008.027-.018a2.36 2.36 0 0 1 2.173-.199l.052.022c.445.195.812.52 1.059.92l.026.044.034-.01a1.7 1.7 0 0 1 .907-.04l.046.01q.18.047.341.128l.004.002.007-.043c.078-.49.122-.966.178-1.822l.005-.087.001-.012.012-.19.005-.071.043-.646c.086-1.174 1.426-1.671 2.313-.55l.001.002c.739.941 1.175 2.17 1.318 3.459.122 1.1.012 2.141-.306 2.64q-.037.056-.077.11l-.01.013.032.03q.204.196.338.453l.021.044c.154.321.2.675.142 1.013l-.005.027.007.003a2.35 2.35 0 0 1 1.241 1.724l.008.051c.1.753-.171 1.488-.695 1.995l-.03.029.007.014c.197.384.245.838.113 1.27l-.014.044c-.187.556-.64.965-1.187 1.108l-.012.003-.009.034a2.35 2.35 0 0 1-1.49 1.591l-.032.01.001.007c.258 1.35.572 3.614.943 6.709l.015.124c.099.889.196 1.796.336 3.125l.08.756.012.116.239 2.245c.048.431.085.777.167 1.554.04.378-.274.7-.655.669-2.785-.228-5.833-.4-9.052-.512-.115-.004-5.957-.155-8.689-.155-2.775 0-5.51.044-8.156.13-.112.003-6.856.305-9.636.533a.608.608 0 0 1-.656-.66c.054-.585.103-1.078.154-1.554l.005-.047v-.001q0-.017.002-.033l.003-.032.016-.153L1.977 36l.037-.332.038-.332.037-.332.149-1.281.033-.283c.484-4.11.922-7.295 1.256-9.039l.01-.057-.033-.01a2.35 2.35 0 0 1-1.508-1.608l-.005-.02-.012-.003a1.71 1.71 0 0 1-1.172-1.065l-.015-.042A1.7 1.7 0 0 1 .89 20.28l.007-.014-.03-.028a2.35 2.35 0 0 1-.702-1.943l.007-.052a2.35 2.35 0 0 1 1.249-1.776l.006-.003-.005-.026a1.7 1.7 0 0 1 .121-.968l.021-.046c.09-.189.213-.356.36-.496l.032-.03-.014-.02-.04-.055-.039-.057c-.313-.49-.423-1.532-.301-2.631.142-1.29.578-2.518 1.317-3.46.426-.543.987-.768 1.52-.568.457.17.76.624.796 1.117a71 71 0 0 1 .057.86l.002.032.001.027c.059.905.103 1.402.182 1.903l.008.048.007-.004q.142-.07.298-.115l.045-.012c.322-.082.653-.067.956.032l.03.01.026-.042c.229-.373.561-.68.966-.88l.049-.023a2.36 2.36 0 0 1 2.24.138l.01.006.011-.014c.253-.3.567-.545.925-.717l.035-.016-.007-.029a1.97 1.97 0 0 1 .12-1.239l.022-.047a2 2 0 0 1 .539-.684l.033-.027-.034-.042a3 3 0 0 1-.122-.166l-.037-.057c-.373-.575-.509-1.844-.36-3.187.173-1.582.707-3.088 1.61-4.24.495-.629 1.128-.882 1.723-.66z"/><path fill="#4E4A99" d="M15.72 36.616c4.978 0 9.056-7.585 10.066-16.881a2.18 2.18 0 0 0 2.108-1.789q.031-.168.037-.34h.064a1.37 1.37 0 0 0 1.382-.93 1.36 1.36 0 0 0-.543-1.571 2.171 2.171 0 0 0-.553-4.133c.32-.407.382-.96.159-1.428a1.37 1.37 0 0 0-1.213-.779c.359-.174.664-.44.883-.772.512-.8.594-4.4-1.217-6.723-.751-.955-1.485-.38-1.532.273-.142 1.995-.16 3.489-.679 5.2a1.373 1.373 0 0 0-2.436-.625 2.176 2.176 0 0 0-2.156-1.863 2.176 2.176 0 0 0-2.157 1.863 1.373 1.373 0 0 0-2.435.619c-.52-1.707-.538-3.206-.68-5.2-.047-.653-.78-1.228-1.53-.273-1.819 2.318-1.736 5.923-1.219 6.723.215.335.516.606.871.786a1.37 1.37 0 0 0-1.211.78 1.36 1.36 0 0 0 .159 1.427 2.171 2.171 0 0 0-.553 4.132 1.36 1.36 0 0 0-.538 1.571 1.37 1.37 0 0 0 1.382.928h.064a2.175 2.175 0 0 0 2.175 2.124c-.609 2.603-1.531 10.053-2.283 16.875.042-.387.134-.775.176-1.165 1.086.758 2.2 1.171 3.409 1.171"/><path fill="#3E3978" d="M20.116 38.517c2.779 0 5.481.044 8.048.126l-.206-1.918c-.275-2.54-.55-5.246-.831-7.784-.487-4.068-.965-7.585-1.341-9.206-1.01 9.302-5.088 16.881-10.066 16.881-1.209 0-2.322-.413-3.401-1.17-.043.39-.134.779-.177 1.165q-.11 1.032-.202 2.036c2.612-.085 5.352-.13 8.176-.13"/><path fill="#4E4A99" d="M11.7 18.181a1.98 1.98 0 0 1-1.065-.607 6 6 0 0 0-.84.248 2.5 2.5 0 0 1-1.768 0 6.7 6.7 0 0 0-2.166-.395 9.5 9.5 0 0 0-2.995.378v.945q.028.121.104.22.171.242.295.511c.153.414.247.847.395 1.26.134.448.522.774.988.83q.845.12 1.7.108c.33-.002.655-.085.946-.242a9.2 9.2 0 0 1 .688-1.972c.443-.876 1.149-.91 1.627 0 .289.575.509 1.183.656 1.81.172.14.373.24.59.29a5 5 0 0 0 2.252.023q.18-.038.348-.11c.076-.455.152-.876.225-1.243a2.78 2.78 0 0 1-1.98-2.054"/><path fill="#FFF" d="M11.054 25.18a11 11 0 0 0-.305-1.82c-.175-.694-.304-1.39-.475-2.073a8.3 8.3 0 0 0-.656-1.81c-.478-.91-1.184-.876-1.627 0a9.2 9.2 0 0 0-.688 1.972c-.153.632-.282 1.273-.443 1.916a11 11 0 0 0-.305 1.82c-.076.948.547 1.766 1.328 1.766H9.72c.784-.004 1.41-.822 1.334-1.77zm-1.966-2.26c0 .416 0 .83-.04 1.238-.04.5-.062.998-.14 1.466-.054.329-.142.344-.202 0-.079-.465-.099-.965-.14-1.466a12 12 0 0 1-.04-1.238c-.544-.144-.977-.694-1.103-1.401.858.487 1.91.487 2.77 0-.127.707-.56 1.257-1.105 1.401"/><path fill="#F39319" d="M7.423 21.519c.126.707.559 1.257 1.104 1.401 0 .416 0 .83.04 1.238.04.5.06 1.001.14 1.466.059.344.152.329.202 0 .077-.468.099-.965.14-1.466.035-.408.045-.822.04-1.238.544-.144.977-.694 1.103-1.401a2.8 2.8 0 0 1-2.77 0z"/><path fill="#4E4A99" d="M28.468 18.181a2.79 2.79 0 0 1-1.953 2.054q.095.486.2 1.115c.165.125.36.203.564.228a11 11 0 0 0 1.7.109c.331-.003.656-.086.946-.243a9.2 9.2 0 0 1 .688-1.972c.442-.875 1.15-.91 1.626 0 .29.576.51 1.183.658 1.81.171.14.373.24.589.29a5 5 0 0 0 2.253.024c.509-.08.927-.44 1.078-.931.13-.381.242-.759.345-1.155.06-.22.086-.443.335-.552.048-.021.078-.13.08-.2.009-.314 0-.627 0-1.003-.61-.099-1.208-.23-1.812-.284-1.134-.103-2.26-.059-3.35.354a2.5 2.5 0 0 1-1.767 0 6.6 6.6 0 0 0-1.087-.292 1.98 1.98 0 0 1-1.093.648"/><path fill="#FFF" d="M33.672 25.18a11 11 0 0 0-.305-1.82c-.175-.694-.304-1.39-.475-2.073a8.2 8.2 0 0 0-.657-1.81c-.477-.91-1.185-.876-1.626 0a9.2 9.2 0 0 0-.688 1.972c-.153.632-.282 1.273-.443 1.916a11 11 0 0 0-.305 1.82c-.076.948.545 1.766 1.328 1.766h1.837c.787-.004 1.41-.822 1.334-1.77zm-1.966-2.26c0 .416 0 .83-.04 1.238-.04.5-.062.998-.14 1.466-.054.329-.142.344-.202 0-.079-.465-.099-.965-.14-1.466a12 12 0 0 1-.04-1.238c-.545-.144-.977-.694-1.103-1.401.858.487 1.91.487 2.769 0-.126.707-.559 1.257-1.104 1.401"/><path fill="#F39319" d="M30.04 21.519c.127.707.56 1.257 1.104 1.401q-.012.62.04 1.238c.041.5.061 1.001.14 1.466.06.344.152.329.203 0 .077-.468.099-.965.14-1.466q.049-.613.04-1.238c.544-.144.977-.694 1.103-1.401a2.8 2.8 0 0 1-2.77 0m5.958 2.483c.304 1.303.685 4.12 1.075 7.383-.341-3.08-.689-5.852-1.075-7.383"/><path fill="#F8AB13" d="M12.686 12.018a11.7 11.7 0 0 1 3.734-.475 8.3 8.3 0 0 1 2.7.491c.71.27 1.495.27 2.205 0 1.358-.512 2.759-.569 4.175-.44.752.067 1.495.231 2.257.354v1.25c0 .088-.04.224-.1.25-.305.137-.343.414-.416.689-.13.484-.27.965-.43 1.438a1.67 1.67 0 0 1-1.345 1.162 6.2 6.2 0 0 1-2.809-.03 1.64 1.64 0 0 1-1.15-.894c-.288-.594-.565-1.194-.88-1.775a.64.64 0 0 0-.422-.314c-.122-.009-.305.173-.38.313q-.354.628-.62 1.298c-.386 1.002-1.142 1.487-2.171 1.517q-1.067.015-2.121-.136a1.47 1.47 0 0 1-1.233-1.032c-.183-.517-.305-1.062-.49-1.571a4.3 4.3 0 0 0-.369-.64.7.7 0 0 1-.13-.272c-.014-.384-.005-.763-.005-1.183"/><path fill="#FFF" d="M22.51 18.934c-.418-1.65-.61-3.309-1.412-4.841-.595-1.14-1.476-1.092-2.027 0-.778 1.543-.995 3.186-1.412 4.84a14 14 0 0 0-.376 2.276c-.094 1.182.68 2.201 1.657 2.201h2.283c.975 0 1.75-1.02 1.657-2.2a14 14 0 0 0-.37-2.276"/><path fill="#4E4A99" d="M21.81 16.638a3.5 3.5 0 0 1-3.452 0c.152.882.697 1.569 1.37 1.747q-.015.773.049 1.545c.052.622.076 1.247.175 1.82.075.43.184.412.253 0 .096-.582.123-1.204.175-1.82q.061-.763.049-1.545c.685-.178 1.224-.865 1.382-1.747z"/><path fill="#F8AB13" d="M5.308 37.541c3.045 0 5.676-3.545 7.108-8.542.338-2.73.711-5.505 1.05-7.51a2 2 0 0 1-.346.112 5 5 0 0 1-2.253-.025 1.44 1.44 0 0 1-.59-.29c.174.683.305 1.38.475 2.074q.23.898.305 1.82c.076.949-.547 1.767-1.328 1.767H7.89c-.781 0-1.404-.818-1.328-1.766q.075-.923.305-1.82c.161-.644.286-1.284.443-1.917-.29.157-.615.24-.946.243a11 11 0 0 1-1.7-.11 1.18 1.18 0 0 1-.988-.827c-.152-.415-.247-.847-.394-1.261a3.3 3.3 0 0 0-.296-.511.6.6 0 0 1-.103-.22c-.012-.304 0-.607 0-.945a9.5 9.5 0 0 1 2.994-.378c.74.01 1.472.143 2.167.394a2.5 2.5 0 0 0 1.767 0q.41-.155.84-.247a1.97 1.97 0 0 1-.242-2.35 2.78 2.78 0 0 1-.668-3.37 1.75 1.75 0 0 0-1.66-.101 1.74 1.74 0 0 0-.992 1.33 1.103 1.103 0 0 0-1.956.498c-.416-1.365-.43-2.579-.544-4.172-.038-.523-.627-.984-1.228-.218-1.459 1.858-1.392 4.75-.982 5.391.176.266.42.48.708.62a1.1 1.1 0 0 0-.97.625c-.18.374-.13.817.125 1.145a1.742 1.742 0 0 0-.441 3.315 1.095 1.095 0 0 0 .672 2.005h.05a1.747 1.747 0 0 0 1.74 1.704c-.484 2.087-1.228 8.062-1.826 13.533.033-.304.106-.622.141-.935.87.607 1.762.94 2.731.94z"/><path fill="#F39319" d="M11.538 36.545c.193-1.766.516-4.624.878-7.546-1.432 4.997-4.06 8.542-7.108 8.542-.97 0-1.862-.332-2.728-.939-.035.313-.108.625-.141.935q-.09.834-.165 1.646c2.754-.226 5.8-.402 9.052-.516.064-.693.133-1.405.212-2.122"/><path fill="#F8AB13" d="M35.998 24.002a1.746 1.746 0 0 0 1.691-1.434q.024-.135.03-.273h.05a1.095 1.095 0 0 0 .673-2.005A1.742 1.742 0 0 0 38 16.975c.255-.327.304-.77.125-1.145a1.1 1.1 0 0 0-.97-.625c.287-.14.532-.353.708-.62.41-.64.475-3.532-.984-5.39-.6-.759-1.189-.304-1.227.218-.114 1.599-.128 2.802-.545 4.172a1.101 1.101 0 0 0-1.95-.502 1.74 1.74 0 0 0-1.025-1.341 1.75 1.75 0 0 0-1.685.154 2.78 2.78 0 0 1-.685 3.338c.44.731.358 1.661-.202 2.306q.555.1 1.087.29a2.5 2.5 0 0 0 1.767 0c1.089-.412 2.214-.454 3.35-.353.608.053 1.199.185 1.811.284v1.003c0 .07-.032.179-.08.2-.249.11-.275.332-.334.552a18 18 0 0 1-.346 1.155c-.15.49-.569.852-1.078.931a5 5 0 0 1-2.253-.024 1.44 1.44 0 0 1-.589-.29c.174.683.305 1.379.475 2.074q.23.897.305 1.82c.076.948-.547 1.766-1.328 1.766h-1.84c-.783 0-1.404-.818-1.328-1.766q.075-.923.305-1.82c.161-.643.286-1.284.443-1.916-.29.157-.615.24-.946.243a11 11 0 0 1-1.7-.11 1.16 1.16 0 0 1-.564-.227c.466 2.803 1.081 7.771 1.897 15.31q.044.393.087.803c3.632-.725 6.54-6.49 7.297-13.463"/><path fill="#F39319" d="M37.74 37.635c-.22-2.035-.44-4.206-.667-6.242-.39-3.263-.774-6.08-1.075-7.383-.761 6.978-3.665 12.742-7.3 13.462l.128 1.201c3.262.112 6.316.287 9.08.513q-.08-.777-.167-1.55z"/></g></svg>