<?xml version="1.0" encoding="utf-8"?>
<!-- Generator: Adobe Illustrator 25.3.1, SVG Export Plug-In . SVG Version: 6.00 Build 0)  -->
<svg version="1.1" id="Capa_1" xmlns="http://www.w3.org/2000/svg" xmlns:xlink="http://www.w3.org/1999/xlink" x="0px" y="0px"
	 viewBox="0 0 128 128" style="enable-background:new 0 0 128 128;" xml:space="preserve">
<style type="text/css">
	.st0{fill:#4AD295;}
</style>
<g>
	<path class="st0" d="M68.6,48.9H43.4l-7.9-13.7h41l12-20.8H20.7c-4.3,0-8.4,2.3-10.5,6.1c-2.2,3.8-2.2,8.4,0,12.2l43.2,74.9
		c3.4,5.8,10.9,7.7,16.7,4.3c1.8-1.1,3.3-2.5,4.3-4.3l1.4-2.5L55.9,70.6L68.6,48.9z"/>
	<path class="st0" d="M117.8,20.5c-2.2-3.8-6.2-6.1-10.5-6.1h-3L71.8,70.6l11.9,20.8l34-58.8C120,28.9,120,24.3,117.8,20.5
		L117.8,20.5z"/>
</g>
</svg>
