<svg width="37" height="32" viewBox="0 0 37 32" fill="none"
  xmlns="http://www.w3.org/2000/svg">
  <path d="M18.2857 21.7143C15.1298 21.7143 12.5714 19.1559 12.5714 16C12.5714 12.8441 15.1298 10.2857 18.2857 10.2857C21.4416 10.2857 24 12.8441 24 16C24 19.1559 21.4416 21.7143 18.2857 21.7143ZM35.9719 14.1C36.3716 14.7 36.5714 15.3 36.5714 16C36.5714 16.7 36.3716 17.4 35.9719 17.9L30.4762 27.9C29.9766 28.9 28.5777 28.9 27.9781 28L25.0804 23.5C24.7806 23 24.8806 22.3 25.2803 21.8C26.879 19.9 27.6784 17.4 27.2787 14.6C26.6792 10.8 23.5816 7.6 19.7845 7C13.3895 5.9 7.99375 11.6 9.39266 18.1C9.99219 20.9 12.1905 23.4 14.8884 24.5C16.9867 25.4 18.9852 25.4 20.7838 24.9C21.2834 24.7 21.9828 25 22.2826 25.5L24.9805 29.8C25.58 30.7 24.8806 32 23.7814 32H10.292C8.99297 32 7.89383 31.3 7.2943 30.2L0.599532 17.9C0.199844 17.4 0 16.7 0 16C0 15.3 0.199844 14.7 0.599532 14.1L7.2943 1.8C7.89383 0.7 8.99297 0 10.292 0H26.2795C27.5785 0 28.6776 0.7 29.2771 1.8L35.9719 14.1Z" fill="#6666FF"/>
</svg>
