<?xml version="1.0" encoding="utf-8"?>
<!-- Generator: Adobe Illustrator 25.3.1, SVG Export Plug-In . SVG Version: 6.00 Build 0)  -->
<svg version="1.1" id="Layer_1" xmlns="http://www.w3.org/2000/svg" xmlns:xlink="http://www.w3.org/1999/xlink" x="0px" y="0px"
	 viewBox="0 0 85 85" style="enable-background:new 0 0 85 85;" xml:space="preserve">
<style type="text/css">
	.st0{fill:#95C748;}
	.st1{fill:#35BFC0;}
	.st2{clip-path:url(#SVGID_2_);}
	.st3{clip-path:url(#SVGID_5_);}
	.st4{opacity:0.5;clip-path:url(#SVGID_6_);}
	.st5{fill:#3253A0;}
	.st6{fill:#F38334;}
	.st7{fill:#3152A0;}
</style>
<g>
	<g>
		<g>
			<g>
				<path class="st0" d="M81.6,47.5l-0.2-0.3c0,0-0.1-0.1-0.1-0.1L66.7,24.8l-18.9,14l13.8,21.3l0.2,0.3l0.1,0.1
					c3.7,5.4,11.1,6.7,16.4,3C83.5,59.9,85,52.8,81.6,47.5"/>
				<path class="st1" d="M25,53.7c0-6.5-5.3-11.8-11.8-11.8S1.4,47.2,1.4,53.7s5.3,11.8,11.8,11.8h0C19.7,65.5,25,60.2,25,53.7"/>
			</g>
		</g>
		<g>
			<defs>
				<path id="SVGID_1_" d="M44.8,31c0,2.9,1.1,5.7,3,7.9l13.8,21.2l0.2,0.3l0.1,0.1c3.6,5.4,10.9,6.9,16.3,3.3
					c5.4-3.6,6.9-10.9,3.3-16.3l-0.2-0.3c0,0-0.1-0.1-0.1-0.1L66.7,24.8C63.3,19.3,56,17.6,50.5,21C47,23.1,44.8,26.9,44.8,31"/>
			</defs>
			<clipPath id="SVGID_2_">
				<use xlink:href="#SVGID_1_"  style="overflow:visible;"/>
			</clipPath>
			<g class="st2">
				<g>
					<defs>
						<polygon id="SVGID_3_" points="-0.8,15.2 0.2,15.2 -0.8,16.2 						"/>
					</defs>
					<defs>
						<polygon id="SVGID_4_" points="-2.8,13.2 -3.8,13.2 -2.8,12.2 						"/>
					</defs>
					<clipPath id="SVGID_5_">
						<use xlink:href="#SVGID_3_"  style="overflow:visible;"/>
					</clipPath>
					<clipPath id="SVGID_6_" class="st3">
						<use xlink:href="#SVGID_4_"  style="overflow:visible;"/>
					</clipPath>
					<g class="st4">
						
							<image style="overflow:visible;enable-background:new    ;" width="324" height="244" xlink:href="96F9D07A.png"  transform="matrix(0.239 0 0 0.239 -1.7624 14.2243)">
						</image>
					</g>
				</g>
				<path class="st5" d="M68.5,31c0-6.5-5.3-11.8-11.8-11.8c-6.5,0-11.8,5.3-11.8,11.8c0,2.3,0.7,4.6,2,6.6l-9-12.7
					c-3.4-5.5-10.7-7.3-16.2-3.9c-1.6,1-2.9,2.3-3.9,3.9L3.5,47.1c3.6-5.4,11-6.8,16.4-3.2c1.4,1,2.6,2.2,3.5,3.7l9.3,13.1
					c3.8,5.2,11.2,6.4,16.4,2.6c1-0.7,1.8-1.6,2.6-2.6l0.1-0.2c0.2-0.3,0.5-0.7,0.7-1.1l14-21.8C67.8,35.7,68.5,33.4,68.5,31
					 M48.6,39.6l0.2,0.2L48.6,39.6 M49.6,40.5l0.2,0.2L49.6,40.5 M52.3,42l0.3,0.1L52.3,42 M53.5,42.4l0.4,0.1L53.5,42.4 M54.9,42.7
					l0.4,0.1L54.9,42.7 M64.5,39.9l0.3-0.3L64.5,39.9 M58.1,42.7l0.4-0.1L58.1,42.7 M59.4,42.5l0.5-0.1L59.4,42.5 M60.8,42.1
					c0.1,0,0.3-0.1,0.4-0.1C61,42,60.9,42.1,60.8,42.1 M63.4,40.7l0.2-0.2L63.4,40.7 M65.4,38.9l0.2-0.3L65.4,38.9 M3.2,47.6
					c0.1-0.2,0.2-0.3,0.3-0.4L3.2,47.6L3.2,47.6z"/>
			</g>
		</g>
		<g>
			<g>
				<path class="st6" d="M68.4,31c0-6.5-5.3-11.8-11.8-11.8c-6.5,0-11.8,5.3-11.8,11.8c0,6.5,5.3,11.8,11.8,11.8c0,0,0,0,0,0
					C63.2,42.8,68.5,37.5,68.4,31"/>
				<path class="st7" d="M56.7,42.8c-4,0-7.7-2-9.9-5.3l-9-12.7c-3.4-5.5-10.6-7.3-16.2-3.9c-1.6,1-2.9,2.3-3.9,3.9L3.4,47.1
					c3.6-5.4,11-6.8,16.4-3.2c1.4,1,2.6,2.2,3.5,3.7l9.4,13.1c3.8,5.2,11.2,6.4,16.4,2.6c1-0.7,1.8-1.6,2.6-2.6l0.1-0.2l0.7-1
					l14-21.8C64.2,40.9,60.6,42.8,56.7,42.8 M3.1,47.6l0.3-0.4L3.1,47.6z"/>
			</g>
		</g>
	</g>
</g>
</svg>
