<svg style="display: inline-block;" width="32" height="32" viewBox="0 0 32 32" fill="none" xmlns="http://www.w3.org/2000/svg">
<rect x="5.91113" y="6.06738" width="20" height="20" fill="white"></rect>
<path fill-rule="evenodd" clip-rule="evenodd" d="M2.29533 2.29533C0 4.59065 0 8.28492 0 15.6735V16.3265C0 23.7151 0 27.4093 2.29533 29.7047C4.59065 32 8.28492 32 15.6735 32H16.3265C23.7151 32 27.4093 32 29.7047 29.7047C32 27.4093 32 23.7151 32 16.3265V15.6735C32 8.28492 32 4.59065 29.7047 2.29533C27.4093 0 23.7151 0 16.3265 0H15.6735C8.28492 0 4.59065 0 2.29533 2.29533ZM25.591 8.00902C23.5165 7.9193 21.4677 8.50072 19.7428 9.66872C18.0178 10.8367 16.7066 12.5303 15.9998 14.5033C15.2931 12.5303 13.9819 10.8367 12.2569 9.66872C10.5319 8.50072 8.48321 7.9193 6.40869 8.00902C6.33904 9.68553 6.69323 11.3523 7.43783 12.8522C8.18243 14.352 9.2929 15.6354 10.6645 16.5813C11.3681 17.0697 11.9432 17.7242 12.3397 18.4881C12.7363 19.252 12.9423 20.1021 12.94 20.9647V24H19.0603V20.9647C19.0578 20.1022 19.2637 19.252 19.6602 18.4881C20.0566 17.7243 20.6316 17.0697 21.3352 16.5813C22.7071 15.6358 23.8179 14.3524 24.5625 12.8525C25.3072 11.3526 25.6611 9.68561 25.591 8.00902ZM11.0123 20.9647C11.0152 20.4193 10.8861 19.8813 10.6363 19.3978C10.3865 18.9142 10.0235 18.4997 9.57897 18.1903C8.97481 17.7737 8.41051 17.301 7.89343 16.7782C7.33431 16.2122 6.83385 15.5899 6.39984 14.921V24H11.0123V20.9647ZM21.3634 19.3978C21.1136 19.8813 20.9845 20.4193 20.9873 20.9647V24H25.5998V14.921C25.1658 15.5899 24.6654 16.2122 24.1062 16.7782C23.5892 17.301 23.0249 17.7737 22.4207 18.1903C21.9762 18.4997 21.6132 18.9142 21.3634 19.3978Z" fill="#E0095F"></path>
</svg>