<?xml version="1.0" encoding="utf-8"?>
<!-- Generator: Adobe Illustrator 25.3.1, SVG Export Plug-In . SVG Version: 6.00 Build 0)  -->
<svg version="1.1"
	 id="svg2" xmlns:cc="http://creativecommons.org/ns#" xmlns:dc="http://purl.org/dc/elements/1.1/" xmlns:rdf="http://www.w3.org/1999/02/22-rdf-syntax-ns#" xmlns:svg="http://www.w3.org/2000/svg"
	 xmlns="http://www.w3.org/2000/svg" xmlns:xlink="http://www.w3.org/1999/xlink" x="0px" y="0px" viewBox="0 0 2300 2300"
	 style="enable-background:new 0 0 2300 2300;" xml:space="preserve">
<style type="text/css">
	.st0{fill:#CCCCCC;}
	.st1{fill:none;stroke:#CCCCCC;stroke-width:12;stroke-linecap:round;stroke-linejoin:round;}
	.st2{fill:none;stroke:#CCCCCC;stroke-width:29;stroke-linecap:round;stroke-linejoin:round;}
</style>
<g id="g5">
	<path id="path14" class="st0" d="M1299.4,72.3l-2-4.1c-1-1-2-2-4.1-2l-4.1,1c-2,2-3.1,3-3.1,5.1l-86.5,1566.3l13.2-2L1296.3,113
		l99.8,163.9h-1c75.3,221.9,106.9,458,94.7,708.4l6.1,9.2l98.7,175.1l6.1,6.1c151.7,133.3,321.6,222.9,509.9,268.7l45.8,74.3l6.1,2
		l1-2L1297.4,101.8l2-29.5"/>
	<path id="path18" class="st0" d="M1268.9,625c106.9,218.8,145.5,549.6,117.1,992.4l416.3-50.9L1268.9,625z"/>
	<path id="path20" class="st0" d="M2217.5,1586.9c42.7-5.1,70.2-14.2,82.4-27.5L121.8,1825.1h-1c1,90.6,41.7,161.8,121.1,212.7
		c21.4,15.3,43.8,26.5,64.1,33.6c19.3-22.4,40.7-38.7,66.2-53.9h1c228-138.4,566.9-159.8,1014.8-65.1l5.1,1
		c48.9,10.2,97.7,22.4,143.5,36.6c13.2,2,24.4-2,33.6-10.2c16.3-12.2,36.6-21.4,64.1-27.5v-1c72.3-128.2,170-222.9,292.1-285
		C2010.9,1624.5,2108.6,1597.1,2217.5,1586.9"/>
	<path id="path22" class="st0" d="M1171.1,1626.6l99.7-1528.8c-144.5,557.8-376.6,1078.9-695.2,1562.4L1171.1,1626.6"/>
	<path id="path24" class="st0" d="M610.3,395l-4.1-2l-4.1,1l-2,5.1l-82.4,1323.2l12.2-1l82.4-1322.2L610.3,395"/>
	<path id="path26" class="st0" d="M494.3,1693.8L494.3,1693.8l87.5-1290.6L120.7,1733.5L494.3,1693.8"/>
</g>
<g id="g13">
	<path id="path34" class="st1" d="M512.6,2124c-115,55-198.5,64.1-251.4,30.5c-52.9-35.6-134.4-27.5-244.3,24.4"/>
	<path id="path36" class="st1" d="M782.3,2132.1c-21.4-7.1-44.8-12.2-69.2-14.2c-49.9-4.1-109.9,15.3-180.2,57
		c-70.2,42.7-154.7,59-255.5,49.9"/>
	<path id="path38" class="st1" d="M1410.3,2028.3c-484.5-99.7-833.6-76.3-1047.3,71.2"/>
	<path id="path40" class="st1" d="M1715.7,2076.1c-21.4-8.1-44.8-13.2-69.2-14.3c-49.9-4.1-109.9,15.3-180.1,57
		c-70.2,41.7-154.7,58-255.5,49.9"/>
	<path id="path42" class="st2" d="M1065.3,407.2c-49.9-30.5-101.8-22.4-155.7,25.4c-46.8-47.8-95.7-56-146.6-25.4"/>
	<path id="path44" class="st2" d="M952.3,236.2c-50.9-30.5-100.8-18.3-151.7,36.6c-49.9-55-100.8-67.2-151.7-36.6"/>
</g>
</svg>
