<svg xmlns="http://www.w3.org/2000/svg" viewBox="0 0 190.06 190.06"><defs><style>.cls-1{fill:#3366a3;}.cls-2{fill:#fefefe;}</style></defs><g id="Layer_2" data-name="Layer 2"><g id="Layer_1-2" data-name="Layer 1"><path class="cls-1" d="M0,13A17.2,17.2,0,0,1,13,0H177c6.8,1.31,12.92,8.42,13,14V176c.35,2.24-.92,3.91-2,5.66-2.78,4.55-6.4,7.87-12,8.34H14c-2.24.35-3.91-.92-5.66-2C3.79,185.23.47,181.61,0,176Zm105,89.29a56.54,56.54,0,0,0,6.5-2.35A66.6,66.6,0,0,0,117.85,96c4.55-2.92,8.85-10.11,10.28-15.38,1-3.58.66-7.07.88-10.61.33-5.4-1.33-10.23-4-14.85A24.26,24.26,0,0,0,111.11,44c-2.69-.82-5.26-2.07-8.17-2s-5.6-1.14-8.58-1.07C83.7,41.13,73,41,62.37,41H58.14V148.76h13V104.09H90.72c1.44,2.29,3,4.49,4.26,6.8,3.39,5.92,6.66,11.9,10,17.84,1.77,3.1,3.68,6.13,5.44,9.24,2.06,3.64,4,7.33,6,10.87h15.54c-2.22-4.08-4.26-8-6.5-11.87-3.75-6.45-7.63-12.83-11.43-19.25C111,112.64,108.05,107.54,105,102.29Z"/><path class="cls-2" d="M105,102.29c3.07,5.25,6,10.35,9,15.43,3.8,6.42,7.68,12.8,11.43,19.25,2.24,3.84,4.28,7.79,6.5,11.87H116.4c-1.93-3.54-3.89-7.23-6-10.87-1.76-3.11-3.67-6.14-5.44-9.24-3.37-5.94-6.64-11.92-10-17.84-1.31-2.31-2.82-4.51-4.26-6.8H71.15v44.67h-13V41h4.23c10.66,0,21.33.13,32-.08,3-.07,5.68,1.12,8.58,1.07s5.48,1.2,8.17,2A24.26,24.26,0,0,1,125,55.16c2.66,4.62,4.32,9.45,4,14.85-.22,3.54.09,7-.88,10.61C126.7,85.89,122.4,93.08,117.85,96a66.6,66.6,0,0,1-6.37,3.94A56.54,56.54,0,0,1,105,102.29ZM71.09,92c7.85,0,15.33-.21,22.79.09,3.67.15,6.79-1.37,10.14-2.15,2-.47,3.49-2.06,5.06-3.44,3.85-3.37,5.89-7.2,5.92-12,0-2.66,0-5.32,0-8a6.32,6.32,0,0,0-.32-2.35c-1.71-3.86-4.11-7.15-8-9a31,31,0,0,0-11.66-3C87.06,51.68,79.11,52,71.09,52Z"/><path class="cls-1" d="M71.09,92V52c8,0,16-.32,23.89.13a31,31,0,0,1,11.66,3c3.92,1.9,6.32,5.19,8,9a6.32,6.32,0,0,1,.32,2.35c0,2.66,0,5.32,0,8,0,4.76-2.07,8.59-5.92,12-1.57,1.38-3,3-5.06,3.44-3.35.78-6.47,2.3-10.14,2.15C86.42,91.79,78.94,92,71.09,92Z"/></g></g></svg>