<?xml version="1.0" encoding="utf-8"?>
<!-- Generator: Adobe Illustrator 25.3.1, SVG Export Plug-In . SVG Version: 6.00 Build 0)  -->
<svg version="1.1" id="Layer_1" xmlns="http://www.w3.org/2000/svg" xmlns:xlink="http://www.w3.org/1999/xlink" x="0px" y="0px"
	 viewBox="0 0 48.1 48.1" style="enable-background:new 0 0 48.1 48.1;" xml:space="preserve">
<style type="text/css">
	.st0{display:none;}
	.st1{fill:#005A9C;}
</style>
<g shape-rendering="geometricPrecision" text-rendering="geometricPrecision" image-rendering="optimizeQuality">
	<g shape-rendering="geometricPrecision" text-rendering="geometricPrecision" image-rendering="optimizeQuality">
		<g id="Background" class="st0">
		</g>
		<g id="Guides" class="st0">
		</g>
		<g id="Foreground">
			<g>
				<path class="st1" d="M18.3,8l5.8,19.6L29.9,8H34h11.4v1.9l-5.9,10.1c2.1,0.7,3.6,1.9,4.7,3.6s1.6,3.8,1.6,6.2
					c0,2.9-0.8,5.4-2.3,7.3s-3.6,3-6,3c-1.9,0-3.5-0.6-4.8-1.8c-1.4-1.2-2.4-2.8-3.1-4.8l3.3-1.3c0.5,1.2,1.1,2.2,1.9,2.9
					c0.8,0.7,1.7,1.1,2.8,1.1c1.1,0,2.1-0.6,2.8-1.9c0.8-1.2,1.2-2.7,1.2-4.5c0-1.9-0.4-3.4-1.2-4.5c-1-1.2-2.5-1.9-4.5-1.9h-1.6
					v-1.9l5.6-9.6H33l-0.4,0.6l-8.2,27.5h-0.4l-6-19.9l-6,19.9h-0.4L2.3,8h4.2l5.8,19.6l3.9-13.2L14.2,8C14.2,8,18.3,8,18.3,8z"/>
			</g>
		</g>
	</g>
</g>
</svg>
