<?xml version="1.0" encoding="utf-8"?>
<!-- Generator: Adobe Illustrator 25.3.1, SVG Export Plug-In . SVG Version: 6.00 Build 0)  -->
<svg version="1.1" id="Layer_1" xmlns="http://www.w3.org/2000/svg" xmlns:xlink="http://www.w3.org/1999/xlink" x="0px" y="0px"
	 viewBox="0 0 68 68" style="enable-background:new 0 0 68 68;" xml:space="preserve">
<style type="text/css">
	.st0{fill:#8A8A8D;}
	.st1{fill:#C3C3C4;}
</style>
<path class="st0" d="M34.5,1C16.5,1,1.9,15.6,1.9,33.6s14.6,32.6,32.6,32.6s32.6-14.6,32.6-32.6S52.5,1,34.5,1L34.5,1z M34.5,63.7
	c-16.6,0-30.1-13.5-30.1-30.1S17.9,3.5,34.5,3.5S64.6,17,64.6,33.6C64.6,50.2,51.1,63.7,34.5,63.7L34.5,63.7z"/>
<path class="st1" d="M60.1,43.4c-0.1-1,0-2.5,0-3.6c0-0.9-0.2-1.8-0.6-2.7c0.2,0.2,0.5,0.2,0.7,0.3c-0.4-1-0.5-2.1-0.4-3.2
	c0.2-1.2,0.1-2.4-0.4-3.5c0.2,0.1,0.4,0.1,0.6,0.1l-0.1-1.2c-0.3-1.3-0.6-4.1-1.3-4.9c0.1,0,0.2,0,0.2,0c-0.2-1.3-0.6-2.6-1.3-3.8
	c-0.3-0.5-0.8-1-1.3-1.3c0-0.1,0.1-0.1,0.1-0.2c0.1-0.2,0.1-0.5-0.1-0.6c0,0-0.1,0-0.2-0.1c-0.2,0-0.4,0-0.5-0.1
	c-0.5-0.2-1-0.3-1.5-0.5c-0.9-0.4-1.8-0.8-2.7-0.9c-1.3-0.3-2.6,0-3.6,0.7c-1.6,1.1-2.2,3.3-1.4,5.1c0,0.1,0.1,0.1,0.1,0.2
	c0.3,0.4,0.2,1-0.2,1.3c-0.7,0.7-1.6,1.2-2.5,1.3c-0.6,0.1-1.2-0.2-1.6-0.6c-0.9-0.9-1.6-2.2-1.8-3.5c-0.1-0.7-0.2-1.5-0.2-2.2
	c0-0.5,0.1-0.9,0.3-1.3c0.1,0.2,0.3,0.4,0.5,0.5c-0.2-0.5-0.2-1.1,0-1.6c0.1,0.2,0.2,0.4,0.4,0.6c-0.1-0.9,0.6-1.7,1.5-1.9
	c0.3-0.1,0.8-0.1,1.1-0.2c1.9-0.6,2.3-0.1,2.3-0.1c-0.1-0.3-0.4-0.6-0.7-0.8c1,0.5,2.1,0.7,3.2,0.6c0.6,0,1.1-0.5,1.1-1.1
	c0-0.4-0.2-0.8-0.6-1c0.3,0.4,0.2,1-0.2,1.3c-0.5,0.2-1,0.2-1.4,0.1c-0.5-0.2-1-0.4-1.4-0.7c0.7-0.3,1.5-0.2,2.2,0.3
	c0.1-0.7-0.2-1.3-0.8-1.7c-0.7-0.3-1.4-0.5-2.1-0.6c-0.5-0.5-1.2-0.8-1.8-0.9c-0.6-0.1-1.2-0.1-1.7,0.1c-1,0.2-1.4,0.4-2.4,0.6
	c-1.3,0.4-2.6,0.3-3.8-0.3c0.4,0.7,1,1.3,1.8,1.5c-0.5,0.1-1.1,0-1.5-0.3c0.3,0.5,0.8,0.8,1.3,1c-0.4,0.2-0.8,0.2-1.2,0
	c0.3,0.4,0.7,0.7,1.1,0.8c-1.3,1.5-2.1,3.3-2.6,6.7c-0.5-3.4-1.3-5.3-2.6-6.7c0.5-0.1,0.9-0.4,1.1-0.8c-0.4,0.2-0.8,0.2-1.2,0
	c0.5-0.2,1-0.5,1.3-1c-0.5,0.3-1,0.3-1.5,0.3c0.8-0.2,1.4-0.7,1.8-1.5c-1.2,0.6-2.5,0.7-3.8,0.3c-0.9-0.2-1.4-0.5-2.4-0.6
	C26.8,11,26.2,11,25.7,11c-0.7,0.1-1.3,0.5-1.8,0.9c-0.7,0-1.5,0.2-2.1,0.6c-0.6,0.4-0.9,1-0.8,1.7c0.6-0.4,1.4-0.6,2.2-0.3
	c-0.4,0.3-0.9,0.5-1.4,0.7c-0.5,0.1-1,0.1-1.5-0.1c-0.4-0.3-0.5-0.8-0.2-1.3c-0.5,0.3-0.7,1-0.4,1.6c0.2,0.3,0.6,0.5,1,0.5
	c1.1,0.1,2.2-0.1,3.2-0.6c-0.3,0.2-0.5,0.4-0.7,0.8c0,0,0.3-0.5,2.3,0.1c0.3,0.1,0.8,0.2,1.1,0.2c0.9,0.1,1.6,1,1.5,1.9
	c0.2-0.2,0.3-0.4,0.4-0.6c0.2,0.5,0.2,1.1,0,1.6c0.2-0.1,0.4-0.3,0.5-0.5c0.2,0.4,0.3,0.9,0.3,1.3c0,0.7,0,1.5-0.2,2.2
	c-0.2,1.3-0.9,2.5-1.8,3.5c-0.4,0.4-1,0.7-1.5,0.6c-1-0.1-1.9-0.6-2.5-1.3c-0.4-0.3-0.5-0.9-0.2-1.3c0-0.1,0.1-0.1,0.1-0.2
	c0.8-1.8,0.3-3.9-1.3-5.1c-1.1-0.7-2.4-1-3.6-0.7c-0.9,0.2-1.9,0.5-2.7,0.9c-0.5,0.2-1,0.4-1.5,0.5c-0.2,0.1-0.4,0.1-0.5,0.1
	c-0.2,0-0.4,0.2-0.4,0.5c0,0.1,0,0.1,0.1,0.2c0,0.1,0.1,0.1,0.1,0.2c-0.5,0.3-1,0.8-1.3,1.3c-0.7,1.2-1.1,2.4-1.3,3.8
	c0.1,0,0.2,0,0.2,0c-0.7,0.8-1.1,3.7-1.3,4.9l-0.2,1.2c0.2,0,0.4-0.1,0.6-0.1c-0.4,1.1-0.6,2.3-0.4,3.5c0.1,1.1,0,2.1-0.4,3.1
	c0.3,0,0.5-0.1,0.7-0.3c-0.9,0.9-1.1,1.9-1.1,2.8c0,1.1,0.1,2.6,0,3.6c-0.1,1.5-0.6,1.9-1,2.1c0.5,0.1,1,0,1.4-0.3
	c0.2-0.1,0.5-0.2,0.8-0.2c0.6,0,1.2-0.3,1.6-0.7c0.2-0.2,0.4-0.3,0.7-0.3c0.6-0.1,1.1-0.3,1.5-0.8c0.1-0.1,0.2-0.1,0.3-0.2
	c2.6-0.6,2.6-3.3,2.7-4.2c0.4-0.1,0.8-0.4,1.1-0.8c0-0.1,0.1-0.1,0.2-0.1c1.1,0.3,1.8-1.5,2-2.1s0.3-1.1,0.4-1.7
	c0,0.5,0.9,1.3,1.7,0c0,1.9,1.5,1.6,1.9,0.3c0.4,2.3,2,1.2,2-0.5c0,2.7,1.6,2.3,1.6,1.5c0.1,0.3,0.3,0.6,0.5,0.8
	c-3.8,0.7-2.7,2.7-4.4,3.7c0.6,0.2,1.1-0.1,1,0c-0.4,0.5-0.6,1.2-0.7,1.8c0,0-2,1.9-2.8,2.7c-0.3,0.3-0.6,0.5-1,0.8
	c-0.1,0.1-0.2,0.2-0.4,0.2c0-0.1,0-0.2,0-0.2c-0.1-0.6-0.3-1.2-0.6-1.8c-0.4-0.7-1.4-0.9-2.1-0.5c0,0,0,0-0.1,0
	c-0.3,0.2-0.6,0.3-0.9,0.3c-0.6,0-1.1,0.5-1.1,1.2c0.4-0.3,0.9-0.2,1.2,0.1c-1,0.2-1.5,1.1-1.2,1.6c0.1-0.1,0.2-0.2,0.3-0.3
	c0.4-0.2,0.8-0.1,0.9,0.1c0.2,0.4,0.6,0.7,1.1,0.7c0.8,0.1,1.7,0.2,2.5,0.3c1.2,0.2,1.2,1,1.4,1.5c0.2,0.5,0.8,0.8,1.3,0.6
	c0.1,0,0.2-0.1,0.2-0.1c0.1,0.3,0,0.6-0.3,0.7h-0.1c0.4,0.1,0.8-0.1,1-0.5c0.4-0.6,0.2-1.4-0.4-1.8l-0.2-0.1h0
	c-0.2-0.1-0.3-0.3-0.5-0.4c-0.3-0.2-0.3-0.6-0.1-0.9c0.2-0.3,0.4-0.5,0.6-0.8c0.7-0.6,1.5-1.2,2.2-1.8c0.2-0.2,0.5-0.3,0.7-0.5
	c0.2-0.1,0.5-0.2,0.8-0.1c0.3,0.1,0.7,0.1,1-0.2c0.9-0.7,2.1-1.1,3.3-1.2c-0.3,0.2-0.5,0.5-0.6,0.9c-0.1,0.3-0.2,0.6-0.4,0.9
	c-1.3,3.2-2.7,6.3-4,9.5c-0.4,0.9-0.1,2,0.8,2.4c0.1,0,0.1,0.1,0.2,0.1c0.8,0.4,1.7,0.1,2.2-0.6c-0.2,0.5-0.2,1,0,1.4s0.6,0.8,1,0.9
	c0.4,0.2,0.9,0.3,1.4,0.2c0.5-0.1,0.8-0.4,1-0.9c0,1,0.7,1.8,1.7,1.8l0,0l0,0h0.6l0,0c0.9-0.1,1.6-0.9,1.6-1.8
	c0.2,0.4,0.5,0.8,1,0.9c0.5,0.1,1,0,1.4-0.2s0.8-0.5,1-0.9c0.2-0.5,0.2-1,0-1.4c0.5,0.7,1.4,1,2.2,0.6c0.9-0.3,1.4-1.4,1.1-2.3
	c0-0.1-0.1-0.1-0.1-0.2c-1.3-3.2-2.7-6.3-4-9.5l-0.3-0.9c-0.1-0.4-0.3-0.7-0.6-0.9c1.2,0.1,2.3,0.5,3.3,1.2c0.3,0.2,0.7,0.3,1,0.2
	s0.5-0.1,0.8,0.1c0.3,0.1,0.5,0.3,0.7,0.5c0.7,0.6,1.5,1.2,2.2,1.8c0.2,0.2,0.5,0.5,0.6,0.8c0.2,0.3,0.1,0.7-0.1,0.9
	c-0.2,0.2-0.3,0.3-0.5,0.4L46,47.3l-0.2,0.1c-0.6,0.4-0.8,1.2-0.4,1.8c0.2,0.3,0.6,0.5,1,0.5c-0.3-0.1-0.5-0.4-0.4-0.7v-0.1
	c0.5,0.3,1.1,0.2,1.4-0.2c0-0.1,0.1-0.1,0.1-0.2c0.2-0.6,0.2-1.4,1.4-1.5c0.9-0.1,1.7-0.2,2.6-0.3c0.5,0,0.9-0.3,1.1-0.7
	c0.1-0.2,0.5-0.4,0.9-0.1c0.1,0.1,0.2,0.2,0.3,0.3c0.3-0.6-0.2-1.4-1.2-1.6c0.3-0.4,0.9-0.4,1.3-0.1c0-0.6-0.5-1.1-1.1-1.2
	c-0.3,0-0.7-0.1-0.9-0.3c-0.7-0.5-1.6-0.3-2.1,0.4c0,0,0,0,0,0.1c-0.4,0.5-0.6,1.2-0.7,1.8c0,0,0,0.1,0,0.2
	c-0.1-0.1-0.2-0.1-0.4-0.2c-0.3-0.3-0.7-0.5-1-0.8c-0.8-0.7-2.8-2.7-2.8-2.7c-0.1-0.6-0.3-1.3-0.7-1.8c-0.1-0.2,0.4,0.2,1,0
	c-1.7-1-0.6-3-4.4-3.7c0.2-0.3,0.4-0.6,0.6-0.9c-0.1,0.8,1.6,1.2,1.6-1.5c0,1.8,1.7,2.9,2,0.5c0.4,1.3,1.9,1.6,1.9-0.3
	c0.8,1.3,1.7,0.5,1.7,0c0.1,0.6,0.2,1.2,0.4,1.7c0.2,0.6,0.9,2.4,2,2.1c0.1,0,0.2,0.1,0.2,0.1c0.2,0.4,0.6,0.7,1.1,0.8
	c0,0.8,0.1,3.6,2.7,4.2c0.1,0,0.2,0.1,0.3,0.2c0.4,0.5,0.9,0.8,1.5,0.8c0.2,0,0.5,0.1,0.7,0.3c0.4,0.4,1,0.7,1.6,0.7
	c0.3,0,0.6,0.1,0.8,0.2c0.4,0.3,0.9,0.4,1.4,0.3C60.7,45.3,60.2,44.9,60.1,43.4z"/>
<ellipse class="st0" cx="25.3" cy="12.8" rx="0.1" ry="0.1"/>
<ellipse class="st0" cx="43.7" cy="12.8" rx="0.2" ry="0.1"/>
<path class="st0" d="M60.1,43.4c-0.1-1,0-2.5,0-3.6c0-0.9-0.2-1.8-0.6-2.7c0.2,0.2,0.5,0.2,0.7,0.3c-0.4-1-0.5-2.1-0.4-3.2
	c0.2-1.2,0.1-2.4-0.4-3.5c0.2,0.1,0.4,0.1,0.6,0.1l-0.1-1.2c-0.3-1.3-0.6-4.1-1.3-4.9c0.1,0,0.2,0,0.2,0c-0.2-1.3-0.6-2.6-1.3-3.8
	c-0.3-0.5-0.8-1-1.3-1.3c0-0.1,0.1-0.1,0.1-0.2c0.1-0.2,0.1-0.5-0.1-0.6c0,0-0.1,0-0.2-0.1c-0.2,0-0.4,0-0.5-0.1
	c-0.5-0.2-1-0.3-1.5-0.5c-0.9-0.4-1.8-0.8-2.7-0.9c-1.3-0.3-2.6,0-3.6,0.7c-1.6,1.1-2.2,3.3-1.4,5.1c0,0.1,0.1,0.1,0.1,0.2
	c0.3,0.4,0.2,1-0.2,1.3c-0.7,0.7-1.6,1.2-2.5,1.3c-0.6,0.1-1.2-0.2-1.6-0.6c-0.9-0.9-1.6-2.2-1.8-3.5c-0.1-0.7-0.2-1.5-0.2-2.2
	c0-0.5,0.1-0.9,0.3-1.3c0.1,0.2,0.3,0.4,0.5,0.5c-0.2-0.5-0.2-1.1,0-1.6c0.1,0.2,0.2,0.4,0.4,0.6c-0.1-0.9,0.6-1.7,1.5-1.9
	c0.3-0.1,0.8-0.1,1.1-0.2c1.9-0.6,2.3-0.1,2.3-0.1c-0.1-0.3-0.4-0.6-0.7-0.8c1,0.5,2.1,0.7,3.2,0.6c0.6,0,1.1-0.5,1.1-1.1
	c0-0.4-0.2-0.8-0.6-1c0.3,0.4,0.2,1-0.2,1.3c-0.5,0.2-1,0.2-1.4,0.1c-0.5-0.2-1-0.4-1.4-0.7c0.7-0.3,1.5-0.2,2.2,0.3
	c0.1-0.7-0.2-1.3-0.8-1.7c-0.7-0.3-1.4-0.5-2.1-0.6c-0.5-0.5-1.2-0.8-1.8-0.9c-0.6-0.1-1.2-0.1-1.7,0.1c-1,0.2-1.4,0.4-2.4,0.6
	c-1.3,0.4-2.6,0.3-3.8-0.3c0.4,0.7,1,1.3,1.8,1.5c-0.5,0.1-1.1,0-1.5-0.3c0.3,0.5,0.8,0.8,1.3,1c-0.4,0.2-0.8,0.2-1.2,0
	c0.3,0.4,0.7,0.7,1.1,0.8c-1.3,1.5-2.1,3.3-2.6,6.7c-0.5-3.4-1.3-5.3-2.6-6.7c0.5-0.1,0.9-0.4,1.1-0.8c-0.4,0.2-0.8,0.2-1.2,0
	c0.5-0.2,1-0.5,1.3-1c-0.5,0.3-1,0.3-1.5,0.3c0.8-0.2,1.4-0.7,1.8-1.5c-1.2,0.6-2.5,0.7-3.8,0.3c-0.9-0.2-1.4-0.5-2.4-0.6
	C26.8,11,26.2,11,25.7,11c-0.7,0.1-1.3,0.4-1.8,0.9c-0.7,0-1.5,0.2-2.1,0.6c-0.6,0.4-0.9,1-0.8,1.7c0.6-0.4,1.4-0.6,2.2-0.3
	c-0.4,0.3-0.9,0.5-1.4,0.7c-0.5,0.1-1,0.1-1.5-0.1c-0.4-0.3-0.5-0.8-0.2-1.3c-0.5,0.3-0.7,1-0.4,1.6c0.2,0.3,0.6,0.5,1,0.5
	c1.1,0.1,2.2-0.1,3.2-0.6c-0.3,0.2-0.5,0.4-0.7,0.8c0,0,0.3-0.5,2.3,0.1c0.3,0.1,0.8,0.2,1.1,0.2c0.9,0.1,1.6,1,1.5,1.9
	c0.2-0.2,0.3-0.4,0.4-0.6c0.2,0.5,0.2,1.1,0,1.6c0.2-0.1,0.4-0.3,0.5-0.5c0.2,0.4,0.3,0.9,0.3,1.3c0,0.7,0,1.5-0.2,2.2
	c-0.2,1.3-0.9,2.5-1.8,3.5c-0.4,0.4-1,0.7-1.5,0.6c-1-0.1-1.9-0.6-2.5-1.3c-0.4-0.3-0.5-0.9-0.2-1.3c0-0.1,0.1-0.1,0.1-0.2
	c0.8-1.8,0.3-3.9-1.3-5.1c-1.1-0.7-2.4-1-3.6-0.7c-0.9,0.2-1.9,0.5-2.7,0.9c-0.5,0.2-1,0.4-1.5,0.5c-0.2,0.1-0.4,0.1-0.5,0.1
	c-0.2,0-0.4,0.2-0.4,0.5c0,0.1,0,0.1,0.1,0.2c0,0.1,0.1,0.1,0.1,0.2c-0.5,0.3-1,0.8-1.3,1.3c-0.7,1.2-1.1,2.4-1.3,3.8
	c0.1,0,0.2,0,0.2,0c-0.7,0.8-1.1,3.7-1.3,4.9l-0.2,1.2c0.2,0,0.4-0.1,0.6-0.1c-0.4,1.1-0.6,2.3-0.4,3.5c0.1,1.1,0,2.1-0.4,3.1
	c0.3,0,0.5-0.1,0.7-0.3c-0.9,0.9-1.1,1.9-1.1,2.8c0,1.1,0.1,2.6,0,3.6c-0.1,1.5-0.6,1.9-1,2.1c0.5,0.1,1,0,1.4-0.3
	c0.2-0.1,0.5-0.2,0.8-0.2c0.6,0,1.2-0.3,1.6-0.7c0.2-0.2,0.4-0.3,0.7-0.3c0.6-0.1,1.1-0.3,1.5-0.8c0.1-0.1,0.2-0.1,0.3-0.2
	c2.6-0.6,2.6-3.3,2.7-4.2c0.4-0.1,0.8-0.4,1.1-0.8c0-0.1,0.1-0.1,0.2-0.1c1.1,0.3,1.8-1.5,2-2.1s0.3-1.1,0.4-1.7
	c0,0.5,0.9,1.3,1.7,0c0,1.9,1.5,1.6,1.9,0.3c0.4,2.3,2,1.2,2-0.5c0,2.7,1.6,2.3,1.6,1.5c0.1,0.3,0.3,0.6,0.5,0.8
	c-3.8,0.7-2.7,2.7-4.4,3.7c0.6,0.2,1.1-0.1,1,0c-0.4,0.5-0.6,1.2-0.7,1.8c0,0-2,1.9-2.8,2.7c-0.3,0.3-0.6,0.5-1,0.8
	c-0.1,0.1-0.2,0.2-0.4,0.2c0-0.1,0-0.2,0-0.2c-0.1-0.6-0.3-1.2-0.6-1.8c-0.4-0.7-1.4-0.9-2.1-0.5c0,0,0,0-0.1,0
	c-0.3,0.2-0.6,0.3-0.9,0.3c-0.6,0-1.1,0.5-1.1,1.2c0.4-0.3,0.9-0.2,1.2,0.1c-1,0.2-1.5,1.1-1.2,1.6c0.1-0.1,0.2-0.2,0.3-0.3
	c0.4-0.2,0.8-0.1,0.9,0.1c0.2,0.4,0.6,0.7,1.1,0.7c0.8,0.1,1.7,0.2,2.5,0.3c1.2,0.2,1.2,1,1.4,1.5c0.2,0.5,0.8,0.8,1.3,0.6
	c0.1,0,0.2-0.1,0.2-0.1c0.1,0.3,0,0.6-0.3,0.7h-0.1c0.4,0.1,0.8-0.1,1-0.5c0.4-0.6,0.2-1.4-0.4-1.8l-0.2-0.1h0
	c-0.2-0.1-0.3-0.3-0.5-0.4c-0.3-0.2-0.3-0.6-0.1-0.9c0.2-0.3,0.4-0.5,0.6-0.8c0.7-0.6,1.5-1.2,2.2-1.8c0.2-0.2,0.5-0.3,0.7-0.5
	c0.2-0.1,0.5-0.2,0.8-0.1c0.3,0.1,0.7,0.1,1-0.2c0.9-0.7,2.1-1.1,3.3-1.2c-0.3,0.2-0.5,0.5-0.6,0.9c-0.1,0.3-0.2,0.6-0.4,0.9
	c-1.3,3.2-2.7,6.3-4,9.5c-0.4,0.9-0.1,2,0.8,2.4c0.1,0,0.1,0.1,0.2,0.1c0.8,0.4,1.7,0.1,2.2-0.6c-0.2,0.5-0.2,1,0,1.4s0.6,0.8,1,0.9
	c0.4,0.2,0.9,0.3,1.4,0.2c0.5-0.1,0.8-0.4,1-0.9c0,1,0.7,1.8,1.7,1.8l0,0l0,0h0.6l0,0c0.9-0.1,1.6-0.9,1.6-1.8
	c0.2,0.4,0.5,0.8,1,0.9c0.5,0.1,1,0,1.4-0.2s0.8-0.5,1-0.9c0.2-0.5,0.2-1,0-1.4c0.5,0.7,1.4,1,2.2,0.6c0.9-0.3,1.4-1.4,1.1-2.3
	c0-0.1-0.1-0.1-0.1-0.2c-1.3-3.2-2.7-6.3-4-9.5l-0.3-0.9c-0.1-0.4-0.3-0.7-0.6-0.9c1.2,0.1,2.3,0.5,3.3,1.2c0.3,0.2,0.7,0.3,1,0.2
	s0.5-0.1,0.8,0.1c0.3,0.1,0.5,0.3,0.7,0.5c0.7,0.6,1.5,1.2,2.2,1.8c0.2,0.2,0.5,0.5,0.6,0.8c0.2,0.3,0.1,0.7-0.1,0.9
	c-0.2,0.1-0.3,0.3-0.5,0.4L46,47.3l-0.2,0.1c-0.6,0.4-0.8,1.2-0.4,1.8c0.2,0.3,0.6,0.5,1,0.5c-0.3-0.1-0.5-0.4-0.4-0.7v-0.1
	c0.5,0.3,1.1,0.2,1.4-0.2c0-0.1,0.1-0.1,0.1-0.2c0.2-0.6,0.2-1.4,1.4-1.5c0.9-0.1,1.7-0.2,2.6-0.3c0.5,0,0.9-0.3,1.1-0.7
	c0.1-0.2,0.5-0.4,0.9-0.1c0.1,0.1,0.2,0.2,0.3,0.3c0.3-0.6-0.2-1.4-1.2-1.6c0.3-0.4,0.9-0.4,1.3-0.1c0-0.6-0.5-1.1-1.1-1.2
	c-0.3,0-0.7-0.1-0.9-0.3c-0.7-0.5-1.6-0.3-2.1,0.4c0,0,0,0,0,0.1c-0.4,0.5-0.6,1.2-0.7,1.8c0,0,0,0.1,0,0.2
	c-0.1-0.1-0.2-0.1-0.4-0.2c-0.3-0.3-0.7-0.5-1-0.8c-0.8-0.7-2.8-2.7-2.8-2.7c-0.1-0.6-0.3-1.3-0.7-1.8c-0.1-0.2,0.4,0.2,1,0
	c-1.7-1-0.6-3-4.4-3.7c0.2-0.3,0.4-0.6,0.6-0.9c-0.1,0.8,1.6,1.2,1.6-1.5c0,1.8,1.7,2.9,2,0.5c0.4,1.3,1.9,1.6,1.9-0.3
	c0.8,1.3,1.7,0.5,1.7,0c0.1,0.6,0.2,1.2,0.4,1.7c0.2,0.6,0.9,2.4,2,2.1c0.1,0,0.2,0.1,0.2,0.1c0.2,0.4,0.6,0.7,1.1,0.8
	c0,0.8,0.1,3.6,2.7,4.2c0.1,0,0.2,0.1,0.3,0.2c0.4,0.5,0.9,0.8,1.5,0.8c0.2,0,0.5,0.1,0.7,0.3c0.4,0.4,1,0.7,1.6,0.7
	c0.3,0,0.6,0.1,0.8,0.2c0.4,0.3,0.9,0.4,1.4,0.3C60.7,45.3,60.2,44.9,60.1,43.4z M24.4,39.7c0.1-0.1,0.2-0.2,0.3-0.3
	c0.1-0.2,0.3-0.1,0.3,0.1S24.7,39.8,24.4,39.7z M22.5,43.6c-0.3,0.5-0.4,1-0.5,1.6c0,0.3-0.2,0.5-0.5,0.5c-0.1,0-0.2,0-0.2-0.1
	c-0.3-0.1-0.7-0.2-1-0.2C21.2,45.1,22,44.5,22.5,43.6z M19.7,44.6c0.1,0.2,0.1,0.5,0.1,0.7c-0.1-0.3-0.2-0.5-0.4-0.8c0,0,0,0,0-0.1
	s0.1-0.1,0.1-0.1h0.1C19.7,44.5,19.7,44.6,19.7,44.6L19.7,44.6z M18.9,44.7c0.1-0.2,0.2-0.2,0.3-0.2c0.2,0.3,0.3,0.5,0.4,0.8
	L18.9,45C18.9,44.9,18.9,44.8,18.9,44.7L18.9,44.7z M18.7,44.6c-0.1,0.1-0.1,0.2-0.1,0.3l-0.4-0.2v-0.1c0-0.1,0-0.2,0.1-0.3
	s0.1-0.2,0.3-0.2c0.1,0,0.1,0,0.2,0l0.2,0.2l0,0l0.1,0.1C18.9,44.4,18.8,44.5,18.7,44.6L18.7,44.6z M19.4,43.7L19.4,43.7
	c0.1,0.1,0.1,0.3,0.2,0.4l-0.1,0.1c-0.1,0-0.1,0.1-0.1,0.2c-0.1-0.1-0.2-0.2-0.3-0.3c0,0,0,0,0-0.1s0.1-0.1,0.1-0.2
	C19.2,43.8,19.3,43.8,19.4,43.7L19.4,43.7z M18.9,43.2C18.9,43.2,19,43.2,18.9,43.2c0.2,0.1,0.3,0.2,0.4,0.4c-0.1,0-0.2,0.1-0.2,0.1
	c-0.1,0.1-0.1,0.1-0.2,0.2l-0.3-0.2v-0.1C18.6,43.4,18.7,43.3,18.9,43.2L18.9,43.2z M18,43c0.1-0.1,0.1-0.1,0.2-0.2
	c0.1,0,0.3,0.1,0.4,0.1h0.1c-0.1,0.1-0.2,0.1-0.3,0.2c-0.1,0.1-0.1,0.2-0.1,0.3l-0.4-0.2L18,43C18,43.2,18,43.1,18,43L18,43z
	 M18.1,43.6L18.1,43.6L18.1,43.6l0.2,0.1l0,0C18.2,43.8,18,43.9,18,44c-0.1,0.2-0.1,0.4-0.1,0.5l-0.4-0.1c0-0.1,0-0.1,0-0.2
	c0-0.1,0.1-0.3,0.2-0.4c0.1-0.1,0.2-0.2,0.3-0.2H18.1L18.1,43.6z M17.4,43.7c-0.1,0.1-0.2,0.3-0.2,0.5v0.1c-0.2-0.1-0.4-0.1-0.7-0.1
	c0-0.5,0.4-0.8,0.9-0.8c0.1,0,0.2,0,0.3,0C17.6,43.5,17.5,43.6,17.4,43.7L17.4,43.7z M17.9,42.8L17.9,42.8c-0.1,0.2-0.1,0.3-0.1,0.4
	c-0.2-0.1-0.4-0.1-0.6-0.1C17.3,43,17.6,42.9,17.9,42.8L17.9,42.8z M15.4,44c0.1-0.4,0.6-0.8,1.6-0.6c-0.4,0.1-0.6,0.4-0.6,0.8
	C16.1,43.9,15.7,43.9,15.4,44L15.4,44z M16.1,45.4c-0.3-0.1-0.6,0-0.8,0.2c0.1-0.5,0.6-0.9,1.1-0.9C16.1,44.8,16,45.1,16.1,45.4
	L16.1,45.4z M16.3,45.5c-0.1-0.3,0.1-1,0.6-0.9h0.2c-0.2,0.2-0.4,0.6-0.3,0.9c0,0.2,0.1,0.5,0.2,0.7C16.7,46.1,16.5,45.9,16.3,45.5
	L16.3,45.5z M17.4,46.3c-0.2-0.2-0.4-0.5-0.3-0.7c0-0.4,0.2-0.8,0.5-0.8L18,45c-0.2,0.2-0.3,0.5-0.3,0.8c0,0.2,0,0.4,0.1,0.6
	L17.4,46.3z M18.6,46.4l-0.5-0.1c-0.1-0.1-0.2-0.3-0.2-0.6c0-0.4,0.2-0.6,0.3-0.7l0.5,0.2c-0.2,0.2-0.2,0.4-0.2,0.7
	C18.5,46.1,18.5,46.3,18.6,46.4L18.6,46.4z M19.4,46.5l-0.5-0.1c-0.1,0-0.2-0.3-0.2-0.5s0.1-0.6,0.2-0.6l0.3,0.1l0.3,0.1
	c-0.2,0.1-0.3,0.3-0.3,0.5C19.3,46.3,19.4,46.4,19.4,46.5L19.4,46.5z M20.1,46.6c-0.3,0-0.5-0.2-0.5-0.5c0-0.2,0.1-0.4,0.3-0.4H20
	c0.6-0.1,1.1,0.1,1.6,0.4c-0.5,0-0.9,0.1-1.2,0.4C20.3,46.6,20.2,46.7,20.1,46.6L20.1,46.6z M20.9,46.9c-0.1-0.1-0.2-0.2-0.4-0.2
	c0.2-0.3,0.4-0.4,0.8-0.5C21,46.4,20.8,46.7,20.9,46.9L20.9,46.9z M21.1,46.9c0-0.3,0.2-0.5,0.6-0.5s0.5,0.2,0.5,0.6
	c0,0.3-0.2,0.5-0.5,0.5C21.3,47.5,21.1,47.2,21.1,46.9C21,46.9,21,46.9,21.1,46.9L21.1,46.9z M22.4,46.9l0.2,0.2
	c0.2,0.2,0.4,0.3,0.6,0.5c0.3,0.4,0.4,0.9,0.3,1.4c-0.1,0.2-0.2,0.4-0.4,0.4c0.2-0.3,0.2-0.6,0-0.9c-0.3,0.4-0.9,0.4-1.2,0.1
	c-0.1-0.1-0.2-0.3-0.3-0.4l-0.1-0.4v-0.2c0.1,0,0.2,0.1,0.3,0.1c0.1,0,0.3,0,0.4-0.1C22.2,47.4,22.4,47.2,22.4,46.9L22.4,46.9z
	 M23,44.5c-0.1,0.2-0.2,0.4-0.4,0.5c-0.2,0.2-0.4,0.4-0.5,0.6c0.1-1.1,0.6-2.2,1.3-3c-0.2,0.4-0.3,0.8-0.3,1.2
	C23.1,44.1,23.1,44.4,23,44.5L23,44.5z M24.1,43.2c0,0.2,0,0.4-0.1,0.5c-0.1,0.2-0.2,0.3-0.4,0.5l-0.5,0.5c0.1-0.2,0.2-0.5,0.2-0.8
	c0.1-0.7,0.4-1.4,0.9-2C24.1,42.3,24,42.8,24.1,43.2L24.1,43.2z M25.1,42.7c0,0.2-0.1,0.4-0.3,0.5l-0.6,0.5c0.1-0.2,0.2-0.5,0.1-0.7
	c-0.1-1,0.1-2,0.7-2.9c-0.2,0.6-0.2,1.3,0,1.9C25.1,42.2,25.1,42.5,25.1,42.7L25.1,42.7z M47.7,47.7l-0.1,0.4
	c-0.1,0.5-0.6,0.7-1.1,0.6c-0.2,0-0.3-0.1-0.4-0.3c-0.2,0.3-0.2,0.6,0,0.9c-0.2-0.1-0.3-0.3-0.4-0.4c-0.2-0.5-0.1-1,0.3-1.4
	c0.2-0.2,0.4-0.4,0.6-0.5l0.2-0.2c0,0.3,0.2,0.5,0.4,0.6c0.1,0.1,0.2,0.1,0.4,0.1c0.1,0,0.2,0,0.3-0.1L47.7,47.7z M47.4,47.4
	c-0.3,0-0.5-0.2-0.5-0.6s0.2-0.5,0.6-0.5c0.3,0,0.5,0.2,0.5,0.5C48,47.1,47.8,47.4,47.4,47.4C47.5,47.5,47.4,47.5,47.4,47.4
	L47.4,47.4z M48.2,46.9c0-0.3-0.1-0.6-0.4-0.7c0.3,0,0.6,0.2,0.8,0.5C48.4,46.7,48.2,46.8,48.2,46.9L48.2,46.9z M50.1,46.4l-0.5,0.1
	c0.1-0.1,0.1-0.3,0.1-0.4c0-0.2-0.1-0.4-0.3-0.5l0.3-0.1l0.3-0.1c0.1,0,0.2,0.3,0.2,0.6S50.2,46.5,50.1,46.4L50.1,46.4z M50.1,44.7
	c0,0.1,0.1,0.2,0.1,0.3l-0.7,0.4c0.1-0.3,0.2-0.6,0.4-0.8C49.8,44.6,50,44.6,50.1,44.7L50.1,44.7z M50,44.3L50,44.3L50,44.3l0.3-0.3
	c0.1,0,0.1,0,0.2,0c0.1,0.1,0.2,0.1,0.3,0.2c0.1,0.1,0.1,0.2,0.1,0.3v0.1l-0.4,0.2c0-0.1,0-0.2-0.1-0.3C50.2,44.5,50.1,44.4,50,44.3
	L50,44.3z M50.8,46.3l-0.5,0.1c0.1-0.2,0.1-0.3,0.1-0.5s-0.1-0.4-0.2-0.5l0.5-0.2c0.2,0,0.3,0.3,0.3,0.7c0,0.2-0.1,0.5-0.2,0.6
	L50.8,46.3z M51.6,46.2l-0.3,0.1c0.1-0.2,0.1-0.4,0.1-0.6c0-0.3-0.1-0.6-0.3-0.8l0.4-0.2c0.2,0,0.4,0.3,0.4,0.8
	C51.9,45.8,51.8,46.1,51.6,46.2L51.6,46.2z M51.6,43.6c-0.1-0.1-0.2-0.2-0.3-0.2c0.1,0,0.2,0,0.3,0c0.5,0,0.9,0.3,0.9,0.8
	c-0.2,0-0.4,0.1-0.7,0.1v-0.1c-0.1-0.2-0.1-0.3-0.3-0.4L51.6,43.6z M52.7,45.5c-0.1,0.3-0.3,0.6-0.7,0.7c0.1-0.2,0.2-0.4,0.2-0.7
	s-0.1-0.7-0.3-0.9h0.2C52.6,44.6,52.8,45.3,52.7,45.5L52.7,45.5z M53.7,45.5c-0.2-0.2-0.5-0.3-0.8-0.2c0.1-0.3-0.1-0.6-0.3-0.8
	C53.2,44.5,53.7,45,53.7,45.5L53.7,45.5L53.7,45.5z M53.6,43.9c-0.3-0.2-0.7-0.1-1,0.1c0-0.4-0.3-0.7-0.6-0.8
	C53,43.1,53.5,43.5,53.6,43.9L53.6,43.9z M51.9,43.1c-0.2,0-0.4,0-0.6,0.1c0-0.1,0-0.2-0.1-0.3l-0.1-0.1c0.3,0.1,0.6,0.2,0.7,0.5
	L51.9,43.1z M51.4,43.8c0.1,0.1,0.1,0.2,0.2,0.4c0,0.1,0,0.1,0,0.2l-0.4,0.1c0-0.2-0.1-0.3-0.1-0.4c-0.1-0.1-0.2-0.3-0.3-0.3l0,0
	l0.2-0.1l0,0l0,0c0.1,0,0.1,0,0.2,0c0.1,0.1,0.3,0.2,0.3,0.4L51.4,43.8z M50.4,42.8c0.1-0.1,0.3-0.1,0.4-0.1c0.1,0,0.2,0.1,0.2,0.2
	c0,0.1,0.1,0.2,0.1,0.2v0.1l-0.4,0.2c0-0.1-0.1-0.2-0.1-0.3C50.5,43,50.4,43,50.4,42.8L50.4,42.8z M50,43.1
	C50.1,43.1,50.1,43.1,50,43.1c0.2,0.1,0.3,0.2,0.4,0.4v0.1l-0.3,0.2c-0.1-0.2-0.2-0.3-0.4-0.3c0.1-0.1,0.2-0.1,0.3-0.2V43.1z
	 M49.6,43.6L49.6,43.6c0.1,0,0.1,0.1,0.2,0.1c0.1,0,0.1,0.1,0.1,0.2c0,0,0,0,0,0.1c-0.1,0.1-0.2,0.2-0.3,0.3c0-0.1-0.1-0.1-0.1-0.2
	L49.4,44c0.1-0.1,0.1-0.2,0.2-0.3V43.6z M49.3,44.5c0-0.1,0.1-0.2,0.1-0.3h0.1l0.1,0.1c0,0,0,0,0,0.1c-0.1,0.2-0.3,0.5-0.4,0.8
	c0-0.2,0-0.3,0.1-0.5L49.3,44.5z M49,45.6L49,45.6c0.3,0.1,0.5,0.3,0.4,0.6c-0.1,0.2-0.2,0.3-0.4,0.3c-0.1,0-0.2-0.1-0.3-0.1
	c-0.3-0.3-0.8-0.5-1.2-0.4c0.5-0.3,1-0.3,1.6-0.2L49,45.6z M48.7,45.4c-0.3,0-0.7,0.1-1,0.2c-0.3,0.1-0.6,0-0.7-0.2
	c0-0.1-0.1-0.1-0.1-0.2c-0.1-0.6-0.3-1.1-0.5-1.6c0.5,0.9,1.3,1.6,2.2,2L48.7,45.4z M46.9,45.6c-0.1-0.2-0.3-0.4-0.5-0.6
	c-0.2-0.1-0.3-0.3-0.4-0.5c-0.1-0.3-0.1-0.5-0.1-0.7c0-0.4-0.2-0.8-0.3-1.2C46.4,43.5,46.8,44.5,46.9,45.6L46.9,45.6z M45.7,43.8
	c0,0.3,0.1,0.5,0.2,0.8l-0.5-0.5c-0.1-0.1-0.3-0.3-0.4-0.5c-0.1-0.2-0.1-0.3-0.1-0.5c0.1-0.4,0.1-0.8-0.1-1.2
	c0.5,0.6,0.8,1.3,0.9,2.1L45.7,43.8z M44.3,39.3c0.1,0.1,0.2,0.2,0.3,0.3c-0.4,0.1-0.6-0.1-0.6-0.2s0.1-0.2,0.3,0.1V39.3z M44,41.9
	c0.2-0.6,0.2-1.3,0-1.9c0.6,0.9,0.8,1.9,0.7,2.9c-0.1,0.2,0,0.5,0.1,0.7l-0.6-0.5c-0.2-0.1-0.3-0.3-0.3-0.5s0-0.4,0.1-0.5V41.9z
	 M59.7,33.3c-0.2,1.2-0.1,2.3,0.2,3.4c0,0-1.8-1-2.1-4.9c0-0.5,0-1.9,0.5-2c0.2,0,0.3,0.2,0.3,0.6l0.2,2.8c0,0.1,0,0.2,0.1,0.2l0,0
	c0.1,0,0.1-0.1,0.1-0.2V31c0-0.4,0.1-0.5,0.3-0.4C59.6,30.9,59.7,32.7,59.7,33.3z M47.4,28.9l-0.2-0.7c-0.1-0.3,0-0.4,0.1-0.4
	c0.3,0,0.7,0.7,0.7,0.9c0.2,0.6,0.1,1.2-0.2,1.8c-0.6-0.2-1-0.6-1.2-1.1c-0.1-0.2-0.2-0.9,0-1.2c0.1-0.1,0.2-0.1,0.3,0.2l0.3,0.6
	c0,0.1,0.1,0.1,0.1,0.1L47.4,28.9z M48.2,28.3c-0.1-0.3-0.3-1.1-0.1-1.4c0.1-0.1,0.2-0.1,0.4,0.2l0.5,1c0,0.1,0.1,0.2,0.2,0.1
	s0-0.1,0-0.2l-0.4-1.1c-0.1-0.4-0.1-0.5,0.1-0.5c0.4,0,0.8,0.8,0.9,1c0.3,0.7,0.3,1.5-0.1,2.2C49.1,29.5,48.5,29,48.2,28.3
	L48.2,28.3z M50.7,27.1l-1.2-3.3c-0.1-0.4-0.1-0.5,0.1-0.4c0.3,0.1,1,1.6,1.2,2.2c0.5,1.1,0.6,2.2,0.5,3.4c-0.8-0.8-1.5-1.8-1.8-2.9
	c-0.2-0.5-0.7-2-0.5-2.4c0.1-0.1,0.2-0.1,0.3,0.3l1.3,3.2c0,0.1,0.1,0.2,0.1,0.2S50.7,27.2,50.7,27.1L50.7,27.1z M52.5,26.1l-1.5-3
	c-0.2-0.4-0.1-0.5,0-0.4c0.4,0,1.1,1.2,1.3,1.7c0.6,1.1,1.1,3,0.9,3.5c-0.5-0.1-1.7-1.7-2.3-2.8c-0.2-0.4-0.8-1.7-0.6-2
	c0.1-0.1,0.2-0.1,0.4,0.2l1.6,2.9c0,0.1,0.1,0.2,0.2,0.1S52.5,26.2,52.5,26.1L52.5,26.1z M54.2,25l-1.5-2.8c-0.2-0.3-0.1-0.5,0-0.5
	c0.4,0,1.1,1,1.4,1.5c0.6,1.1,1,2.3,1,3.5l0,0c-1.1-0.6-1.9-1.5-2.5-2.6c-0.3-0.4-0.8-1.6-0.6-2c0.1-0.2,0.2-0.2,0.4,0.2L54.2,25
	c-0.1,0.1,0,0.1,0.1,0.1l0,0C54.2,25.1,54.2,25.1,54.2,25L54.2,25z M55.8,23.8l-1.4-2.7c-0.2-0.4-0.1-0.5,0.1-0.5
	c0.4,0,1.2,1.1,1.4,1.6c0.6,1,0.8,2.2,0.7,3.4l0,0c-1-0.6-1.9-1.5-2.4-2.5c-0.2-0.5-0.8-1.6-0.5-2c0.1-0.2,0.2-0.1,0.4,0.2l1.5,2.5
	c0,0.1,0.1,0.1,0.2,0.1S55.9,23.8,55.8,23.8L55.8,23.8z M56.7,28.8l-0.5-2c-0.1-0.3,0-0.4,0.2-0.4c0.4,0.1,0.9,1.1,1,1.5
	c0.3,1,0.3,2.7-0.1,3.1c-0.6-0.1-1.5-1.5-1.8-2.6c-0.1-0.4-0.2-1.3,0.1-1.6c0.1-0.1,0.3-0.1,0.4,0.2L56.7,28.8c-0.1,0.1,0,0.2,0,0.1
	l0,0V28.8L56.7,28.8z M50.2,29.9c0.1-0.1,0.2-0.1,0.3,0.2l0.5,1.5c0,0,0,0.1,0.1,0.1s0-0.1,0-0.2l-0.4-1.6c-0.1-0.3,0-0.4,0.2-0.3
	c0.4,0.1,0.8,1,0.9,1.4c0.3,0.9,0.3,1.8-0.1,2.7l0,0c-0.5-0.1-1.3-1.3-1.6-2.2C50,31.1,49.8,30.1,50.2,29.9L50.2,29.9z M51.9,30.4
	c-0.1-0.3-0.3-1.1,0-1.4c0.1-0.1,0.2-0.1,0.3,0.2l0.6,1.6l0.1,0.1l0,0c0.1,0,0-0.1,0-0.2L52.4,29c-0.1-0.3,0-0.4,0.2-0.3
	c0.4,0,0.8,0.7,0.9,1.1c0.3,0.9,0.4,2.3,0.1,2.7C53.1,32.3,52.2,31.3,51.9,30.4L51.9,30.4z M53.6,29.4c-0.1-0.4-0.2-1.1,0-1.4
	c0.1-0.1,0.2-0.1,0.4,0.2l0.7,1.6c0,0.1,0.1,0.2,0.1,0.1l0,0c0.1,0,0-0.1,0-0.2L54.2,28c-0.1-0.3,0-0.4,0.2-0.4
	c0.4,0,0.8,0.7,0.9,1.1c0.4,1,0.5,2.5,0.1,3C54.9,31.6,53.9,30.3,53.6,29.4L53.6,29.4z M54.1,32.3c0.1-0.1,0.2-0.1,0.3,0.3l0.5,2.1
	c0,0.1,0,0.2,0.1,0.2s0-0.1,0-0.2l-0.4-2.1c-0.1-0.4,0-0.5,0.2-0.4c0.4,0.2,0.8,1.6,0.9,2.2c0.3,1.3,0.2,3-0.2,3.4
	c-0.5-0.3-1.3-1.7-1.6-3C54,34.1,53.8,32.6,54.1,32.3L54.1,32.3z M56.1,34c-0.1-0.5-0.3-2.1,0-2.4c0.1-0.1,0.2-0.1,0.3,0.3l0.5,2.1
	c0,0.1,0,0.2,0.1,0.2s0-0.1,0-0.2l-0.3-2.1c-0.1-0.4,0-0.5,0.2-0.4c0.4,0.2,0.8,1.6,0.9,2.2c0.2,1.3,0.1,3-0.3,3.4
	C57,36.8,56.2,35.3,56.1,34L56.1,34z M59.2,27.3c0.1,1,0.4,2.1,0.6,3.1c0,0-1.8-0.5-2.4-3.1c-0.1-0.5-0.2-1.6,0.1-1.9
	c0.1-0.1,0.3,0,0.3,0.4l0.4,1.8c0,0.1,0.1,0.2,0.2,0.1l0,0c0.1,0,0.1-0.1,0.1-0.2l-0.4-2.3c-0.1-0.4,0-0.5,0.2-0.4
	C58.9,25,59.2,26.7,59.2,27.3z M56.2,19.9c0.4,0,1.3,1.4,1.5,1.8c0.4,0.8,0.7,1.7,0.8,2.6c-1-0.3-1.9-1.1-2.4-2
	c-0.2-0.4-1-1.9-0.8-2.2c0.1-0.1,0.2-0.1,0.4,0.2l1.5,2.4c0,0.1,0.1,0.1,0.1,0.1s0-0.1,0-0.2l-1.2-2.2C56.1,20,56.2,19.9,56.2,19.9z
	 M42.2,26.3c-0.1-0.2,0-0.3,0.3-0.3s0.3,0.1,0.4,0.1c0.2,0.1,0.5,0.1,0.7,0.1c1-0.1,2-0.6,2.7-1.4c0.4-0.4,0.6-1,0.2-1.5
	c0-0.1-0.1-0.2-0.1-0.2c-0.7-1.6-0.3-3.4,0.9-4.5c0.9-0.7,2-1.1,3.2-1c1,0.1,2,0.3,2.9,0.8c0.7,0.4,1.5,0.6,2.2,0.8
	c0.2,0,0.4,0,0.4,0.3s-0.3,0.3-0.7,0.3c-0.6,0-1.3-0.1-1.9-0.3c0.2,0.3,0.3,0.6,0.4,0.9c0,0.4-0.1,0.6-0.5,0.6s-0.7-0.2-1-0.4
	c-0.3-0.2-0.6-0.3-0.8-0.5c0.3,0.3,0.5,0.7,0.6,1.1c0.1,0.2,0,0.4-0.1,0.5s-0.3,0.2-0.5,0.1c-0.6-0.2-1.1-0.6-1.5-1.1
	c0.2,0.3,0.4,0.7,0.6,1.1c0.1,0.2,0.1,0.5-0.1,0.7c-0.2,0.2-0.5,0.2-0.7,0.1c-0.5-0.3-0.9-0.6-1.3-1c0.3,0.4,0.5,0.8,0.7,1.2
	c0.1,0.3,0,0.6-0.2,0.8c-0.1,0.1-0.3,0.1-0.4,0c-0.3,0-0.5-0.1-0.8-0.3c0.1,0.1,0.6,1,0.7,1.3c0.1,0.3,0.2,0.6,0.3,0.9
	c0,0.5-0.3,0.7-0.7,0.4l-0.4-0.2c0,0.3,0.1,0.7,0.1,1c0,0.5-0.3,0.6-0.7,0.5c-0.2-0.1-0.4-0.2-0.7-0.2c0,0.2,0,0.3,0,0.5
	c0,0.5-0.3,0.7-0.8,0.6c-0.2-0.1-0.5-0.2-0.7-0.3v0.3c0,0.4-0.3,0.7-0.7,0.7c-0.1,0-0.3,0-0.4-0.1c-0.1,0-0.4-0.3-0.6-0.4
	c-0.2,0.4-0.6,0.6-1,0.7C42.5,27.8,42.5,27,42.2,26.3z M45.8,29.6l-0.1-0.7c0-0.3,0-0.4,0.2-0.3c0.3,0.1,0.6,0.7,0.6,1
	c0.1,0.6-0.1,1.2-0.4,1.7l0,0c-0.5-0.3-0.9-0.7-1-1.3c0-0.2-0.1-0.9,0.2-1.2c0.1-0.1,0.2-0.1,0.3,0.2L45.8,29.6
	c-0.1,0.1-0.1,0.2,0,0.2S45.8,29.7,45.8,29.6L45.8,29.6z M40.8,25.5l0.3,0.9c0,0.1,0.1,0.2,0.1,0.2l0,0c0.1,0,0-0.1,0-0.2L41,25.2
	c-0.1-0.6-0.1-0.6,0-0.7c0.4-0.1,0.8,1.5,0.9,1.8c0.2,0.8,0.2,1.6-0.2,2.4c-0.7-0.4-1.2-1.1-1.3-1.9c-0.1-0.5-0.1-1.1,0.1-1.6
	C40.6,25,40.7,25.1,40.8,25.5L40.8,25.5z M40.2,23.3c0.2,0.6,0.1,1.3-0.3,1.8l0,0c-0.5-0.2-0.9-0.7-1.1-1.2
	c-0.1-0.2-0.1-0.7,0.2-0.9s0.2-0.1,0.3,0.2l0.2,0.6c0,0.1,0,0.2,0.1,0.1l0,0c0.1,0,0-0.1,0-0.2l-0.2-1c-0.1-0.3,0-0.4,0.1-0.3
	C40,22.3,40.2,23,40.2,23.3z M29.6,27.6c0.1,0,0.1-0.1,0.1-0.2l0.3-1.3c0.1-0.4,0.2-0.4,0.3-0.3c0.3,0.3,0.3,1.2,0.2,1.5
	c-0.1,0.8-0.5,1.5-1.2,2c-0.5-0.7-0.7-1.5-0.6-2.4c0-0.3,0.4-1.5,0.8-1.6c0.2-0.1,0.3,0,0.2,0.4l-0.2,1.7
	C29.5,27.5,29.5,27.6,29.6,27.6z M29.7,18.3l-0.2-0.9c-0.1-0.3,0-0.3,0.1-0.3c0.3,0.1,0.5,0.8,0.6,1c0.1,0.5,0.1,1-0.2,1.5
	c-0.5-0.2-0.8-0.5-1-1c-0.1-0.2-0.2-0.7,0-0.9s0.2-0.1,0.3,0.2l0.2,0.5c0,0.1,0,0.2,0.1,0.1l0,0C29.7,18.5,29.7,18.3,29.7,18.3z
	 M31.1,17.8l-0.2-1c-0.1-0.3,0-0.4,0.1-0.3c0.3,0.1,0.6,0.7,0.7,1c0.2,0.6,0.1,1.2-0.2,1.8c-0.6-0.3-1-0.8-1.2-1.4
	c-0.1-0.2-0.2-0.9,0-1.2c0.1-0.1,0.2-0.1,0.3,0.2l0.3,0.9c0,0.1,0,0.2,0.1,0.1S31.1,17.8,31.1,17.8L31.1,17.8z M32,21.1L31.8,20
	c0-0.4,0-0.4,0.2-0.4c0.3,0.1,0.6,0.9,0.7,1.2c0.1,0.7,0,1.4-0.4,2c-0.6-0.4-1-1-1.2-1.7c0-0.3-0.1-1.1,0.2-1.3
	c0.1-0.1,0.2-0.1,0.3,0.3l0.3,1.1c0,0.1,0,0.2,0.1,0.2C32.1,21.4,32,21.1,32,21.1L32,21.1z M37,21.3c0.1,0,0.1-0.1,0.1-0.2l0.3-1.1
	c0.1-0.3,0.2-0.4,0.3-0.3c0.3,0.3,0.2,1.1,0.2,1.3c-0.1,0.7-0.5,1.3-1.2,1.7c-0.4-0.6-0.6-1.3-0.4-2c0.1-0.3,0.3-1,0.7-1.2
	c0.1,0,0.2,0,0.2,0.4L37.1,21C37,21.1,37,21.2,37,21.3L37,21.3z M37.9,17.9c0.1,0,0.1-0.1,0.1-0.1l0.3-0.9c0.1-0.3,0.2-0.3,0.3-0.2
	c0.2,0.3,0.1,0.9,0,1.2c-0.2,0.6-0.6,1.1-1.2,1.4c-0.3-0.6-0.4-1.2-0.2-1.9c0.1-0.2,0.3-0.9,0.7-1c0.1,0,0.2,0,0.1,0.3l-0.1,1
	C37.9,17.8,37.8,17.9,37.9,17.9L37.9,17.9z M39.3,18.5L39.3,18.5c0.1,0,0.1-0.1,0.1-0.1l0.2-0.5c0.1-0.3,0.2-0.3,0.3-0.2
	s0.1,0.7,0.1,0.9c-0.2,0.5-0.5,0.8-1,1c-0.2-0.4-0.3-1-0.2-1.5c0-0.2,0.3-0.9,0.6-1c0.1,0,0.2,0,0.1,0.3l-0.2,0.9
	C39.2,18.3,39.2,18.5,39.3,18.5L39.3,18.5z M37.2,28.1l-0.1-1.8c0-0.4,0.1-0.5,0.3-0.5c0.4,0.2,0.7,1.1,0.7,1.4
	c0.1,0.9-0.2,1.8-0.8,2.5c-0.7-0.5-1.2-1.3-1.3-2.1c0-0.3,0-1.3,0.4-1.6c0.2-0.1,0.3-0.1,0.4,0.3L37.2,28.1c-0.1,0.1-0.1,0.2,0,0.2
	l0,0C37.2,28.3,37.2,28.1,37.2,28.1L37.2,28.1z M36.9,24.2c0-0.3-0.1-1.1,0.3-1.4c0.1-0.1,0.2-0.1,0.3,0.3l0.3,1.3
	c0,0.1,0,0.2,0.1,0.2s0.1-0.1,0-0.2L37.8,23c0-0.4,0.1-0.4,0.2-0.4c0.4,0.2,0.6,0.9,0.7,1.2c0.1,0.7-0.1,1.5-0.6,2.1
	C37.4,25.5,37,24.9,36.9,24.2L36.9,24.2z M38.2,20.9c0-0.2,0-0.8,0.3-1c0.1-0.1,0.2,0,0.2,0.2l0.2,0.9c0,0,0,0.1,0.1,0.1
	s0-0.1,0.1-0.1v-0.8c0-0.3,0.1-0.3,0.2-0.3c0.3,0.1,0.4,0.7,0.5,0.9c0,0.6-0.2,1.2-0.6,1.5C38.6,22,38.3,21.5,38.2,20.9z M36.7,24.3
	c0,0.7-0.3,1.3-0.8,1.7l0,0c-0.5-0.3-0.8-0.9-0.8-1.5c0-0.2,0.1-0.8,0.5-0.9c0.1,0,0.2,0,0.3,0.3v0.7c0,0.1,0,0.2,0.1,0.2l0,0
	c0.1,0,0.1-0.1,0.1-0.2l0.1-1.1c0-0.3,0.1-0.4,0.3-0.3C36.6,23.4,36.7,24.1,36.7,24.3z M36,31.7c0,0.1,0,0.2,0.1,0.2
	s0.1-0.1,0.1-0.2v-1.6c0-0.4,0.1-0.5,0.3-0.4c0.5,0.2,0.7,1.2,0.7,1.5c0,0.9-0.3,1.8-1,2.4l0,0c-0.7-0.5-1.2-1.3-1.3-2.2
	c0-0.3,0-1.3,0.5-1.6c0.2-0.1,0.3,0,0.4,0.4L36,31.7z M35.1,32.9c0.6,0.3,0.7,1.3,0.7,1.7c0,1-0.5,1.9-1.4,2.5l0,0
	c-0.8-0.6-1.3-1.5-1.4-2.5c0-0.3,0.2-1.4,0.7-1.7c0.2-0.1,0.4,0,0.4,0.4l0.1,1.8c0,0.1,0,0.2,0.1,0.2l0,0c0.1,0,0.1-0.1,0.1-0.2
	l0.1-1.8C34.7,32.9,34.9,32.8,35.1,32.9L35.1,32.9z M34,31.3c-0.1,0.9-0.5,1.7-1.3,2.2c-0.7-0.6-1-1.5-1-2.4c0-0.3,0.2-1.3,0.7-1.5
	c0.2-0.1,0.3,0,0.3,0.4v1.6c0,0.1,0,0.2,0.1,0.2c0.1,0,0.1-0.1,0.1-0.2l0.2-1.6c0.1-0.4,0.2-0.5,0.4-0.4C34,30,34.1,30.9,34,31.3
	L34,31.3z M31.1,24.5c0.1,0,0.1-0.1,0.1-0.2l0.3-1.2c0.1-0.4,0.2-0.4,0.3-0.3c0.3,0.3,0.3,1.1,0.3,1.4c-0.1,0.7-0.6,1.4-1.2,1.8
	c-0.5-0.6-0.7-1.3-0.6-2.1c0-0.3,0.3-1.1,0.7-1.2c0.2-0.1,0.3,0,0.2,0.4l-0.1,1.3C31,24.3,31,24.5,31.1,24.5L31.1,24.5z M30.9,27.2
	c0-0.3,0.3-1.3,0.7-1.4c0.2-0.1,0.3,0,0.3,0.5L31.8,28c0,0.1,0,0.2,0.1,0.2c0.1,0,0.1-0.1,0.1-0.2l0.3-1.7c0.1-0.4,0.2-0.5,0.3-0.3
	c0.4,0.3,0.4,1.3,0.4,1.6c-0.1,0.9-0.6,1.6-1.3,2.1C31.1,29,30.8,28.1,30.9,27.2L30.9,27.2z M33.1,26.1c-0.5-0.4-0.9-1.1-0.9-1.7
	c0-0.2,0.1-1,0.4-1.2c0.1-0.1,0.2,0,0.3,0.3l0.1,1.1c0,0.1,0,0.2,0.1,0.2l0,0c0.1,0,0.1-0.1,0.1-0.2V24c0-0.3,0.1-0.3,0.3-0.3
	c0.3,0.1,0.5,0.6,0.5,0.9C33.9,25.2,33.6,25.7,33.1,26.1L33.1,26.1z M29.4,20.8c0-0.2,0.2-0.8,0.5-0.9c0.1,0,0.2,0,0.2,0.3V21
	c0,0.1,0,0.1,0,0.1l0.1-0.1l0.2-0.8c0-0.3,0.1-0.3,0.2-0.2c0.3,0.2,0.3,0.8,0.3,1c-0.1,0.6-0.4,1.1-0.9,1.5
	C29.5,21.9,29.3,21.4,29.4,20.8L29.4,20.8z M29.3,30.8c0-0.3,0.3-1.3,0.7-1.4c0.2-0.1,0.3,0,0.3,0.5v1.3c0,0.1,0,0.2,0.1,0.2
	s0.1-0.1,0.1-0.2l0.3-1.3c0.1-0.4,0.2-0.5,0.4-0.3c0.4,0.3,0.4,1.3,0.4,1.6C31.5,32,31,32.7,30.3,33C29.5,32.4,29.2,31.6,29.3,30.8
	L29.3,30.8z M30.9,32.9c0.2-0.1,0.3,0,0.4,0.4l0.1,1.6c0,0.1,0,0.2,0.1,0.2s0.1-0.1,0.1-0.2l0.1-1.2c0-0.5,0.2-0.5,0.4-0.4
	c0.5,0.3,0.6,1.1,0.6,1.4c0,0.9-0.4,1.8-1.2,2.3c-0.8-0.6-1.3-1.5-1.3-2.4C30.2,34.2,30.3,33.2,30.9,32.9L30.9,32.9z M32.2,41.1
	l-0.4-0.9c-0.2-0.3-0.1-0.4,0.1-0.4c0.4,0,0.8,0.5,0.9,0.7c0.3,0.6,0.4,1.3,0.2,2c-0.6-0.1-1.2-0.4-1.5-1c-0.1-0.2-0.5-1-0.3-1.3
	c0.1-0.1,0.2-0.1,0.4,0.2l0.6,0.9c0,0.1,0.1,0.2,0.2,0.1C32.5,41.3,32.3,41.2,32.2,41.1z M32,38.1c0-0.3,0-1.2,0.3-1.4
	c0.1-0.1,0.3-0.1,0.3,0.3l0.3,1c0,0.1,0,0.2,0.1,0.2l0,0c0.1,0,0.1-0.1,0.1-0.2L33,36.9c0-0.4,0.1-0.4,0.2-0.4
	c0.4,0.1,0.7,1,0.7,1.3c0.1,0.7-0.2,1.4-0.7,1.8C32.6,39.3,32.1,38.8,32,38.1L32,38.1z M34,39.5c0.2-0.1,0.3,0,0.3,0.3l0.1,1.1
	c0,0.1,0,0.2,0.1,0.2s0.1-0.1,0.1-0.2l0.1-1.1c0-0.4,0.2-0.4,0.3-0.3c0.4,0.2,0.5,1.1,0.5,1.4c0,0.9-0.4,1.7-1,2.3
	c-0.6-0.6-1-1.4-1-2.3C33.4,40.6,33.5,39.7,34,39.5L34,39.5z M35,37.8c0-0.3,0.3-1.1,0.7-1.3c0.2-0.1,0.3,0,0.3,0.4L35.9,38
	c0,0.1,0,0.2,0.1,0.2s0.1-0.1,0.1-0.2l0.3-1.1c0.1-0.3,0.2-0.4,0.3-0.3c0.4,0.3,0.3,1.2,0.3,1.4c-0.1,0.7-0.6,1.3-1.2,1.5
	C35.2,39.2,34.9,38.5,35,37.8L35,37.8z M36.1,40.4c0.1-0.2,0.5-0.7,0.9-0.7c0.2,0,0.2,0.1,0.1,0.4L36.7,41c0,0.1-0.1,0.2,0,0.2
	s0.1-0.1,0.2-0.1l0.6-0.9c0.2-0.3,0.3-0.3,0.4-0.2c0.2,0.3-0.1,1.1-0.3,1.3c-0.3,0.6-0.9,0.9-1.6,1C35.8,41.8,35.8,41,36.1,40.4
	L36.1,40.4z M36.2,34.7c0-0.3,0.1-1.1,0.6-1.4c0.2-0.1,0.4,0,0.4,0.4l0.1,1.2c0,0.1,0,0.2,0.1,0.2s0.1-0.1,0.1-0.2l0.2-1.6
	c0-0.5,0.2-0.5,0.4-0.4c0.5,0.3,0.7,1.3,0.7,1.6c0,1-0.5,1.9-1.3,2.4C36.7,36.5,36.3,35.7,36.2,34.7z M37.5,31.1
	c0-0.3,0-1.3,0.4-1.6c0.2-0.1,0.3-0.1,0.4,0.3l0.3,1.3c0,0.1,0,0.2,0.1,0.2s0.1-0.1,0.1-0.2l-0.1-1.3c0-0.4,0.1-0.5,0.3-0.5
	c0.5,0.2,0.7,1.1,0.7,1.4c0.1,0.8-0.2,1.7-0.9,2.2l0,0C38.1,32.6,37.6,31.9,37.5,31.1L37.5,31.1z M39.6,29.3c-0.7-0.5-1.1-1.2-1.2-2
	c0-0.3-0.1-1.2,0.2-1.5c0.1-0.1,0.2-0.1,0.3,0.3l0.3,1.4c0,0.1,0,0.2,0.1,0.2s0.1-0.1,0-0.2l-0.1-1.7c0-0.4,0.1-0.5,0.2-0.4
	c0.4,0.2,0.7,1.3,0.8,1.6C40.3,27.7,40.1,28.6,39.6,29.3L39.6,29.3z M40.3,17.7c-0.3-0.2-0.5-0.5-0.6-0.9c0-0.2,0-0.5,0.2-0.6
	s0.1,0,0.2,0.2l0.1,0.3c0,0,0,0.1,0.1,0.1l0,0v-0.1v-0.6c0-0.2,0-0.3,0.1-0.2s0.3,0.5,0.3,0.7C40.7,17,40.6,17.4,40.3,17.7
	L40.3,17.7z M41,16.6c-0.3-0.4-0.4-0.9-0.5-1.3c-0.5,0.6-1.3,0.9-2.1,0.9c0-0.8,0.4-1.5,1-2c-0.5,0-1-0.3-1.4-0.6
	c0.3-0.1,0.7-0.2,1-0.4c0.1,0,0.1-0.1,0.2-0.1s0.1,0.2,0,0.3H39c-0.1,0-0.1,0.1-0.1,0.2s0.1,0.1,0.2,0.1h0.1h0.1l0.1,0.1
	c0.1,0.2,0.2,0.4,0.3,0.5v0.1c0,0.1,0,0.1-0.1,0.2l-0.5,0.8c-0.1,0,0,0.1,0,0.1h0.1L40,15c0,0,0.1-0.1,0.2-0.1c0.1,0,0.1,0,0.2,0.1
	c0.1,0.1,0.3,0.2,0.5,0.3c0.1,0,0.1,0.1,0.2,0.1c0,0,0,0.1,0,0.2v0.1c0,0.1,0,0.2,0.1,0.2l0,0c0.1,0,0.2,0,0.2-0.1l0,0v-0.1
	c0-0.1,0.1-0.1,0.1-0.1c0.1,0,0.2,0,0.2,0c0.2,0,0.4,0.1,0.6,0.1C41.8,15.6,41.3,16,41,16.6L41,16.6z M41.6,15.1
	c-1.1-0.2-1.9-1-2.2-2.1c0.4,0.5,1.1,0.7,1.7,0.3c0.6-0.3,0.9-0.7,1.3-0.4c0.2,0.2,0.4,0.4,0.7,0.5s0.6,0,0.8-0.2s0.4-0.5,0.7-0.3
	s0,0.9-0.6,1.5C43.4,15,42.6,15.2,41.6,15.1L41.6,15.1z M43.1,12.8c0-0.2,0.1-0.4,0.4-0.4s0.4,0.1,0.4,0.4c0,0.2-0.1,0.4-0.4,0.4
	l0,0C43.3,13.2,43.2,13,43.1,12.8L43.1,12.8z M45.6,15.2c-0.4-0.1-0.9,0-1.3,0.1c-0.4,0.2-0.9,0.2-1.3,0.1c0.5-0.1,0.9-0.2,1.4-0.4
	C45.3,14.8,45.6,15.2,45.6,15.2L45.6,15.2z M46.8,14.7c0.7,0.3,1.5,0.4,2.2,0.2c0.3-0.2,0.5-0.5,0.5-0.9c0.1,0.5-0.2,1.1-0.7,1.2
	c-0.9,0.2-1.9,0-2.8-0.5c-0.3-0.2-0.7-0.2-1-0.1c0.1-0.1,0.3-0.2,0.4-0.3C45.9,14.1,46.1,14.3,46.8,14.7L46.8,14.7z M45.6,12.3
	c0.1,0.1,0.1,0.3,0.2,0.3s0.1-0.1,0.2-0.2s1.9,0.1,2.1,1.5c-0.5-0.3-1-0.3-1.6-0.3c-0.8,0.2-1.5,0.5-2.2,0.9
	c0.5-0.4,0.9-1.1,0.9-1.7C45.2,12.4,45.4,12.3,45.6,12.3z M36.5,12.1c1.1,0.3,2.3,0.3,3.4-0.1c2.3-0.7,2.9-0.8,3.8-0.5
	s1.4,0.8,1.2,1.1s-0.6,0.1-1-0.1c-0.3-0.1-0.7-0.2-1-0.3c-0.5,0-1.1,0.2-1.4,0.5c-0.7,0.5-1.4,0.7-1.9-0.1
	C39.7,12.7,37.5,13.2,36.5,12.1L36.5,12.1z M36.6,13.1c0.4,0.1,0.7,0,1.1-0.1c0.2-0.1,0.3,0,0.3,0.1S37.2,13.5,36.6,13.1L36.6,13.1z
	 M36.6,14.1c0.3,0,0.6,0,0.8-0.1s0.3,0,0.3,0.1S37.1,14.4,36.6,14.1L36.6,14.1z M37.5,14.5c0.1-0.2,0.6-0.6,0.9-0.6
	c0.1,0,0.2,0.1,0,0.3L37.8,15c0,0-0.1,0.1-0.1,0.2s0.1,0,0.2-0.1l0.5-0.5c0.2-0.2,0.3-0.2,0.3-0.1s-0.3,0.8-0.5,1
	c-0.3,0.3-0.8,0.5-1.3,0.4C37,15.4,37.1,14.9,37.5,14.5L37.5,14.5z M35.8,17.1c0.1-0.2,0.3-0.7,0.6-0.7c0.1,0,0.2,0,0.1,0.3
	l-0.2,0.5c0,0.1-0.1,0.2,0,0.2s0.1-0.1,0.1-0.1l0.4-0.9c0.1-0.3,0.2-0.3,0.3-0.2c0.2,0.3,0,1-0.1,1.2c-0.3,0.7-0.7,1.3-1.3,1.7
	C35.6,18.4,35.6,17.7,35.8,17.1z M35,20.1c0-0.2,0.2-0.7,0.5-0.8c0.1,0,0.2,0,0.1,0.3l-0.1,0.7v0.1l0.1-0.1l0.2-0.7
	c0.1-0.2,0.2-0.3,0.2-0.2s0.2,0.7,0.1,0.9c-0.1,0.5-0.4,0.9-0.9,1.1C35,21.1,34.9,20.6,35,20.1L35,20.1z M34.9,22.5
	c0.1-0.3,0.2-0.5,0.4-0.7c0.3-0.1,0.6,0,0.7,0.2c0.1,0.2,0.1,0.4-0.1,0.5c-0.3,0.5-0.9,0.4-1.2,1.2C34.7,23.4,34.8,23,34.9,22.5
	L34.9,22.5z M34.4,28.2c0,0.1,0,0.3,0.1,0.3s0.1-0.2,0.1-0.3l0.1-1.8c0-0.5,0.2-0.6,0.4-0.5c0.5,0.3,0.6,1.4,0.6,1.8
	c0,1-0.5,2-1.2,2.6c-0.8-0.7-1.2-1.6-1.2-2.7c0-0.4,0.2-1.5,0.6-1.8c0.2-0.1,0.3,0,0.4,0.5L34.4,28.2z M34.2,23.9
	c-0.2-0.8-0.8-0.7-1.2-1.2c-0.1-0.2-0.1-0.6,0.1-0.7s0.4-0.1,0.5-0.1c0.2,0.2,0.4,0.4,0.4,0.7C34.2,23,34.3,23.4,34.2,23.9z
	 M33.5,20.3l-0.1-0.7c0-0.2,0-0.3,0.1-0.3c0.3,0.1,0.5,0.6,0.5,0.8c0.1,0.5,0,1-0.3,1.4c-0.5-0.2-0.8-0.7-0.9-1.2
	c0-0.2-0.1-0.7,0.1-0.9s0.2,0,0.2,0.2l0.2,0.7c0,0,0,0.1,0.1,0.1l0,0C33.5,20.5,33.5,20.4,33.5,20.3z M32.6,17.2l-0.2-0.5
	c-0.1-0.3,0-0.3,0.1-0.3c0.3,0,0.5,0.5,0.6,0.7c0.3,0.6,0.3,1.3,0.1,2c-0.6-0.4-1.1-1-1.3-1.7c-0.1-0.2-0.3-0.9-0.1-1.2
	c0.1-0.1,0.2-0.1,0.3,0.2l0.4,0.9c0,0.1,0.1,0.1,0.1,0.1S32.6,17.3,32.6,17.2L32.6,17.2z M32,15.9c-0.5,0.1-0.9-0.1-1.3-0.4
	c-0.2-0.2-0.6-0.7-0.5-1s0.2-0.1,0.3,0.1l0.5,0.5c0,0,0.1,0.1,0.2,0.1s0-0.1,0-0.2l-0.5-0.6c-0.2-0.2-0.2-0.3,0-0.3
	c0.3-0.1,0.8,0.4,0.9,0.6C31.9,14.9,32,15.4,32,15.9L32,15.9z M32.4,14.1c-0.5,0.3-1.1,0.1-1.1,0s0.1-0.2,0.3-0.1
	C31.8,14.1,32.1,14.2,32.4,14.1L32.4,14.1z M32.4,13.2c-0.6,0.4-1.4,0.2-1.4,0s0.1-0.2,0.3-0.1C31.7,13.2,32.1,13.2,32.4,13.2
	L32.4,13.2z M25.2,11.5c0.9-0.2,1.6-0.1,3.8,0.5c1.1,0.4,2.3,0.5,3.4,0.1c-1,1-3.2,0.5-3.2,0.5c-0.5,0.7-1.2,0.6-1.9,0.1
	c-0.4-0.4-0.9-0.6-1.5-0.5c-0.3,0.1-0.7,0.2-1,0.3c-0.4,0.2-0.8,0.3-1,0.1S24.2,11.8,25.2,11.5z M25.8,12.8c0,0.2-0.1,0.4-0.4,0.4
	c-0.2,0-0.4-0.1-0.4-0.4c0-0.2,0.1-0.4,0.4-0.4l0,0C25.6,12.5,25.8,12.6,25.8,12.8L25.8,12.8L25.8,12.8z M22.5,13.7
	c-0.5-0.1-1.1,0-1.6,0.3c0.2-1.3,1.8-1.5,2.1-1.5s0.1,0.2,0.2,0.2s0.1-0.2,0.2-0.3s0.4,0,0.4,0.5c0,0.7,0.4,1.3,0.9,1.7
	C24,14.2,23.3,13.9,22.5,13.7L22.5,13.7z M23,14.7c-0.8,0.5-1.8,0.7-2.8,0.5c-0.5-0.1-0.9-0.7-0.7-1.2c0,0.4,0.2,0.7,0.5,0.9
	c0.7,0.2,1.5,0.2,2.2-0.2c0.7-0.3,0.9-0.5,1.3-0.4c0.2,0.1,0.3,0.1,0.5,0.3C23.6,14.5,23.3,14.5,23,14.7L23,14.7z M24.7,15.3
	c-0.4-0.2-0.9-0.2-1.3-0.1c0,0,0.3-0.5,1.2-0.2c0.4,0.2,0.9,0.3,1.4,0.4C25.6,15.5,25.1,15.5,24.7,15.3L24.7,15.3z M24.8,14.3
	c-0.7-0.6-1-1.3-0.6-1.5s0.5,0.1,0.7,0.3s0.6,0.3,0.8,0.2c0.3-0.1,0.5-0.3,0.7-0.5c0.4-0.4,0.7,0,1.3,0.4c0.6,0.4,1.3,0.2,1.7-0.3
	c-0.3,1.5-1.8,2.4-3.3,2.1C25.6,14.9,25.2,14.7,24.8,14.3z M27.9,16.6c-0.2-0.6-0.7-1-1.2-1.1c0.2,0,0.4,0,0.6-0.1
	c0.1,0,0.2,0,0.2,0c0.1,0,0.1,0.1,0.1,0.1v0.1c0,0.1,0.1,0.1,0.2,0.1l0,0c0.1,0,0.1-0.1,0.1-0.2l0,0v-0.1c0,0,0-0.1,0-0.2
	c0-0.1,0.1-0.1,0.2-0.1c0.2-0.1,0.3-0.2,0.5-0.3c0,0,0.1-0.1,0.2-0.1s0.1,0,0.2,0.1l0.8,0.5c0.1,0,0.1,0,0.1,0s0,0,0-0.1l-0.6-0.7
	c0,0-0.1-0.1-0.1-0.2v-0.1c0.1-0.2,0.2-0.3,0.3-0.5c0-0.1,0.1-0.1,0.1-0.1h0.1h0.1c0.1,0,0.2,0,0.2-0.1s0-0.2-0.1-0.2h-0.2
	c-0.1,0-0.1-0.2,0-0.3s0.2,0,0.2,0.1c0.3,0.2,0.7,0.3,1,0.4c-0.4,0.3-0.9,0.6-1.4,0.6c0.6,0.5,1,1.2,1,2c-0.8,0-1.6-0.3-2.1-0.9
	C28.3,15.7,28.2,16.2,27.9,16.6L27.9,16.6z M28.6,17.7c-0.3-0.3-0.4-0.7-0.4-1.1c0-0.2,0.1-0.6,0.3-0.7s0.1,0,0.1,0.2v0.6v0.1l0,0
	v-0.1l0.1-0.3c0-0.2,0.1-0.2,0.2-0.2s0.2,0.4,0.2,0.6C29.1,17.2,28.9,17.5,28.6,17.7L28.6,17.7z M28.7,23.3c0.1-0.2,0.3-0.9,0.6-1
	c0.1,0,0.2,0,0.1,0.3l-0.2,1c0,0.1,0,0.2,0,0.2l0,0c0.1,0,0.1-0.1,0.1-0.1l0.2-0.6c0.1-0.3,0.2-0.3,0.3-0.2s0.2,0.7,0.2,0.9
	c-0.1,0.6-0.5,1-1.1,1.2C28.6,24.5,28.6,23.8,28.7,23.3L28.7,23.3z M27,26.3c0.1-0.3,0.5-1.9,0.9-1.8c0.1,0,0.2,0.1,0,0.7l-0.2,1.3
	c0,0.1,0,0.2,0,0.2s0.1-0.1,0.1-0.2l0.3-0.9c0.1-0.4,0.2-0.4,0.3-0.3c0.2,0.5,0.2,1.1,0.1,1.6c-0.2,0.8-0.6,1.5-1.3,1.9l0,0
	C26.9,28,26.8,27.1,27,26.3L27,26.3z M13.3,18.9c0.8-0.2,1.5-0.4,2.2-0.8c0.9-0.4,1.9-0.7,2.9-0.8c1.1-0.1,2.3,0.3,3.2,1
	c1.3,1.1,1.6,3,0.9,4.5c0,0.1-0.1,0.2-0.1,0.2c-0.3,0.5-0.2,1.1,0.2,1.5c0.7,0.8,1.7,1.3,2.7,1.4c0.2,0,0.5,0,0.7-0.1
	c0.1,0,0.3-0.1,0.4-0.1s0.3,0.1,0.3,0.3c-0.2,0.8-0.2,1.6,0.1,2.3c-0.4-0.1-0.8-0.3-1-0.7c-0.1,0.1-0.5,0.3-0.6,0.4
	c-0.3,0.2-0.7,0.2-0.9-0.1c-0.1-0.1-0.1-0.3-0.1-0.4v-0.3c-0.2,0.1-0.5,0.3-0.7,0.3c-0.5,0.2-0.8-0.1-0.8-0.6c0-0.2,0-0.3,0-0.5
	c-0.2,0.1-0.5,0.2-0.7,0.2c-0.5,0.1-0.7,0-0.7-0.5c0-0.3,0-0.7,0.1-1L21,25.3c-0.5,0.2-0.8,0.1-0.7-0.4c0-0.3,0.1-0.6,0.3-0.9
	c0.1-0.3,0.7-1.2,0.7-1.3c-0.2,0.1-0.5,0.2-0.8,0.3c-0.3,0.1-0.6-0.1-0.7-0.4c0-0.1,0-0.3,0-0.4c0.2-0.4,0.4-0.8,0.7-1.1
	c-0.4,0.4-0.8,0.7-1.3,1c-0.2,0.1-0.5,0-0.7-0.1c-0.1-0.2-0.2-0.5-0.1-0.7c0.1-0.4,0.3-0.7,0.6-1.1c-0.4,0.5-0.9,0.9-1.5,1.1
	c-0.2,0-0.4,0-0.5-0.1c-0.1,0.1-0.1-0.1-0.1-0.3c0.2-0.4,0.4-0.8,0.6-1.1c-0.3,0.2-0.5,0.4-0.8,0.5c-0.3,0.2-0.7,0.4-1.1,0.4
	c-0.4,0-0.5-0.3-0.5-0.6c0.1-0.3,0.2-0.6,0.4-0.9c-0.6,0.2-1.3,0.3-1.9,0.3c-0.3,0-0.7-0.1-0.7-0.3S13.2,19,13.3,18.9L13.3,18.9z
	 M23.2,29.7c0.1,0,0.1-0.1,0.1-0.1l0.2-0.7c0.1-0.3,0.2-0.3,0.3-0.2c0.3,0.3,0.2,0.9,0.2,1.2c-0.1,0.6-0.5,1.1-1,1.3
	c-0.4-0.5-0.6-1.1-0.5-1.7c0-0.2,0.3-0.9,0.6-1c0.1,0,0.2,0,0.2,0.3l-0.1,0.7C23.2,29.7,23.1,29.8,23.2,29.7L23.2,29.7z M13.2,23.9
	c0.1,0,0.1,0,0.2-0.1l1.4-2.4c0.2-0.3,0.3-0.3,0.4-0.2c0.2,0.4-0.3,1.6-0.5,2c-0.5,1.1-1.4,2-2.4,2.5l0,0c-0.1-1.2,0.2-2.4,0.7-3.4
	c0.3-0.5,1-1.6,1.4-1.6c0.2,0,0.2,0.1,0.1,0.5l-1.4,2.7C13.1,23.8,13.1,23.9,13.2,23.9L13.2,23.9z M14.9,25.1c0.1,0,0.1,0,0.2-0.1
	l1.6-2.6c0.2-0.3,0.3-0.3,0.4-0.2c0.2,0.4-0.4,1.5-0.6,2c-0.6,1.1-1.4,2-2.5,2.6l0,0c0-1.2,0.4-2.5,1-3.5c0.3-0.5,1-1.5,1.4-1.5
	c0.2,0,0.2,0.1,0,0.5L14.8,25C14.8,25.1,14.7,25.1,14.9,25.1L14.9,25.1z M16.6,26.2c0.1,0,0.1-0.1,0.2-0.1l1.5-2.8
	c0.2-0.3,0.3-0.3,0.4-0.2c0.2,0.3-0.4,1.6-0.6,2c-0.6,1.1-1.8,2.7-2.3,2.8c-0.2-0.5,0.3-2.4,0.9-3.5c0.3-0.5,0.9-1.6,1.3-1.7
	c0.2,0,0.2,0.1,0,0.4l-1.5,3C16.5,26.2,16.5,26.3,16.6,26.2L16.6,26.2z M18.2,27.3c0.1,0,0.1-0.1,0.1-0.2l1.3-3.2
	c0.2-0.4,0.3-0.4,0.3-0.3c0,0.8-0.2,1.6-0.5,2.4c-0.3,1.1-1,2.1-1.8,2.9l0,0c-0.1-1.1,0-2.3,0.5-3.4c0.2-0.5,0.9-2,1.2-2.2
	c0.1,0,0.2,0,0.1,0.4L18.2,27C18.2,27.2,18.2,27.3,18.2,27.3z M12.7,26.3c0.2,0,0.3,0.1,0.2,0.4l-0.5,2c0,0.1,0,0.2,0,0.2l0,0
	c0.1,0,0.1-0.1,0.1-0.1l0.6-1.8c0.1-0.3,0.2-0.3,0.4-0.2c0.3,0.3,0.2,1.2,0.1,1.6c-0.3,1.1-1.2,2.4-1.8,2.6l0,0
	c-0.4-0.4-0.4-2.1-0.1-3.1C11.8,27.4,12.2,26.4,12.7,26.3z M12.1,31.4c0.2-0.1,0.2,0,0.2,0.4L12,34c0,0.1,0,0.2,0,0.2
	s0.1-0.1,0.1-0.2l0.5-2.1c0.1-0.4,0.2-0.5,0.3-0.3c0.3,0.3,0.1,1.9,0,2.4c-0.3,1.3-1,2.8-1.5,3.1l0,0c-0.4-0.4-0.5-2.1-0.3-3.4
	C11.3,33.1,11.7,31.6,12.1,31.4z M13.1,34.3c0.1-0.6,0.5-2,0.9-2.2c0.2-0.1,0.2,0,0.2,0.4l-0.4,2.1c0,0.1,0,0.2,0,0.2
	s0.1-0.1,0.1-0.2l0.5-2.1c0.1-0.4,0.2-0.4,0.3-0.3c0.3,0.3,0.1,1.8,0,2.4c-0.3,1.3-1,2.8-1.6,3C12.9,37.2,12.8,35.5,13.1,34.3
	L13.1,34.3z M13.5,31.7c-0.4-0.4-0.2-2,0.1-3c0.2-0.4,0.5-1.1,0.9-1.1c0.2,0,0.3,0.1,0.2,0.4l-0.5,1.8c0,0.1,0,0.2,0,0.2l0,0
	c0.1,0,0.1-0.1,0.1-0.1l0.7-1.6c0.1-0.3,0.3-0.3,0.4-0.2c0.3,0.3,0.2,1,0,1.4C15.1,30.3,14.1,31.6,13.5,31.7L13.5,31.7z M15.5,29.7
	c0.1-0.4,0.5-1.1,0.9-1.1c0.2,0,0.2,0.1,0.2,0.3l-0.5,1.7c0,0.1,0,0.1,0,0.2l0,0c0.1,0,0.1-0.1,0.1-0.1l0.6-1.6
	c0.1-0.3,0.2-0.3,0.3-0.2c0.3,0.3,0.1,1,0,1.4c-0.3,0.9-1.2,2-1.7,2.1C15,32.1,15.2,30.6,15.5,29.7L15.5,29.7z M17.2,30.9
	c0.1-0.4,0.5-1.4,0.9-1.4c0.2,0,0.2,0,0.2,0.3l-0.4,1.6c0,0.1,0,0.1,0,0.2s0.1-0.1,0.1-0.1l0.5-1.5c0.1-0.3,0.2-0.3,0.3-0.2
	c0.3,0.3,0.1,1.3,0,1.6c-0.3,0.9-1.1,2.1-1.6,2.2C16.9,32.7,16.9,31.8,17.2,30.9L17.2,30.9z M19.2,27.4c0.1-0.3,0.5-1,1-1
	c0.2,0,0.2,0.1,0.1,0.5L19.9,28c0,0.1-0.1,0.2,0,0.2s0.1-0.1,0.2-0.1l0.5-1c0.2-0.3,0.3-0.3,0.4-0.2c0.3,0.4,0,1.2-0.1,1.4
	c-0.3,0.7-0.8,1.2-1.6,1.4C18.9,29,18.9,28.2,19.2,27.4L19.2,27.4z M20.9,28.7c0.1-0.2,0.4-0.8,0.7-0.9c0.1,0,0.2,0.1,0.1,0.4
	l-0.2,0.7c0,0.1,0,0.2,0,0.2l0.1-0.1l0.3-0.6c0.1-0.3,0.2-0.3,0.3-0.2c0.2,0.3,0.1,1,0,1.2c-0.2,0.6-0.6,1-1.2,1.2
	C20.8,29.9,20.7,29.3,20.9,28.7L20.9,28.7z M11.2,21.7c0.2-0.5,1.1-1.8,1.5-1.8c0.2,0,0.2,0.1,0,0.4l-1.2,2.3c0,0.1-0.1,0.1,0,0.2
	s0.1,0,0.1-0.1l1.6-2.4c0.2-0.3,0.3-0.3,0.4-0.2c0.2,0.3-0.6,1.8-0.8,2.2c-0.5,0.9-1.3,1.7-2.4,2C10.6,23.4,10.9,22.5,11.2,21.7
	L11.2,21.7z M9.1,30.3c0.3-1,0.5-2,0.6-3.1c0.1-0.6,0.4-2.3,0.8-2.4c0.2,0,0.3,0,0.2,0.4l-0.4,2.3c0,0.1,0,0.2,0.1,0.2l0,0
	c0.1,0,0.1,0,0.2-0.1l0.4-1.8c0.1-0.4,0.2-0.5,0.3-0.4c0.3,0.3,0.2,1.4,0.1,1.9C10.9,29.9,9.1,30.3,9.1,30.3z M9.1,36.8
	c0.3-1.1,0.3-2.3,0.1-3.4c0-0.6,0-2.4,0.4-2.6c0.2-0.1,0.3,0,0.3,0.4v2.2c0,0.1,0,0.2,0.1,0.2l0,0c0.1,0,0.1-0.1,0.1-0.2l0.2-2.8
	c0-0.5,0.1-0.6,0.3-0.6c0.5,0,0.5,1.4,0.5,2C10.9,35.8,9.1,36.8,9.1,36.8L9.1,36.8z M8.7,45.1c0.7-1.2,0.5-2.8,0.5-4.4
	c0-0.8,0.1-2.9,0.5-3.2c0.1-0.1,0.2,0,0.2,0.5v2.8c0,0.1,0,0.2,0.1,0.2l0,0c0.1,0,0.1-0.1,0.2-0.2l0.1-3.3c0-0.5,0.1-0.8,0.3-0.8
	c0.5,0,0.5,1.7,0.5,2.4C10.8,44.7,8.6,45.1,8.7,45.1L8.7,45.1z M10,44.6c0.8-1.2,1.2-2.7,1.2-4.1c0.1-0.7,0.1-2.8,0.5-2.9
	c0.2-0.1,0.3,0,0.3,0.5l-0.1,2.8c0,0.1,0,0.2,0.1,0.2l0,0c0.1,0,0.1,0,0.2-0.2l0.3-2.7c0-0.5,0.2-0.6,0.3-0.6
	c0.5,0.1,0.4,1.7,0.3,2.3C12.4,44.5,10,44.6,10,44.6L10,44.6z M12,43.7c0.7-1,1.2-2.1,1.4-3.3c0.1-0.6,0.4-2.1,0.8-2.2
	c0.1,0,0.3,0,0.2,0.4l-0.5,2.3c0,0.1,0,0.2,0,0.2l0,0c0.1,0,0.1,0,0.1-0.1l0.6-2.2c0.1-0.4,0.2-0.5,0.3-0.5c0.3,0.1,0.1,1.3,0,1.8
	C14.1,43.6,12,43.7,12,43.7L12,43.7z M16.4,40.2c-0.6,2.4-2.3,2.4-2.3,2.4c0.6-0.6,0.9-1.4,1.1-2.3c0.1-0.4,0.3-1.5,0.6-1.6
	c0.1,0,0.3,0,0.2,0.3l-0.5,1.8c0,0.1,0,0.1,0,0.1l0,0c0,0,0.1,0,0.1-0.1l0.5-1.7c0.1-0.3,0.2-0.4,0.3-0.3
	C16.7,39,16.5,39.9,16.4,40.2L16.4,40.2z M16.8,35.1c-0.1,1.1-0.6,2.2-1.3,3c-0.4-1-0.5-2.2-0.3-3.3c0.1-0.6,0.4-1.9,0.8-2.1
	c0.1-0.1,0.2,0,0.2,0.4l-0.3,2c0,0.1,0,0.2,0,0.2s0.1-0.1,0.1-0.2l0.4-2c0.1-0.4,0.2-0.4,0.3-0.3C16.9,33.2,16.8,34.7,16.8,35.1
	L16.8,35.1z M17.1,38.3c-0.3-0.9-0.3-1.9-0.1-2.8c0.1-0.5,0.4-1.4,0.7-1.6c0.1-0.1,0.2,0,0.1,0.3l-0.2,1.3c0,0.1,0,0.2,0,0.2
	s0.1-0.1,0.1-0.2l0.5-2c0.1-0.3,0.2-0.4,0.3-0.3c0.1,0.8,0,1.6-0.2,2.4C18.1,36.7,17.7,37.6,17.1,38.3L17.1,38.3z M19.8,36
	c-0.9,2.1-2,2.2-1.1-0.4c0.1-0.3,0.4-1,0.6-1.1s0.2,0,0.1,0.3L19.1,36v0.1l0,0l0.1-0.1l0.7-1.7c0.1-0.2,0.2-0.2,0.2-0.2
	S19.9,35.6,19.8,36L19.8,36z M20.6,32.3c-0.1,0.8-0.6,1.5-1.3,1.9c-0.4-0.7-0.5-1.5-0.3-2.3c0.1-0.4,0.5-1.5,0.8-1.6
	c0.1,0,0.2,0,0.2,0.3l-0.3,1.5c0,0.1,0,0.1,0,0.2c0,0.1,0.1-0.1,0.1-0.1l0.4-1.4c0.1-0.3,0.2-0.3,0.3-0.2
	C20.8,30.8,20.7,32,20.6,32.3z M21.2,34.4c-0.5-0.1-0.6-1.1-0.4-2c0.1-0.4,0.4-1.3,0.8-1.4c0.1,0,0.2,0,0.2,0.3l-0.3,1.5
	c0,0.1,0,0.1,0,0.2l0,0c0.1,0,0.1-0.1,0.1-0.1l0.4-1.4c0.1-0.3,0.2-0.3,0.3-0.2c0.3,0.2,0.2,1.2,0.1,1.5
	C22.2,33.7,21.7,34.5,21.2,34.4L21.2,34.4z M24.1,33.4c-0.2,0.8-0.6,1.8-1.1,1.7s-0.6-1.2-0.5-2c0.1-0.4,0.3-1.3,0.7-1.4
	c0.1,0,0.2,0,0.2,0.3l-0.2,1.4c0,0.1,0,0.1,0,0.1l0.1-0.1l0.3-1.3c0.1-0.3,0.2-0.3,0.3-0.2C24.2,32.1,24.2,33,24.1,33.4L24.1,33.4z
	 M24.2,30c0-0.2,0.2-0.9,0.5-1c0.1,0,0.2,0,0.2,0.3v0.9c0,0.1,0,0.2,0,0.2l0.1-0.1l0.2-0.9c0-0.3,0.1-0.3,0.2-0.3
	c0.3,0.2,0.3,0.9,0.3,1.1c-0.1,0.6-0.4,1.2-0.9,1.5l0,0C24.4,31.3,24.2,30.6,24.2,30z M25.9,33.7c-0.1,0.8-0.4,1.7-0.9,1.7
	s-0.7-1-0.6-1.8c0-0.3,0.2-1.2,0.5-1.3c0.1,0,0.2,0,0.2,0.2L25,33.9c0,0.1,0,0.1,0.1,0.1l0,0c0.1,0,0.1-0.1,0.1-0.1l0.2-1.3
	c0-0.2,0.1-0.3,0.3-0.2C25.9,32.5,25.9,33.3,25.9,33.7L25.9,33.7z M26,30.1c0.1-0.5,0.5-0.8,0.9-1c-0.4,1-0.3,2.2,0.3,3.1
	c-0.4-0.1-0.7-0.3-1-0.6C25.9,31.2,25.8,30.6,26,30.1L26,30.1z M27.2,35.6c-0.3,0-0.7-0.6-0.8-1.5s0.1-1.6,0.5-1.6s0.4,0.2,0.5,0.5
	c0,0.4,0,0.7,0,1.1c0,0.3,0.1,0.6,0.2,0.9C27.4,35.4,27.3,35.6,27.2,35.6L27.2,35.6z M27,30.3c0-0.3,0.2-1.1,0.5-1.3
	c0.2-0.1,0.3,0,0.3,0.4l0.1,0.6c0,0.1,0,0.2,0.1,0.2s0.1-0.1,0.1-0.2l0.1-0.7c0-0.4,0.2-0.4,0.3-0.3c0.4,0.2,0.5,1.1,0.5,1.4
	c0,0.8-0.4,1.5-1,2C27.3,31.8,27,31.1,27,30.3L27,30.3z M27.7,34.2c0-0.3-0.1-1.3,0.3-1.6c0.2-0.1,0.3-0.1,0.4,0.4l0.2,1
	c0,0.1,0,0.2,0.1,0.2l0,0c0.1,0,0.1-0.1,0.1-0.2v-0.7c0-0.4,0.1-0.5,0.3-0.5c0.5,0.2,0.6,1,0.6,1.3c0.1,0.8-0.2,1.7-0.8,2.3
	C28.2,35.9,27.7,35.1,27.7,34.2L27.7,34.2z M27.5,37.3c0-0.2,0.1-0.7,0.4-0.8c0.1,0,0.2,0,0.2,0.2v0.8v0.1c0,0,0.1,0,0.1-0.1
	l0.1-0.8c0-0.1,0.1-0.2,0.2-0.1c0.3,0.1,0.3,0.7,0.3,0.8c0,0.5-0.3,1-0.7,1S27.5,37.9,27.5,37.3z M26.2,37.6c0-0.2,0.1-0.6,0.3-0.6
	s0.2,0,0.2,0.1v0.6v0.1c0,0,0,0,0-0.1l0.1-0.6c0-0.1,0.1-0.1,0.2-0.1s0.2,0.5,0.2,0.7c0,0.4-0.3,0.8-0.6,0.8S26.2,38,26.2,37.6
	L26.2,37.6z M25.2,38.8c0-0.2,0.1-0.6,0.3-0.7s0.2,0,0.2,0.1v0.6v0.1c0,0,0,0,0.1-0.1l0.1-0.6c0-0.1,0.1-0.1,0.2-0.1
	s0.3,0.6,0.2,0.7c0,0.4-0.3,0.9-0.6,0.8S25.2,39.3,25.2,38.8L25.2,38.8z M25.7,42.6c-0.4,0.2-0.4-0.2-0.3-0.4s0.6-0.2,1,0.2
	C26.2,42.5,26,42.5,25.7,42.6L25.7,42.6z M26.6,40.9c0,0.5-0.3,1.1-0.8,1s-0.7-0.7-0.6-1.1c0-0.2,0.2-0.8,0.4-0.8
	c0.1,0,0.2,0,0.2,0.2V41c0,0,0,0.1,0.1,0.1s0-0.1,0-0.1l0.1-0.8c0-0.2,0.1-0.2,0.2-0.1C26.6,40.2,26.6,40.8,26.6,40.9L26.6,40.9z
	 M26.6,39.3c0-0.2,0.2-0.8,0.5-0.8c0.1,0,0.2,0,0.2,0.2v0.8c0,0,0,0.1,0.1,0.1s0.1,0,0.1-0.1l0.2-0.8c0-0.2,0.1-0.2,0.3-0.1
	c0.3,0.1,0.3,0.8,0.3,1c-0.1,0.5-0.4,1.1-0.9,1S26.5,39.9,26.6,39.3L26.6,39.3z M27.8,41.8c-0.1,0.4-0.4,0.9-0.7,0.8
	s-0.4-0.6-0.3-1.1c0-0.2,0.2-0.6,0.4-0.7s0.2,0,0.1,0.2l-0.1,0.7v0.1l0,0c0,0,0,0,0.1-0.1l0.2-0.7c0-0.1,0.1-0.1,0.2-0.1
	S27.8,41.6,27.8,41.8L27.8,41.8z M28.6,41.7c-0.4,0-0.7-0.5-0.7-0.9c0-0.2,0.1-0.7,0.3-0.7c0.1,0,0.2,0,0.2,0.1l0.1,0.7
	c0,0,0,0.1,0.1,0.1s0,0,0.1-0.1l0.1-0.7c0-0.1,0.1-0.2,0.2-0.1c0.3,0.1,0.3,0.6,0.3,0.7C29.2,41.2,29,41.7,28.6,41.7L28.6,41.7z
	 M28.9,39.8c-0.4,0-0.5-0.5-0.5-0.8c0-0.2,0.1-0.6,0.3-0.6s0.2,0,0.2,0.1v0.6v0.1c0,0,0,0,0.1-0.1l0.1-0.6c0-0.1,0.1-0.1,0.2-0.1
	s0.3,0.5,0.2,0.7C29.5,39.4,29.2,39.9,28.9,39.8L28.9,39.8z M30.6,40.3c0,0.4-0.3,0.9-0.6,0.9s-0.5-0.6-0.5-1c0-0.2,0.1-0.6,0.3-0.7
	s0.2,0,0.2,0.1v0.8v0.1c0,0,0,0,0.1-0.1l0.1-0.7c0-0.1,0.1-0.1,0.2-0.1S30.6,40.2,30.6,40.3L30.6,40.3z M29.5,38.2
	c-0.2-0.3-0.5-1.1-0.3-1.5c0.1-0.2,0.2-0.2,0.4,0.2l0.7,1.1c0,0.1,0.1,0.2,0.2,0.1s0-0.1,0-0.2l-0.6-1.1c-0.2-0.4-0.1-0.5,0-0.5
	c0.4,0,1,0.8,1.1,1c0.4,0.7,0.5,1.6,0.3,2.4C30.6,39.4,30,38.9,29.5,38.2L29.5,38.2z M29.1,53.9c-0.2,0.8-1,1.3-1.7,1.1
	c-0.2,0-0.3-0.1-0.5-0.2c-0.7-0.4-1-1.2-0.7-1.9c1-2.6,4.1-9.8,4.4-10.7l0,0C30.7,42,30.9,42,31,42c0.1,0.1,0.2,0.2,0.1,0.3
	c-0.6,2.1-3,9-3.2,9.5c0,0.1-0.1,0.2-0.1,0.2c0,0.1,0,0.2,0.1,0.3c0.1,0,0.1-0.1,0.2-0.2c0-0.1,0.1-0.2,0.1-0.3c0.5-1.6,2.6-8,3-9.2
	c0.1-0.1,0.2-0.2,0.3-0.1c0.1,0,0.2,0.2,0.2,0.3C31.4,44.7,29.5,52.3,29.1,53.9L29.1,53.9z M32.6,55.5c-0.1,0.9-1,1.4-1.8,1.3
	c-0.9-0.1-1.4-1-1.3-1.8c0.5-2.7,2.4-10.9,2.6-11.8l0,0c0-0.2,0.2-0.3,0.3-0.2c0.2,0,0.3,0.2,0.2,0.3c-0.3,2.3-1.5,9.9-1.5,10.5
	c0,0.1,0,0.2,0,0.2c0,0.1,0.1,0.2,0.1,0.2c0.1-0.1,0.2-0.1,0.2-0.2c0-0.1,0.1-0.2,0-0.3c0.2-1.7,1.3-8.8,1.4-10.2
	c0-0.2,0.1-0.3,0.3-0.3c0.2,0,0.3,0.1,0.3,0.3C33.2,45.5,32.7,53.9,32.6,55.5L32.6,55.5z M34.5,57.7c-0.8,0.1-1.5-0.5-1.6-1.3
	c0-0.1,0-0.2,0-0.3c0,0,0,0,0-0.1s0-0.1,0-0.1s0,0,0-0.1c0.1-2.1,0.6-10,0.7-12.3c0-0.2,0.2-0.3,0.3-0.3l0,0c0.2,0,0.3,0.2,0.3,0.3
	l0,0c0,2.9,0,10.3,0,10.9c0,0.1,0,0.2,0,0.2c0,0.1,0.1,0.1,0.2,0.2c0.1-0.1,0.1-0.1,0.2-0.2c0-0.1,0-0.2,0-0.2c0-0.5,0-8,0-10.9
	c0-0.2,0.2-0.3,0.3-0.3l0,0c0.2,0,0.3,0.1,0.3,0.3C35.4,46,35.9,53.9,36,56v0.1v0.1c0,0,0,0,0,0.1c0.1,0.8-0.5,1.5-1.3,1.5
	C34.6,57.8,34.6,57.8,34.5,57.7L34.5,57.7z M38.5,56.7c-0.7,0.3-1.6,0-2-0.7c-0.1-0.2-0.1-0.3-0.1-0.5c-0.1-1.6-0.7-10-0.8-12
	c0-0.2,0.1-0.3,0.3-0.3s0.3,0.1,0.3,0.3c0.2,1.3,1.2,8.5,1.4,10.2c0,0.1,0,0.2,0.1,0.3c0,0.1,0.1,0.1,0.2,0.2C38,54.1,38,54.1,38,54
	c0-0.1,0-0.2,0-0.2c-0.1-0.5-1.3-8.2-1.6-10.5c0-0.2,0.1-0.3,0.2-0.3s0.3,0.1,0.3,0.2l0,0c0.2,1,2.1,9.1,2.6,11.8
	C39.7,55.7,39.3,56.5,38.5,56.7L38.5,56.7z M38.3,42.2L38.3,42.2c0.3,0.9,3.5,8.1,4.4,10.7c0.3,0.7,0,1.6-0.7,1.9
	c-0.7,0.4-1.6,0.3-2-0.4c-0.1-0.1-0.2-0.3-0.2-0.5c-0.4-1.6-2.2-9.3-2.7-11.1c0-0.1,0.1-0.3,0.2-0.3c0.1,0,0.2,0.1,0.3,0.2
	c0.4,1.2,2.5,7.6,3,9.2c0,0.1,0.1,0.2,0.1,0.3c0.1,0.1,0.1,0.1,0.2,0.2c0-0.1,0.1-0.2,0.1-0.3s0-0.2-0.1-0.2
	c-0.2-0.5-2.5-7.4-3.2-9.5c0-0.1,0-0.3,0.2-0.3C38.1,42,38.3,42.1,38.3,42.2L38.3,42.2z M37.5,39.7c-0.2-0.8-0.1-1.6,0.3-2.4
	c0.2-0.3,0.7-1,1.1-1c0.2,0,0.2,0.1,0,0.5l-0.6,1.1c0,0.1-0.1,0.2,0,0.2s0.1-0.1,0.2-0.1l0.7-1.1c0.2-0.3,0.3-0.3,0.4-0.2
	c0.2,0.4-0.2,1.2-0.3,1.5C39,38.9,38.3,39.4,37.5,39.7L37.5,39.7z M39,41.2c-0.4,0-0.6-0.4-0.6-0.9c0-0.2,0-0.7,0.2-0.7
	s0.2,0,0.2,0.1l0.1,0.7c0,0,0,0.1,0.1,0.1s0,0,0-0.1v-0.7c0-0.1,0.1-0.2,0.2-0.1s0.3,0.5,0.3,0.7C39.5,40.6,39.3,41.2,39,41.2
	L39,41.2z M39.4,39.1c0-0.1,0-0.6,0.3-0.7s0.2,0,0.2,0.1l0.1,0.6c0,0,0,0.1,0.1,0.1s0,0,0-0.1v-0.6c0-0.1,0.1-0.1,0.2-0.1
	s0.3,0.4,0.3,0.6c0,0.4-0.2,0.8-0.5,0.8S39.5,39.4,39.4,39.1L39.4,39.1z M40.3,41.7c-0.4,0-0.7-0.5-0.7-0.9c0-0.2,0.1-0.7,0.3-0.7
	c0.1,0,0.2,0,0.2,0.1l0.1,0.7c0,0,0,0.1,0.1,0.1s0.1,0,0.1-0.1l0.1-0.7c0-0.1,0.1-0.2,0.2-0.1c0.3,0.1,0.3,0.5,0.3,0.7
	C41,41.2,40.8,41.7,40.3,41.7L40.3,41.7z M41.9,42.6c-0.3,0.1-0.6-0.4-0.7-0.8c0-0.2-0.1-0.7,0.1-0.8s0.1,0,0.2,0.1l0.2,0.7
	c0,0,0,0.1,0.1,0.1l0,0c0,0,0,0,0-0.1L41.6,41c0-0.1,0-0.2,0.1-0.2s0.4,0.5,0.4,0.7C42.4,41.9,42.2,42.5,41.9,42.6L41.9,42.6z
	 M43.2,42.6c-0.2-0.1-0.4-0.1-0.7-0.1c0.4-0.4,0.9-0.4,1-0.2S43.6,42.8,43.2,42.6L43.2,42.6z M43.2,42c-0.4,0-0.7-0.5-0.8-1
	c0-0.2,0-0.8,0.3-0.9c0.1,0,0.2,0,0.2,0.1L43,41c0,0,0,0.1,0.1,0.1s0.1-0.1,0.1-0.1v-0.8c0-0.2,0.1-0.2,0.2-0.2
	c0.3,0.1,0.4,0.6,0.4,0.8C43.8,41.3,43.6,42,43.2,42L43.2,42z M43.1,38.3l0.1,0.6c0,0,0,0.1,0.1,0.1s0,0,0-0.1v-0.6
	c0-0.1,0.1-0.2,0.2-0.1s0.3,0.5,0.3,0.7c0,0.4-0.2,0.9-0.5,0.9s-0.6-0.4-0.6-0.8c0-0.2,0-0.6,0.2-0.7S43,38.2,43.1,38.3z M42,37
	c0.1,0,0.2,0,0.2,0.1l0.1,0.6c0,0,0,0.1,0.1,0.1s0,0,0-0.1v-0.6c0-0.1,0.1-0.1,0.2-0.1s0.3,0.4,0.3,0.6c0,0.4-0.1,0.8-0.5,0.8
	s-0.6-0.4-0.6-0.8C41.7,37.5,41.7,37.1,42,37z M41.7,39.6C41.8,39.6,41.8,39.6,41.7,39.6l0.1-0.9c0-0.2,0.1-0.2,0.2-0.2
	c0.3,0,0.5,0.6,0.5,0.8c0.1,0.5-0.1,1.2-0.6,1.3s-0.8-0.5-0.9-1c0-0.2,0-0.8,0.3-1c0.1-0.1,0.2,0,0.2,0.1L41.7,39.6
	C41.7,39.5,41.7,39.6,41.7,39.6L41.7,39.6z M40.8,37.5C40.8,37.5,40.8,37.6,40.8,37.5L40.8,37.5C40.9,37.6,40.9,37.6,40.8,37.5
	l0.1-0.8c0-0.2,0.1-0.2,0.2-0.2c0.3,0.1,0.4,0.6,0.4,0.8c0,0.5-0.2,1.1-0.6,1.1s-0.7-0.5-0.7-1c0-0.2,0-0.8,0.3-0.8
	c0.1,0,0.2,0,0.2,0.1L40.8,37.5z M41.4,34.2c-0.1,0.9-0.6,1.7-1.4,2.2c-0.6-0.6-0.9-1.4-0.8-2.3c0-0.3,0.1-1.2,0.6-1.3
	c0.2-0.1,0.3,0,0.3,0.5V34c0,0.1,0,0.2,0.1,0.2s0.1-0.1,0.1-0.2l0.2-1c0.1-0.4,0.2-0.5,0.4-0.4C41.4,32.9,41.4,33.9,41.4,34.2
	L41.4,34.2z M41.1,32.3c-0.6-0.5-1-1.2-1.1-2c0-0.3,0.1-1.1,0.5-1.4c0.2-0.1,0.3,0,0.3,0.3l0.1,0.8c0,0.1,0,0.2,0.1,0.2
	s0.1-0.1,0.1-0.2l0.1-0.7c0-0.4,0.1-0.5,0.3-0.4c0.4,0.2,0.5,1.1,0.6,1.3C42,31.1,41.7,31.8,41.1,32.3z M42.6,34.2
	c-0.1,0.8-0.4,1.5-0.8,1.5c-0.2,0-0.3-0.2-0.4-0.5c0.1-0.3,0.2-0.6,0.2-0.9c0-0.4,0-0.7,0-1.1c0.1-0.3,0.3-0.5,0.5-0.5
	S42.7,33.3,42.6,34.2z M42.7,31.6c-0.3,0.3-0.6,0.5-1,0.6c0.6-0.9,0.8-2.1,0.3-3.1c0.5,0.1,0.8,0.5,0.9,1
	C43.1,30.6,43,31.2,42.7,31.6L42.7,31.6z M44,35.3c-0.5,0-0.8-0.9-0.9-1.7c0-0.3,0-1.1,0.3-1.3c0.1-0.1,0.2,0,0.3,0.2l0.2,1.3
	c0,0.1,0,0.1,0.1,0.1l0,0c0.1,0,0.1-0.1,0.1-0.1l-0.2-1.4c0-0.3,0.1-0.3,0.2-0.3c0.3,0.1,0.5,1,0.5,1.3C44.7,34.3,44.5,35.3,44,35.3
	z M44.2,31.8L44.2,31.8c-0.5-0.4-0.8-0.9-0.9-1.5c0-0.2,0-0.9,0.3-1.1c0.1-0.1,0.2,0,0.2,0.3l0.2,0.9c0,0.1,0,0.2,0.1,0.1
	s0-0.1,0-0.2v-0.9c0-0.3,0.1-0.4,0.2-0.3c0.3,0.1,0.5,0.8,0.5,1C44.8,30.6,44.6,31.3,44.2,31.8z M46,35c-0.5,0.1-0.9-0.8-1.1-1.7
	C44.8,33,44.8,32,45,31.8c0.1-0.1,0.2,0,0.3,0.2l0.3,1.3c0,0.1,0,0.1,0.1,0.1s0-0.1,0-0.1L45.5,32c0-0.3,0.1-0.3,0.2-0.3
	c0.3,0.1,0.6,1,0.7,1.4C46.6,33.9,46.5,34.9,46,35L46,35z M47.8,34.4c-0.5,0.1-1-0.7-1.2-1.6c-0.1-0.3-0.2-1.3,0.1-1.5
	c0.1-0.1,0.2-0.1,0.3,0.2l0.4,1.4c0,0.1,0,0.1,0.1,0.1l0,0c0.1,0,0-0.1,0-0.2l-0.3-1.5c0-0.3,0-0.3,0.2-0.3c0.4,0.1,0.7,1,0.8,1.4
	C48.4,33.3,48.2,34.3,47.8,34.4L47.8,34.4z M48.4,32.3c-0.1-0.4-0.3-1.5,0-1.7c0.1-0.1,0.2-0.1,0.3,0.2l0.4,1.4c0,0.1,0,0.1,0.1,0.1
	s0-0.1,0-0.2l-0.3-1.4c0-0.3,0-0.4,0.2-0.3c0.4,0.1,0.7,1.2,0.8,1.6c0.2,0.8,0.1,1.6-0.3,2.3C49,33.8,48.5,33.1,48.4,32.3z M49.2,36
	c-0.2-0.4-0.6-1.7-0.4-1.9S49,34,49,34.3l0.7,1.7c0,0,0,0.1,0.1,0.1s0-0.1,0-0.1l-0.3-1.1c-0.1-0.2,0-0.3,0.1-0.3s0.5,0.8,0.6,1.1
	C51.2,38.2,50.2,38.1,49.2,36z M51.9,38.3c-0.7-0.7-1.1-1.6-1.2-2.5c-0.2-0.8-0.3-1.6-0.2-2.4c0.1-0.1,0.2-0.1,0.3,0.3l0.5,2
	c0,0.1,0,0.2,0.1,0.2s0-0.1,0-0.2l-0.1-1.3c-0.1-0.3,0-0.4,0.1-0.3c0.3,0.1,0.6,1.1,0.7,1.6C52.3,36.4,52.2,37.4,51.9,38.3z
	 M52.3,32.9c0.1-0.1,0.2-0.1,0.3,0.3l0.4,2c0,0.1,0,0.2,0.1,0.2l0,0c0.1,0,0-0.1,0-0.2l-0.3-2c0-0.4,0-0.5,0.2-0.4
	c0.4,0.2,0.7,1.6,0.8,2.1c0.2,1.1,0.1,2.2-0.3,3.3c-0.7-0.8-1.2-1.9-1.3-3C52.2,34.7,52.1,33.2,52.3,32.9L52.3,32.9z M52.6,40.2
	c-0.1-0.3-0.3-1.3-0.1-1.3c0.1,0,0.2,0.1,0.3,0.3l0.5,1.7c0,0.1,0.1,0.1,0.1,0.1l0,0v-0.1l-0.5-1.8c-0.1-0.3,0.1-0.4,0.2-0.3
	c0.3,0.1,0.5,1.2,0.6,1.6c0.1,0.8,0.5,1.6,1.1,2.3C54.9,42.6,53.2,42.6,52.6,40.2L52.6,40.2z M54,40.1c-0.1-0.5-0.4-1.7-0.1-1.8
	c0.1,0,0.2,0.1,0.3,0.5l0.7,2.2c0,0.1,0.1,0.2,0.1,0.1l0,0c0.1,0,0.1-0.1,0-0.2l-0.5-2.3c-0.1-0.4,0.1-0.5,0.2-0.4
	c0.3,0.1,0.7,1.7,0.8,2.2c0.2,1.2,0.7,2.4,1.4,3.3C57,43.7,54.9,43.6,54,40.1z M55.8,40c-0.1-0.6-0.1-2.2,0.3-2.3
	c0.2,0,0.3,0,0.3,0.6l0.3,2.7c0,0.1,0.1,0.2,0.2,0.2l0,0c0.1,0,0.1-0.1,0.1-0.2l-0.1-2.9c0-0.5,0.2-0.6,0.3-0.5
	c0.4,0.2,0.4,2.2,0.5,2.9c0.1,1.5,0.5,2.9,1.3,4.1C59,44.6,56.6,44.5,55.8,40L55.8,40z M57.9,39.1c0-0.7,0-2.3,0.5-2.4
	c0.2,0,0.3,0.2,0.3,0.8l0.1,3.3C58.9,41,58.9,41,59,41l0,0c0.1,0,0.1-0.1,0.1-0.2V38c0-0.5,0.1-0.6,0.3-0.5c0.4,0.3,0.5,2.4,0.5,3.2
	c-0.1,1.6-0.2,3.3,0.5,4.4C60.4,45.1,58.1,44.7,57.9,39.1L57.9,39.1z"/>
</svg>
