<?xml version="1.0" encoding="utf-8"?>
<!-- Generator: Adobe Illustrator 25.3.1, SVG Export Plug-In . SVG Version: 6.00 Build 0)  -->
<svg version="1.1" id="Layer_1" xmlns="http://www.w3.org/2000/svg" xmlns:xlink="http://www.w3.org/1999/xlink" x="0px" y="0px"
	 viewBox="0 0 400 400" style="enable-background:new 0 0 400 400;" xml:space="preserve">
<style type="text/css">
	.st0{fill:#0170BA;}
	.st1{fill:#29A9DF;}
	.st2{fill:#CFCFCF;}
	.st3{fill:#FFFFFF;}
</style>
<g id="_x23_0170baff">
	<path class="st0" d="M28.9,6.2c113.9,0,227.8,0,341.8,0c-6.3,70.8-12.4,141.7-19,212.5c-3.9,45.3-7.9,90.5-12.1,135.8
		c-24.3,6.4-48.4,13.8-72.7,20.2c-22.3,6.6-44.8,12.5-67.1,19h-0.7c-21.2-6.3-42.7-11.9-64-18.2c-25.1-6.8-49.9-14.3-75-21
		c-3.3-33.9-6.2-67.8-9.1-101.8c-5.5-62.7-11.5-125.3-16.7-188c-1.8-18.9-3.1-37.8-5.3-56.6V6.2 M200.3,34.2
		c-0.2,13.6,0.2,27.2-0.2,40.8c-39.1-0.1-78.2,0-117.2,0c0.7,13.2,2.4,26.3,4.3,39.4c36.4,1.4,72.8,0,109.1,1
		c-31.8,14.3-64,27.7-96,41.7c-2.7,1.2-5.7,2.1-8.1,3.9c0.3,14.5,2.6,28.9,3.6,43.4c19.4-0.1,38.7-0.4,58.1-0.4
		c15.5-0.1,31.1,0.2,46.6-0.1c-0.7,23.9,0.2,47.8-0.5,71.6c-10.5-1.5-20.8-3.9-31.2-5.7c-8.2-1.8-16.6-2.7-24.7-5.1
		c-1.1-11.5-1.9-22.9-3-34.4c-2.3-0.7-4.8-0.6-7.2-0.7c-11.7,0.1-23.5,0-35.2,0.1c1.2,22,3.1,44,6.5,65.9c11.6,3,23.2,6,34.7,9.1
		c17.7,4.8,35.6,8.8,53.4,13.6c2.1,0.4,4.2,1.2,6.4,1c1.2,14.5,0.3,29.1,0.5,43.6c4.1-0.7,8.1-1.7,12.1-2.9
		c33.6-9.1,67.1-18.4,100.7-27.6c1.7-13.2,2.4-26.5,3.8-39.7c3.5-40.2,7-80.4,10.7-120.7c4.3-46,8-92,12.3-138
		C293.3,34.2,246.8,34,200.3,34.2z"/>
</g>
<g id="_x23_29a9dfff">
	<path class="st1" d="M200.3,34.2c46.5-0.2,92.9,0,139.4-0.1c-4.3,46-8,92-12.3,138c-3.7,40.2-7.2,80.4-10.7,120.7
		c-1.3,13.2-2.1,26.5-3.8,39.7c-33.6,9.2-67.1,18.5-100.7,27.6c-3.9,1.2-8,2.2-12.1,2.9c-0.2-14.5,0.7-29.1-0.5-43.6
		c0.3-0.1,0.9-0.2,1.2-0.2c31.2-7.8,62.3-16.5,93.4-24.6c3.9-44.2,8.3-88.4,11.1-132.7c-26.5,0.1-53,0.1-79.5,0.2
		c-3.9,0-7.7,0-11.6-0.3c14.3-7.3,29.3-13.2,43.9-19.7c14.1-6.4,28.3-12.3,42.4-18.6c2.7-1.2,5.6-2.3,8-4.2
		c0.9-3.4,0.9-7.1,1.3-10.6c0.8-11.2,2.2-22.3,2.8-33.6c-37.5-0.3-75.1,0-112.6-0.2C200.5,61.4,200.1,47.8,200.3,34.2z"/>
	<path class="st1" d="M200.5,204c18.1-0.3,36.2,0.2,54.4,0.1c-1,18.5-2.6,37-3.5,55.6c-11.1,3.6-22.4,6.7-33.6,10.1
		c-6,1.8-12.1,3.3-17.8,5.9C200.8,251.7,199.8,227.9,200.5,204z"/>
</g>
<g id="_x23_cfcfcfff">
	<path class="st2" d="M82.9,75c39.1,0,78.2-0.1,117.2,0c0.5,43-0.1,86,0.4,129c-15.5,0.3-31.1,0-46.6,0.1c-19.4,0-38.8,0.3-58.1,0.4
		c-1-14.5-3.4-28.9-3.6-43.4c2.5-1.8,5.4-2.7,8.1-3.9c32-14,64.2-27.4,96-41.7c-36.4-1.1-72.8,0.3-109.1-1
		C85.3,101.4,83.5,88.2,82.9,75z"/>
	<path class="st2" d="M98.7,229.9c11.8-0.2,23.5-0.1,35.2-0.1c2.4,0,4.9,0,7.2,0.7c1,11.5,1.8,22.9,3,34.4
		c8.1,2.4,16.5,3.3,24.7,5.1c10.4,1.9,20.7,4.2,31.2,5.7c1,14.5-0.8,29.1,0.9,43.6c-0.3,0.1-0.9,0.2-1.2,0.2c-2.2,0.2-4.3-0.6-6.4-1
		c-17.7-4.7-35.7-8.8-53.4-13.6c-11.6-3.1-23.2-6.1-34.7-9.1C101.8,273.9,99.8,251.9,98.7,229.9z"/>
</g>
<g id="_x23_ffffffff">
	<path class="st3" d="M200.1,75c37.5,0.2,75.1-0.1,112.6,0.2c-0.5,11.2-2,22.4-2.8,33.6c-0.4,3.5-0.3,7.1-1.3,10.6
		c-2.4,1.9-5.3,2.9-8,4.2c-14.1,6.2-28.3,12.2-42.4,18.6c-14.6,6.6-29.6,12.4-43.9,19.7c3.8,0.3,7.7,0.3,11.6,0.3
		c26.5-0.1,53,0,79.5-0.2c-2.8,44.3-7.1,88.5-11.1,132.7c-31.2,8.1-62.2,16.8-93.4,24.6c-1.7-14.5,0.1-29.1-0.9-43.6
		c5.7-2.7,11.8-4.1,17.8-5.9c11.2-3.4,22.5-6.4,33.6-10.1c1-18.5,2.5-37,3.5-55.6c-18.1,0.1-36.3-0.4-54.4-0.1
		C200,161,200.6,118,200.1,75z"/>
</g>
</svg>
