<svg xmlns="http://www.w3.org/2000/svg" viewBox="0 0 66 66"><defs><style>.cls-1{fill:#0094e4;}</style></defs><g id="Layer_2" data-name="Layer 2"><g id="Layer_1-2" data-name="Layer 1"><path class="cls-1" d="M41.54,45.08c2.57-2.85,5.39-5.42,7.54-8.46,6-8.44,2.66-20.31-6-25.61-12.31-7.56-25.87,1-28,13.17-1,5.77.9,11,4.78,15.44q8.34,9.59,16.66,19.19c1.42,1.65,2.34,3.63.9,5.54A5,5,0,0,1,34,65.88a4.41,4.41,0,0,1-2.87-1.61c-6.3-7.36-12.62-14.7-18.7-22.23A20.82,20.82,0,0,1,8,29.82c-.36-6.46.48-12.57,4.38-18A25.63,25.63,0,0,1,38,1.42c11.62,2.1,18.6,9.19,20.73,20.35,1.59,8.34.24,16.64-6.32,23.06-3.36,3.28-6.91,6.38-10.49,9.43a2.44,2.44,0,0,1-2.37-.1c-3.75-4.14-7.37-8.41-11-12.64C27,39.78,25.56,38,24,36.28c-3.78-4.19-4.39-9.1-2.75-14.2a11.37,11.37,0,0,1,9.47-8c11.56-1.7,18,7.49,15,17.36a8.77,8.77,0,0,1-1.52,3c-1.79,2.19-3.81,2.65-5.5,1.44-1.42-1-1.67-3.44-.66-5.65.68-1.5,1.84-2.72,1-4.77-1-2.58-2.86-4.12-5.33-4.35a5.46,5.46,0,0,0-5.36,3.17,4.85,4.85,0,0,0,.54,6c2.5,2.93,5,5.9,7.45,8.84C38,41,39.64,42.88,41.54,45.08Z"/></g></g></svg>