<?xml version="1.0" encoding="utf-8"?>
<!-- Generator: Adobe Illustrator 25.3.1, SVG Export Plug-In . SVG Version: 6.00 Build 0)  -->
<svg version="1.1"
	 id="Layer_1" xmlns:cc="http://creativecommons.org/ns#" xmlns:dc="http://purl.org/dc/elements/1.1/" xmlns:inkscape="http://www.inkscape.org/namespaces/inkscape" xmlns:rdf="http://www.w3.org/1999/02/22-rdf-syntax-ns#" xmlns:sodipodi="http://sodipodi.sourceforge.net/DTD/sodipodi-0.dtd"
	 xmlns="http://www.w3.org/2000/svg" xmlns:xlink="http://www.w3.org/1999/xlink" x="0px" y="0px" viewBox="0 0 200 200"
	 style="enable-background:new 0 0 200 200;" xml:space="preserve">
<style type="text/css">
	.st0{fill-rule:evenodd;clip-rule:evenodd;fill:#002B64;}
	.st1{fill:#C49A6C;}
	.st2{fill-rule:evenodd;clip-rule:evenodd;fill:#C49A6C;}
	.st3{fill:#002B64;}
</style>
<sodipodi:namedview  bordercolor="#666666" borderopacity="1.0" id="cvfa" inkscape:current-layer="layer1" inkscape:cx="15.59889" inkscape:cy="60.421491" inkscape:document-rotation="0" inkscape:document-units="px" inkscape:pageopacity="0.0" inkscape:pageshadow="2" inkscape:window-height="1014" inkscape:window-maximized="1" inkscape:window-width="1920" inkscape:window-x="0" inkscape:window-y="36" inkscape:zoom="1" pagecolor="#ffffff" showgrid="false">
	</sodipodi:namedview>
<g transform="translate(-108 -473)" inkscape:groupmode="layer" inkscape:label="Layer 1">
	<g transform="translate(-145 181)" inkscape:label="Layer 1">
		
			<g inkscape:export-filename="/mnt/files/documents/monty-program-ab/logos-dbart/MariaDB-seal-flat.png" inkscape:export-xdpi="90" inkscape:export-ydpi="90">
			
				<path inkscape:export-filename="/mnt/files/documents/monty-program-ab/logos/seal-flat.png" inkscape:export-xdpi="90" inkscape:export-ydpi="90" sodipodi:nodetypes="czssccsccssccccsccsssssz" class="st0" d="
				M438.9,332.5c-2.8,0.1-1.9,0.9-7.9,2.4c-6.1,1.5-13.5,1-20,3.8c-19.5,8.2-23.4,36.1-41.1,46.1c-13.2,7.5-26.6,8.1-38.6,11.8
				c-7.9,2.5-16.5,7.5-23.7,13.7c-5.5,4.8-5.7,9-11.5,15c-6.2,6.4-24.7,0.1-33,9.9c2.7,2.7,3.9,3.5,9.2,2.8
				c-1.1,2.1-7.6,3.8-6.3,6.9c1.3,3.2,17,5.4,31.2-3.2c6.6-4,11.9-9.8,22.2-11.2c13.4-1.8,28.8,1.1,44.2,3.4
				c-2.3,6.8-6.9,11.4-10.6,16.8c-1.1,1.2,2.3,1.4,6.2,0.6c7.1-1.7,12.1-3.1,17.5-6.2c6.5-3.8,7.5-13.6,15.6-15.7
				c4.5,6.9,16.6,8.5,24.2,3c-6.6-1.9-8.5-16-6.2-22.2c2.1-5.9,4.2-15.3,6.3-23.1c2.3-8.4,3.1-18.9,5.9-23.1
				c4.2-6.4,8.8-8.6,12.8-12.2c4-3.6,7.7-7.1,7.5-15.4c0-2.7-1.4-4.1-3.9-4.1L438.9,332.5z"/>
			
				<path inkscape:export-filename="/mnt/files/documents/monty-program-ab/logos/seal-flat.png" inkscape:export-xdpi="90" inkscape:export-ydpi="90" class="st1" d="
				M268.9,444.5c10.1,1.5,16.3,0,24.5-3.5c6.9-3,13.6-9.2,21.8-11.8c12-3.9,25.2,0,38.1,0.8c3.1,0.2,6.2,0.2,9.3-0.1
				c4.8-2.9,4.7-13.9,9.4-15c-0.1,15.4-6.5,24.7-13.1,33.6c14-2.5,22.3-10.5,27.9-21.3c1.7-3.3,3.2-6.8,4.5-10.5
				c2,1.5,0.9,6.2,1.9,8.7c9.6-5.4,15.1-17.6,18.8-29.9c4.2-14.3,5.9-28.8,8.7-33c2.6-4.1,6.8-6.7,10.6-9.3c4.3-3,8.1-6.1,8.8-11.9
				c-4.5-0.4-5.6-1.5-6.2-3.7c-2.3,1.3-4.3,1.5-6.7,1.6c-2,0.1-4.3,0-7,0.3c-22.6,2.3-25.5,27.3-40,41.4c-1.1,1-2.2,2-3.4,2.9
				c-5.1,3.8-11.3,6.5-17,8.7c-9.3,3.5-18.1,3.8-26.8,6.9c-6.4,2.2-12.9,5.5-18.1,9.1c-1.3,0.9-2.5,1.8-3.7,2.8
				c-3.1,2.5-5.1,5.3-7.1,8.2c-2,3-4,6-6.9,8.9c-4.8,4.7-22.8,1.4-29.1,5.8c-0.7,0.5-1.3,1.1-1.6,1.8c3.5,1.6,5.8,0.6,9.7,1
				c0.5,3.8-8.2,6-6.9,7.7L268.9,444.5z"/>
			
				<path inkscape:export-filename="/mnt/files/documents/monty-program-ab/logos/seal-flat.png" inkscape:export-xdpi="90" inkscape:export-ydpi="90" class="st2" d="
				M405.9,416.5c0.3,4.3,2.8,12.9,5,15c-4.3,1.1-11.8-0.7-13.7-3.8C398.2,423.3,403.3,419.3,405.9,416.5L405.9,416.5z"/>
			
				<path inkscape:export-filename="/mnt/files/documents/monty-program-ab/logos/seal-flat.png" inkscape:export-xdpi="90" inkscape:export-ydpi="90" class="st0" d="
				M411.9,348.5c3.2,2.8,9.9,0.5,8.7-5C415.7,343.1,412.8,344.8,411.9,348.5z"/>
			
				<path inkscape:export-filename="/mnt/files/documents/monty-program-ab/logos/seal-flat.png" inkscape:export-xdpi="90" inkscape:export-ydpi="90" class="st3" d="
				M433.9,341.5c-0.9,1.8-2.5,4.1-2.5,8.6c0,0.8-0.6,1.3-0.6,0.1c0-4.5,1.2-6.4,2.5-8.9C433.9,340.3,434.2,340.7,433.9,341.5
				L433.9,341.5z"/>
			
				<path inkscape:export-filename="/mnt/files/documents/monty-program-ab/logos/seal-flat.png" inkscape:export-xdpi="90" inkscape:export-ydpi="90" class="st3" d="
				M433.9,341.5c-1,1.7-3.4,4.8-3.8,9.4c-0.1,0.8-0.7,1.3-0.6,0.1c0.4-4.4,2.4-7.2,3.8-9.6C434,340.3,434.3,340.8,433.9,341.5
				L433.9,341.5z"/>
			
				<path inkscape:export-filename="/mnt/files/documents/monty-program-ab/logos/seal-flat.png" inkscape:export-xdpi="90" inkscape:export-ydpi="90" class="st3" d="
				M432.9,340.5c-1.1,1.6-4.9,5.4-5.6,9.8c-0.1,0.8-0.8,1.2-0.6,0c0.8-4.4,4-7.8,5.7-10.1C433.1,339.3,433.4,339.8,432.9,340.5
				L432.9,340.5z"/>
			
				<path inkscape:export-filename="/mnt/files/documents/monty-program-ab/logos/seal-flat.png" inkscape:export-xdpi="90" inkscape:export-ydpi="90" class="st3" d="
				M431.9,339.5c-1.4,1.4-5.8,6.2-7.2,10.5c-0.2,0.7-1,1.1-0.6-0.1c1.4-4.2,5.3-8.8,7.3-10.8C432.3,338.3,432.5,338.8,431.9,339.5
				L431.9,339.5z"/>
		</g>
	</g>
</g>
</svg>
