<?xml version="1.0" encoding="UTF-8"?><svg id="Layer_2" xmlns="http://www.w3.org/2000/svg" viewBox="0 0 3002 3002"><defs><style>.cls-1{fill:#27b4e1;}.cls-2{fill:#9de1f3;}.cls-3{fill:#1a82e2;}.cls-4{fill:#239fd7;}</style></defs><g id="Layer_1-2"><g><path class="cls-2" d="M2,1002c3,.04,5.99,.11,8.99,.11,327.34,0,654.68,0,982.02,0,3,0,5.99-.07,8.99-.1,.54,.04,1.08,.08,1.61,.12,.07,4.33,.2,8.65,.2,12.98,0,272.12,.19,544.24-.13,816.36-.07,57.53,2.36,115.11-1.74,172.6l.13-.14c-5.9-.57-11.8-1.64-17.7-1.64-323.13-.08-646.26-.07-969.39-.08-4.33,0-8.66-.13-12.98-.2,0-333.33,0-666.67,0-1000Z"/><path class="cls-3" d="M2,2002c4.33,.07,8.66,.2,12.98,.2,323.13,0,646.26,0,969.39,.08,5.9,0,11.8,1.07,17.7,1.64,.57,11.22,1.63,22.43,1.64,33.65,.09,317.15,.07,634.3,.08,951.44,0,4.33,.14,8.66,.21,12.98H2c0-333.33,0-666.67,0-1000Z"/><path class="cls-1" d="M1003.61,1002.12c-.54-.05-1.07-.09-1.61-.12,.57-4.54,1.64-9.09,1.64-13.63,.08-275.92,.07-551.85,.07-827.77,0-48.99,.04-97.97-.07-146.96,0-3.88-1.06-7.76-1.63-11.64,334,0,668,0,1002,0,0,333.34-.01,666.68-.02,1000.02h.01c-329.8-.01-659.6-.01-989.39,0-3.66,0-7.33,.08-10.99,.12Z"/><path class="cls-2" d="M1004,3002c-.07-4.33-.21-8.66-.21-12.98,0-317.15,0-634.3-.08-951.44,0-11.22-1.07-22.43-1.64-33.65l-.13,.14c5.57-.63,11.13-1.8,16.7-1.8,323.51-.09,647.02-.08,970.53-.11,4.98,0,9.96-.41,14.94-.63l-.09,.95c-.04,4-.13,7.99-.13,11.99,0,325.51,0,651.03,0,976.54,0,3.66,.07,7.33,.11,10.99H1004Z"/><path class="cls-3" d="M2003.98,1002.02c0-333.34,.01-666.68,.02-1000.02h998V1002c-332.67,0-665.34,.01-998.02,.02Z"/><path class="cls-1" d="M2003.98,1002.02c332.67,0,665.34-.01,998.02-.02v1000c-4.32,.1-8.65,.28-12.97,.28-323.68,.01-647.35,.01-971.03,.02-4.66,0-9.32,.11-13.98,.18l.09-.95c-.04-4.33-.1-8.66-.1-12.99,0-328.84,0-657.68-.01-986.53h-.01Z"/><path class="cls-4" d="M2003.99,1002.01c0,328.84,0,657.68,.01,986.53,0,4.33,.07,8.66,.1,12.99-4.98,.22-9.96,.63-14.94,.63-323.51,.03-647.02,.02-970.53,.11-5.57,0-11.13,1.17-16.7,1.8,4.1-57.5,1.67-115.07,1.74-172.6,.32-272.12,.14-544.24,.13-816.36,0-4.33-.13-8.65-.2-12.98,3.66-.04,7.33-.12,10.99-.12,329.8,0,659.6,0,989.39,0Z"/></g></g></svg>