<?xml version="1.0" encoding="UTF-8"?><svg id="Layer_2" xmlns="http://www.w3.org/2000/svg" viewBox="0 0 288 288"><defs><style>.cls-1{fill:#335dfe;}</style></defs><g id="Layer_1-2"><path class="cls-1" d="M99.97,284.64c-1.28,0-2.56,0-3.84,0-1.45,0-2.88-.41-4.34-.24-.66-.34-1.4-.11-2.05-.27-.7-.17-1.41-.06-2.06-.24-1.21-.34-2.5-.17-3.67-.69-1.13,.11-2.21-.29-3.27-.53-1.19-.27-2.45-.35-3.58-.9-1.74-.13-3.29-1.02-5.02-1.21-1.35-.72-2.86-1.01-4.28-1.55-1.59-.61-3.13-1.34-4.77-1.81-.07-.02-.13-.07-.2-.1-2.68-1.26-5.38-2.48-7.98-3.91-1.87-1.03-3.68-2.15-5.5-3.26-1.35-.82-2.61-1.77-3.95-2.61-1.2-.75-2.24-1.75-3.37-2.6-1.02-.77-1.96-1.65-2.96-2.44-2.74-2.17-5.13-4.69-7.58-7.16-1.18-1.19-2.3-2.46-3.3-3.79-1.37-1.82-2.87-3.55-4.13-5.47-.6-.91-1.31-1.78-1.88-2.72-.56-.92-1.1-1.87-1.68-2.77-1.92-2.99-3.47-6.16-4.98-9.36-1.08-2.31-2.05-4.67-2.91-7.08-.5-1.4-.99-2.79-1.45-4.2-.23-.7-.48-1.42-.64-2.12-.15-.7-.39-1.38-.57-2.06-.38-1.4-.61-2.84-1.11-4.21-.16-.44-.1-.96-.25-1.45-.19-.61-.02-1.39-.32-1.9-.35-.59-.07-1.19-.37-1.78-.32-.65-.2-1.51-.3-2.27-.05-.41-.16-.81-.23-1.22-.07-.41,.19-.88-.24-1.23-.04-.03,0-.15,0-.23-.01-.73,.11-1.48-.24-2.18,.09-1.77-.41-3.52-.24-5.3-.49-2.88-.17-5.77-.23-8.66-.05-2.88-.01-5.76-.01-8.64v-26.16c0-1.52,.05-3.04-.01-4.56-.06-1.5,.37-2.96,.27-4.46-.09-1.51-.02-3.04-.02-4.56v-13.8c0-1.52-.15-3.06,.03-4.56,.41-3.41,0-6.82,.25-10.22,.09-1.21,.03-2.44,.24-3.62,.15-.86,.14-1.7,.19-2.55,.03-.46,.32-.85,.26-1.34-.06-.41,.05-.81,.18-1.23,.19-.6,.17-1.29,.24-1.93,.12-1.15,.64-2.22,.53-3.4,.59-1.42,.72-2.97,1.14-4.44,.43-1.5,.78-3.03,1.26-4.53,.48-1.48,.94-2.97,1.45-4.44,.32-.91,.68-1.8,1.09-2.67,.92-1.98,1.69-4.03,2.75-5.94,.91-1.62,1.75-3.29,2.73-4.88,.98-1.6,1.94-3.21,3.03-4.74,.82-1.15,1.58-2.34,2.51-3.41,.42-.48,.74-1.05,1.11-1.57,.36-.5,1.01-.77,1.19-1.43,.03-.1,.16-.17,.25-.26,1.3-1.38,2.59-2.77,3.91-4.14,.8-.84,1.64-1.64,2.46-2.46,1.4-1.43,2.93-2.71,4.44-4.02,1.38-1.19,2.86-2.25,4.24-3.43,1.03-.88,2.2-1.6,3.33-2.36,1.31-.88,2.63-1.74,3.97-2.57,1.11-.69,2.29-1.27,3.36-2.01,1.15-.79,2.4-1.37,3.61-2.03,1.55-.84,3.08-1.79,4.81-2.29,.31-.09,.58-.33,.89-.47,1.04-.49,2.07-1,3.13-1.43,1.06-.43,2.17-.79,3.2-1.25,2.41-1.08,4.9-1.91,7.39-2.74,1.97-.66,3.92-1.41,5.98-1.8,.72-.14,1.4-.48,2.11-.7,.89-.27,1.8-.51,2.71-.69,.85-.16,1.69-.41,2.54-.57,.78-.14,1.64-.19,2.35-.67,1.05,.06,2.03-.31,3.03-.51,.98-.2,2-.26,2.96-.66,.4-.16,.88-.07,1.34-.24,.56-.21,1.27-.05,1.79-.31,.57-.29,1.22-.02,1.76-.42,.21-.15,.63,0,.94-.03,.25-.03,.49-.18,.74-.22,.56-.1,1.22-.02,1.68-.28,.54-.31,1.19,.05,1.62-.44,1.05,.06,2.01-.42,3.04-.5,.48-.04,.98-.16,1.46-.25,.51-.1,1.1-.06,1.54-.32,.46-.28,1.05,.14,1.41-.37,1.05,.06,2.05-.29,3.03-.52,1.46-.35,3-.35,4.41-.92,1.05,.05,2.04-.31,3.03-.52,.98-.21,2-.28,2.97-.63,.5-.18,1.12-.12,1.69-.27,.55-.14,1.23-.02,1.67-.29,.54-.34,1.12-.06,1.66-.39,.36-.22,.95-.18,1.43-.26,.82-.13,1.62-.41,2.44-.49,.84-.08,1.63-.37,2.44-.46,1.03-.12,2.04-.34,3.03-.56,1.47-.34,2.96-.51,4.43-.86,.98-.23,2.02-.39,3.02-.58,.95-.17,1.93-.28,2.85-.63,.49-.19,1.09,.12,1.56-.28,1.05,.04,2.02-.38,3.04-.52,.69-.09,1.4-.24,2.09-.44,.65-.19,1.33-.2,1.97-.44,.48-.18,1.04-.1,1.58-.23,.69-.16,1.41-.3,2.13-.4,.71-.1,1.41-.29,2.12-.4,.97-.14,1.95-.34,2.92-.5,.53-.09,1.09-.06,1.58-.22,.54-.18,1.09-.09,1.58-.24,.81-.23,1.65-.07,2.42-.25,.9-.21,1.81-.03,2.66-.24,1.3-.32,2.6,0,3.86-.24,1.53-.28,3.06-.18,4.59-.2,1.52-.03,3.04-.03,4.56,0,.69,.02,1.37,.18,2.06,.22,.68,.04,1.4-.13,2.03,.04,.78,.22,1.54,.15,2.31,.21,.41,.03,.81,.17,1.22,.23,.38,.05,.73,.09,1.11,.2,.57,.17,1.2,.13,1.82,.23,.56,.09,1.11,.27,1.69,.3,.57,.03,1.15,.09,1.7,.24,1.12,.32,2.29,.46,3.39,.79,.75,.22,1.51,.41,2.26,.6,1.26,.33,2.52,.69,3.76,1.08,1.31,.4,2.57,.94,3.88,1.34,.99,.31,1.94,.74,2.9,1.12,2.93,1.16,5.81,2.43,8.57,3.94,1.11,.61,2.27,1.13,3.31,1.88,.5,.36,1.1,.62,1.66,.92,1.64,.91,3.17,1.99,4.76,2.97,1.1,.68,2.08,1.55,3.12,2.32,.82,.61,1.68,1.18,2.5,1.79,.5,.37,.97,.78,1.43,1.19,.82,.73,1.6,1.5,2.45,2.2,2.6,2.12,4.81,4.63,7.17,6.98,.93,.92,1.81,1.91,2.58,2.99,.4,.56,.93,1.03,1.36,1.6,.97,1.27,1.99,2.51,2.9,3.84,.81,1.19,1.73,2.31,2.51,3.53,.76,1.2,1.47,2.43,2.24,3.63,1.88,2.95,3.36,6.12,4.87,9.26,.78,1.63,1.5,3.29,2.1,5.01,.48,1.36,1.04,2.69,1.49,4.06,.6,1.84,1.21,3.67,1.64,5.57,.14,.64,.4,1.27,.56,1.92,.21,.87,.43,1.75,.61,2.63,.11,.56,.02,1.22,.29,1.68,.31,.54-.06,1.19,.44,1.62-.16,.71,.23,1.36,.25,2.06,.01,.41,.15,.81,.23,1.22,.08,.41-.18,.88,.22,1.23,.04,.04,.02,.15,.02,.23,.08,1.13,.15,2.25,.24,3.38,.06,.65,.19,1.29,.23,1.94,.04,.64-.14,1.33,.04,1.91,.35,1.09,.16,2.18,.2,3.27,.04,1.32-.01,2.64,.02,3.96,.07,3.17,.19,6.33,.23,9.5,.04,3.16,0,6.32,0,9.48v28.68c0,3.16,.05,6.32-.02,9.48-.04,1.57-.27,3.12-.23,4.7,.04,1.56,.19,3.15-.04,4.67-.28,1.86,.02,3.72-.23,5.54-.21,1.57-.02,3.16-.26,4.7-.16,1.02-.1,2.02-.19,3.03-.05,.49-.19,.97-.23,1.46-.04,.52,.08,1.06-.03,1.56-.27,1.16-.24,2.37-.49,3.52-.26,1.14-.12,2.36-.69,3.43,.17,1.07-.35,2.02-.51,3.04-.2,1.21-.48,2.42-.85,3.6-.33,1.07-.49,2.19-.81,3.27-.35,1.17-.82,2.3-1.18,3.47-.72,2.34-1.59,4.62-2.54,6.87-1,2.39-2.17,4.71-3.37,7.01-1.04,1.99-2.24,3.88-3.37,5.81-.72,1.23-1.53,2.4-2.28,3.61-.7,1.13-1.61,2.14-2.42,3.2-1.05,1.39-2.16,2.72-3.29,4.05-1.73,2.05-3.54,4.02-5.46,5.89-.67,.65-1.29,1.35-2.09,1.89-.77,.52-1.3,1.34-2.1,1.87-.64,.42-1.14,1.05-1.77,1.52-1.3,.96-2.5,2.06-3.8,3.03-1.27,.95-2.59,1.84-3.91,2.72-1.12,.75-2.3,1.41-3.42,2.16-1.12,.74-2.32,1.37-3.47,2.07-1.26,.77-2.64,1.34-3.96,2.01-1.23,.61-2.42,1.3-3.69,1.82-2.05,.84-4.05,1.79-6.15,2.53-1.39,.49-2.77,1.05-4.16,1.53-1.47,.5-2.99,.92-4.48,1.36-1.21,.35-2.44,.65-3.65,1.02-.85,.27-1.72,.52-2.62,.64-.89,.12-1.76,.39-2.64,.57-.3,.06-.61,.07-.91,.13-.25,.05-.49,.21-.74,.23-1.07,.07-2.07,.58-3.16,.49-1.3,.52-2.71,.6-4.05,.9-1.06,.24-2.16,.44-3.26,.59-.94,.13-1.93,.25-2.85,.62-.45,.18-.97,.02-1.45,.26-.42,.21-.96,.18-1.45,.27-.45,.08-.89,.18-1.34,.23-.49,.06-.94,.4-1.46,.24-.52,.52-1.25,.09-1.86,.44-.49,.28-1.22,.12-1.79,.3-1.37,.43-2.81,.46-4.17,.92-.6,.21-1.3,.13-1.93,.27-.99,.22-2.01,.32-2.97,.64-.47,.16-.96,.04-1.45,.27-.53,.25-1.28,.04-1.78,.32-.58,.32-1.26-.05-1.74,.44-1.13-.11-2.18,.38-3.28,.52-.69,.09-1.4,.24-2.09,.44-.65,.19-1.33,.2-1.97,.44-.48,.18-1.04,.1-1.58,.23-.69,.16-1.41,.3-2.13,.4-.71,.1-1.42,.25-2.12,.41-1.29,.3-2.61,.47-3.9,.71-.81,.15-1.62,.35-2.44,.49-.77,.13-1.61,.21-2.3,.5-.63,.26-1.27,.03-1.89,.38-.52,.3-1.29,.14-1.91,.3-.69,.18-1.4,.27-2.08,.47-.65,.19-1.33,.19-1.98,.44-.48,.18-1.08-.08-1.57,.27-1.45,.04-2.82,.59-4.26,.76-.44,.05-.97,.04-1.32,.24-.44,.25-.93,.01-1.22,.23-.46,.35-.97,.02-1.35,.23-.49,.27-1.04,.06-1.46,.25-.5,.23-.99,.13-1.47,.22-1.25,.23-2.49,.49-3.76,.47-.61,.41-1.35,.04-1.93,.28-.63,.25-1.23,.13-1.83,.21-.49,.06-.97,.16-1.46,.23-.49,.07-1.03-.17-1.46,.24-.02,.02-.08,0-.12,0-1.14-.17-2.25,.23-3.38,.25-1.17,.03-2.33,.18-3.5,.22-1.16,.04-2.32,0-3.48,0Zm121.55-123.48V55.45c0-.24-.02-.48,0-.72,.04-.37-.12-.59-.35-.69-.78,.16-1.47,.35-2.18,.42-.57,.06-1.09,.41-1.69,.27-.93,.45-1.98,.39-2.95,.69-.5,.16-1.05,.22-1.58,.24-.54,.02-1.05,.23-1.57,.31-.44,.07-1.01-.01-1.32,.23-.48,.39-1.04,.05-1.54,.39-.43,.29-1.11,.17-1.67,.29-.6,.14-1.27,.09-1.81,.27-.97,.33-1.98,.44-2.96,.63-1,.19-1.98,.58-3.03,.52-.35,.52-.97,.04-1.41,.39-.43,.34-1.1-.17-1.54,.33-.52-.09-.98,.19-1.46,.22-1.03,.07-1.99,.56-3.04,.5-.35,.52-.95,.09-1.41,.37-.42,.25-1.02,.24-1.53,.31-.49,.07-.97,.23-1.46,.26-1.03,.07-1.99,.56-3.04,.5-.35,.53-.94,.09-1.41,.37-.42,.25-1.02,.24-1.53,.31-.49,.07-.97,.23-1.46,.26-1.03,.07-1.99,.56-3.04,.5-.43,.52-1.09,.1-1.63,.44-.44,.28-1.14,.12-1.67,.3-.57,.2-1.19,.05-1.7,.25-.93,.36-1.9,.43-2.85,.64-1.21,.26-2.44,.47-3.65,.76-.48,.11-.97,.18-1.46,.24-.65,.09-1.38,0-1.91,.29-.47,.26-.97-.03-1.32,.28-.42,.36-.96,0-1.43,.35-.3,.22-.86,.13-1.32,.25-1.03,.27-2.11,.31-3.15,.53-.49,.11-1.01,.1-1.45,.26-.65,.23-1.33,.24-1.98,.44-.68,.2-1.39,.32-2.08,.46-1.26,.25-2.52,.49-3.78,.7-1.42,.24-2.82,.6-4.25,.8-.52,.07-1.11,.04-1.57,.23-.96,.38-1.98,.46-2.96,.65-1,.19-1.98,.58-3.03,.52-.35,.52-.97,.04-1.41,.39-.42,.34-1.1-.16-1.54,.33-.52-.1-.98,.19-1.46,.22-1.03,.07-1.99,.56-3.04,.5-.35,.53-.94,.09-1.41,.37-.42,.25-1.02,.25-1.53,.31-.5,.06-.97,.23-1.46,.26-1.03,.07-2.04,.35-3.03,.56-.98,.21-1.98,.46-2.96,.61-1.09,.17-2.15,.55-3.27,.56-.37,0-.74,.32-1.1,.49v42.62c.64,.17,1.22-.07,1.82-.14,1.02-.12,1.99-.56,3.04-.51,.36-.5,.95-.09,1.41-.37,.43-.26,1.02-.21,1.54-.32,.48-.1,.97-.21,1.45-.25,1.03-.08,1.99-.56,3.04-.5,.36-.51,.95-.09,1.41-.37,.43-.26,1.02-.22,1.54-.32,.48-.09,.97-.22,1.45-.25,1.03-.08,1.99-.56,3.04-.5,.44-.49,1.09-.13,1.62-.44,.46-.27,1.11-.19,1.68-.28,.25-.04,.49-.19,.74-.22,.31-.04,.68,.09,.95-.03,.95-.39,1.97-.47,2.96-.66,1-.19,2-.44,3.03-.56,.81-.09,1.61-.38,2.44-.46,.82-.08,1.63-.32,2.43-.5,.54-.12,1.1-.18,1.64-.35,.93-.28,1.92-.41,2.89-.57,.64-.11,1.4,.01,1.91-.3,.51-.31,1.14,.11,1.51-.43,.56,.11,1.06-.15,1.58-.24,.67-.12,1.33-.23,1.98-.43,.54-.17,1.12-.21,1.68-.29,.65-.09,1.34-.05,1.93-.27,.65-.25,1.33-.22,1.97-.45,.67-.24,1.4-.36,2.08-.44,1.1-.14,2.14-.63,3.28-.52,.5-.44,1.16-.18,1.74-.44,.57-.26,1.34-.06,1.9-.32,.46-.21,.92-.07,1.34-.26,1.01-.44,2.13-.29,3.2-.69v64.31c.15,.02,.31,.08,.37,.03,.51-.44,1.24,0,1.73-.47,1.08,.02,2.1-.39,3.16-.49,.53-.05,1.07-.15,1.57-.28,.66-.17,1.33-.24,1.98-.43,.68-.2,1.39-.31,2.09-.46,1.25-.27,2.52-.49,3.78-.7,1.42-.24,2.81-.62,4.25-.8,.52-.07,1.1-.05,1.57-.23,.65-.25,1.33-.24,1.97-.44,.68-.21,1.39-.36,2.08-.45,1.02-.13,1.99-.56,3.04-.52,.48-.39,1.08-.09,1.57-.28,.92-.36,1.9-.46,2.84-.64,1-.19,1.99-.57,3.03-.52,.47-.39,1.07-.11,1.57-.28,.69-.24,1.39-.31,2.09-.45,.89-.18,1.76-.49,2.68-.47,.33-.44,.9-.04,1.2-.27,.42-.33,.84-.1,1.25-.24l.33-.33Zm-110.4,21.68V118.56c-.31,0-.58-.08-.78,.01-.94,.43-1.97,.47-2.96,.66-1,.19-2.04,.34-3.02,.58-1.46,.35-2.96,.53-4.42,.86-.99,.23-2.04,.34-3.02,.58-1.46,.35-2.96,.52-4.42,.86-.99,.23-2.04,.35-3.02,.58-1.47,.34-2.95,.58-4.42,.87-1,.2-2.04,.34-3.02,.57-1.47,.34-2.95,.57-4.42,.87-1,.2-2.04,.34-3.02,.57-1.35,.31-2.72,.58-4.07,.85-1.11,.22-2.22,.49-3.3,.59v107.24c.56-.09,1.12,.16,1.6-.26,1.08,.02,2.1-.38,3.16-.49,.53-.05,1.07-.15,1.57-.28,.66-.17,1.33-.24,1.98-.43,.68-.2,1.39-.31,2.09-.46,1.26-.26,2.54-.37,3.78-.73,.51-.15,1.05-.17,1.58-.25,.56-.09,1.19-.07,1.66-.33,.5-.28,1.12,.11,1.52-.39,1.32-.15,2.61-.39,3.91-.69,.69-.16,1.4-.31,2.12-.41,.72-.09,1.43-.24,2.13-.4,.54-.12,1.09-.05,1.58-.23,.65-.24,1.33-.26,1.97-.45,.69-.2,1.4-.35,2.09-.44,1.02-.14,1.99-.56,3.04-.52,.44-.37,1.01-.1,1.45-.26,.96-.35,1.97-.47,2.96-.65,1-.19,1.99-.57,3.03-.52,.47-.41,1.14-.03,1.54-.3,.5-.34,1.04-.04,1.54-.37,.43-.28,1.11-.19,1.67-.29,.52-.09,1.1-.12,1.57-.28,.97-.33,1.98-.49,2.96-.63,1.1-.15,2.15-.59,3.27-.53,.34-.49,.93-.03,1.3-.34,.42-.36,.96,0,1.43-.34,.3-.22,.86-.13,1.32-.25,1.03-.27,2.11-.3,3.15-.54,.49-.11,1.08-.05,1.43-.27,.54-.33,1.12-.05,1.66-.39,.44-.28,1.12-.15,1.67-.29,.56-.15,1.19-.09,1.69-.27,.97-.35,1.98-.42,2.97-.63,.99-.22,1.98-.57,3.03-.52,1.41-.57,2.95-.57,4.41-.92,.98-.24,2.04-.34,3.02-.58,1.47-.35,2.95-.58,4.42-.87,1-.2,2.04-.34,3.02-.57,1.47-.35,2.95-.58,4.42-.87,1-.19,2.04-.34,3.02-.57,1.35-.31,2.73-.45,4.06-.89,.61-.2,1.32-.09,1.93-.29,.61-.2,1.25-.27,1.86-.4,.51-.11,1.03-.29,1.57-.31,.49-.02,1.02-.05,1.45-.25,.51-.24,1.05-.16,1.51-.25v-42.87c-.11-.02-.18-.05-.26-.05-.89-.02-1.71,.28-2.57,.45-1.3,.25-2.6,.48-3.9,.71-1.42,.25-2.82,.61-4.25,.8-.52,.07-1.11,.03-1.57,.23-.92,.38-1.91,.37-2.85,.65-.67,.2-1.4,.32-2.11,.42-.72,.09-1.43,.24-2.13,.4-.54,.12-1.09,.05-1.58,.23-.65,.24-1.33,.26-1.97,.45-.69,.2-1.4,.35-2.09,.44-1.02,.14-1.99,.56-3.04,.52-.47,.41-1.14,.03-1.54,.3-.5,.34-1.04,.04-1.54,.37-.43,.28-1.11,.19-1.67,.29-.53,.09-1.1,.12-1.57,.28-1.09,.38-2.22,.41-3.32,.65-.96,.21-1.91,.55-2.92,.5-.43,.52-1.09,.1-1.63,.44-.44,.28-1.13,.12-1.67,.3-.57,.19-1.18,.07-1.7,.25-.97,.34-1.98,.45-2.96,.64-1,.2-2.04,.34-3.02,.58-1.46,.35-2.96,.52-4.42,.86-.99,.23-2.04,.34-3.02,.58-1.46,.35-2.97,.44-4.42,.89-.78,.24-1.61,.3-2.5,.46Z"/></g></svg>