<svg xmlns="http://www.w3.org/2000/svg" viewBox="0 0 12 12"><defs><style>.cls-1{fill:#884d99;}.cls-2{fill:#af87bb;}.cls-3{fill:#b088bb;}.cls-4{fill:#ac82b8;}.cls-5{fill:#c4a7cd;}.cls-6{fill:#b692c0;}.cls-7{fill:#c3a6cc;}.cls-8{fill:#c4a7cc;}.cls-9{fill:#ac83b8;}.cls-10{fill:#fefefe;}</style></defs><g id="Layer_2" data-name="Layer 2"><g id="Layer_1-2" data-name="Layer 1"><path class="cls-1" d="M0,10.59V1.41s0,0,0,0a.4.4,0,0,0,0-.11c0-.11.05-.22.09-.33A1.48,1.48,0,0,1,.39.49,1.27,1.27,0,0,1,.73.22,1.4,1.4,0,0,1,1.27,0H1.4l0,0h9.14l0,0h.13a1.46,1.46,0,0,1,.2.05,1.32,1.32,0,0,1,.45.21,1.37,1.37,0,0,1,.25.23l.11.15a1.41,1.41,0,0,1,.17.32,2.46,2.46,0,0,1,.07.29V1.4s0,0,0,0v9.16l0,0a.4.4,0,0,0,0,.11s0,.07,0,.11a.92.92,0,0,1-.09.28,1.44,1.44,0,0,1-.19.31,1,1,0,0,1-.22.24,1.72,1.72,0,0,1-.42.23,1.47,1.47,0,0,1-.3.08H10.6l0,0H1.43l0,0H1.27s-.07,0-.11,0a.92.92,0,0,1-.28-.09,1.83,1.83,0,0,1-.3-.18.92.92,0,0,1-.25-.23A1.72,1.72,0,0,1,.1,11a1.47,1.47,0,0,1-.08-.3.4.4,0,0,0,0-.11ZM4.5,3V7.5c-.38,0-1.4,0-1.5,0V3H1.5V8.26L2.23,9H6V4.5H7.5V9H9V4.5h1.5V3Z"/><path class="cls-2" d="M1.27,0V0h.16l0,0Z"/><path class="cls-3" d="M10.73,0V0H10.6l0,0Z"/><path class="cls-4" d="M12,1.27h0v.16s0,0,0,0Z"/><path class="cls-5" d="M1.27,12v0H1.4l0,0Z"/><path class="cls-6" d="M10.73,12v0h-.16l0,0Z"/><path class="cls-7" d="M0,1.27H0a.4.4,0,0,1,0,.11s0,0,0,0Z"/><path class="cls-8" d="M0,10.73H0v-.14l0,0A.4.4,0,0,1,0,10.73Z"/><path class="cls-9" d="M12,10.73h0a.4.4,0,0,1,0-.11l0,0Z"/><path class="cls-10" d="M4.5,3h6V4.5H9V9H7.5V4.5H6V9H2.23L1.5,8.26V3H3V7.49c.1,0,1.12,0,1.5,0Z"/></g></g></svg>