<svg xmlns="http://www.w3.org/2000/svg" viewBox="0 0 549.08 590.94"><g id="Layer_2" data-name="Layer 2"><g id="Layer_1-2" data-name="Layer 1"><path fill="hsl(192, 50%, 30%)" d="M549.08,282.77c-3,5-4.1,10.64-5,16.3-.68,4.24-1.29,8.49-1.95,12.73a9.11,9.11,0,0,1-.37,1.43c-1,3.16-2.74,3.6-4.92,1a26.62,26.62,0,0,1-6.17-14.69,7,7,0,0,1,1-3.3c1-2.12,2.25-4.14,3.24-6.27.71-1.55,1.12-3.22,1.76-4.8a10.85,10.85,0,0,1,5.06-5.68c3.54-1.9,5.54-1.31,7.35,2.24Z"/><path fill="hsl(192, 50%, 30%)" d="M367.22,151.72a58.28,58.28,0,0,1,0-6.45,28.47,28.47,0,0,1,1.43-7.06c1.09-2.87,3.61-3.49,6.21-1.84,1.81,1.15,3.56,2.4,5.24,3.72a4.73,4.73,0,0,1,1.64,5.16c-.66,3.17-1,6.39-1.41,9.6-.07.55.46,1.21.81,1.76a40.4,40.4,0,0,1,2.45,3.86c1.24,2.64,2.18,5.42,3.45,8,2.22,4.57,5.45,8.17,10.52,9.61a5.41,5.41,0,0,0,3-.06,38.9,38.9,0,0,0,5.6-2.38,13.78,13.78,0,0,0,7.66-11.6,37.59,37.59,0,0,1,.57-4.09,24.92,24.92,0,0,1,1-2.87c4,1.71,7.93,3.09,12.1,3,4.88-.06,9.76-.52,14.64-.8,1.21-.07,2.41-.16,3.62-.22a4.61,4.61,0,0,1,4.53,2.42,27.67,27.67,0,0,0,3,3.93c3.14,3.56,7,4.64,11.65,3.51,3.73-.91,7.52-1.57,11.25-2.5a2.49,2.49,0,0,0,1.33-1.71c.38-2.11.41-4.28.82-6.38a22.62,22.62,0,0,1,1.72-5.64,7.48,7.48,0,0,1,3-3.13,2.61,2.61,0,0,0,1.67-2.84c-.31-2.61-.75-5.22-1.19-7.82A16.78,16.78,0,0,1,485,128.84a2.17,2.17,0,0,1,1.49-1.14c4.06.16,8.13.33,12.17.77,1.45.16,2.82,1.09,4.42,1.74a48.74,48.74,0,0,1,3.57-3.71q9.12-7.77,18.35-15.4c1.06-.88,1.8-.65,1.9.7.42,5.66,1,11.37-2.33,16.5-2.48,3.78-2.69,8.08-2.81,12.4-.07,2.6,0,2.76-2.61,3-11.71.91-20.1,7.39-27.24,16a4.08,4.08,0,0,0,0,5.06c1.72,2.63,4.38,3.75,7.32,4.34,2.54.51,2.54.5,2.6,3.06.12,5.83-1.95,8.62-7.63,10.11-2.5.66-5,1.18-7.56,1.76-11.06,2.55-17.81,9.74-21.61,20.08-4,10.77-1,20,6.37,28.2,3.12,3.48,6.4,6.84,9.37,10.45a30.11,30.11,0,0,1,4.14,6.71c1.57,3.48.42,6-3.13,7.41-1.68.68-3.47,1.08-5.18,1.69a25,25,0,0,0-4.09,1.73c-1.85,1.07-2.9,2.67-2.33,5a41.68,41.68,0,0,0,1.31,5.26,5.08,5.08,0,0,0,5,3.35c1.43,0,2.87-.1,4.3-.1,1.95,0,2.58.5,2.93,2.38.31,1.63.54,3.27.74,4.9a11.7,11.7,0,0,1-2.82,9.64c-4.16,4.78-5.51,10.81-6.71,16.83-.54,2.69-.94,5.41-1.39,8.09-9.22,1.37-11,4.32-9.95,16.34l-.75-.2c-2.79-.71-4.55.15-5.28,2.94a21.61,21.61,0,0,0-.56,5.39,25.13,25.13,0,0,0,2.4,10.88c.58,1.22,1.21,2.38,3,2.39.63,0,1.6,1.05,1.83,1.8a9,9,0,0,1,.31,3.9c-1.62,10.43,2.42,18.48,10.25,25,7.21,6,8.05,6.37,17.41,6.56a45.24,45.24,0,0,0,14.86-1.75c8.21-2.61,13.48-8.45,17.28-15.86,4-7.87,6.25-16.33,8.15-24.89.35-1.56.73-3.11,1-4.69.14-1,.68-1.52,1.49-1.3a2.28,2.28,0,0,1,1.49,1.39c.54,2.86.73,5.79,1.33,8.64,1.3,6.19,2.59,12.39,4.27,18.47.65,2.36,2.4,4.41,3.52,6.66a10.31,10.31,0,0,1,1.39,3.93,59.86,59.86,0,0,1-.42,8.24c-.06.57-.79,1.25-1.37,1.58-5.62,3.15-11.46,5.94-16.85,9.44a86.6,86.6,0,0,0-12.63,10,96.59,96.59,0,0,1-17.63,13.57,31.15,31.15,0,0,0-11.21,11.22,19,19,0,0,0-2.27,7,15.43,15.43,0,0,1-5.45,10.56c-4,3.31-8.09,6.36-13.34,7.23a22.59,22.59,0,0,1-5.26.23c-4.49-.3-8.08,1.35-11.32,4.38a32.47,32.47,0,0,0-10.34,20.8c-.3,2.57-.84,5.11-1.2,7.67a8,8,0,0,0,.11,2.28c1.13,7,2.43,14,3.37,21,.48,3.55.18,3.84-3.33,4.91-4.95,1.51-10,2.76-15,4.11-9.8,2.63-19.16,6.24-27.5,12.15C383,546.41,375.19,558.5,371,573c-1.43,5-2.24,10.2-3.27,15.32-.35,1.74-1.15,2.79-3,2.63a27.9,27.9,0,0,1-6.9-1.39c-4-1.4-7.84-3.2-11.8-4.72-2.09-.8-4.19-1.44-6.56-.51-.81.31-2.25-.32-3.08-.95a7.24,7.24,0,0,1-2-2.79c-6.22-13.47-17.23-21.24-30.79-26a16.42,16.42,0,0,1-1.86-.67c-5.86-2.95-11.51-1-17.13.75-9,2.77-15.49,8.34-18.95,17.27a48.94,48.94,0,0,1-3.13,6.73,12.28,12.28,0,0,1-11.53,6.64,39.66,39.66,0,0,1-20-6.12c-5-3-10-5.83-14.89-8.88-5.49-3.4-11-3.1-16.47-.24-5.08,2.64-10.07,5.45-15.15,8.09a84.18,84.18,0,0,1-17.92,6.67c-3.85,1-6-.25-6.7-4.16-.56-3.25-.59-6.58-1-9.86a71.55,71.55,0,0,0-1.45-8.1,15.42,15.42,0,0,0-4-6.56c-13.38-14.5-30.53-22-49.23-26.66a222.49,222.49,0,0,0-34.73-5.35c-5.1-.44-10.23-.79-15.25-1.7a6.27,6.27,0,0,1-4.57-7.73,3.47,3.47,0,0,1,3-2.68c6.52-.89,11.64-3.88,14.73-9.88a23.93,23.93,0,0,0,2.72-10.64c.29-16.3-5.21-30.25-17.55-41.12a23.34,23.34,0,0,0-19.27-6,3.32,3.32,0,0,1-2.46-.9c-4.82-5.06-9.76-10-14.23-15.39-5.87-7-11.11-14.53-14.75-23-1.24-2.9-2.2-5.89-1.83-9.13.3-2.57.62-2.84,3.12-2.69a61,61,0,0,0,19.69-1.46c15.2-4.05,23.91-14.25,27.14-29.31,3-14.09,1-27.82-3.73-41.25-.73-2.07-2.26-4.05-2.34-6.11s1.3-4,1.93-6.05c1.59-5.1.33-9.23-4.24-12.44-3.19-2.23-6.71-4-10.07-6-1.19-.7-2.33-1.47-3.49-2.2-4.95-3.13-4.61-9.33-2.14-13.18a5.82,5.82,0,0,1,1.76-1.44c5.84-3.89,11.55-7.95,16.17-13.28a32.44,32.44,0,0,0,4.27-6.25c2.64-5.13,1.52-10.19-3.28-13.37-7.12-4.72-14.93-6.59-23.42-4.29a2.47,2.47,0,0,1-3.24-2,20.52,20.52,0,0,1-.35-6.84,79,79,0,0,1,2.77-10.51,4.28,4.28,0,0,0-.31-3.74c-1.65-2.79-3.26-5.62-4.72-8.52a13.61,13.61,0,0,1-1.36-4.38,7.25,7.25,0,0,1,.57-3.64c.71-1.61,1.83-1.94,3.41-1.15a46,46,0,0,1,4.84,2.84c6,3.95,11.85,8,18.52,10.79C49.35,212.7,57.26,214,65.4,211a34.75,34.75,0,0,0,16.47-12.79c3.25-4.48,6-9.36,8.84-14.11,1.06-1.75,1.3-1.95,3-.76,1.89,1.32,3.6,3,5.59,4.08a20,20,0,0,0,6.47,2.69c5,.8,8.4-2,11-5.81a4.23,4.23,0,0,0-.51-5.49,16,16,0,0,0-3.66-3.31c-3.4-2-3.66-4.92-3.22-8.41a53,53,0,0,0,.64-11.16c-.54-6.34-4.48-10.84-9.34-14.58a26,26,0,0,0-4-2.67,7.6,7.6,0,0,1-3.6-4.12c-1.5-3.57-2.77-7.2-2.77-11.14,0-2.67.59-3.64,3.26-3.8a92.34,92.34,0,0,1,9.55.24,37.58,37.58,0,0,0,4.94.32,9.94,9.94,0,0,0,4.29-1.29c4.76-3,7.55-7.62,10-12.45,4.26-8.21,8.28-16.57,13.83-24,4-5.33,8.29-10.43,12.53-15.57,1.49-1.8,3.15-2,4.9-.46,3,2.62,5.34,5.54,4.9,10a26.61,26.61,0,0,0,.64,8.19c1.39,6.25,5.67,9.72,12.76,10.61,2.95.36,5.93.58,8.9.66a5,5,0,0,1,5,3.38A12.57,12.57,0,0,1,186,109a5.08,5.08,0,0,1-2.29,2.36c-4.15,2.09-8.19,4.31-11.59,7.54-.44.42-.86.85-1.27,1.3-4.06,4.55-3.94,9.43.87,13.2a41.43,41.43,0,0,0,10.07,5.86,160.87,160.87,0,0,0,16.78,5.43c3.51,1,6.86-.21,9.94-2a31.4,31.4,0,0,0,9.35-9c6.37-8.71,10.61-18.51,14.16-28.62,1.69-4.82,3.06-9.76,4.63-14.64a8,8,0,0,1,1.24-2.29c5.12-6.88,12.22-9.18,20.31-7.79a170.86,170.86,0,0,1,19.17,4.87c4.84,1.42,9.55,1.93,14.39.21s9.88-3.14,14.62-5.15c8.29-3.51,14.45-9.51,19-17.28,2.63-4.51,5.31-9,8.17-13.38a53.18,53.18,0,0,1,10.41-11.25,4.48,4.48,0,0,1,5.62-.57c1.72,1,3.4,2,5,3.18,7.7,5.38,15.85,6,24.46,2.5A67.3,67.3,0,0,0,400.37,29c3.31-3.23,6.26-3.33,10.19-1.8A51.16,51.16,0,0,0,422,30.37c6.37.89,12.18-1.28,17.54-4.64,7.44-4.67,13.25-11.06,18.63-17.88,1.54-1.94,2.94-4,4.5-5.92.9-1.11,2-2.35,3.6-1.79S468,2.38,468,3.89c-.22,10.43-.83,20.81-3.64,30.92A38.19,38.19,0,0,1,456,50c-4.27,4.82-8.7,9.53-12.66,14.6a79.18,79.18,0,0,0-11.1,19.83c-1.69,4.26-4.7,5.72-8.83,5.73-2.86,0-5.73-.21-8.59-.27a28.48,28.48,0,0,0-4.62.14c-5.43.75-7.27,1.9-10.86,6.53-1.53-.64-3.07-1.33-4.65-1.93-5.38-2-10.86-3.27-16.64-2.13a17.84,17.84,0,0,0-8.55,4.11c-3.16,2.8-6.47,2.88-10.11,1.4-3.11-1.27-6.21-2.56-9.34-3.78-10.59-4.13-20-1.53-28.57,5.24a97.47,97.47,0,0,0-9.55,8.86c-2.53,2.63-3.37,6.19-3.86,9.69-1.24,8.83-.52,17.49,3.11,25.74a35.76,35.76,0,0,0,3.44,5.79c2.08,3,5.21,4.12,8.73,4.18a25.48,25.48,0,0,0,4.94-.3c5.52-.93,10.33.76,14.8,3.8.64.44,1.25.91,1.87,1.38,3,2.28,4.56,2.38,7.79.32a80.92,80.92,0,0,1,6.92-4.49A64,64,0,0,1,367.22,151.72ZM84.69,348.05A168.5,168.5,0,0,0,87.63,387a160.14,160.14,0,0,0,33.3,71.25c22.94,28.27,51.95,47.79,86.48,59.14,15.74,5.17,31.91,8.26,48.5,8a190.43,190.43,0,0,0,110.21-37.77c21-15.61,38-34.79,50.07-58.08,13.69-26.38,19.16-54.44,16.93-84.06a235.8,235.8,0,0,0-5.71-37.68C422.22,286.27,413.8,266.17,401,248c-18.26-25.82-42.49-44.09-71.47-56.29a207.46,207.46,0,0,0-58.85-14.92c-17.36-1.86-34.53-1.25-51.47,3.25C183,189.7,152,208.16,126.67,235.83a157.61,157.61,0,0,0-35.49,62.91A164,164,0,0,0,84.69,348.05Z"/></g></g></svg>