<?xml version="1.0" encoding="UTF-8" standalone="no"?>
<svg
   viewBox="-81.295 0 397.09 397.09"
   version="1.1"
   id="svg5"
   sodipodi:docname="logo.svg"
   inkscape:version="1.4.2 (f4327f4, 2025-05-13)"
   xmlns:inkscape="http://www.inkscape.org/namespaces/inkscape"
   xmlns:sodipodi="http://sodipodi.sourceforge.net/DTD/sodipodi-0.dtd"
   xmlns="http://www.w3.org/2000/svg"
   xmlns:svg="http://www.w3.org/2000/svg">
  <defs
     id="defs5" />
  <sodipodi:namedview
     id="namedview5"
     pagecolor="#ffffff"
     bordercolor="#000000"
     borderopacity="0.25"
     inkscape:showpageshadow="2"
     inkscape:pageopacity="0.0"
     inkscape:pagecheckerboard="0"
     inkscape:deskcolor="#d1d1d1"
     inkscape:zoom="2.8284271"
     inkscape:cx="27.577164"
     inkscape:cy="221.5012"
     inkscape:window-width="3840"
     inkscape:window-height="2131"
     inkscape:window-x="-9"
     inkscape:window-y="-9"
     inkscape:window-maximized="1"
     inkscape:current-layer="svg5" />
  <g
     id="Layer_2"
     data-name="Layer 2"
     inkscape:label="logo">
    <path
       id="path1"
       inkscape:label="head"
       d="m 113.82,0 c 29.26,-0.22 54.65,9.74 77.45,27.46 16.26,12.63 26.32,29.3 31.73,48.74 3.99249,13.929299 7.20086,28.07149 9.61,42.36 1.73597,10.52227 2.2427,21.21069 1.51,31.85 -1.15,15.45 -5.1,30.49 -9.55,45.41 -2.67,9 -3.72,18.45 -5.11,27.76 -1.08,7.29 -1.82,14.66 -2.2,22 -0.0526,3.42573 0.42296,6.83912 1.41,10.12 1.419,5.00063 0.57861,10.37179 -2.3,14.7 -13,20.77 -26.11,41.48 -39,62.31 -8.22,13.26 -16.23,26.65 -24.17,40.08 -1.65,2.79 -2.33,6.14 -3.92,9 -4.1,7.35 -10.57,11.58 -18.69,13.52 -9.29,2.22 -18.69,2.67 -27.72,-0.46 C 92.33,391.19 86.05,383.21 81.41,373 75.912547,360.71635 69.494255,348.86591 62.21,337.55 54.05,325.02 44.51,313.36 35.37,301.48 29.51,293.86 23.8,286 17,279.22 c -5,-5.07 -6.57,-10.44 -5.57,-16.92 0.590286,-4.21334 1.564335,-8.36393 2.91,-12.4 2.44,-7.05 0.88,-14 -0.52,-20.72 -3.33,-16.1 -7.51,-32 -10.67,-48.15 C 1.61,173 1.4,164.62 0.82,156.39 0.36,149.94 -0.3,143.43 0.15,137 1.15,123.13 0.49,109.06 4.53,95.52 10.17,76.61 17.86,58.7 29.88,42.83 46.21,21.29 66.92,6.68 94,2.16 100.53,1.07 107.2,0.7 113.82,0 Z m 88.78,249.93 -0.72,-0.08 c -1.37,4.19 -2.69,8.41 -4.15,12.57 -0.23,0.65 -1.07,1.08 -1.62,1.6 -0.47,-0.6 -1.18,-1.13 -1.36,-1.81 -0.85,-3.14 -1.56,-6.32 -2.32,-9.48 -1.24,8.18 -2.6,16.06 -5.85,23.45 l -1.39,-0.12 v -16.6 l -1.06,-0.08 c -0.22,0.74 -0.5,1.47 -0.65,2.22 -1.48,7.77 -2.89,15.56 -4.45,23.33 -0.17,0.86 -1.07,1.58 -1.63,2.36 -0.5557,-0.80582 -0.97466,-1.6978 -1.24,-2.64 -0.57,-6.14 -1,-12.28 -1.5,-18.43 -2.07,11 -1.73,22.23 -4.34,33 h -1.37 l -2.79,-23.17 c -2.46,10.22 -1.89,20.83 -4.93,30.8 l -1.3,-0.1 -2.82,-22.56 h -0.34 l -3.45,26.32 -1.72,-0.09 c -0.64,-12.22 -1.27,-24.45 -1.92,-36.93 -0.32,0.45 -0.56,0.64 -0.58,0.85 -1.29,11.08 -2.53,22.16 -3.87,33.23 -0.31891,1.33556 -0.78859,2.63053 -1.4,3.86 l -1.14,-0.38 -2.69,-32.77 c -0.72,5.28 -1,10.55 -1.44,15.79 -0.7,8.04 -1.5,16.06333 -2.4,24.07 -0.09,0.81 -1.18,1.51 -2.34,2.89 -1.26,-14.47 -2.43,-27.82 -3.59,-41.18 h -0.6 L 125,322.51 h -1.84 c -1.22667,-8.32 -2.46,-16.65333 -3.7,-25 -1.1396,5.20419 -2.00413,10.46481 -2.59,15.76 -0.15,1.1 -1.06,2.09 -1.62,3.12 -0.58817,-1.04316 -1.02584,-2.16426 -1.3,-3.33 -0.84,-10.36 -1.58,-20.73 -2.34,-31.1 -0.48248,0.27131 -0.78643,0.77664 -0.8,1.33 -0.51,10.43 -1,20.86 -1.55,31.28 -0.24601,0.97501 -0.65511,1.9014 -1.21,2.74 -0.57,-0.8 -1.48,-1.52 -1.63,-2.39 -0.88,-5 -1.53,-10 -2.35,-15 -1,-6.43 -2.17,-12.84 -3.26,-19.26 h -1 v 35.68 l -1.59,0.26 c -2.73,-9.24 -5.47,-18.48 -8.29,-28 -0.71,7.7 -1.39,15.12 -2.06,22.54 h -1.44 l -5.41,-23.39 -0.72,0.08 -1.4,19.56 -1.66,0.07 c -1.96,-9.54667 -3.916667,-19.1 -5.87,-28.66 l -0.77,-0.1 -2.25,23.49 -1.23,0.16 c -3.61,-7.86 -3.43,-16.67 -5.39,-25.84 -0.92,4.38 -1.67,7.93 -2.42,11.48 h -1.46 c -1.53,-6.51 -3.05,-13 -4.83,-20.6 0,3.37 0.1,5.7 -0.05,8 -0.172612,1.01708 -0.499725,2.0018 -0.97,2.92 -0.73,-0.82 -1.84,-1.52 -2.14,-2.48 -1.89,-6.14 -3.61,-12.34 -5.4,-18.57 -0.48,3.55333 -0.956667,7.09333 -1.43,10.62 l -1.11,0.09 c -0.873333,-2.33333 -1.736667,-4.66667 -2.59,-7 l -0.55,0.1 c 1.36,7.8 2.73,15.59 4.21,24 l 2.37,-12 h 1.73 L 50.68,296 c 2,-10.14 2,-10.14 4.28,-11.19 1.213333,8.42667 2.416667,16.84333 3.61,25.25 0.965586,-3.8657 1.696916,-7.78616 2.19,-11.74 0.11,-0.69 1.14,-1.23 1.75,-1.84 0.459882,0.64706 0.79869,1.37211 1,2.14 0.15,2.87 -0.18,5.78 0.2,8.6 0.9,6.51 2.11,13 3.2,19.46 l 0.91,-0.22 2,-19.34 1.76,-0.11 c 2.29,10.16 1.83,20.83 4.88,30.95 0.393857,-1.34279 0.641954,-2.72408 0.74,-4.12 0.47,-4.18 0.85,-8.37 1.46,-12.53 0.12,-0.83 1.11,-1.53 1.7,-2.29 0.555974,0.83331 0.97149,1.75218 1.23,2.72 0.36,4.57 0.47,9.18 0.84,13.75 0.22,2.66 0.78,5.29 1.18,7.94 1.13,-3.93 1.23,-7.77 1.91,-11.51 0.68,-3.74 0.14,-7.78 3.88,-11.39 0.67,9.86 1.27,18.79 1.88,27.72 h 1.11 c 1.42,-8 0.46,-16.53 4.16,-24 l 1.13,0.25 c 1.166667,13.42 2.34,26.83667 3.52,40.25 2.08,-11.79 2.36,-23.81 5.76,-35.28 l 1.3,0.05 c 1.14,9.72 2.28333,19.44 3.43,29.16 h 1 c 1.15,-7 2.27,-14.09 3.51,-21.12 0.33758,-1.01117 0.82646,-1.96534 1.45,-2.83 0.49,1.09 1.32,2.15 1.42,3.27 0.56,6.66 1,13.33 1.41,20 2,-6.75 3.32,-13.53 4.71,-20.29 0.36416,-1.13267 0.85035,-2.2224 1.45,-3.25 l 1.18,0.4 c 1.33333,9.20667 2.66667,18.42 4,27.64 l 0.62,-0.09 c 0.9,-9.48667 1.80333,-18.97667 2.71,-28.47 h 1.54 l 3.75,15.23 h 0.75 c 0.72,-7.1 1.43667,-14.20333 2.15,-21.31 h 1.67 c 1.14,7.53333 2.28333,15.06 3.43,22.58 1.83,-9 2.75,-18 3.76,-26.95 0.25306,-0.8637 0.63756,-1.68329 1.14,-2.43 0.61,0.74 1.61,1.4 1.78,2.22 1.51,7.5 2.88,15 4.44,23.31 1.39,-11.72 2.71,-22.79 4,-33.85 h 1.58 c 0.92,4.32667 1.84333,8.66 2.77,13 l 0.55,-0.06 c 1.21333,-7.02667 2.43,-14.05 3.65,-21.07 h 1.22 l 1.15,11.38 c 1.78,-6.45 2.8,-12.92 4,-19.36 0.17,-1 1,-1.83 1.6,-2.74 l 1.48,0.46 v 10.66 h 1 c 2.29333,-8.2 4.58,-16.4 6.86,-24.6 l 1.25,0.12 v 10.54 c 0.90033,-0.45048 1.55815,-1.27274 1.8,-2.25 1.56,-5.87 3,-11.76 4.64,-17.62 0.19,-0.67 0.92,-1.19 1.4,-1.78 0.5487,0.64282 1.04055,1.33208 1.47,2.06 0.17804,0.56927 0.26248,1.16367 0.25,1.76 h 0.89 z M 28.92,170.58 c 1.53,10.5 4,19.63 9.25,27.83 10.07,15.65 28.84,8.85 34.56,-3.28 z M 206.35,170.52 162,195.43 c 1.74,2.13 3,3.87 4.42,5.36 8.16,8.29 20.06,9.19 27.29,1.63 8.15,-8.56 10.52,-19.63 12.64,-31.9 z M 31.22,249.69 c 0.66,6.15 1.27,11.9 1.92,17.92 0.5,-0.39 0.63,-0.44 0.68,-0.54 1.58,-3.4 0,-8.11 4.35,-10.4 0.16,-0.09 0.08777,-0.71056 0,-1.07 -0.54265,-2.22228 -1.05,-4.44 -1.61,-6.74 l -1.79,3.31 z" />
    <path
       id="path5"
       d="m 31.22,249.69 3.59,2.48 1.79,-3.31 c 0.56,2.3 2.177271,9.96645 2.687271,12.19645 0.08,0.35 -0.424019,0.0334 -0.544019,0.10339 -4.3,2.29 -3.303252,2.51016 -4.883252,5.91016 0,0.1 -0.18,0.15 -0.68,0.54 -0.69,-6.02 -1.3,-11.77 -1.96,-17.92 z m 171.38,0.24 -1.55,23.54 h -0.89 c 0.0125,-0.59633 -0.072,-1.19073 -0.25,-1.76 -0.42945,-0.72792 -0.9213,-1.41718 -1.47,-2.06 -0.48,0.59 -1.21,1.11 -1.4,1.78 -1.59,5.86 -3.08,11.75 -4.64,17.62 -0.24185,0.97726 -0.89967,1.79952 -1.8,2.25 v -10.56 l -1.25,-0.12 c -2.28,8.2 -4.56667,16.4 -6.86,24.6 h -1 v -10.67 l -1.48,-0.46 c -0.55,0.91 -1.43,1.77 -1.6,2.74 -1.17,6.44 -2.19,12.91 -4,19.36 l -1.15,-11.38 h -1.22 c -1.22,7.02 -2.43667,14.04333 -3.65,21.07 l -0.55,0.06 c -0.92,-4.33333 -1.84333,-8.66667 -2.77,-13 h -1.58 c -1.31,11.06 -2.63,22.13 -4,33.85 -1.56,-8.28 -2.93,-15.81 -4.44,-23.31 -0.17,-0.82 -1.17,-1.48 -1.78,-2.22 -0.50244,0.74671 -0.88694,1.5663 -1.14,2.43 -1,9 -1.93,18 -3.76,26.95 -1.14,-7.52667 -2.28333,-15.05333 -3.43,-22.58 h -1.67 c -0.71333,7.10667 -1.43,14.21 -2.15,21.31 h -0.75 L 136.62,334 h -1.54 c -0.91333,9.49333 -1.81667,18.98333 -2.71,28.47 l -0.62,0.09 c -1.33333,-9.22 -2.66667,-18.43333 -4,-27.64 l -1.18,-0.4 c -0.59965,1.0276 -1.08584,2.11733 -1.45,3.25 -1.39,6.76 -2.67,13.54 -4.71,20.29 -0.45,-6.67 -0.85,-13.34 -1.41,-20 -0.1,-1.12 -0.93,-2.18 -1.42,-3.27 -0.62354,0.86466 -1.11242,1.81883 -1.45,2.83 -1.24,7 -2.36,14.08 -3.51,21.12 h -1 c -1.14,-9.72 -2.28333,-19.44 -3.43,-29.16 l -1.3,-0.05 c -3.4,11.47 -3.68,23.49 -5.76,35.28 -1.18,-13.42 -2.353333,-26.83667 -3.52,-40.25 l -1.13,-0.25 c -3.7,7.43 -2.74,16 -4.16,24 H 91.21 C 90.6,339.38 90,330.45 89.33,320.59 c -3.74,3.61 -3.22,7.76 -3.88,11.39 -0.66,3.63 -0.78,7.58 -1.91,11.51 -0.4,-2.65 -1,-5.28 -1.18,-7.94 -0.37,-4.57 -0.48,-9.18 -0.84,-13.75 -0.234712,-0.99252 -0.633531,-1.93887 -1.18,-2.8 -0.59,0.76 -1.58,1.46 -1.7,2.29 -0.61,4.16 -1,8.35 -1.46,12.53 -0.09805,1.39592 -0.346143,2.77721 -0.74,4.12 -3,-10.12 -2.59,-20.79 -4.88,-30.95 l -1.76,0.11 -2,19.34 -0.91,0.22 c -1.09,-6.48 -2.3,-12.95 -3.2,-19.46 -0.38,-2.82 -0.05,-5.73 -0.2,-8.6 -0.20131,-0.76789 -0.540118,-1.49294 -1,-2.14 -0.61,0.61 -1.64,1.15 -1.75,1.84 -0.488082,3.93998 -1.212724,7.84704 -2.17,11.7 -1.2,-8.40667 -2.403333,-16.82333 -3.61,-25.25 -2.3,1.05 -2.3,1.05 -4.28,11.19 l -3.63,-22.78 h -1.73 l -2.37,12 c -1.48,-8.45 -2.85,-16.24 -4.21,-24 l 0.55,-0.1 c 0.86,2.32 1.723333,4.65333 2.59,7 l 1.11,-0.09 c 0.48,-3.52667 0.956667,-7.06667 1.43,-10.62 1.79,6.23 3.51,12.43 5.4,18.57 0.3,1 1.41,1.66 2.14,2.48 0.490735,-0.90169 0.841415,-1.87281 1.04,-2.88 0.15,-2.32 0.05,-4.65 0.05,-8 1.78,7.59 3.3,14.09 4.83,20.6 h 1.46 c 0.75,-3.55 1.5,-7.1 2.42,-11.48 2,9.17 1.78,18 5.39,25.84 l 1.23,-0.16 2.25,-23.49 0.77,0.1 c 1.96,9.55333 3.916667,19.10667 5.87,28.66 l 1.66,-0.07 1.4,-19.56 0.72,-0.08 5.41,23.39 h 1.44 c 0.67,-7.42 1.35,-14.84 2.06,-22.54 2.82,9.51 5.56,18.75 8.29,28 l 1.59,-0.26 v -35.76 h 1 c 1.09,6.42 2.22,12.83 3.26,19.26 0.82,5 1.47,10.05 2.35,15 0.15,0.87 1.06,1.59 1.63,2.39 0.55489,-0.8386 0.96399,-1.76499 1.21,-2.74 0.57,-10.42 1,-20.85 1.55,-31.28 0.0136,-0.55336 0.31752,-1.05869 0.8,-1.33 0.76,10.37 1.5,20.74 2.34,31.1 0.27416,1.16574 0.71183,2.28684 1.3,3.33 0.56,-1 1.47,-2 1.62,-3.12 0.58587,-5.29519 1.4504,-10.55581 2.59,-15.76 1.23333,8.32667 2.46667,16.66 3.7,25 H 125 l 4.56,-42.69 h 0.6 c 1.16,13.36 2.33,26.71 3.59,41.18 1.16,-1.38 2.25,-2.08 2.34,-2.89 0.9,-8 1.7,-16.02333 2.4,-24.07 0.46,-5.24 0.72,-10.51 1.44,-15.79 l 2.73,32.77 1.14,0.38 c 0.61141,-1.22947 1.08109,-2.52444 1.4,-3.86 1.34,-11.07 2.58,-22.15 3.87,-33.23 0,-0.21 0.26,-0.4 0.58,-0.85 0.65,12.48 1.28,24.71 1.92,36.93 l 1.72,0.09 3.45,-26.32 h 0.34 l 2.82,22.56 1.3,0.1 c 3,-10 2.47,-20.58 4.93,-30.8 l 2.87,23.16 h 1.37 c 2.61,-10.8 2.27,-22 4.34,-33 0.48,6.15 0.93,12.29 1.5,18.43 0.26534,0.9422 0.6843,1.83418 1.24,2.64 0.56,-0.78 1.46,-1.5 1.63,-2.36 1.56,-7.77 3,-15.56 4.45,-23.33 0.15,-0.75 0.43,-1.48 0.65,-2.22 l 1.06,0.08 v 16.6 l 1.39,0.12 c 3.25,-7.39 4.61,-15.27 5.85,-23.45 0.76,3.16 1.47,6.34 2.32,9.48 0.18,0.68 0.89,1.21 1.36,1.81 0.55,-0.52 1.39,-0.95 1.62,-1.6 1.46,-4.16 2.78,-8.38 4.15,-12.57 z"
       inkscape:label="mouth"
       style="mix-blend-mode:normal;fill:#8a0201;fill-opacity:1;stroke:#8a0201;stroke-width:0.3;stroke-dasharray:none;stroke-opacity:1;paint-order:markers stroke fill"
       sodipodi:nodetypes="cccsccccccccccccccccccccccccccccccccccccccccccccccccccccccccsccccccccccccccccccccccccccccccccccccccccccccccccccccccccccccccccccccccccccccccccccccccccccccccc" />
    <path
       fill="#115bcb"
       d="M28.92,170.58l43.81,24.55c-5.72,12.13-24.49,18.93-34.56,3.28C32.9,190.21,30.45,181.08,28.92,170.58Z"
       id="path3"
       inkscape:label="left eye"
       style="stroke:#115bcb;stroke-opacity:1" />
    <path
       fill="#115bcb"
       d="M206.35,170.52c-2.12,12.27-4.49,23.34-12.69,31.9-7.23,7.56-19.13,6.66-27.29-1.63-1.47-1.49-2.68-3.23-4.42-5.36Z"
       id="path4"
       inkscape:label="right eye"
       style="stroke:#115bcb;stroke-opacity:1" />
  </g>
</svg>
