<svg xmlns="http://www.w3.org/2000/svg" viewBox="0 0 735.75 736.5"><g id="Layer_2" data-name="Layer 2"><g id="Layer_1-2" data-name="Layer 1"><path fill="#44a0c2" d="M735.75,287.71c-.8,3-1.38,6-2.44,8.92-2.17,5.89-5.93,6.88-10.52,2.63-4.95-4.57-9.62-9.45-14.39-14.21q-31-31-62-62c-.78-.78-1.62-1.51-3.44-3.19A25.67,25.67,0,0,1,640.2,224q-135.11,135-270.24,270c-5.94,5.94-12.61,9.81-21,7.83-4.16-1-8.7-3-11.7-6q-47.7-47.1-94.9-94.73c-9.24-9.3-8.8-22.32.57-31.71Q377.59,234.58,512.32,99.7c1.75-1.76,3.71-3.31,5.69-5.07-9.27-9.3-18-18-26.69-26.76q-25-25-50.08-50a32.27,32.27,0,0,1-4.56-5.42c-2.9-4.55-1.59-8.19,3.45-10C442,1.73,443.9,1.29,445.8.75H720c8.22,1.87,13.51,6.81,15.73,15Z"/><path fill="#44a0c2" d="M379.25,116.82h-5q-127.18,0-254.37,0c-17.56,0-30,7.75-37.74,23.31-2.9,5.85-3.24,12.24-3.24,18.65q0,219.33,0,438.67c0,9.11-.25,18.26.47,27.32,1.46,18.18,17.74,33.22,36,33.92,1.74.07,3.49.12,5.24.12q229.26,0,458.53.09c14.44,0,26-4.85,34.63-16.48,5.27-7.1,7.21-15.2,7.21-23.92q0-48.13,0-96.28V358.65c1.42,1.31,2.23,2,3,2.77q36,36,72,72.12a8.52,8.52,0,0,1,2.28,5.43c.12,47.7.3,95.41,0,143.11-.39,68.71-43.52,126.88-109,147.49a152.67,152.67,0,0,1-46.11,6.82q-192.92,0-385.85,0c-71.9-.08-132.85-47.25-151-116.55a151.75,151.75,0,0,1-4.79-38.9q0-193.11,0-386.23C1.61,123.31,48.77,62.5,117.83,44.24a154,154,0,0,1,39.64-4.86q70.25,0,140.48,0a8.8,8.8,0,0,1,6.88,2.79q35.54,35.73,71.21,71.3C376.91,114.3,377.73,115.22,379.25,116.82Z"/></g></g></svg>