<svg id="Layer_1" data-name="Layer 1" xmlns="http://www.w3.org/2000/svg" viewBox="0 0 19 18"><defs><style>.cls-1{fill:#44a0c2;}</style></defs><g id="_-Product-Icons" data-name="ðŸ”-Product-Icons"><g id="ic_fluent_share_24_filled" data-name="ic fluent share 24 filled"><path id="_-Color" data-name="ðŸŽ¨-Color" class="cls-1" d="M6.75,4h3.46a.75.75,0,0,1,.1,1.49H6.75A2.26,2.26,0,0,0,4.5,7.6v9.65a2.24,2.24,0,0,0,2.09,2.24h9.66a2.25,2.25,0,0,0,2.24-2.1v-.65a.75.75,0,0,1,1.49-.1v.6A3.74,3.74,0,0,1,16.45,21H6.75A3.75,3.75,0,0,1,3,17.45V7.75A3.74,3.74,0,0,1,6.55,4ZM14.5,6.54V3.75a.75.75,0,0,1,1.19-.61l.08.07,6,5.75a.75.75,0,0,1,.08,1l-.08.08-6,5.75a.75.75,0,0,1-1.26-.43V12.45h-.32a8.78,8.78,0,0,0-6.86,3.31A.75.75,0,0,1,6,15.13c.83-5.14,3.6-8,8.19-8.56l.3,0v0Z" transform="translate(-3 -3)"/></g></g></svg>