<?xml version="1.0" encoding="UTF-8" standalone="no"?>
<!-- Generator: Adobe Illustrator 12.0.1, SVG Export Plug-In . SVG Version: 6.00 Build 51448)  -->
<svg
    xmlns:rdf="http://www.w3.org/1999/02/22-rdf-syntax-ns#"
    xmlns="http://www.w3.org/2000/svg"
    xmlns:cc="http://web.resource.org/cc/"
    xmlns:xlink="http://www.w3.org/1999/xlink"
    xmlns:dc="http://purl.org/dc/elements/1.1/"
    xmlns:svg="http://www.w3.org/2000/svg"
    xmlns:inkscape="http://www.inkscape.org/namespaces/inkscape"
    xmlns:sodipodi="http://sodipodi.sourceforge.net/DTD/sodipodi-0.dtd"
    xmlns:ns1="http://sozi.baierouge.fr"
    id="Layer_1"
    xml:space="preserve"
    overflow="visible"
    viewBox="0 0 493.202 491.234"
    version="1.1"
    enable-background="new 0 0 493.202 491.234"
  >
<g
      clip-rule="evenodd"
      fill-rule="evenodd"
    >
	<path
        fill="#7E8082"
        d="m88.894 219.5c-1.166 8.168-5.027 13.639-9 19-20.307-11.188-37.287-25.438-52-44-4.253-5.365-12.09-12.649-13.5-18.5-2.101-8.716 0.023-19.724 1.5-29 4.652-29.215 14.736-49.236 30-66.5 20.46-23.142 44.486-40.729 77.5-51.5 22.183-7.237 46.783-8.071 70-6 23.682 2.112 44.579 12.036 69.5 10 18.542-1.515 33.673-7.355 48-13-14.168 8.728-29.43 16.425-48 20-19.933 3.837-42.071 1.543-64.5 0.5-45.144-2.1-79.169 7.485-102.5 32-24.38 25.616-38.549 75.662-27 124 2.646 11.073 6.741 22.335 11.5 33-6.13-20.98-14.333-42.097-14.5-69-0.323-52.133 22.647-88.29 58.5-107 25.28-13.193 58.408-12.693 96-10 48.692 3.488 77.027-12.489 106.5-30.5-3.718-0.355-6.622 2.212-10 3.5-16.083 6.133-33.588 13.782-55 15-16.289 0.926-31.528-2.332-46-6-47.657-12.079-93.458-1.49-126.5 17.5-42.966 24.694-77.208 61.437-76 130.5-5.579-4.879-6.343-11.373-5.5-21.5 3.018-36.245 19.185-63.918 39-84 16.892-17.12 39.92-32.4 66-42 3.656-1.346 6.99-3.497 10.5-4.5 19.308-5.518 43.935-7.005 66-5.5 21.73 1.482 41.457 8.771 62 10 26.82 1.604 49.363-9.076 68-17.5-9.604 1.723-17.976 6.682-27.5 10-12.869 4.483-29.788 7.087-47.5 5.5-20.898-1.872-38.655-9.054-59-10-21.171-0.985-42.531 0.767-61.5 6-15.702 4.333-31.401 12.55-44.5 20.5-40.099 24.335-68.926 59.666-73 120.5-4.096-4.794-1.804-11.881-1-17 8.303-52.883 39.218-85.618 78.5-108 24.373-13.887 50.35-24.346 90.5-24 2.763 0.024 5.805-0.587 8.5-0.5 28.894 0.932 53.671 14.516 87 10 18.854-2.554 35.816-10.398 51.5-17 7.528-3.169 16.176 4.208 13 13-1.677 4.643-12.438 8.625-18.5 12-25.457 14.172-52.537 26.648-94.5 23-16.688-1.451-40.312-3.366-61-0.5-35.201 4.875-59.494 24.606-73 52-2.65 5.376-4.579 11.49-7.5 18.5-2.562 18.352-5.973 40.01-3 59.5 1.669 10.945 4.665 22.032 7.5 30.5 0.818 2.43 2.912 4.77 4.504 7zm-15.5-72c3.344-45.501 29.072-85.063 75-95.5 21.765-4.946 48.841-2.995 73.5-1.5 35.785 2.169 62.896-6.333 87.5-19.5 4.674-2.501 20.715-9.439 22.5-14.5 2.719-7.708-3.597-12.357-10-10.5-0.64 0.027-0.692 0.641-1.5 0.5-0.105 3.202 3.904 0.294 5.5 0.5 12.839 6.667-0.295 13.123-8 17.5-16.011 9.096-33.747 18.737-52.5 22.5-32.051 6.431-65.809-2.019-98.5 0.5-56.142 4.325-91.396 45.414-94.5 100-1.754 30.84 3.403 53.3 12.5 74-8.106-25.38-13.295-49.52-11.496-74z"
    />
	<path
        d="m84.894 221.5c-9.097-20.7-14.254-43.16-12.5-74 3.104-54.586 38.358-95.675 94.5-100 32.691-2.519 66.449 5.931 98.5-0.5 18.753-3.763 36.489-13.404 52.5-22.5 7.705-4.377 20.839-10.833 8-17.5-1.596-0.206-5.605 2.702-5.5-0.5 0.808 0.141 0.86-0.473 1.5-0.5 6.403-1.857 12.719 2.792 10 10.5-1.785 5.061-17.826 11.999-22.5 14.5-24.604 13.167-51.715 21.669-87.5 19.5-24.659-1.495-51.735-3.446-73.5 1.5-45.928 10.437-71.656 49.999-75 95.5-1.795 24.48 3.394 48.62 11.504 74z"
    />
	<path
        fill="#BB8748"
        d="m190.39 135c0.061-2.341 0.728 0.544 2 0v-4.5c4.468-10.004 13.125-19.618 27-17.5 9.227 1.409 13.288 8.98 19.5 14 2.875 8.078 1.992 15.434-1 22.5-4.488 2.179-6.876 6.457-11 9-11.706 1.285-25.966 1.483-29.5-7-0.792-0.042-1.907 0.24-2-0.5-3.25-3.75-5.12-8.88-5-16zm4.5-2.5c3.734-6.001 7.684-13.97 16-15.5 10.68-1.965 16.795 3.583 22.5 9-6.55-16.51-37.89-12.26-38.5 6.5zm8-1.5c3.165-5.791 13.428-8.619 21.5-5-5.63-6.19-20.43-3.38-21.5 5zm5.5 18c4.11 3.212 13.101 3.019 16-1-3.78 1.62-11.2 2.05-16 1zm23.5-0.5c-4.135 9.408-23.112 11.194-30 3 1.571 5.999 12.208 8.203 19.5 6.5 5.32-1.243 9.713-5.234 11.5-9-0.11-0.39-0.41-0.58-1-0.5z"
    />
	<path
        d="m233.39 126c-5.705-5.417-11.82-10.965-22.5-9-8.316 1.53-12.266 9.499-16 15.5 0.61-18.76 31.95-23.01 38.5-6.5z"
    />
	<path
        d="m224.39 126c-8.072-3.619-18.335-0.791-21.5 5 1.07-8.38 15.87-11.19 21.5-5z"
    />
	<path
        fill="#BB8748"
        d="m465.39 183c-5.424-1.576-8.119-5.881-12-9-5.659-1.507-9.273-5.06-16.5-5 6.92-15.747 17.309-28.025 28.5-39.5 0.581-0.082 0.89 0.11 1 0.5-3.15 16-4.02 36.14-1 53zm-13-31.5c-0.312 1.355-2.089 1.245-2 3 4.022-1.978 6.703-5.297 9-9-3.194 0.972-3.806 4.528-7 5.5 1.593-3.741 5.545-5.122 7.5-8.5-4.265 1.569-7.044 4.622-9 8.5 0.59 0.08 1.42-0.08 1.5 0.5zm2 3.5c3.346-2.488 6.123-5.544 8.5-9-3.81 2.02-7.08 4.58-8.5 9zm-5 13c3.887-2.113 6.502-5.498 9-9-4.22 1.78-6.75 5.25-9 9zm0 3.5c3.883-2.118 6.096-5.904 9-9-4.5 1.49-6.69 5.3-9 9zm3.5-0.5c4.496-1.004 6.021-4.978 8.5-8-2.98 0.52-6.25 5.08-8.5 8z"
    />
	<path
        d="m462.89 146c-2.377 3.456-5.154 6.512-8.5 9 1.42-4.42 4.69-6.98 8.5-9z"
    />
	<path
        d="m224.39 148c-2.899 4.019-11.89 4.212-16 1 4.8 1.05 12.22 0.62 16-1z"
    />
	<path
        d="m232.89 149c-1.787 3.766-6.18 7.757-11.5 9-7.292 1.703-17.929-0.501-19.5-6.5 6.888 8.194 25.865 6.408 30-3 0.59-0.08 0.89 0.11 1 0.5z"
    />
	<path
        d="m458.39 159c-2.498 3.502-5.113 6.887-9 9 2.25-3.75 4.78-7.22 9-9z"
    />
	<path
        fill="#E9EEF1"
        d="m201.89 160c1.528-0.361 1.822 0.511 3 0.5 2.302 8.247 0.938 19.835-6 22 3.41-5.71 7.12-14.85 3-22.5z"
    />
	<path
        fill="#E9EEF1"
        d="m228.39 160c0.581-0.082 0.89 0.11 1 0.5-3.608 7.326-0.527 18.124 4.5 21.5-7.33 2.96-11.6-18.5-5.5-22z"
    />
	<path
        fill="#E9EEF1"
        d="m206.39 160.5c5.587 1.328 13.413 1.328 19 0-3.311 8.121 0.279 17.482 4 23-9.493 1.758-17.953 2.122-27-0.5 3.81-4.75 6.88-14.24 4-22.5z"
    />
	<path
        fill="#BB8748"
        d="m2.894 161c16.126 35.707 42.076 61.591 75 80.5-1.686 3.481-3.504 6.829-7 8.5-21.256-15.411-39.662-33.672-54.5-55.5-3.475-7.025-6.709-14.291-11.5-20 13.857 31.643 37.683 57.651 66 76.5-3.057 5.443-8.287 8.713-12 13.5-21.378-18.956-39.069-41.598-51-70-0.857 3.735 1.81 8.092 3.5 11.5 5.25 10.584 12.959 21.11 19 31 8.936 9.73 17.727 19.606 27 29-6.77 4.397-10.773 11.561-21 12.5-17.132-32.87-35.877-66.79-33.5-117.5z"
    />
	<path
        d="m458.39 162.5c-2.904 3.096-5.117 6.882-9 9 2.31-3.7 4.5-7.51 9-9z"
    />
	<path
        d="m461.39 163c-2.479 3.022-4.004 6.996-8.5 8 2.25-2.92 5.52-7.48 8.5-8z"
    />
	<path
        d="m414.39 185c2.072-3.928 5.18-6.82 8.5-9.5-0.4 3.65-5.19 7.1-8.5 9.5z"
    />
	<path
        d="m422.89 179.5c-2.218 3.783-5.369 6.631-9 9 2.17-3.84 4.95-7.05 9-9z"
    />
	<path
        d="m426.39 179.5c-1.978 4.189-5.098 7.236-9 9.5 2.05-4.12 5.34-6.99 9-9.5z"
    />
	<path
        fill="#E9EEF1"
        d="m202.39 185.5c-27.523 1.489-55.869 2.57-78.5 9-5.416 1.539-11.314 2.892-15 6.5 36.678-13.479 88.052-15.357 134-13 29.428 1.51 57.558 4.026 80.5 14-0.586-3.246-5.021-3.608-7.5-4.5-24.554-8.839-54.593-10.739-86-11.5 1.77-1.23 4.995-1.005 6-3 35.752 2.581 72.643 4.024 95.5 19.5-76.04 2.422-148.27-0.501-232 0.5 20.083-16.344 58.138-16.252 90.5-19.5 4.46-0.45 8.04 0.63 12.5 2z"
    />
	<path
        d="m479.39 245c17.304-26.391-5.781-64.707-38.5-58-5.288 1.084-8.95 4.18-14.5 6.5 5.255-7.192 16.818-8.936 25-8.5 26.48 1.41 46.11 36.05 28 60z"
    />
	<path
        d="m477.39 234c4.623-24.668-10.149-44.087-38-39.5 24.63-9 46.86 15.07 38 39.5z"
    />
	<path
        fill="#7E8082"
        d="m418.39 195.5c0.855-0.022 1.295 0.372 1.5 1-1.773 1.894-2.959 4.374-6 5 0.21-3.29 3.68-3.32 4.5-6z"
    />
	<path
        fill="#7E8082"
        d="m420.39 198c2.067 0.6 3.417 1.917 4.5 3.5-0.686 2.648-3.632 3.035-4.5 5.5-1.923-0.744-3.407-1.926-4.5-3.5 0.64-2.69 3.76-2.91 4.5-5.5z"
    />
	<path
        d="m390.89 207.5c1.771-3.896 5.393-5.941 8-9 0.99 2.81-4.7 7.18-8 9z"
    />
	<path
        d="m398.89 202c0.945 1.941-5.186 7.634-8 9.5 1.76-4.07 5.17-6.5 8-9.5z"
    />
	<path
        d="m402.89 202.5c-1.976 4.19-5.269 7.064-9 9.5 2.05-4.12 5.24-7.09 9-9.5z"
    />
	<path
        fill="#7E8082"
        d="m468.39 246.5c-0.773 2.56-4.014 2.653-4.5 5.5 3.275-0.059 3.12-3.546 6-4 0.591 2.076 3.056 2.278 3.5 4.5-1.763 1.237-3.637 2.364-4.5 4.5-17.086-15.081-31.868-32.464-48-48.5 1.038-2.128 3.412-2.921 4.5-5 15.46 13.21 28.19 29.15 43 43z"
    />
	<path
        fill="#BB8748"
        d="m412.89 204.5c2.979 0.855 3.426 4.24 6 5.5-4.725 7.108-11.177 12.49-17.5 18-1.092-2.575-3.57-3.763-4.5-6.5 5.15-5.85 11.11-10.89 16-17zm-11 14.5c3.572-2.427 6.696-5.304 9-9-3.08 0.92-6.93 5.39-9 9zm-0.5 3.5c3.819-1.851 8.187-5.809 8.5-9.5-2.63 3.37-6.43 5.57-8.5 9.5zm3.5-0.5c4.406-1.26 6.509-4.824 9-8-4.17 1.49-6.06 5.27-9 8z"
    />
	<path
        fill="#E9EEF1"
        d="m244.89 205.5c-1.678 1.155-5.492 0.175-8 0.5 1.06-1.6 6.24-1.22 8-0.5z"
    />
	<path
        fill="#E9EEF1"
        d="m119.39 205.5c0.988 1.347-5.365-0.384-6 1 18.447 0.134 41.317 1.19 64 0-10.834-1.166-23.833-0.167-35.5-0.5-2.197 0.271-9.01-0.308-3.5-0.5h9 18c23.815-0.052 48.641 0.079 71 0-0.136 1.031-2.214 0.119-2 1.5 2.138 0.71 8.646-0.897 11.5 0.5-1.369 0.798-3.987 0.346-4.5 2-17.025-2.335-38.068 3.125-54 0-1.577-0.309-2.062-1.027-3.5-1.5-29.2-1.103-58.691 1.75-86.5 0v-2c6.36-1.14 14.82-0.18 22-0.5z"
    />
	<path
        fill="#E9EEF1"
        d="m121.39 206c3.005-1.161 8.163-0.171 12-0.5-3 1.16-8.16 0.17-12 0.5z"
    />
	<path
        fill="#E9EEF1"
        d="m333.89 208c-18.204 2.442-38.454-0.378-55.5 0 5.503-1.497 14.497 0.497 20-1 0.474-1.807-1.97-0.697-3-1 8.343-0.693 19.924-0.439 32 0 2.12 0.08 6.47-1.29 6.5 2z"
    />
	<path
        fill="#E9EEF1"
        d="m246.39 207c1.232-0.066 2.409-0.076 3 0.5 0 0.76-3.7 1.1-3-0.5z"
    />
	<path
        fill="#E9EEF1"
        d="m264.89 208c0.372-1.128 2.805-0.195 4-0.5-0.56 2.05-2.21 0.12-4 0.5z"
    />
	<path
        d="m410.89 210c-2.304 3.696-5.428 6.573-9 9 2.07-3.61 5.92-8.08 9-9z"
    />
	<path
        d="m131.89 213c0.486 0.014 0.388 0.612 0.5 1-33.324 27.454-61.399 62.623-78 108.5-5.488 15.166-10.431 32.716-12 50-2.288 25.206-0.8 55.409-2 84-4.329-61.037 1.122-114.49 23.5-159 16.917-33.646 38.536-61.617 67-83.5 0.13-0.54 1-0.34 1-1z"
    />
	<path
        d="m409.89 213c-0.313 3.691-4.681 7.649-8.5 9.5 2.07-3.93 5.87-6.13 8.5-9.5z"
    />
	<path
        fill="#E9EEF1"
        d="m467.89 259.5c-16.879 22.454-37.039 41.627-53 65-12.632-4.467-17.719-15.977-25-28.5-6.421-11.044-12.237-21.33-15.5-34.5-1.147-4.631-0.972-9.227-0.5-13 1.93-0.1 1.345-2.358 3.5-1 3.192-3.437 6.952-6.967 10.5-10.5 3.332-3.319 6.186-8.05 10.5-9-5.751 9.416-15.74 14.593-21.5 24 8.109-6.557 15.291-14.042 22-22 1.569-0.236 1.321 1.346 2.5 1.5 7.384-5.283 12.396-12.938 19.5-18.5 16.44 14.73 30.55 31.78 47 46.5zm-89 0c8.718-4.615 12.822-13.844 21-19 6.239-8.427 15.1-14.234 21-23-14.87 13.13-28.35 27.65-42 42zm49-30c-5.218 4.949-9.492 10.841-15.5 15-8.219 11.114-20.129 18.537-28 30 15.515-14.152 30.298-29.035 44.5-44.5-0.11-0.39-0.41-0.58-1-0.5zm17.5 18.5c-3.038 5.295-8.109 8.558-11 14-9.038 9.711-17.578 20.359-26 30-2.947 3.374-6.331 6.759-8 11 16.403-17.43 31.352-36.315 46.5-55h-1.5zm12 7.5c-16.271 19.729-32.87 39.13-49 59 3.297-0.688 5.154-4.215 7-6.5 14.425-17.856 29.599-34.586 43.5-52.5h-1.5zm6.5 3c-15.795 21.038-34.174 39.492-50 60.5 18.119-19.214 35.049-39.618 51.5-60.5h-1.5z"
    />
	<path
        d="m68.394 456c-10.021-115.46 31.314-190.72 88.5-242.5 0.581-0.082 0.89 0.11 1 0.5-42.882 40.106-76.948 90.925-87 163.5-3.299 23.85-1.121 49.64-2.496 78.5z"
    />
	<path
        d="m191.39 213.5c-50.226 57.942-87.128 129.2-81.5 243-2.264-5.475-0.922-11.729-1-17.5-0.624-46.208 5.33-88.637 18.5-123 15.606-40.719 37.247-73.846 62.5-102.5h1.5z"
    />
	<path
        d="m240.89 213.5c51.688 57.2 88.17 130.51 81.5 243.5-1.118-26.126-0.861-51.057-3.5-75-2.587-23.478-8.349-46.026-16-65.5-15.565-39.613-35.8-73.432-62-101v-2z"
    />
	<path
        d="m273.89 213.5c30.235 24.669 53.899 60.019 70.5 98 17.754 40.62 21.974 90.304 19.5 145.5-2.474-20.524 0.054-45.022-1.5-64.5-6.413-80.411-43.389-135.13-88-177.5-0.58-0.08-0.42-0.91-0.5-1.5z"
    />
	<path
        d="m298.89 213.5h1.5c31.045 24.955 55.54 56.461 73 95 7.892 19.596 14.056 41.801 17 67 2.883 24.67 1.344 52.939 1 81-1.929-21.699 0.069-50.111-2-74.5-4.375-51.559-22.462-91.828-47.5-123.5-13.156-16.642-25.928-30.896-42-43.5-0.61-0.22-1.02-0.64-1-1.5z"
    />
	<path
        d="m413.89 214c-2.491 3.176-4.594 6.74-9 8 2.94-2.73 4.83-6.51 9-8z"
    />
	<path
        d="m420.89 217.5c-5.9 8.766-14.761 14.573-21 23-8.178 5.156-12.282 14.385-21 19 13.65-14.35 27.13-28.87 42-42z"
    />
	<path
        fill="#E9EEF1"
        d="m489.89 222.5c0.958-1.086 0.315 3.656 0.5 5-0.95 1.09-0.31-3.65-0.5-5z"
    />
	<path
        d="m428.89 230c-14.202 15.465-28.985 30.348-44.5 44.5 7.871-11.463 19.781-18.886 28-30 6.008-4.159 10.282-10.051 15.5-15 0.59-0.08 0.89 0.11 1 0.5z"
    />
	<path
        fill="#E9EEF1"
        d="m488.89 232.5c0.978 3.485-0.869 8.458-3.5 10 1.25-3.25 3.13-5.87 3.5-10z"
    />
	<path
        d="m446.89 248c-15.148 18.685-30.097 37.57-46.5 55 1.669-4.241 5.053-7.626 8-11 8.422-9.641 16.962-20.289 26-30 2.891-5.442 7.962-8.705 11-14h1.5z"
    />
	<path
        fill="#7E8082"
        d="m473.89 253c0.581-0.082 0.89 0.11 1 0.5-0.802 2.63-3.227 5.972-6 5 0.87-2.64 4.16-2.84 5-5.5z"
    />
	<path
        d="m458.89 255.5c-13.901 17.914-29.075 34.644-43.5 52.5-1.846 2.285-3.703 5.812-7 6.5 16.13-19.87 32.729-39.271 49-59h1.5z"
    />
	<path
        d="m465.39 258.5c-16.451 20.882-33.381 41.286-51.5 60.5 15.826-21.008 34.205-39.462 50-60.5h1.5z"
    />
	<path
        fill="#E9EEF1"
        d="m35.394 281c0.581-0.081 0.89 0.11 1 0.5-11.417 22.943-21.567 49.729-24 80 0.592-31.91 11.925-57.41 23-80.5z"
    />
	<path
        fill="#E9EEF1"
        d="m413.39 327c4.197 10.136 5.864 22.803 6.5 36.5-1.72-12.6-3.91-24.75-6.5-36.5z"
    />
	<path
        fill="#E9EEF1"
        d="m11.394 364c2.097 1.644-0.253 5.141 0.5 8.5-2.069-0.94-0.832-6.68-0.5-8.5z"
    />
	<path
        d="m418.89 388.5h1.5c-0.273 0.727 0.584 2.584-0.5 2.5-1.79 0.07 0.05-1.28-1-2.5z"
    />
	<path
        d="m419.39 392c1.37 0.01 1.188 2.358 0.5 3-1.1-0.06-0.21-2.12-0.5-3z"
    />
	<path
        d="m418.89 397h1.5c-0.61 6.224 0.165 12.335-0.5 17-2.17-3.93-0.08-12.52-1-17z"
    />
	<path
        d="m419.39 415c1.638 1.226 0.19 2.446 1 4.5-2.29-0.22-1.22-3.01-1-4.5z"
    />
	<path
        d="m418.89 421c1.791-0.291 1.521 1.479 1.5 3-1.51 0.02-1.24-1.75-1.5-3z"
    />
	<path
        d="m419.39 428.5c0.546 5.009 1.994 11.295-0.5 14.5 0.31-4.7-0.62-10.62 0.5-14.5z"
    />
	<path
        d="m418.89 444c2.213-0.055 1.469 4.464 0 5v-5z"
    />
	<path
        d="m418.89 450c2.158 0.343 0.46 4.54 1 6.5-2.15-0.34-0.46-4.54-1-6.5z"
    />
	<path
        fill="#BB8748"
        d="m426.39 462c0.52 6.187 3.533 22.008-1 25.5-3.344 2.576-15.289 1.202-23 1.5-29.192 1.127-52.916-0.258-76-0.5-104.7-1.097-189.96-0.5-294-0.5-9.036 0-21.835 1.417-25.5-1.5-4.616-3.674-2.427-18.418-1.5-24.5 2.88-1.28 8.2-1.589 11-1.5 64.96 2.058 137.34 0.5 208 0.5 72.33 0 138.6-0.3 202 1zm-391 7.5c-0.39 0.11-0.582 0.419-0.5 1 34.884 0.8 75.765 0.879 109 0-36.05-1.89-67.648-0.32-108.5-1zm220 1c0.057 0.61 0.149 1.184 1 1 35.366-0.444 70.646 2.066 108-0.5-39.64-0.56-70.49-1.49-109-0.5zm-203 3.5c36.124 1.634 82.549 1.674 119.5 0-39.22-0.65-87.506-1.11-119.5 0zm220.5 0c0.854 2.685 4.383 1.429 6 1.5 38.897 1.704 79.036-0.617 113.5-1-38.8-1.14-81.4-0.21-119.5-0.5zm-179.5 2.5c-19.825-0.337-41.507 0.676-64.5 0-0.39 0.11-0.582 0.419-0.5 1 31.82 1.064 69.805 0.325 98 0.5-11.32-1.7-21.95-1.31-32.996-1.5zm156.5 2c7.116 1.584 16.777 0 25 0 23.642 0 48.805 1.671 72-0.5-38.595-1.098-58.174-0.813-98.5-1 0.16 1.79 0.55 1.29 1.5 1.5z"
    />
	<path
        d="m143.89 470.5c-33.235 0.879-74.116 0.8-109 0-0.082-0.581 0.11-0.89 0.5-1 40.852 0.68 72.45-0.89 108.5 1z"
    />
	<path
        d="m364.39 471c-37.354 2.566-72.634 0.056-108 0.5-0.851 0.184-0.943-0.39-1-1 38.51-0.99 69.36-0.06 109 0.5z"
    />
	<path
        d="m171.89 474c-36.951 1.674-83.376 1.634-119.5 0 31.994-1.11 80.28-0.65 119.5 0z"
    />
	<path
        d="m392.39 474.5c-34.464 0.383-74.603 2.704-113.5 1-1.617-0.071-5.146 1.185-6-1.5 38.1 0.29 80.7-0.64 119.5 0.5z"
    />
	<path
        d="m126.39 478c-28.195-0.175-66.18 0.564-98-0.5-0.082-0.581 0.11-0.89 0.5-1 22.993 0.676 44.675-0.337 64.5 0 11.05 0.19 21.68-0.2 33 1.5z"
    />
	<path
        d="m248.39 477c40.326 0.187 59.905-0.098 98.5 1-23.195 2.171-48.358 0.5-72 0.5-8.223 0-17.884 1.584-25 0-0.95-0.21-1.34 0.29-1.5-1.5z"
    />
	<path
        d="m450.89 151c1.956-3.878 4.735-6.931 9-8.5-1.955 3.378-5.907 4.759-7.5 8.5 3.194-0.972 3.806-4.528 7-5.5-2.297 3.703-4.978 7.022-9 9-0.089-1.755 1.688-1.645 2-3-0.08-0.58-0.91-0.42-1.5-0.5z"
    />
	<path
        fill="#BB8748"
        d="m457.89 180.5c-4.037 0.41-8.161-0.857-12.5-0.5-15.318 1.26-24.987 10.561-34 18.5-3.136-3.197-5.534-7.132-9-10 6.4-18.82 41.59-22.7 55.5-8zm-44 8c3.631-2.369 6.782-5.217 9-9-4.05 1.95-6.83 5.16-9 9zm9-13c-3.32 2.68-6.428 5.572-8.5 9.5 3.31-2.4 8.1-5.85 8.5-9.5zm-5.5 13.5c3.902-2.264 7.022-5.311 9-9.5-3.66 2.51-6.95 5.38-9 9.5z"
    />
	<path
        fill="#E9EEF1"
        d="m484.89 243.5c0.355 3.861-3.984 7.344-6.5 10-19.466-19.367-38.255-39.413-57-59.5 9.82-10.872 28.679-14.835 44-8 19.076 8.51 29.907 36.376 19 57-1.273 2.408-4.238 4.771-6 8 2.99 0.23 4.74-4.86 6.5-7.5zm-33.5-58.5c-8.182-0.436-19.745 1.308-25 8.5 5.55-2.32 9.212-5.416 14.5-6.5 32.719-6.707 55.804 31.609 38.5 58 18.11-23.95-1.52-58.59-28-60zm-12 9.5c27.851-4.587 42.623 14.832 38 39.5 8.86-24.43-13.37-48.5-38-39.5z"
    />
	<path
        fill="#BB8748"
        d="m411.89 203c-6.146 4.854-10.807 11.193-16.5 16.5-4.834-3.166-7.854-8.146-11.5-12.5 4.522-6.311 10.721-10.946 15.5-17 5.37 3.13 8.51 8.5 12.5 13zm-13-4.5c-2.607 3.059-6.229 5.104-8 9 3.3-1.82 8.99-6.19 8-9zm3.5-0.5c1.222-2.835 0.289-6.638-3.5-6-1.788 0.712-2.228 2.773-2 5.5 2.51 0.43 2.77 1.16 5.5 0.5zm-11.5 13.5c2.814-1.866 8.945-7.559 8-9.5-2.83 3-6.24 5.43-8 9.5zm3 0.5c3.731-2.436 7.024-5.31 9-9.5-3.76 2.41-6.95 5.38-9 9.5z"
    />
	<path
        fill="#E9EEF1"
        d="m23.394 456c2.233-27.782 0.034-56.11 2-81 4.042-51.186 22.568-88.272 46-120 11.745-15.903 27.457-27.898 41.5-41.5-10.829 6.505-21.703 17.297-30.5 27.5 1.533-5.136 6.623-11.042 8.5-17.5 2.308-4.526 8.246-5.421 10.5-10-3.409-0.364-7.611 7.998-11 6 2.925-2.575 6.08-4.92 8-8.5 72.723-2.081 136.05 3.247 206 0.5 3.451-0.136 8.1 0.127 12.5 0 5.073-0.146 12.505-0.976 15.5 0 2.291 0.746 3.292 3.961 5 5.5 3.024 2.725 6.813 4.595 10 7.5 5.722 5.217 11.896 10.912 17.5 17 2.654 2.884 6.228 6.29 6.5 10.5-7.164-6.169-12.534-14.132-19.5-20.5-6.856-6.31-13.625-12.708-21.5-18 2.194 4.456 6.91 6.927 10.5 10 10.692 9.154 20.832 19.671 30 31 2.344 9.823 5.032 19.301 9 27.5-16.537-26.796-35.947-50.718-61.5-68.5 3.986 5.22 9.581 9.087 14.5 13.5 14.275 12.809 28.475 27.73 39 45 18.762 30.783 32.015 64.758 35.5 110 1.774 23.036-1.746 49.861 0.5 74.5 3.982-58.296 0.57-117.46-18.5-155.5 3.339 3.802 4.85 7.705 8 12 2.597 3.541 7.342 6.595 9.5 10.5 1.166 2.11 1.213 5.768 2 9 0.705 2.896 2.041 5.984 2.5 8.5 6.075 33.271 3.939 80.178 5 115.5 0.329-28.435 1.339-59.042 0-89.5-0.672-15.287-5.427-28.63-7-41.5 4.238 2.75 4.472 9.312 5.5 14.5 2.424 12.225 3.883 27.929 4.5 43 1.164-5.002 0.168-12.165 0.5-18 2.305 29.362 0.354 62.979 1 94-138.15 0.173-274.12 0.192-410-1 0.119-27.64-0.173-60.523 0-83.5 1.045 30.943 0.526 54.228 0.5 81.5 3.317-3.195 1-7.908 1-11.5 0-45.754-1.859-89.646 11-128.5 2.194-6.628 4.74-13.333 7.5-19.5 2.66-5.943 4.705-12.785 10-16.5 1.006 2.957-1.936 5.24-3 7.5-9.04 19.193-16.596 39.848-20.5 65-4.795 30.896-1.594 70.644-2.5 103 2.784-33.21-1.275-69.766 3.5-99.5 4.902-30.523 13.354-55.538 25.5-77 8.035-4.299 14.34-10.326 20-17-0.986 3.292-3.178 6.091-5 9-12.805 20.452-25.086 45.124-31 73.5-6.767 32.49-3.941 69.99-4.496 111.5zm107.5-242c-28.464 21.883-50.083 49.854-67 83.5-22.378 44.51-27.829 97.963-23.5 159 1.2-28.591-0.288-58.794 2-84 1.569-17.284 6.512-34.834 12-50 16.601-45.877 44.676-81.046 78-108.5-0.112-0.388-0.014-0.986-0.5-1 0 0.66-0.87 0.46-1 1zm-59.996 163.5c10.052-72.575 44.118-123.39 87-163.5-0.11-0.39-0.419-0.582-1-0.5-57.186 51.78-98.521 127.04-88.5 242.5 1.379-28.86-0.799-54.65 2.504-78.5zm119-164c-25.253 28.654-46.894 61.781-62.5 102.5-13.17 34.363-19.124 76.792-18.5 123 0.078 5.771-1.264 12.025 1 17.5-5.628-113.8 31.274-185.06 81.5-243h-1.5zm51 2c26.2 27.568 46.435 61.387 62 101 7.651 19.474 13.413 42.022 16 65.5 2.639 23.943 2.382 48.874 3.5 75 6.67-112.99-29.812-186.3-81.5-243.5v2zm33.5-0.5c44.611 42.373 81.587 97.089 88 177.5 1.554 19.478-0.974 43.976 1.5 64.5 2.474-55.196-1.746-104.88-19.5-145.5-16.601-37.981-40.265-73.331-70.5-98 0.08 0.59-0.08 1.42 0.5 1.5zm25.5 0c16.072 12.604 28.844 26.858 42 43.5 25.038 31.672 43.125 71.941 47.5 123.5 2.069 24.389 0.071 52.801 2 74.5 0.344-28.061 1.883-56.33-1-81-2.944-25.199-9.108-47.404-17-67-17.46-38.539-41.955-70.045-73-95h-1.5c-0.02 0.86 0.39 1.28 1 1.5zm120 176c1.084 0.084 0.227-1.773 0.5-2.5h-1.5c1.05 1.22-0.79 2.57 1 2.5zm0 4c0.688-0.642 0.87-2.99-0.5-3 0.29 0.88-0.6 2.94 0.5 3zm0 19c0.665-4.665-0.11-10.776 0.5-17h-1.5c0.92 4.48-1.17 13.07 1 17zm0.5 5.5c-0.81-2.054 0.638-3.274-1-4.5-0.22 1.49-1.29 4.28 1 4.5zm0 4.5c0.021-1.521 0.291-3.291-1.5-3 0.26 1.25-0.01 3.02 1.5 3zm-1.5 19c2.494-3.205 1.046-9.491 0.5-14.5-1.12 3.88-0.19 9.8-0.5 14.5zm0 6c1.469-0.536 2.213-5.055 0-5v5zm1 7.5c-0.54-1.96 1.158-6.157-1-6.5 0.54 1.96-1.15 6.16 1 6.5z"
    />
	<path
        fill="#E9EEF1"
        d="m358.39 233.5c4.867 2.635 10.403 8.929 14 14.5-4.97-4.53-8.79-10.2-14-14.5z"
    />
	<path
        d="m88.894 214.5c8.841-0.78 5.326-8.438 8.5-13.5 2.544-4.058 10.61-8.593 16-10.5 21.635-7.655 55.175-9.314 82.5-11 3.586-4.293 5.321-10.937 3.5-17-1.023-3.407-4.209-6.816-6-10-1.889-3.358-4.408-7.07-5-11-2.452-16.265 9.348-28.76 19.5-31.5 12.834-3.464 21.966 2.347 30 10 4.024 7.984 6.487 14.675 4.5 23.5-3.051 13.546-20.052 23.37-6 36.5 30.34 0.848 75.26 2.793 97.5 20.5 0.098 3.176 3.363 5.49 1.5 9 13.581 11.086 26.736 22.596 38.5 35.5 8.18-5.82 13.921-14.079 21.5-20.5-4.537-6.296-10.585-11.082-15-17.5 12.029-11.971 21.531-26.469 36.5-35.5 5.175-1.658 10.752-2.915 17.5-3 5.473-12.729 13.975-23.629 23-33.5 2.577-2.818 5.112-8.173 10-7.5 3.195 2.373 0.635 6.745 0 10-1.304 6.689-1.172 13.527-2.5 20.5 2.005 7.828 0.332 19.335 3.5 26 11.796 7.05 22.585 20.913 24.5 36.5 2.373 19.323-9.431 31.782-19.5 41.5-0.293 1.541-3.091 0.575-4 1.5-15.559 17.994-29.454 36.108-46 55-2.358 2.692-5.982 5.163-6.5 7.5-1.038 4.686 2.396 9.93 3 14 5.159 34.727 2.916 77.828 3.5 118 7.182 0.726 6.103 9.218 6 19-0.069 6.615-0.693 10.759-3 12.5-3.448 2.603-17.24 1.5-26 1.5h-78c-102.52 0.001-187.92-0.5-293.5-0.5-8.38 0-17.259 1.39-24.5-2.5-2.185-7.234-6.063-29.754 4.5-30.5 1.855-32.329-2.944-65.858 1-99.5 3.274-27.924 9.695-48.154 20-70 1.573-3.334 4-6.827 4-8.5 0-2.316-3.516-7.541-5.5-11.5-17.098-34.11-35.667-76.852-25.5-131 1.644-8.752 4.776-18.214 8-26.5 15.618-40.145 48.027-67.505 86-85.5 26.664-12.636 58.083-19.425 100-16 11.063 0.904 20.865 4.998 31.5 7 10.909 2.054 23.077 3.021 34 2.5 24.344-1.163 38.54-11.28 58.5-18 2.315-0.78 5.39-0.547 9.5 0 6.136 3.272 10.111 11.867 6.5 19.5-3.176 6.713-17.118 11.86-24 15.5-17.684 9.352-35.416 18.092-59 20-33.972 2.749-83.462-7.134-117 6-21.152 8.284-39.098 26.137-48 46-12.215 27.26-12.896 76.96 0.004 107zm-4.5-2c-2.835-8.468-5.831-19.555-7.5-30.5-2.973-19.49 0.438-41.148 3-59.5 2.921-7.01 4.85-13.124 7.5-18.5 13.506-27.394 37.799-47.125 73-52 20.688-2.866 44.312-0.951 61 0.5 41.963 3.648 69.043-8.828 94.5-23 6.062-3.375 16.823-7.357 18.5-12 3.176-8.792-5.472-16.169-13-13-15.684 6.602-32.646 14.446-51.5 17-33.329 4.516-58.106-9.068-87-10-2.695-0.087-5.737 0.524-8.5 0.5-40.15-0.346-66.127 10.113-90.5 24-39.282 22.382-70.197 55.117-78.5 108-0.804 5.119-3.096 12.206 1 17 4.074-60.834 32.901-96.165 73-120.5 13.099-7.95 28.798-16.167 44.5-20.5 18.969-5.233 40.329-6.985 61.5-6 20.345 0.946 38.102 8.128 59 10 17.712 1.587 34.631-1.017 47.5-5.5 9.524-3.318 17.896-8.277 27.5-10-18.637 8.424-41.18 19.104-68 17.5-20.543-1.229-40.27-8.518-62-10-22.065-1.505-46.692-0.018-66 5.5-3.51 1.003-6.844 3.154-10.5 4.5-26.08 9.6-49.108 24.88-66 42-19.815 20.082-35.982 47.755-39 84-0.843 10.127-0.079 16.621 5.5 21.5-1.208-69.063 33.034-105.81 76-130.5 33.042-18.99 78.843-29.579 126.5-17.5 14.472 3.668 29.711 6.926 46 6 21.412-1.218 38.917-8.867 55-15 3.378-1.288 6.282-3.855 10-3.5-29.473 18.011-57.808 33.988-106.5 30.5-37.592-2.693-70.72-3.193-96 10-35.853 18.71-58.823 54.867-58.5 107 0.167 26.903 8.37 48.02 14.5 69-4.759-10.665-8.854-21.927-11.5-33-11.549-48.338 2.62-98.384 27-124 23.331-24.515 57.356-34.1 102.5-32 22.429 1.043 44.567 3.337 64.5-0.5 18.57-3.575 33.832-11.272 48-20-14.327 5.645-29.458 11.485-48 13-24.921 2.036-45.818-7.888-69.5-10-23.217-2.071-47.817-1.237-70 6-33.014 10.771-57.04 28.358-77.5 51.5-15.264 17.264-25.348 37.285-30 66.5-1.477 9.276-3.601 20.284-1.5 29 1.41 5.851 9.247 13.135 13.5 18.5 14.713 18.562 31.693 32.812 52 44 3.973-5.361 7.834-10.832 9-19-1.588-2.23-3.682-4.57-4.496-7zm111-61.5c0.093 0.74 1.208 0.458 2 0.5 3.534 8.483 17.794 8.285 29.5 7 4.124-2.543 6.512-6.821 11-9 2.992-7.066 3.875-14.422 1-22.5-6.212-5.02-10.273-12.591-19.5-14-13.875-2.118-22.532 7.496-27 17.5v4.5c-1.272 0.544-1.939-2.341-2 0-0.12 7.12 1.75 12.25 5 16zm271-21c-0.11-0.39-0.419-0.582-1-0.5-11.191 11.475-21.58 23.753-28.5 39.5 7.227-0.06 10.841 3.493 16.5 5 3.881 3.119 6.576 7.424 12 9-3.02-16.86-2.15-37 1-53zm-267.5 52.5c6.938-2.165 8.302-13.753 6-22-1.178 0.011-1.472-0.861-3-0.5 4.12 7.65 0.41 16.79-3 22.5zm35-0.5c-5.027-3.376-8.108-14.174-4.5-21.5-0.11-0.39-0.419-0.582-1-0.5-6.1 3.5-1.83 24.96 5.5 22zm-31.5 1c9.047 2.622 17.507 2.258 27 0.5-3.721-5.518-7.311-14.879-4-23-5.587 1.328-13.413 1.328-19 0 2.88 8.26-0.19 17.75-4 22.5zm-166 95.5c10.227-0.939 14.23-8.103 21-12.5-9.273-9.394-18.064-19.27-27-29-6.041-9.89-13.75-20.416-19-31-1.69-3.408-4.357-7.765-3.5-11.5 11.931 28.402 29.622 51.044 51 70 3.713-4.787 8.943-8.057 12-13.5-28.317-18.849-52.143-44.857-66-76.5 4.791 5.709 8.025 12.975 11.5 20 14.838 21.828 33.244 40.089 54.5 55.5 3.496-1.671 5.314-5.019 7-8.5-32.924-18.909-58.874-44.793-75-80.5-2.377 50.71 16.368 84.63 33.5 117.5zm366-90c3.466 2.868 5.864 6.803 9 10 9.013-7.939 18.682-17.24 34-18.5 4.339-0.357 8.463 0.91 12.5 0.5-13.91-14.7-49.1-10.82-55.5 8zm76 62.5c1.762-3.229 4.727-5.592 6-8 10.907-20.624 0.076-48.49-19-57-15.321-6.835-34.18-2.872-44 8 18.745 20.087 37.534 40.133 57 59.5 2.516-2.656 6.855-6.139 6.5-10-1.76 2.64-3.51 7.73-6.5 7.5zm-288.5-67.5c-32.362 3.248-70.417 3.156-90.5 19.5 83.733-1.001 155.96 1.922 232-0.5-22.857-15.476-59.748-16.919-95.5-19.5-1.005 1.995-4.23 1.77-6 3 31.407 0.761 61.446 2.661 86 11.5 2.479 0.892 6.914 1.254 7.5 4.5-22.942-9.974-51.072-12.49-80.5-14-45.948-2.357-97.322-0.479-134 13 3.686-3.608 9.584-4.961 15-6.5 22.631-6.43 50.977-7.511 78.5-9-4.46-1.37-8.04-2.45-12.5-2zm209.5 6.5c-4.779 6.054-10.978 10.689-15.5 17 3.646 4.354 6.666 9.334 11.5 12.5 5.693-5.307 10.354-11.646 16.5-16.5-3.99-4.5-7.13-9.87-12.5-13zm14.5 11.5c3.041-0.626 4.227-3.106 6-5-0.205-0.628-0.645-1.022-1.5-1-0.82 2.68-4.29 2.71-4.5 6zm2 2c1.093 1.574 2.577 2.756 4.5 3.5 0.868-2.465 3.814-2.852 4.5-5.5-1.083-1.583-2.433-2.9-4.5-3.5-0.74 2.59-3.86 2.81-4.5 5.5zm9.5 0c-1.088 2.079-3.462 2.872-4.5 5 16.132 16.036 30.914 33.419 48 48.5 0.863-2.136 2.737-3.263 4.5-4.5-0.444-2.222-2.909-2.424-3.5-4.5-2.88 0.454-2.725 3.941-6 4 0.486-2.847 3.727-2.94 4.5-5.5-14.81-13.85-27.54-29.79-43-43zm-28.5 18c0.93 2.737 3.408 3.925 4.5 6.5 6.323-5.51 12.775-10.892 17.5-18-2.574-1.26-3.021-4.645-6-5.5-4.89 6.11-10.85 11.15-16 17zm-160-15.5c2.508-0.325 6.322 0.655 8-0.5-1.76-0.72-6.94-1.1-8 0.5zm-139.5 0v2c27.809 1.75 57.3-1.103 86.5 0 1.438 0.473 1.923 1.191 3.5 1.5 15.932 3.125 36.975-2.335 54 0 0.513-1.654 3.131-1.202 4.5-2-2.854-1.397-9.362 0.21-11.5-0.5-0.214-1.381 1.864-0.469 2-1.5-22.359 0.079-47.185-0.052-71 0h-18-9c-5.51 0.192 1.303 0.771 3.5 0.5 11.667 0.333 24.666-0.666 35.5 0.5-22.683 1.19-45.553 0.134-64 0 0.635-1.384 6.988 0.347 6-1-7.18 0.32-15.64-0.64-21.996 0.5zm35.996-0.5c-3.837 0.329-8.995-0.661-12 0.5 3.84-0.33 9 0.66 12-0.5zm194 0.5c-12.076-0.439-23.657-0.693-32 0 1.03 0.303 3.474-0.807 3 1-5.503 1.497-14.497-0.497-20 1 17.046-0.378 37.296 2.442 55.5 0-0.03-3.29-4.38-1.92-6.5-2zm-78 1.5c-0.591-0.576-1.768-0.566-3-0.5-0.7 1.6 3 1.26 3 0.5zm19.5 0c-1.195 0.305-3.628-0.628-4 0.5 1.79-0.38 3.44 1.55 4-0.5zm-241 137c5.914-28.376 18.195-53.048 31-73.5 1.822-2.909 4.014-5.708 5-9-5.66 6.674-11.965 12.701-20 17-12.146 21.462-20.598 46.477-25.5 77-4.775 29.734-0.716 66.29-3.5 99.5 0.906-32.356-2.295-72.104 2.5-103 3.904-25.152 11.46-45.807 20.5-65 1.064-2.26 4.006-4.543 3-7.5-5.295 3.715-7.34 10.557-10 16.5-2.76 6.167-5.306 12.872-7.5 19.5-12.859 38.854-11 82.746-11 128.5 0 3.592 2.317 8.305-1 11.5 0.026-27.272 0.545-50.557-0.5-81.5-0.173 22.977 0.119 55.86 0 83.5 135.88 1.192 271.85 1.173 410 1-0.646-31.021 1.305-64.638-1-94-0.332 5.835 0.664 12.998-0.5 18-0.617-15.071-2.076-30.775-4.5-43-1.028-5.188-1.262-11.75-5.5-14.5 1.573 12.87 6.328 26.213 7 41.5 1.339 30.458 0.329 61.065 0 89.5-1.061-35.322 1.075-82.229-5-115.5-0.459-2.516-1.795-5.604-2.5-8.5-0.787-3.232-0.834-6.89-2-9-2.158-3.905-6.903-6.959-9.5-10.5-3.15-4.295-4.661-8.198-8-12 19.07 38.042 22.482 97.204 18.5 155.5-2.246-24.639 1.274-51.464-0.5-74.5-3.485-45.242-16.738-79.217-35.5-110-10.525-17.27-24.725-32.191-39-45-4.919-4.413-10.514-8.28-14.5-13.5 25.553 17.782 44.963 41.704 61.5 68.5-3.968-8.199-6.656-17.677-9-27.5-9.168-11.329-19.308-21.846-30-31-3.59-3.073-8.306-5.544-10.5-10 7.875 5.292 14.644 11.69 21.5 18 6.966 6.368 12.336 14.331 19.5 20.5-0.272-4.21-3.846-7.616-6.5-10.5-5.604-6.088-11.778-11.783-17.5-17-3.187-2.905-6.976-4.775-10-7.5-1.708-1.539-2.709-4.754-5-5.5-2.995-0.976-10.427-0.146-15.5 0-4.4 0.127-9.049-0.136-12.5 0-69.948 2.747-133.28-2.581-206-0.5-1.92 3.58-5.075 5.925-8 8.5 3.389 1.998 7.591-6.364 11-6-2.254 4.579-8.192 5.474-10.5 10-1.877 6.458-6.967 12.364-8.5 17.5 8.797-10.203 19.671-20.995 30.5-27.5-14.043 13.602-29.755 25.597-41.5 41.5-23.432 31.728-41.958 68.814-46 120-1.966 24.89 0.233 53.218-2 81 0.559-41.51-2.267-79.01 4.504-111.5zm393-131.5c-7.104 5.562-12.116 13.217-19.5 18.5-1.179-0.154-0.931-1.736-2.5-1.5-6.709 7.958-13.891 15.443-22 22 5.76-9.407 15.749-14.584 21.5-24-4.314 0.95-7.168 5.681-10.5 9-3.548 3.533-7.308 7.063-10.5 10.5-2.155-1.358-1.57 0.9-3.5 1-0.472 3.773-0.647 8.369 0.5 13 3.263 13.17 9.079 23.456 15.5 34.5 7.281 12.523 12.368 24.033 25 28.5 15.961-23.373 36.121-42.546 53-65-16.45-14.72-30.56-31.77-47-46.5zm69.5 14.5c-0.185-1.344 0.458-6.086-0.5-5 0.19 1.35-0.45 6.09 0.5 5zm-5 15c2.631-1.542 4.478-6.515 3.5-10-0.37 4.13-2.25 6.75-3.5 10zm-113 5.5c-3.597-5.571-9.133-11.865-14-14.5 5.21 4.3 9.03 9.97 14 14.5zm96.5 10.5c2.773 0.972 5.198-2.37 6-5-0.11-0.39-0.419-0.582-1-0.5-0.84 2.66-4.13 2.86-5 5.5zm-456.5 103c2.433-30.271 12.583-57.057 24-80-0.11-0.39-0.419-0.581-1-0.5-11.075 23.09-22.408 48.59-23 80.5zm407.5 2c-0.636-13.697-2.303-26.364-6.5-36.5 2.59 11.75 4.78 23.9 6.5 36.5zm-408 9c-0.753-3.359 1.597-6.856-0.5-8.5-0.332 1.82-1.569 7.56 0.5 8.5zm212.5 88.5c-70.655 0-143.04 1.558-208-0.5-2.8-0.089-8.12 0.22-11 1.5-0.927 6.082-3.116 20.826 1.5 24.5 3.665 2.917 16.464 1.5 25.5 1.5 104.04 0 189.3-0.597 294 0.5 23.084 0.242 46.808 1.627 76 0.5 7.711-0.298 19.656 1.076 23-1.5 4.533-3.492 1.52-19.313 1-25.5-63.4-1.3-129.67-1-202-1z"
    />
	<path
        d="m396.89 197.5c-0.228-2.727 0.212-4.788 2-5.5 3.789-0.638 4.722 3.165 3.5 6-2.73 0.66-2.99-0.07-5.5-0.5z"
    />
</g
  >
<metadata
    ><rdf:RDF
      ><cc:Work
        ><dc:format
          >image/svg+xml</dc:format
        ><dc:type
            rdf:resource="http://purl.org/dc/dcmitype/StillImage"
        /><cc:license
            rdf:resource="http://creativecommons.org/licenses/publicdomain/"
        /><dc:publisher
          ><cc:Agent
              rdf:about="http://openclipart.org/"
            ><dc:title
              >Openclipart</dc:title
            ></cc:Agent
          ></dc:publisher
        ><dc:title
          >teapot</dc:title
        ><dc:date
          >2006-11-20T21:51:31</dc:date
        ><dc:description
          >a drawing of a teapot from a US patent illustration</dc:description
        ><dc:source
          >https://openclipart.org/detail/1552/teapot-by-johnny_automatic</dc:source
        ><dc:creator
          ><cc:Agent
            ><dc:title
              >johnny_automatic</dc:title
            ></cc:Agent
          ></dc:creator
        ><dc:subject
          ><rdf:Bag
            ><rdf:li
              >beverage</rdf:li
            ><rdf:li
              >container</rdf:li
            ><rdf:li
              >externalsource</rdf:li
            ><rdf:li
              >kettle</rdf:li
            ><rdf:li
              >kitchen</rdf:li
            ><rdf:li
              >teapot</rdf:li
            ><rdf:li
              >uspto</rdf:li
            ><rdf:li
              >utensil</rdf:li
            ></rdf:Bag
          ></dc:subject
        ></cc:Work
      ><cc:License
          rdf:about="http://creativecommons.org/licenses/publicdomain/"
        ><cc:permits
            rdf:resource="http://creativecommons.org/ns#Reproduction"
        /><cc:permits
            rdf:resource="http://creativecommons.org/ns#Distribution"
        /><cc:permits
            rdf:resource="http://creativecommons.org/ns#DerivativeWorks"
        /></cc:License
      ></rdf:RDF
    ></metadata
  ></svg>