<svg width="120" height="120" viewBox="0 0 120 120" fill="none" xmlns="http://www.w3.org/2000/svg">
<path fill-rule="evenodd" clip-rule="evenodd" d="M19.6781 48.4071C19.9187 48.7688 20.1586 49.1313 20.4 49.4931C18.9562 49.4478 17.4372 49.3064 17.1429 48.684C17.149 48.653 17.1551 48.6216 17.1628 48.591C17.9736 48.3768 18.6695 48.3637 19.6781 48.4071ZM27.3823 51.7051C27.4973 52.0629 27.6157 52.4195 27.7308 52.776C27.4572 52.7877 27.1857 52.8 26.9143 52.8111C26.9795 52.4467 27.0457 52.0817 27.1087 51.7174C27.2009 51.7128 27.29 51.7096 27.3823 51.7051ZM30.1715 59.5266C29.4479 60.1985 28.8856 60.6469 28.4559 61.659C27.8561 61.168 27.5482 60.1894 27.3554 59.095C27.1466 57.9062 27.0736 56.5806 26.9143 55.5902C26.9317 55.4218 26.9484 55.2535 26.9652 55.0845C27.2456 55.0635 27.5261 55.0426 27.8052 55.023C28.5168 56.3801 29.231 57.7365 29.9452 59.095C30.0208 59.2382 30.0951 59.382 30.1715 59.5266ZM29.0857 49.4931C29.1769 48.882 29.2692 48.2725 29.3648 47.6629C29.3843 47.5407 29.4017 47.4177 29.418 47.2963C29.5103 47.2917 29.6015 47.2872 29.6916 47.2811C29.4875 48.0189 29.2855 48.7552 29.0857 49.4931ZM28.5031 39.5392C29.7826 39.8882 31.0621 40.2379 32.3429 40.5877C32.3368 40.6457 32.3319 40.7038 32.327 40.7611C30.539 42.0827 28.8867 42.6697 28 45.0691C28.1115 43.2874 28.2248 41.5058 28.3356 39.7241C28.391 39.6617 28.4464 39.6008 28.5031 39.5392ZM32.0895 34.0092C31.8377 36.494 32.1895 37.5953 32.6207 39.1366C33.3055 39.6283 33.5749 39.921 33.352 40.6452C32.1989 40.0722 30.9812 39.4712 29.2175 39.5642C29.1728 39.515 29.1287 39.4659 29.0857 39.4175C29.5834 37.4558 30.5459 36.2524 31.293 34.6987C31.5589 34.4682 31.8236 34.2384 32.0895 34.0092ZM37.6048 30.7029C37.6605 30.6997 37.717 30.6951 37.7715 30.6912C37.2428 32.5238 37.0297 36.7541 36.1026 38.4332C33.9164 37.3914 33.9582 32.8808 36.4074 31.099C36.8072 30.9663 37.2056 30.8343 37.6048 30.7029ZM35.5655 44.2855C36.1801 44.9559 36.7934 45.6264 37.4086 46.2975C36.6862 48.5362 35.3138 50.2223 34.7364 52.8111C34.3717 52.784 34.0102 52.7563 33.6455 52.7299C32.7173 50.1183 35.0444 45.8662 35.4394 43.9631C36.0079 44.0297 36.5757 44.0949 37.1455 44.1621C37.3544 44.698 37.5632 45.234 37.7715 45.7706C37.037 45.2756 36.3006 44.7798 35.5655 44.2855ZM40.6072 30.6912C40.422 32.8624 40.8975 33.9866 41.0286 35.6726C39.9435 36.2239 38.8559 36.7765 37.7715 37.3272C38.0443 34.5576 38.6011 32.7328 39.3612 30.7842C39.7769 30.7528 40.1927 30.722 40.6072 30.6912ZM41.8731 27.3889C41.9539 27.3828 42.0355 27.3785 42.1143 27.3733C41.9952 27.7266 41.8731 28.08 41.7473 28.4325C41.51 28.4481 41.2678 28.4637 41.0286 28.4793C41.2112 28.261 41.3975 28.041 41.5849 27.8219C41.6819 27.6773 41.7771 27.5335 41.8731 27.3889ZM42.1143 37.5233C41.03 38.1948 39.9433 38.8678 38.8572 39.5392C38.9231 38.3176 40.4693 36.6781 41.7606 36.2212C41.86 36.2754 41.9558 36.3296 42.0565 36.3839C42.0751 36.7634 42.0944 37.1438 42.1143 37.5233ZM44.2857 29.9011C44.0894 31.0227 43.8931 32.1443 43.6991 33.2659C43.4952 33.3947 43.2908 33.5222 43.0892 33.6504C42.9821 33.7709 42.8755 33.8901 42.7672 34.0092C42.1765 33.1751 42.0306 31.1336 42.1557 29.5852C42.8669 29.6912 43.5763 29.7965 44.2857 29.9011ZM46.4572 27.3764C46.4525 27.4134 46.4484 27.4494 46.4438 27.4854C46.1652 27.7521 45.8883 28.0193 45.6114 28.2864C45.0588 28.5 44.9896 28.491 44.2857 28.4675C44.3811 28.1026 44.4818 27.7377 44.5812 27.3733C45.206 27.3742 45.8324 27.3751 46.4572 27.3764ZM48.6286 22.9493C48.3056 23.6859 47.9825 24.4232 47.6595 25.1613C46.5345 25.0797 45.4101 24.9981 44.2857 24.9158C44.292 24.8564 44.2963 24.7971 44.3025 24.737C45.6897 24.0924 46.9047 23.3298 48.6286 22.9493ZM46.8746 28.6901C46.9942 28.6196 47.1133 28.5498 47.2329 28.4793C47.336 28.8484 47.4399 29.2165 47.5429 29.5852C47.181 29.5143 46.8182 29.4434 46.4572 29.372C46.5956 29.1447 46.7344 28.917 46.8746 28.6901ZM49.7143 31.9628C48.421 32.4681 46.6333 32.3292 45.5994 32.9032C45.5242 32.4597 45.449 32.0176 45.3715 31.5741C45.5994 31.28 45.8228 30.9853 46.0477 30.6912C47.143 31.1221 48.2375 31.5558 49.3305 31.9874C49.4587 31.9797 49.5861 31.9713 49.7143 31.9628ZM46.9375 33.9528C46.4457 33.9714 45.9525 33.9903 45.4629 34.0092C45.4297 33.8531 45.4032 33.6969 45.3715 33.5408C46.4089 33.1165 48.1512 33.0755 49.7143 32.9032C49.1643 33.2072 48.6164 33.5112 48.0656 33.8156C47.6896 33.861 47.315 33.9067 46.9375 33.9528ZM50.8 33.9525C49.5563 34.2631 48.3649 35.3635 47.5522 36.2212C47.393 35.2223 49.3083 33.4542 50.226 32.9032C50.6333 33.2672 50.676 33.2291 50.8 33.9525ZM52.9715 20.7373C52.9665 20.7967 52.9609 20.8539 52.9553 20.9125C52.5203 21.1752 52.0846 21.4387 51.6503 21.7014C51.0052 21.7485 50.3594 21.7963 49.7143 21.8433C49.722 21.7861 49.7277 21.7268 49.7333 21.6696C50.8141 21.3584 51.8942 21.0478 52.9715 20.7373ZM51.215 24.0553C51.0769 23.8487 50.9395 23.642 50.8 23.4354C51.7781 22.6056 53.9426 23.063 55.1429 23.1852C53.8332 23.4752 52.5254 23.7658 51.215 24.0553ZM60.9308 20.7979C62.7467 20.9469 64.4046 21.379 65.664 22.169C65.7756 22.1616 65.8878 22.1559 66 22.149C65.9335 22.2444 65.8649 22.3385 65.7984 22.4339C65.2191 22.6057 64.6405 22.7775 64.0625 22.9493C63.0202 22.7992 61.9745 22.6485 60.9308 22.4978C58.6405 22.1679 56.3475 21.8374 54.0572 21.5075C54.0619 21.4612 54.0693 21.4161 54.0746 21.3705C56.2971 20.8527 58.7285 20.6164 60.9308 20.7979ZM68.1542 20.2146C68.0247 20.3889 67.8973 20.5638 67.7691 20.7373C66.5986 20.6533 65.6313 20.1919 64.9143 19.6313C66.0005 19.7698 67.0846 19.9096 68.1715 20.0487C68.1661 20.1044 68.1595 20.1595 68.1542 20.2146ZM73.9367 24.3032C74.235 24.188 74.5375 24.0729 74.8378 23.9583C75.1493 24.228 75.4586 24.4996 75.7715 24.7693C75.6455 25.6882 74.7596 26.4441 74.0821 27.3411C73.9083 27.3514 73.736 27.3624 73.5616 27.3733C72.1442 25.0197 70.3579 22.4393 67.2228 21.5332C67.1771 21.4392 67.1321 21.3453 67.0857 21.2513C67.5093 21.0804 67.9301 20.9083 68.353 20.7373C70.4811 21.4835 72.2556 22.6163 74.2336 23.2704C74.4869 23.8886 74.408 23.6801 73.9367 24.3032ZM76.5575 29.5454C76.475 29.4647 76.3936 29.3817 76.3111 29.2999C76.1297 29.311 75.9517 29.3264 75.7715 29.3397C76.0689 29.0533 76.3686 28.7657 76.6704 28.4793C76.6292 28.8343 76.5955 29.1915 76.5575 29.5454ZM77.5144 41.7511C78.9837 43.0289 79.3592 44.8771 78.7472 47.2811C78.1168 45.8563 77.4897 44.4315 76.8572 43.0067C77.0662 42.6904 77.2704 42.3735 77.4767 42.056C77.4897 41.9546 77.5 41.8519 77.5144 41.7511ZM77.9429 31.8098C77.9359 31.8783 77.9324 31.9468 77.9247 32.0153C77.6687 32.3107 77.4112 32.607 77.153 32.9032C77.0539 32.7071 76.9569 32.5102 76.8572 32.3141C77.3191 31.4802 76.9869 31.928 77.5933 31.8398C77.7091 31.8295 77.8257 31.8184 77.9429 31.8098ZM78.8455 31.7972C79.9916 32.2236 81.1423 32.6508 82.2857 33.0772C82.2786 33.1924 82.2655 33.3084 82.2551 33.4236C81.9653 33.6195 81.6761 33.8147 81.3864 34.0092C80.2377 33.5828 79.0916 33.1557 77.9429 32.73C77.954 32.614 77.9644 32.4981 77.9749 32.3828C78.2646 32.1869 78.5544 31.9917 78.8455 31.7972ZM85.5429 36.2212C84.9076 35.7954 84.2724 35.3719 83.6366 34.9484C83.5471 34.7767 83.4602 34.6043 83.3715 34.4334C84.1986 33.9237 84.0792 33.9491 84.9545 34.1186C85.1484 34.8194 85.3453 35.5196 85.5429 36.2212ZM86.6286 35.8008C86.5022 35.9409 86.3749 36.0805 86.2471 36.2212C85.7818 35.9826 85.7003 35.6769 85.5429 35.1152C85.8748 35.2591 86.2054 35.4041 86.5378 35.5492C86.5689 35.633 86.599 35.7169 86.6286 35.8008ZM85.8176 32.6378C85.722 32.6444 85.6352 32.6499 85.5429 32.6577C85.8404 32.3712 86.1422 32.0848 86.4462 31.7972C86.2356 32.0782 86.0217 32.3569 85.8176 32.6378ZM90.9715 38.2009C90.7937 38.2786 90.6166 38.3563 90.4422 38.4332C89.4698 37.8862 88.5015 37.3401 87.5353 36.7924C87.2331 36.3804 86.9301 35.9669 86.6286 35.5533C88.1343 34.4344 88.187 35.7291 89.6073 36.4353C90.0599 37.0246 90.516 37.614 90.9715 38.2009ZM92.0572 39.1742C91.6957 39.0426 91.3342 38.911 90.9715 38.7793C91.1892 38.6654 91.4083 38.5493 91.6261 38.4332C91.7698 38.6809 91.9135 38.9276 92.0572 39.1742ZM90.7365 40.9574C91.1287 41.7537 91.1253 41.5271 92.0572 41.4107C91.5024 41.8928 90.9456 42.375 90.3881 42.8571C89.8595 41.8405 89.3301 40.823 88.8 39.8079C88.8055 39.7438 88.8124 39.6813 88.8199 39.6172C89.9911 39.3648 90.3696 39.7907 91.5127 39.9603C91.6601 40.1971 91.8089 40.4346 91.9564 40.6722C91.5518 40.7683 91.1445 40.8629 90.7365 40.9574ZM90.9715 42.9416C91.6951 42.5437 92.418 42.1485 93.1429 41.7511C92.7073 42.7341 92.1431 43.2421 91.471 43.9631C91.3059 43.6224 91.139 43.2818 90.9715 42.9416ZM95.3143 47.1627C94.7265 47.6738 94.3447 47.8389 93.2298 47.93C93.5277 47.9624 93.8277 47.9967 94.1249 48.0297C94.1183 48.0839 94.1132 48.136 94.1074 48.1895C93.0888 48.6234 92.0696 49.0579 91.0488 49.4931C91.0211 48.1776 90.9977 46.8629 90.9715 45.5481C91.6731 44.7127 92.3792 43.8774 93.0808 43.0407C93.2115 42.98 93.3371 42.9192 93.4656 42.8571C94.0811 44.2928 94.7003 45.729 95.3143 47.1627ZM94.2286 41.1144C100.223 39.4321 99.065 42.6306 96.39 45.0691C95.6685 43.7513 94.9462 42.4316 94.2286 41.1144ZM99.6572 41.7511C97.4483 52.1838 97.0221 52.7526 89.2115 57.235C89.076 57.0277 88.9374 56.821 88.8 56.6137C88.8933 56.2256 88.984 55.8382 89.076 55.4501C94.1705 53.9885 97.0681 51.3094 96.7659 45.2351C97.6176 44.1363 98.4681 43.0382 99.3185 41.9394C99.4323 41.8766 99.5447 41.8146 99.6572 41.7511ZM99.9232 41.7511C99.8363 41.3911 99.7473 41.0302 99.6572 40.6698C99.9297 40.6611 100.201 40.6529 100.47 40.6452C100.288 41.0143 100.106 41.3829 99.9232 41.7511ZM86.6286 51.8958C86.6528 51.512 86.6791 51.1275 86.7054 50.7436C86.7266 50.4144 86.7474 50.0845 86.7703 49.7553C87.021 49.672 87.2735 49.588 87.5247 49.5054C87.5607 49.502 87.5959 49.4972 87.6312 49.4931C87.8429 50.7976 87.6329 51.7654 87.1988 52.8111C86.8352 52.5775 86.7639 52.4778 86.6286 51.8958ZM82.2857 61.573C82.2925 61.5093 82.2972 61.4455 82.3027 61.3818C82.7786 60.2398 83.2532 59.0986 83.727 57.9573C83.8245 57.716 83.9268 57.4747 84.0276 57.235C84.861 57.2916 85.7005 57.3481 86.5345 57.4046C86.5717 57.595 86.5975 57.7782 86.6117 57.9573C86.722 59.2579 86.2739 60.2995 85.8108 61.659C84.6362 61.6295 83.4623 61.6024 82.2857 61.573ZM83.3715 66.0133C83.3805 65.4429 83.3916 64.8719 83.4022 64.302C83.4166 64.1579 83.4304 64.0139 83.4436 63.871C84.0555 63.9162 84.6652 63.9627 85.2754 64.0085L85.5429 63.9877C85.1231 64.6855 84.705 65.3839 84.2884 66.0829C83.9812 66.0597 83.6771 66.0365 83.3715 66.0133ZM82.2964 58.8562C82.3328 58.8371 82.3701 58.818 82.4073 58.7984C82.6972 58.6493 82.9866 58.4996 83.2761 58.3505C83.3076 58.3472 83.3392 58.3444 83.3715 58.341C83.3262 58.4935 83.2841 58.6454 83.2408 58.799C83.0732 59.3837 82.9061 59.9689 82.7382 60.553C82.5893 60.0333 82.4358 59.5126 82.2857 58.9918C82.2888 58.9459 82.2914 58.901 82.2964 58.8562ZM80.6029 64.3631C80.44 64.1983 80.2739 64.0335 80.1143 63.871C80.592 64.205 80.2804 63.8787 80.6029 64.3631ZM77.9429 63.0476C78.5522 62.6597 79.2126 62.7793 80.1143 62.7928C80.024 63.0869 79.9368 63.3821 79.8477 63.6762C79.1051 63.9739 79 63.8641 78.1554 63.7772C78.0854 63.5343 78.016 63.2909 77.9429 63.0476ZM79.2721 67.1889C79.5538 67.8532 79.8349 68.5182 80.1143 69.1824C79.4645 69.6242 78.8141 70.0651 78.1632 70.5069C77.5827 69.7094 78.2176 67.465 79.2721 67.1889ZM77.1297 60.2477C77.0406 60.2544 76.9505 60.2599 76.8572 60.2676C76.9777 59.9934 77.0949 59.7202 77.2133 59.447C77.1883 59.7124 77.1579 59.9801 77.1297 60.2477ZM80.2556 60.553C80.2104 60.5225 80.1614 60.4925 80.1143 60.4616C80.2751 60.126 80.4308 59.7896 80.5915 59.4536C80.6418 59.4511 80.697 59.4491 80.7492 59.447C80.898 59.8007 81.0506 60.1548 81.2 60.5089C80.8854 60.5238 80.5708 60.5386 80.2556 60.553ZM87.7734 46.1751C87.7553 46.0508 87.7348 45.9253 87.7143 45.8006C88.0004 45.4511 88.1829 45.2334 88.6739 45.0691C88.7165 45.2864 88.7594 45.5049 88.8 45.7234C88.59 45.864 88.3783 46.0049 88.1687 46.147C88.0363 46.1565 87.905 46.166 87.7734 46.1751ZM87.7143 48.8761C87.5186 49.1362 87.1704 49.283 86.9222 49.4931C86.8235 47.65 86.7247 45.8069 86.6286 43.9631C86.9902 45.602 87.3518 47.2394 87.7143 48.8761ZM85.7224 56.2883C86.441 55.8874 86.5419 56.2579 86.6286 57.235C85.9025 57.2336 85.1819 57.2308 84.4572 57.2294C84.4693 57.1148 84.4814 57.0017 84.4921 56.8886C84.9022 56.6878 85.3116 56.4884 85.7224 56.2883ZM84.6576 53.2312C84.8195 53.0917 84.9826 52.9506 85.1482 52.8111C85.2789 53.0493 85.4121 53.2876 85.5429 53.5251C85.4812 53.656 85.4219 53.7861 85.3584 53.917C85.0584 53.8826 84.7584 53.8473 84.4572 53.812C84.525 53.6184 84.591 53.4248 84.6576 53.2312ZM84.4572 56.1644C84.081 56.5207 83.7031 56.8787 83.3251 57.235C83.0796 57.194 82.8334 57.1538 82.5879 57.1119C82.4849 57.1224 82.385 57.1321 82.2857 57.1417C82.4633 56.8031 82.6372 56.466 82.8148 56.129C83.3618 56.1411 83.9101 56.1532 84.4572 56.1644ZM80.3595 55.5362C79.9078 55.2188 80.2357 55.2619 80.1489 55.023C80.2184 55.1934 80.29 55.3648 80.3595 55.5362ZM83.784 50.5991C82.5617 49.9624 81.3387 49.3251 80.1143 48.6878C80.2849 46.1591 80.5936 43.2531 80.3441 40.6452C83.1742 41.6779 85.7093 46.2985 83.784 50.5991ZM81.2 50.5991C82.1033 51.0754 82.0508 51.5162 83.3031 51.9001C83.5221 52.72 83.1892 53.0431 82.6689 53.917C82.2268 53.8992 81.7829 53.8808 81.339 53.8623C81.064 52.4066 81.3617 51.5695 81.2 50.5991ZM81.4485 57.7482C80.9936 57.4319 81.3193 57.4739 81.2357 57.235C81.3052 57.4075 81.3747 57.579 81.4485 57.7482ZM88.8 47.1031C88.8033 47.0353 88.8071 46.9675 88.8108 46.9006C89.1374 46.6579 89.463 46.4178 89.7896 46.1751C89.962 47.3072 89.8967 49.1925 89.6402 50.5991C89.0622 50.1422 88.9556 48.221 88.8 47.1031ZM88.8 50.598C89.0215 50.2297 89.2397 49.8614 89.4558 49.4931C89.3266 49.8536 89.1974 50.2153 89.0747 50.5781C88.9824 50.5858 88.8923 50.5935 88.8 50.598ZM95.1308 47.2917C95.1943 47.2878 95.2543 47.2844 95.3135 47.2811C95.3656 51.5172 92.764 52.2883 89.3433 53.8824C89.162 53.8944 88.9814 53.9064 88.8 53.917C89.5095 52.438 90.2189 50.9583 90.9305 49.4793C92.3306 48.7501 93.7321 48.0223 95.1308 47.2917ZM88.6966 39.0145C88.7317 39.1235 88.7664 39.2333 88.8 39.343C88.71 39.4089 88.6179 39.474 88.5285 39.5392C88.2559 39.1703 87.9853 38.8021 87.7143 38.4332C88.0433 38.6272 88.3707 38.8212 88.6966 39.0145ZM87.7143 40.8541C87.7288 40.7898 87.7336 40.7239 87.7442 40.6612C87.8233 40.6556 87.9033 40.65 87.9833 40.6452C88.2572 41.0149 88.5281 41.383 88.8 41.7511C88.1723 41.4481 88.0682 41.375 87.7143 40.8541ZM88.8 43.6807C88.3116 44.1433 87.8218 44.6065 87.334 45.0691C86.2848 43.5413 85.2383 42.0114 84.1904 40.4836C82.8346 39.299 81.4721 38.1131 80.1143 36.9278C80.4163 36.6925 80.7149 36.4565 81.0129 36.2212C82.9852 37.0793 86.4375 38.7137 87.1323 40.7531C87.3586 41.4161 86.5801 41.9645 87.1104 42.5196C87.7395 43.1766 88.37 42.708 88.8 43.6807ZM79.6367 50.5991C79.7451 50.643 79.8577 50.6869 79.9675 50.7301C80.0164 51.7926 80.0647 52.8552 80.1143 53.917C79.9444 53.8776 79.7773 53.8382 79.606 53.7987C79.1291 53.445 78.7949 51.7977 79.2319 51.0826C79.3654 50.9216 79.5018 50.7607 79.6367 50.5991ZM77.2319 56.1429C77.3477 56.1384 77.467 56.1335 77.5821 56.129C77.7015 56.4173 77.8243 56.7055 77.9429 56.9942C77.7587 57.067 77.571 57.1402 77.384 57.2129C77.2088 57.2203 77.0358 57.2277 76.8572 57.235C76.9835 56.8711 77.1091 56.5072 77.2319 56.1429ZM76.2391 73.8249C76.0841 73.2883 75.9265 72.7492 75.7715 72.2108C76.4403 72.0156 77.1079 71.8205 77.7781 71.6241C77.8315 71.6216 77.8888 71.6173 77.9429 71.6129C77.9357 71.6629 77.9299 71.7142 77.9259 71.7642C77.3639 72.4522 76.8018 73.1376 76.2391 73.8249ZM74.6857 69.4009C74.8831 68.7533 75.0285 68.6541 75.3866 68.2949C75.487 68.3337 75.5886 68.3726 75.6886 68.4108C75.7161 68.5063 75.7435 68.6018 75.7715 68.6973C75.5486 68.9172 75.3258 69.1366 75.1039 69.3578C74.9631 69.3713 74.8244 69.3867 74.6857 69.4009ZM75.1964 70.5069C75.0268 70.3189 74.856 70.1304 74.6857 69.943C75.0467 69.762 75.4111 69.5814 75.7715 69.4009C75.6784 69.7639 75.5837 70.1265 75.4889 70.4885C75.3918 70.495 75.2941 70.5009 75.1964 70.5069ZM74.0523 75.5263C73.9009 75.4013 73.7501 75.2769 73.6 75.1514C73.7104 75.1447 73.8248 75.1374 73.9352 75.1307C74.4946 74.6952 75.0519 74.2598 75.6092 73.8249C75.6624 74.2687 75.7183 74.7126 75.7715 75.1553C75.3461 75.4484 74.9159 75.7438 74.4878 76.0369C74.3431 75.8665 74.1991 75.6967 74.0523 75.5263ZM74.1347 88.1901C71.5218 88.3026 69.9616 87.6331 67.8226 87.4443C67.0089 85.8271 66.1958 84.2063 65.3827 82.5891C65.2263 82.4265 65.07 82.2645 64.9143 82.1026C69.0165 81.6132 71.5954 79.6235 74.6344 78.2488C75.7109 79.2742 78.1473 84.5142 76.0014 86.8336C75.4913 87.6273 74.9138 87.7057 74.1347 88.1901ZM62.911 82.7366C63.237 82.7165 63.5654 82.6943 63.8946 82.6728C65.3731 83.6686 66.3803 85.4551 67.0857 87.0968C65.6386 86.6781 64.1892 86.2558 62.7429 85.835C63.065 84.7296 63.2009 83.6062 62.911 82.7366ZM59.7916 78.5615C61.422 78.0872 63.0502 77.6163 64.6806 77.1428C67.245 77.3955 69.8087 77.6482 72.3745 77.8992C72.4206 78.0301 72.4682 78.1594 72.5143 78.2887C70.2225 79.3245 67.6169 80.1975 64.9893 81.5356C62.1431 81.7631 61.4582 80.6953 59.4857 79.9927C59.5894 79.5142 59.6916 79.0391 59.7916 78.5615ZM59.4857 83.7722C59.5188 83.4534 59.5506 83.1334 59.5836 82.8133C60.2068 82.7669 60.83 82.7192 61.4557 82.6728C61.609 83.5071 61.7735 83.9729 61.5423 84.8848C60.8568 84.5144 60.1719 84.1426 59.4857 83.7722ZM57.3143 85.5051C57.5564 85.3686 57.7999 85.2351 58.0413 85.0994C58.9335 84.5058 59.6059 85.2989 60.5715 85.61C60.4428 85.7355 60.3148 85.8631 60.1869 85.9908C59.2289 85.8294 58.2716 85.6665 57.3143 85.5051ZM59.4224 83.7788C59.1867 83.6721 58.9509 83.5645 58.7161 83.4552C58.6104 83.1961 58.5047 82.9327 58.4 82.6728C58.7614 82.696 59.1233 82.7184 59.4857 82.7408C59.4648 83.0877 59.4429 83.4328 59.4224 83.7788ZM56.2286 83.7788C56.5912 84.092 56.9521 84.403 57.3143 84.714C57.3118 85.2933 57.2626 85.2275 57.1328 85.9908C56.8315 85.253 56.5311 84.5166 56.2286 83.7788ZM53.4126 79.632C54.4315 79.3213 55.7908 79.3897 57.3143 79.3548C56.8408 79.7239 56.3708 80.0922 55.8965 80.4608C54.9213 80.3645 53.946 80.2691 52.9715 80.1723C53.1187 79.9924 53.266 79.812 53.4126 79.632ZM50.8 24.2066C52.8153 22.2702 57.8742 22.8488 59.1422 24.0783C59.2565 24.069 59.3721 24.0581 59.4857 24.0481C57.7983 25.6272 55.187 25.8101 53.583 27.3733C52.326 26.5313 51.2859 25.992 50.8 24.2066ZM61.8897 27.3733C62.1745 27.698 62.4581 28.0227 62.7429 28.3468C61.9823 28.3918 61.1825 28.4374 60.3866 28.5045C58.5896 28.6579 56.8151 28.9278 55.5749 29.5742C55.5222 29.5785 55.4682 29.5816 55.4148 29.5852C55.3235 29.4435 55.2329 29.3024 55.1429 29.162C56.6634 28.385 58.3221 27.7602 60.3866 27.4977C60.8154 27.4435 61.2622 27.4047 61.7296 27.3844C61.7843 27.38 61.837 27.3757 61.8897 27.3733ZM66.1192 21.8433C67.5223 23.2604 69.62 24.097 70.3429 26.2673C67.395 24.891 62.868 24.9111 60.5715 22.7224C62.5977 23.1562 64.3178 22.9952 66.1192 21.8433ZM67.0857 29.5852C68.4303 29.7707 69.773 29.9561 71.1131 30.14C71.2204 30.1325 71.3251 30.1227 71.4286 30.1137C70.3535 31.0438 69.277 31.9731 68.1994 32.9032C67.6927 31.8786 67.5697 30.4898 67.0857 29.5852ZM72.2601 34.3156C71.9828 34.2735 71.7059 34.2304 71.4286 34.1884C71.7902 34.1287 72.1522 34.0689 72.5143 34.0092C72.4296 34.1121 72.3439 34.2149 72.2601 34.3156ZM71.4286 31.6726C71.7589 31.3461 72.0928 31.0196 72.4231 30.6912C72.4547 31.0596 72.4827 31.4279 72.5143 31.7972C72.2752 31.7442 72.0354 31.6921 71.7942 31.6382C71.6735 31.6512 71.5492 31.6605 71.4286 31.6726ZM73.3988 68.2758C73.2397 68.2825 73.0797 68.2887 72.9225 68.2949C72.7836 68.1665 72.6494 68.0374 72.5143 67.909C72.6188 67.7687 72.7223 67.6301 72.8286 67.4909C73.0845 67.3901 73.3413 67.2898 73.6 67.1889C73.531 67.5506 73.4659 67.9129 73.3988 68.2758ZM72.5338 70.2927C72.6652 70.1382 72.8002 69.9847 72.933 69.8303C72.9446 69.6866 72.9561 69.5428 72.9677 69.4009C73.1792 69.7383 73.3892 70.0749 73.6 70.4114C73.2369 70.4435 72.8753 70.4757 72.5143 70.5069C72.5208 70.4364 72.5266 70.3641 72.5338 70.2927ZM72.103 73.8249C71.8786 73.5541 71.6548 73.2832 71.4286 73.013C72.1516 72.915 72.8764 72.8169 73.6 72.7189C73.2551 73.077 72.9102 73.4345 72.5653 73.7926C72.4123 73.8034 72.2573 73.8129 72.103 73.8249ZM72.5143 77.1428C71.792 77.056 71.0689 76.9673 70.3429 76.8805C70.8519 76.5996 71.3639 76.3187 71.8736 76.0369C72.0869 76.4045 72.3025 76.7732 72.5143 77.1428ZM70.9914 74.0222C71.1376 74.1621 71.2824 74.3015 71.4286 74.4414C70.9045 74.5771 70.3824 74.7133 69.8563 74.8481C69.2944 74.8752 68.7333 74.9028 68.1715 74.9309C68.9522 74.5624 69.7364 74.1929 70.5192 73.8249C70.6781 73.8911 70.8351 73.9569 70.9914 74.0222ZM64.9143 26.2673C66.1826 26.3018 67.5235 26.6251 68.1715 27.3733C67.2962 27.2861 65.7244 27.428 65.3271 26.7504C65.1925 26.5891 65.0525 26.4278 64.9143 26.2673ZM66.0171 30.6912C66.6371 31.2359 66.8542 31.8774 66.7413 32.9032C65.7848 32.5716 66.0345 31.5198 66.0171 30.6912ZM67.0857 37.663C67.0977 37.6002 67.107 37.5374 67.1197 37.4746C69.2824 37.0025 69.7509 37.7567 68.7647 38.4332C67.9136 38.3165 67.5243 37.9935 67.0857 37.663ZM69.8668 66.0829C70.024 66.1223 70.1831 66.1623 70.3429 66.2022C70.3363 66.2536 70.3311 66.3038 70.3259 66.3545C69.9683 66.6324 69.614 66.911 69.2572 67.1889C69.4058 66.8228 69.5545 66.4586 69.7018 66.095C69.7594 66.0899 69.8131 66.0867 69.8668 66.0829ZM69.2687 39.1069C69.5378 38.8829 69.8087 38.658 70.0778 38.4332C70.1658 38.8026 70.2548 39.1705 70.3429 39.5392C69.9804 39.4597 69.6192 39.3795 69.2572 39.2992C69.2603 39.2349 69.2651 39.1705 69.2687 39.1069ZM72.5143 68.6815C71.6398 68.9103 70.7659 69.1395 69.8913 69.3687C69.6802 69.3793 69.4683 69.3899 69.2572 69.4009C69.2622 69.3636 69.2686 69.3268 69.2743 69.29C70.2592 69.0967 70.8883 68.769 71.4692 68.2949C71.7749 68.3525 72.0824 68.4104 72.3881 68.4684C72.43 68.5389 72.4731 68.6102 72.5143 68.6815ZM70.6417 66.0829C70.5421 65.8781 70.4418 65.6742 70.3429 65.4703C70.5912 65.3064 70.8409 65.1408 71.0906 64.9769C71.2038 65.0393 71.3155 65.0989 71.4286 65.1595C71.2863 65.4569 71.1426 65.7535 70.9996 66.0509C70.8808 66.0616 70.7605 66.0723 70.6417 66.0829ZM63.8286 73.7309C64.2588 73.3951 64.691 73.0573 65.1205 72.7189C66.4551 72.8341 67.7871 72.9492 69.1223 73.0644C69.1677 73.1635 69.2118 73.2638 69.2572 73.3623C68.3575 73.8854 67.4558 74.4084 66.5554 74.9309C65.5534 74.7662 64.6863 74.3177 64.1673 73.7071C64.0549 73.7161 63.9417 73.7232 63.8286 73.7309ZM61.8181 73.8249C62.488 74.1937 63.1595 74.562 63.8286 74.9309C62.7429 74.7394 61.6572 74.546 60.5715 74.3552C60.9881 74.1791 61.4023 74.0023 61.8181 73.8249ZM61.6572 76.083C61.6524 76.1737 61.6475 76.261 61.6433 76.3506C61.4358 76.4656 61.2307 76.5807 61.025 76.6968C60.8722 76.7145 60.723 76.7366 60.5715 76.7543C60.5763 76.6658 60.5835 76.5774 60.5883 76.4889C61.0617 75.8562 60.9811 76.0675 61.6572 76.083ZM56.5378 31.0711C56.4359 30.9603 56.3326 30.8503 56.2286 30.741C57.3058 30.1487 59.0077 29.8696 60.6813 29.7329C62.0595 29.6207 63.417 29.6037 64.3874 29.5852C64.563 30.6907 64.7394 31.797 64.9143 32.9032C63.4983 32.7467 62.1407 32.5613 60.6813 32.4934C59.5125 32.4402 58.2783 32.4609 56.8953 32.6329C56.7789 32.1116 56.6591 31.591 56.5378 31.0711ZM58.1344 75.452C58.2234 75.608 58.3111 75.7634 58.4 75.9188C58.3149 76.2499 58.2297 76.5817 58.1445 76.9121C57.1446 76.9895 56.1447 77.0655 55.1429 77.1428C55.4646 76.1549 55.9441 75.6813 56.4601 74.9309C57.0178 75.1046 57.5755 75.2783 58.1344 75.452ZM54.433 71.6129C53.0696 71.5374 51.1972 70.5326 50.8 69.4009C52.2487 69.7718 53.6942 70.1426 55.1429 70.5128C54.9068 70.88 54.6707 71.2464 54.433 71.6129ZM55.9583 71.5542C55.6857 71.5748 55.4154 71.5933 55.1429 71.6129C55.1516 71.527 55.1635 71.4389 55.1711 71.3508C55.4729 71.0702 55.7715 70.7864 56.0733 70.5069C56.0343 70.8571 55.9963 71.2051 55.9583 71.5542ZM52.9715 31.1096C53.4124 30.9704 53.8513 30.8305 54.2923 30.6912C54.5758 31.0477 54.8601 31.4054 55.1429 31.7626C54.8444 31.7742 54.5494 31.7853 54.2509 31.7972C53.8256 31.568 53.3975 31.3388 52.9715 31.1096ZM52.9545 78.596C52.8861 78.8369 52.8182 79.0788 52.7498 79.3207C52.6437 79.3295 52.5388 79.3412 52.4339 79.3548C52.2518 78.9852 52.0685 78.6155 51.8857 78.2488C52.2487 78.2859 52.6085 78.323 52.9715 78.361C52.9658 78.439 52.9589 78.517 52.9545 78.596ZM53.5586 73.8249C54.404 73.9962 55.2473 74.169 56.0907 74.3403C56.1371 74.4545 56.1829 74.5702 56.2286 74.6851C55.5724 75.5046 54.9175 76.3226 54.2612 77.1428C53.4713 77.0257 52.6785 76.9085 51.8857 76.7913C52.4443 75.8028 53.0014 74.8134 53.5586 73.8249ZM72.5143 39.1643C72.6777 38.923 72.8411 38.6821 73.0045 38.4407C73.0647 38.4382 73.122 38.4357 73.1822 38.4332C73.6373 38.5482 74.0902 38.6632 74.5446 38.7782C74.5911 38.8428 74.6392 38.9083 74.6857 38.9734C74.1776 39.1614 73.6695 39.3507 73.16 39.5392C72.9457 39.4141 72.7293 39.289 72.5143 39.1643ZM75.4501 35.5897C75.196 35.4315 74.9441 35.2745 74.6857 35.1152C75.4653 35.4028 75.0169 35.0809 75.4501 35.5897ZM75.2052 40.6452C75.0303 40.4973 74.8583 40.3495 74.6857 40.2012C75.0476 39.9802 75.409 39.7592 75.7715 39.5392C75.5821 39.907 75.3928 40.2763 75.2052 40.6452ZM74.6857 48.3871C75.248 48.5271 75.8114 48.6671 76.3736 48.8075C76.8272 48.9853 76.8172 49.0341 76.8572 49.4931C76.1316 49.2131 74.9184 49.0209 74.6857 48.3871ZM74.8505 45.3743C74.9275 45.2725 75.0071 45.1712 75.0842 45.0691C75.3142 45.4382 75.543 45.8064 75.7715 46.1751C75.41 46.1044 75.0472 46.034 74.6857 45.9628C74.7409 45.767 74.7953 45.5709 74.8505 45.3743ZM52.8588 81.7632C52.8961 81.8605 52.9335 81.9573 52.9715 82.0541C52.4839 82.2414 51.9953 82.4293 51.5089 82.6166C51.2734 82.6347 51.0367 82.6541 50.8 82.6728C50.8046 82.6229 50.8085 82.5729 50.8153 82.5223C50.9812 82.2601 51.146 81.9979 51.3141 81.7363C52.0066 81.4148 52.0225 81.6245 52.8588 81.7632ZM49.7143 26.2673C50.663 26.9724 50.9061 27.8482 50.7614 30.6912C50.136 29.887 49.7592 28.1879 49.7143 26.2673ZM50.3397 24.0553C50.3115 24.3241 50.2843 24.5895 50.2572 24.856C50.0759 24.8704 49.8945 24.8826 49.7143 24.8958C49.9195 24.616 50.1301 24.3373 50.3397 24.0553ZM49.7143 25.1613C49.6865 25.4278 49.6628 25.6944 49.6319 25.9609C49.2992 25.8979 48.9613 25.8359 48.6286 25.774C48.9036 25.5771 49.1797 25.3781 49.4547 25.1812C49.5413 25.1735 49.6298 25.1679 49.7143 25.1613ZM49.7143 89.3087C49.8917 87.4313 50.0723 85.5546 50.251 83.6779C51.5193 83.3422 52.7889 83.0079 54.0572 82.6728C52.7233 84.8188 51.3906 86.9634 50.0561 89.1066C49.9424 89.1744 49.828 89.243 49.7143 89.3087ZM49.9827 74.175C50.1785 74.0576 50.3721 73.9409 50.5664 73.8249C51.0992 74.4618 50.6215 75.3752 50.1219 76.0369C49.7007 75.6411 49.6551 75.3967 49.766 74.5009C49.8377 74.3921 49.9117 74.2825 49.9827 74.175ZM46.4572 73.6342C46.8751 72.9615 47.2922 72.2872 47.708 71.6129C48.3775 72.007 49.047 72.4012 49.7143 72.7962C49.0271 73.8766 48.3348 74.9556 47.6419 76.0369C47.0179 75.4805 46.6363 74.6601 46.4572 73.6342ZM46.4572 82.295C47.122 81.6834 47.7916 81.0724 48.4572 80.4608C48.7734 80.4898 49.0904 80.5181 49.4051 80.546C49.5079 80.7179 49.6092 80.8904 49.7143 81.0629C49.6324 81.5994 49.5543 82.1364 49.4746 82.6728C48.468 82.5465 47.4638 82.4213 46.4572 82.295ZM43.2 80.7939C43.9948 80.3144 44.7929 79.8349 45.5876 79.3548C46.1954 79.4501 46.7998 79.5459 47.4062 79.6422C47.4504 79.7255 47.498 79.8093 47.5429 79.8942C46.9045 80.4516 46.2675 81.0089 45.6305 81.5668C44.6733 81.4667 44.0383 81.2114 43.5399 80.7743C43.4251 80.7809 43.3115 80.7874 43.2 80.7939ZM42.8832 78.6566C43.1753 78.5201 43.4659 78.3845 43.755 78.2488C43.8794 78.276 44.0046 78.3027 44.1298 78.3298C44.1818 78.3908 44.2338 78.4517 44.2857 78.5119C43.4447 78.7934 42.5981 79.0745 41.7563 79.3548C41.5145 79.2699 41.2727 79.1834 41.0286 79.0989C41.6484 78.951 42.2673 78.804 42.8832 78.6566ZM39.9429 77.6178C40.1554 77.0999 40.3692 76.5815 40.5805 76.0625C41.7708 75.9067 42.0498 76.497 42.94 76.8694C43.0244 76.9999 43.1125 77.1321 43.2 77.2637C42.7571 77.5689 42.3135 77.8724 41.8706 78.1776C41.5108 78.2017 41.1516 78.2253 40.7912 78.2488C40.509 78.039 40.2275 77.8287 39.9429 77.6178ZM37.7715 82.1572C38.2977 81.2236 38.8247 80.2884 39.3509 79.3549C40.4003 79.3532 40.5267 79.4413 40.9595 79.9986C41.1493 80.3213 40.9856 80.1483 40.5663 80.2204C40.5326 80.5422 40.5027 80.8625 40.4691 81.186C41.0193 81.2716 41.5672 81.3557 42.1143 81.443C41.7921 82.2501 41.7406 82.1436 41.2502 82.6576C39.6342 82.7457 38.9024 82.4342 37.7715 82.1572ZM35.9425 78.2488C36.8624 78.5282 37.7816 78.8062 38.7031 79.0842C38.7537 79.1934 38.8043 79.3047 38.8572 79.4146C38.2653 80.1323 37.6751 80.8499 37.0848 81.5668C36.2277 81.2839 35.3699 81.0009 34.5143 80.7194C34.9904 79.8968 35.4672 79.0728 35.9425 78.2488ZM25.3072 75.2597C25.3192 75.1494 25.33 75.0405 25.3427 74.9309C25.8558 75.3285 26.3702 75.7261 26.8827 76.1237C26.9276 76.2279 26.9719 76.3334 27.0161 76.439C23.8108 78.9227 28.711 87.0256 34.288 81.7769C35.0874 82.0996 35.8849 82.421 36.6857 82.743C35.7628 84.3961 34.1793 85.047 32.5112 85.9785C28.5232 86.3128 22.9429 79.7718 25.3072 75.2597ZM29.0267 76.3925C29.047 76.6426 29.0659 76.8915 29.0857 77.1428C28.7892 76.918 28.4945 76.6956 28.1998 76.4714C28.1323 76.3268 28.0666 76.1815 28 76.0369C28.3424 76.1556 28.6843 76.2743 29.0267 76.3925ZM34.5143 81.0895C33.8532 81.6039 33.1907 82.119 32.5282 82.6312C28.6245 83.044 27.0418 80.3276 26.9143 76.9888C27.1687 76.6804 27.4204 76.3721 27.6741 76.0622C27.7862 76.0543 27.8983 76.0448 28.0097 76.0369C29.977 77.5938 31.7147 79.9678 34.3834 80.7535C34.4257 80.866 34.47 80.9777 34.5143 81.0895ZM30.7308 64.9769C30.3752 64.7158 30.3528 64.5911 30.1715 64.1537C30.4207 63.2093 30.668 62.2627 30.916 61.3175C31.2056 61.0629 31.4952 60.8069 31.7842 60.553C31.9706 60.8279 32.1584 61.1014 32.3429 61.3748C31.806 62.576 31.2684 63.7758 30.7308 64.9769ZM30.1715 65.9341C30.7425 64.5777 31.3135 63.2214 31.8859 61.8659C32.004 61.7957 32.1207 61.7277 32.2368 61.659C33.0247 63.0564 34.1667 63.6897 34.5143 65.5875C33.6551 66.4897 32.7945 67.392 31.9353 68.2949C31.1354 67.7064 30.5777 66.9379 30.1715 65.9341ZM33.4286 69.3154C34.1555 68.6061 34.8804 67.8975 35.6073 67.1889C35.9654 67.9256 36.3256 68.6629 36.6857 69.4009C35.6007 69.3708 34.5156 69.3435 33.4286 69.3154ZM38.8572 46.9676C37.8276 49.1766 36.46 50.6763 35.6396 52.8111C35.2826 50.8701 37.44 48.0803 38.1357 46.3662C38.2453 46.3023 38.3562 46.2397 38.4658 46.1751C38.5967 46.439 38.7263 46.703 38.8572 46.9676ZM38.8572 40.8849C40.47 40.3821 41.5541 39.4617 42.7112 38.4332C42.8735 38.9256 43.0377 39.4188 43.2 39.9112C42.7425 40.5237 42.2867 41.1386 41.8298 41.7511C40.8381 41.4632 39.8482 41.1736 38.8572 40.8849ZM44.2857 40.9964C44.09 41.2477 43.8933 41.4999 43.6975 41.7511C43.5324 41.7238 43.3662 41.6949 43.2 41.6671L43.2123 41.5472C43.5415 41.2462 43.8708 40.9462 44.1981 40.6452C44.2261 40.7626 44.2572 40.8795 44.2857 40.9964ZM43.4301 36.2324C43.4872 36.2281 43.5443 36.2249 43.6014 36.2212C43.829 36.7043 44.0581 37.1874 44.2857 37.6692C44.1991 37.9251 44.111 38.1791 44.0257 38.4332C43.0339 37.9108 43.0738 37.2916 43.4301 36.2324ZM43.2293 68.2949C43.5616 68.5349 43.896 68.7749 44.2315 69.016C43.8862 68.8634 43.5442 68.7119 43.2 68.5626C43.2076 68.4719 43.2174 68.3823 43.2293 68.2949ZM43.2122 69.4009C43.5705 69.5566 43.9281 69.7123 44.2857 69.8691C44.2792 69.9126 44.2734 69.9573 44.2682 70.003C43.5028 70.5393 42.7329 71.0766 41.9663 71.6129C41.3037 71.3166 41.2224 70.7212 41.0286 70.0683C41.0338 70.0231 41.0403 69.9785 41.0455 69.9338C41.7679 69.7553 42.491 69.5784 43.2122 69.4009ZM39.997 67.1889C40.3416 67.3283 40.684 67.4665 41.0286 67.6059C40.8442 67.7143 40.6619 67.8227 40.4768 67.9299C40.2981 67.951 40.1209 67.9698 39.9429 67.9897C39.9593 67.7242 39.9778 67.4566 39.997 67.1889ZM39.9429 45.0691C41.2468 45.4414 40.8343 45.1938 40.8918 46.1751C40.2914 45.8243 40.2501 45.6557 39.9429 45.0691ZM39.9429 64.8256C39.9722 64.5071 40.0032 64.1905 40.0334 63.871C40.539 64.2241 40.7119 64.4348 41.0286 64.9769C40.6649 64.9255 40.3039 64.8751 39.9429 64.8256ZM42.1143 51.0136C41.7071 51.5415 41.7239 51.3949 41.0286 51.7051C41.1872 51.337 41.3458 50.9676 41.5053 50.5991C41.7089 50.7375 41.9126 50.8751 42.1143 51.0136ZM42.1143 46.5665C41.887 46.8045 41.6604 47.0425 41.4331 47.2811C40.7495 46.892 41.0735 47.0471 41.3797 46.3319C41.515 46.2802 41.6504 46.2274 41.7872 46.1751C41.8978 46.3058 42.0068 46.4358 42.1143 46.5665ZM42.0275 44.6842C41.6952 44.4442 41.3608 44.2042 41.0286 43.9631C41.7984 44.2584 41.6203 44.0782 42.0275 44.6842ZM39.9429 64.9769C40.3051 65.2678 40.6659 65.5576 41.0286 65.8463C40.4726 65.8319 40.1777 65.7124 39.9429 64.9769ZM43.2 64.9352C43.0537 64.9491 42.9055 64.963 42.758 64.9769C42.6316 64.7417 42.5046 64.5072 42.3782 64.2719C42.2901 64.1573 42.2013 64.042 42.1143 63.9267C42.3101 63.9073 42.5058 63.8888 42.7021 63.871C42.8679 64.2262 43.0331 64.5807 43.2 64.9352ZM42.6007 44.4564C42.4389 44.2905 42.275 44.1268 42.1143 43.9631C42.592 44.2982 42.275 43.9709 42.6007 44.4564ZM42.6689 62.6698C42.4849 62.2836 42.2988 61.8985 42.1143 61.5123C42.1921 61.1952 42.271 60.8796 42.3494 60.5624C42.3946 60.5597 42.4403 60.5563 42.4866 60.553C42.7233 61.2898 42.9627 62.0271 43.2 62.765C43.0248 62.7332 42.8479 62.7015 42.6689 62.6698ZM39.8238 75.5382C39.864 75.5878 39.9032 75.6367 39.9429 75.6863C39.8132 76.172 39.6836 76.6584 39.5539 77.1428C38.7548 76.8223 37.9371 75.9922 37.7715 74.9309C38.4568 75.1331 39.14 75.3347 39.8238 75.5382ZM36.6857 77.1428C37.0486 77.4647 37.4086 77.7876 37.7715 78.1106C37.0769 77.8042 37.0344 77.8175 36.6857 77.1428ZM38.5597 67.3392C38.602 67.6583 38.6487 67.9774 38.6911 68.2949C38.3838 67.926 38.0787 67.5579 37.7715 67.1889C38.0331 67.2388 38.2948 67.2894 38.5597 67.3392ZM37.4866 72.5104C37.2189 71.8432 36.9513 71.1747 36.6857 70.5069C37.6334 70.8742 38.3767 71.967 38.8572 72.7189C38.4012 72.649 37.9439 72.5803 37.4866 72.5104ZM38.3395 52.8196C38.4285 52.8161 38.5208 52.8136 38.6098 52.8111C38.3449 53.1796 38.0822 53.548 37.8162 53.917C37.6848 53.6443 37.8433 53.3821 38.2852 53.0617C38.3015 52.9805 38.321 52.9003 38.3395 52.8196ZM37.7715 62.3259C37.6997 62.4723 37.6263 62.618 37.5538 62.765C37.3456 62.6024 37.1388 62.441 36.9299 62.2785C36.8486 62.1032 36.7666 61.9274 36.6857 61.7527C36.9699 61.7214 37.2526 61.6902 37.5368 61.659C37.6158 61.8811 37.6936 62.1032 37.7715 62.3259ZM30.1715 71.6129C32.3481 73.0362 36.0433 74.355 36.6857 77.1428C34.1632 75.9379 31.7043 73.7686 30.1715 71.6129ZM35.8136 70.5448C36.1041 70.901 36.3958 71.2567 36.6857 71.6129C35.9623 71.2441 35.2377 70.8757 34.5143 70.5069C34.9478 70.5195 35.3818 70.5321 35.8136 70.5448ZM43.764 73.8249C43.2146 73.27 42.6644 72.7136 42.1143 72.158C43.0752 71.2387 44.0387 70.3209 44.9996 69.4009C45.1238 70.412 45.248 71.4232 45.3715 72.4343C44.8359 72.8973 44.3003 73.3618 43.764 73.8249ZM45.3715 75.6731C45.4688 75.4326 45.5632 75.1926 45.6598 74.9521C45.7869 74.9444 45.9132 74.9373 46.0425 74.9309C46.1817 75.2993 46.3187 75.6678 46.4572 76.0369C46.0958 75.9154 45.7329 75.7946 45.3715 75.6731ZM46.835 71.6129C46.7091 71.2442 46.5842 70.8764 46.4572 70.5069C46.7221 70.5563 46.9859 70.6042 47.2443 70.6536C47.1097 70.9728 46.9718 71.2936 46.835 71.6129ZM45.3715 34.3707C45.3748 34.3386 45.3778 34.3065 45.3824 34.2737C45.7414 34.1855 46.0982 34.0978 46.4572 34.0092C46.2068 34.3779 45.956 34.7465 45.7064 35.1152C45.5949 34.8672 45.483 34.6187 45.3715 34.3707ZM34.4253 57.235C34.092 56.4967 33.7597 55.7599 33.4286 55.023C34.7043 55.3043 34.5002 56.217 34.4253 57.235ZM31.7649 58.341C30.8379 57.6926 30.2441 56.4065 30.1715 55.023C32.0759 55.4765 31.9729 56.2299 32.3429 57.9762C32.15 58.0976 31.9578 58.2196 31.7649 58.341ZM30.6428 52.57C29.2589 51.2554 31.2763 45.9888 32.1635 44.7784C32.63 44.1828 33.2212 44.1935 34.0006 43.9631C34.1725 44.0074 34.3417 44.053 34.5143 44.0972C33.21 46.4189 32.3277 49.5779 32.0162 52.8111C31.5582 52.7297 31.1016 52.6499 30.6428 52.57ZM28.6169 70.5069C28.8383 70.8803 29.0597 71.2537 29.2811 71.6286C29.0845 72.0925 28.8854 72.5558 28.687 73.0198C28.5722 73.1412 28.4594 73.2619 28.3459 73.3834C28.8302 73.4522 28.9388 73.0317 29.6687 72.4365C31.0734 74.7325 33.2266 76.9231 35.6 78.1719C35.1684 78.9341 34.7343 79.6971 34.3032 80.4608C32.9947 79.6143 31.6905 78.7685 30.3825 77.922C29.9329 77.0867 30.5531 76.1279 29.8312 75.6162C29.1794 75.1529 28.336 75.8232 27.6717 75.6218C27.0578 75.0553 26.4426 74.4889 25.8286 73.9231C26.3688 72.7081 26.8903 71.5163 27.9632 70.8951C28.1821 70.7652 28.3986 70.6354 28.6169 70.5069ZM24.8624 58.3118C24.9999 57.224 25.2344 56.0999 25.4998 55.036C25.5495 55.0319 25.5981 55.0278 25.6479 55.023C25.8362 56.1198 26.0246 57.2158 26.2141 58.3118C26.313 58.8848 26.4102 59.4578 26.5091 60.0301C27.3674 62.416 28.2263 64.8031 29.0857 67.1889C27.025 66.0552 25.7474 63.4367 25.9304 59.9145C25.4352 61.0516 25.8475 62.839 26.0104 63.8392C24.741 62.761 24.5781 60.6155 24.8624 58.3118ZM22.9803 59.447C22.7923 59.0579 22.6698 58.6259 22.6122 58.1147C22.551 57.5893 22.5596 56.9814 22.632 56.2546C22.6933 56.1215 22.7558 55.9899 22.8183 55.8584C23.0985 55.5802 23.3781 55.302 23.6572 55.023C23.4994 56.0533 23.3416 57.0844 23.1833 58.1147C23.1165 58.5594 23.0478 59.0024 22.9803 59.447ZM98.5714 70.5069C97.8485 70.2271 97.1251 69.9464 96.4 69.6658C97.103 69.5781 97.8048 69.4886 98.5078 69.4009C98.5278 69.7693 98.5499 70.1385 98.5714 70.5069ZM41.1144 88.508C41.3033 88.4052 41.4955 88.3034 41.6844 88.2028C41.4683 88.5688 41.2457 88.9404 41.0286 89.3065C41.0568 89.0411 41.0861 88.7734 41.1144 88.508ZM24.7429 50.5991C24.4354 50.5686 24.1267 50.5387 23.8168 50.5082C22.6679 50.1313 21.5836 48.7821 21.4857 47.2811C23.2489 47.4404 23.845 48.2791 24.7165 49.3035C24.7253 49.7347 24.7354 50.1665 24.7429 50.5991ZM24.6148 50.507C24.741 48.1206 22.9273 46.6308 20.5728 46.6948C20.9767 43.3397 23.8771 41.6265 26.4636 40.4997C26.6301 40.4873 26.7941 40.4749 26.9606 40.4625C26.527 44.6714 26.8562 48.2966 25.2903 51.9376C24.1342 54.621 20.0361 54.5708 20.2601 58.7061C20.2654 58.8182 20.274 58.935 20.2872 59.054C20.8716 64.5567 26.8278 65.676 27.652 70.5153C18.8238 75.0253 29.5848 93.9887 36.5682 82.8498C37.8175 83.0306 38.9333 83.6012 40.4886 83.0512C41.211 82.6497 41.3545 82.3238 41.6354 81.4865C42.4663 81.9182 43.2991 82.35 44.13 82.7817C44.1736 82.8869 44.2173 82.9942 44.2622 83.1007C41.9738 84.8827 40.3617 87.3282 37.9067 89.0022C37.9834 88.776 38.0621 88.5485 38.1407 88.3251C37.9252 88.2872 37.7111 88.2474 37.4956 88.2089C37.3806 88.2728 37.2629 88.3367 37.1472 88.4C37.0402 88.8998 36.9357 89.4031 36.8273 89.9029C38.2286 91.3404 42.4808 86.136 43.7261 85.1137C43.0209 87.5887 41.2824 88.8606 40.3167 91.1246C40.4145 91.2277 40.515 91.3308 40.6142 91.4326C42.4478 90.1119 44.6965 86.3774 45.0382 83.5352C45.9524 83.6872 46.8678 83.8384 47.784 83.991C44.3415 88.6688 35.4994 98.9538 30.8519 101.698C31.5559 99.466 32.6862 97.7617 33.2533 95.9281C33.1416 95.9357 33.0312 95.9426 32.9228 95.9515C32.8237 95.8484 32.7239 95.746 32.6241 95.6442C31.4944 97.8827 29.6284 99.4523 29.2959 102.471C29.5319 102.84 29.7838 103.038 30.0376 103.238C35.5661 102.312 44.7943 88.3526 49.2058 84.5417C48.0127 96.5813 41.5905 98.4609 36.0209 105.756C41.0815 103.219 44.1525 96.747 48.4846 93.1506C48.0054 98.1845 46.8143 109.432 43.8147 111.429C43.98 111.415 44.1452 111.405 44.3118 111.392C47.6716 109.292 47.8693 100.655 48.989 96.2396C49.1476 94.6906 49.3076 93.1444 49.4662 91.5989C51.0665 89.3391 52.6674 87.0807 54.2677 84.825C54.3847 84.7617 54.4997 84.6971 54.616 84.6352C55.1528 86.3286 57.5839 88.1656 60.218 87.6726C60.8486 87.4066 61.4778 87.1412 62.1051 86.8758C63.6889 87.4705 65.2693 88.0645 66.8491 88.6599C67.4717 95.5149 67.2324 99.3588 62.9135 104.58C67.3263 102.314 68.9484 93.5783 67.479 88.9431C77.7416 90.1373 77.3311 86.6565 75.3825 79.1448C75.9847 79.1531 76.5862 79.1641 77.1884 79.1751C76.8572 78.6725 75.9563 79.0458 75.2688 78.6602C74.9568 78.458 75.0183 78.4958 74.8233 78.1988C77.265 75.4323 83.1393 78.1803 81.9092 82.7714C83.5954 78.9627 79.8634 75.5795 76.2669 76.94C77.8031 75.1113 79.6631 73.6084 80.6355 71.187C80.7531 71.1231 80.8675 71.0591 80.9851 70.9966C83.799 73.9673 86.6168 76.94 89.432 79.91C89.5959 79.8983 89.7631 79.8853 89.929 79.8736C90.0573 79.6996 90.1835 79.5257 90.3098 79.3511C87.6288 76.1521 84.9432 72.9491 82.2615 69.7501C82.5484 69.6181 82.8352 69.4875 83.1254 69.3562C83.5901 68.9128 84.1011 68.7656 84.6133 68.8351C84.4633 68.7601 84.3198 68.6879 84.185 68.6199C88.5013 69.0557 94.008 72.6679 98.5094 71.5039C98.9252 70.7793 98.943 70.3854 98.6938 69.6807C103.488 69.8024 112.113 68.1902 114.857 65.8486C107.484 67.4064 99.1717 67.9344 92.3972 67.0228C90.395 66.7884 88.3955 66.5526 86.3947 66.3174C86.2837 66.3257 86.1726 66.3332 86.0602 66.3422C86.5983 65.3707 87.1363 64.3972 87.6744 63.4251C92.6246 63.3337 105.597 63.2079 108.221 60.09C108.028 59.8309 107.835 59.5696 107.644 59.3104C106.889 59.2018 106.133 59.0939 105.379 58.9845C105.184 59.274 105.157 59.5504 105.126 59.8274C105.724 59.892 106.318 59.9567 106.914 60.0227C103.025 61.0072 92.1943 63.0841 88.6566 61.8714C88.2845 61.419 88.5595 59.8432 88.576 58.7075C88.5813 58.4827 88.5747 58.2743 88.5522 58.0963C93.6346 56.5693 97.4089 53.1353 98.9563 47.9467C99.8413 44.9801 99.2544 41.0785 101.167 39.2285C102.388 39.3357 102.634 39.8527 103.531 40.2047C103.056 39.542 102.38 39.1749 101.532 38.8724C100.999 39.2409 100.47 39.6094 99.9405 39.9772C98.485 40.543 96.9614 39.0628 94.4945 40.2171C92.4911 38.4949 91.3588 35.771 88.6527 34.7295C88.5595 34.5713 88.4649 34.4139 88.3731 34.2565C89.4697 33.1867 90.5629 32.119 91.6595 31.0506C90.5814 31.954 89.4868 33.0224 88.3902 34.0901C87.6592 33.7608 86.9242 33.4308 86.1898 33.1028C86.1488 32.9949 86.1045 32.8897 86.0602 32.7832C88.5661 30.9991 90.7916 30.337 93.6458 30.9042C93.7807 31.1675 93.9208 31.4315 94.0576 31.6955C93.9241 31.9258 93.8064 31.9877 93.6921 32.0516C93.3728 31.9657 93.0503 31.8805 92.7317 31.7931C93.1455 32.0379 93.5764 32.1156 94.0061 32.1933C94.1264 32.0736 94.2487 31.9554 94.3683 31.8371C94.3868 31.6708 94.4046 31.5058 94.4231 31.3394C93.7998 30.7811 93.6095 30.3796 92.3873 30.3391C92.5816 30.0496 92.7766 29.7616 92.9716 29.4735C91.5703 30.4395 88.732 30.6973 87.3379 31.5367C88.4101 30.689 89.4829 29.8413 90.5557 28.9943C90.6826 28.8211 90.8102 28.6465 90.9384 28.4732C88.9541 29.6612 86.9711 30.8513 84.9874 32.0406C83.717 31.9513 82.3659 31.3552 81.6811 30.6402C81.5714 30.6485 81.4624 30.6567 81.3493 30.665C83.7064 29.0645 86.0602 27.4639 88.414 25.8641C88.3757 25.7019 88.3387 25.5403 88.301 25.3781C85.6194 26.9483 82.9397 28.5179 80.2613 30.0888C79.4053 29.8771 78.5513 29.6667 77.6973 29.455C77.7753 28.6822 77.856 27.9088 77.9346 27.1353C84.072 22.2926 90.2106 17.4498 96.3466 12.6077C96.4557 12.5988 96.5668 12.5912 96.6778 12.5837C96.5886 12.3705 96.5013 12.1574 96.4147 11.9443C95.7313 11.6163 92.93 13.9009 91.8717 14.585C87.796 17.2133 84.1909 20.4831 80.1807 22.8563C81.8358 20.7436 84.8678 18.6399 85.3669 15.5612C85.0972 15.5269 84.8248 15.4918 84.5552 15.4574C84.1367 15.817 83.717 16.1779 83.2946 16.5382C83.754 16.3395 84.2121 16.1415 84.6695 15.9421C83.7811 18.6495 79.7603 23.4943 77.4957 25.0295C77.4072 24.8157 77.3199 24.6046 77.2327 24.3908C78.7073 21.8938 80.1609 18.5422 79.4774 15.3405C79.0643 15.0972 78.6505 14.8538 78.2374 14.6097C77.7965 14.6434 77.3556 14.6764 76.9134 14.7087C77.7621 15.0463 78.3378 15.1295 78.9612 15.5434C79.3611 18.6474 77.8388 20.7457 77.0211 23.2551C76.9028 23.3183 76.7885 23.3816 76.6721 23.4462C76.1248 22.4328 76.1598 21.9419 75.0388 21.757C75.0051 21.5404 74.9734 21.3232 74.9416 21.1059C75.1955 20.7574 75.4513 20.4109 75.7064 20.063C75.8829 19.9392 76.0587 19.8162 76.2365 19.6938C76.4157 20.0314 76.4236 19.9124 76.4818 20.4982C76.6754 20.2101 76.7032 19.9337 76.7303 19.6567C76.5241 19.5632 76.3132 19.469 76.105 19.3755C75.5511 19.964 74.9985 20.5539 74.4459 21.1431C73.0571 20.2101 71.5336 19.2325 69.5863 18.8722C70.6875 16.567 74.0453 12.8669 72.3102 9.95053C70.197 6.4037 62.977 10.493 60.3336 13.3062C59.9793 13.6857 59.7044 14.0418 59.5385 14.354C59.707 14.2165 59.98 14.0006 60.3336 13.7366C62.9419 11.78 69.8916 7.10221 71.3967 10.8415C72.9758 12.9295 69.9511 16.9452 69.1249 18.5773C66.3104 18.2906 63.3656 18.0197 60.3376 18.0802C57.2805 18.1428 54.1348 18.5409 50.9515 19.5976C49.4127 20.1084 42.8649 24.0498 42.615 24.0003C41.6202 23.0337 40.6234 22.0643 39.6273 21.0963C37.5465 20.0451 35.463 18.9932 33.3816 17.942C33.369 18.052 33.3591 18.162 33.3485 18.2734C33.2262 18.3924 33.1033 18.5106 32.983 18.6295C35.6501 20.8983 38.3205 23.1684 40.9863 25.4379C40.5791 25.6881 40.1713 25.937 39.7628 26.1873C36.471 23.6793 34.2019 22.1564 29.3012 20.877C29.0263 20.8976 28.75 20.9176 28.475 20.9382C31.3371 22.9189 34.2177 24.7339 37.097 26.5489C37.2894 26.8088 37.4811 27.0686 37.6741 27.3292C35.6184 28.2016 34.7492 30.007 33.0114 31.1297C30.298 29.8262 27.7876 28.6492 24.4998 27.6482C24.4231 27.8737 24.3438 28.0992 24.2671 28.3247C26.3208 29.6523 28.3739 30.9805 30.4276 32.3088C30.538 32.3005 30.6483 32.2923 30.7581 32.2847C30.4044 32.5295 30.0508 32.7756 29.6985 33.021C29.206 34.6813 28.2443 36.6043 27.4452 38.9459C24.3755 41.4574 20.3956 41.3068 19.7783 46.4246C18.7993 46.6948 18.1033 46.78 17.211 47.4373C17.1878 47.6586 17.166 47.88 17.1429 48.1007C17.7027 48.8927 22.6906 51.0116 23.8837 51.2192C24.1289 50.9813 24.3722 50.7435 24.6148 50.507ZM61.0407 15.1236C61.1938 15.1518 61.3425 15.1792 61.4943 15.2074C61.2912 15.1827 61.0875 15.1568 60.8839 15.1317C60.7795 15.1371 60.6758 15.142 60.5715 15.1474C61.0513 14.2451 62.4665 14.023 63.8286 14.1238C63.7974 14.3396 63.7667 14.5559 63.733 14.7712C62.847 14.8169 61.9585 14.8621 61.0726 14.9069C61.0632 14.9795 61.0513 15.0511 61.0407 15.1236ZM62.9424 16.3134C63.3696 16.1717 63.7974 16.0308 64.2233 15.8899C64.7758 14.9656 65.0914 13.9865 64.8089 13.0879C63.4937 12.8264 62.7329 13.1503 61.4988 13.67C61.2755 14.0373 61.0516 14.4066 60.8309 14.7745C60.7448 14.9161 60.6569 15.0578 60.5715 15.2C60.6569 15.2963 60.7398 15.3803 60.8309 15.4562C61.2468 15.8031 61.7513 15.9231 62.678 15.8465C62.9299 16.2815 62.6387 16.0884 62.1791 16.211C62.4329 16.2442 62.6874 16.2795 62.9424 16.3134ZM94.5188 26.2673C94.0597 26.3541 93.6006 26.4409 93.1429 26.5263C93.4257 26.5073 93.7091 26.4877 93.9899 26.4666C94.3134 26.6056 94.6362 26.746 94.9569 26.8844C94.468 27.7856 93.979 28.6854 93.4901 29.5852C94.2435 28.6908 94.9956 28.0548 95.3143 26.6965C95.0478 26.5528 94.7833 26.4104 94.5188 26.2673ZM86.6286 69.4009C86.285 68.7923 85.9126 68.3892 85.5429 68.2949C85.8732 68.6072 86.2534 68.9729 86.6286 69.4009ZM82.2857 82.6728C81.9244 82.8852 81.5614 83.0964 81.2 83.3054C81.4779 83.2789 81.7558 83.2523 82.0345 83.2269C82.1197 83.0411 82.204 82.8575 82.2857 82.6728ZM86.6286 69.4009C87.7315 70.6549 88.5608 73.0536 88.3212 74.9309C89.573 72.2089 88.1443 70.5116 86.6286 69.4009Z" fill="#629FBC"/>
</svg>
