<?xml version="1.0" encoding="UTF-8" standalone="no"?>
<svg
   xmlns:dc="http://purl.org/dc/elements/1.1/"
   xmlns:cc="http://creativecommons.org/ns#"
   xmlns:rdf="http://www.w3.org/1999/02/22-rdf-syntax-ns#"
   xmlns:svg="http://www.w3.org/2000/svg"
   xmlns="http://www.w3.org/2000/svg"
   version="1.1"
   id="svg2"
   viewBox="0 0 410 410"
   height="115.71111mm"
   width="115.71111mm">
  <defs
     id="defs4" />
  <metadata
     id="metadata7">
    <rdf:RDF>
      <cc:Work
         rdf:about="">
        <dc:format>image/svg+xml</dc:format>
        <dc:type
           rdf:resource="http://purl.org/dc/dcmitype/StillImage" />
        <dc:title></dc:title>
      </cc:Work>
    </rdf:RDF>
  </metadata>
  <g
     transform="translate(295.14285,-264.50507)"
     id="layer1">
    <path
       id="path3347"
       d="m -109.79326,673.35558 c -22.51861,-2.13004 -48.51822,-9.37614 -68.96885,-19.22163 -50.4808,-24.30284 -88.59126,-67.70764 -105.93953,-120.65676 -16.80275,-51.2841 -12.9479,-106.26548 10.8323,-154.5 24.49947,-49.69345 66.95583,-86.57411 119.60723,-103.8995 63.760551,-20.98093 132.906831,-9.63332 186.756191,30.64861 37.20565,27.83163 64.38106,68.64344 75.648529,113.60834 4.45952,17.79655 5.94585,30.33106 5.94585,50.14255 0,33.00423 -6.19103,60.2314 -20.350889,89.5 -37.04701,76.5766 -118.60765,122.4113 -203.530831,114.37839 z m 20.058181,-25.32455 c 4.55528,-2.98474 3.90577,-10.0233 -1.6795,-18.20024 -5.3397,-7.81743 -14.861981,-13.24278 -38.378681,-21.86638 -7.15,-2.62192 -15.19725,-5.867 -17.88279,-7.2113 -6.5563,-3.2819 -13.63407,-10.07429 -17.19518,-16.50185 -2.73264,-4.93223 -2.92203,-5.98703 -2.92203,-16.27407 0,-10.6077 0.12092,-11.22297 3.39044,-17.25209 4.13359,-7.6225 10.38155,-13.56077 17.93441,-17.04547 4.55029,-2.09939 7.59506,-2.6988 15.36145,-3.02415 12.89119,-0.54005 20.83401,0.98027 35.813701,6.85505 15.67303,6.14668 24.17221,8.12063 35.11917,8.15644 10.25605,0.0336 17.87745,-1.95591 23.72772,-6.19383 5.41925,-3.92568 8.14466,-8.44835 8.14937,-13.52344 0.007,-7.46169 -5.27971,-11.45506 -15.21414,-11.49232 -8.26003,-0.031 -17.42502,-1.63776 -28.11876,-4.92971 -7.98402,-2.45779 -10.2441,-2.81368 -12,-1.88959 -3.36003,1.76829 -3.75733,2.92288 -3.09923,9.00651 0.55485,5.12917 0.40587,5.77829 -1.56867,6.83503 -3.50348,1.875 -6.87568,0.30094 -13.915471,-6.4954 -7.05946,-6.81533 -10.17701,-8.50703 -15.67721,-8.50703 -5.23004,0 -9.82093,2.35312 -12.96208,6.64389 -7.26503,9.92392 -11.87535,13.35611 -17.9407,13.35611 -7.61922,0 -12.5,-5.07601 -12.5,-13 0,-7.85007 3.52515,-11.88234 15.5,-17.72979 11.89681,-5.80934 12.17194,-6.03938 18.83677,-15.74998 8.80073,-12.82259 17.5389,-21.79027 23.89834,-24.52602 4.177761,-1.79723 7.443701,-2.29877 16.377371,-2.515 15.57825,-0.37707 20.75903,-1.74149 25.35852,-6.67845 2.43248,-2.61097 2.58973,-5.09717 0.45725,-7.22965 -1.28861,-1.28862 -3.05999,-1.45735 -9.83344,-0.9367 -8.09564,0.62228 -8.32604,0.57706 -11.46298,-2.24969 -4.75641,-4.28606 -5.05636,-8.44303 -1.23711,-17.14484 4.68069,-10.66455 4.01476,-16.23988 -1.93973,-16.23988 -5.66607,0 -9.90142,8.8613 -9.93303,20.78212 -0.0243,9.14909 -1.5585,14.07923 -5.739951,18.44476 -5.39177,5.62914 -13.47068,5.94187 -21.52612,0.83326 -5.09038,-3.22822 -7.75589,-8.0374 -7.75589,-13.99339 0,-5.82615 2.19496,-10.41269 8.86337,-18.52072 3.18723,-3.87532 8.34917,-10.94393 11.47098,-15.70802 9.42107,-14.3772 19.605371,-21.83702 32.828721,-24.04646 9.09118,-1.51902 13.48939,-0.071 20.08055,6.61085 2.89101,2.93081 6.31626,5.88043 7.61168,6.55471 6.16632,3.20966 16.42424,-3.74284 20.12805,-13.64216 2.6717,-7.14077 4.34234,-23.54484 3.50042,-34.37088 -0.77704,-9.99182 0.24226,-14.76291 4.49473,-21.03868 6.26609,-9.24744 2.93558,-13.89332 -13.84975,-19.31966 -33.56701,-10.85149 -64.853561,-11.28563 -71.597231,-0.9935 -0.87208,1.33097 -2.00896,4.65233 -2.52641,7.38081 -0.51744,2.72849 -2.50443,7.33825 -4.41553,10.24392 -1.91109,2.90567 -3.7583,6.45663 -4.10491,7.89101 -0.69627,2.88142 1.08795,7.42432 5.02323,12.78991 3.07646,4.19464 3.31644,10.56664 0.59851,15.89196 -3.43628,6.73279 -7.51372,9.04907 -28.72539,16.31807 -19.03789,6.52406 -26.38102,6.66536 -26.38102,0.50761 0,-3.6523 1.36966,-5.8698 8.62197,-13.95909 7.94398,-8.86078 10.15532,-14.73628 6.8066,-18.085 -4.11367,-4.11368 -14.42619,0.3382 -23.50905,10.14878 -3.00198,3.2425 -8.72687,11.13181 -12.72198,17.53181 -4.16981,6.67987 -9.27297,13.42298 -11.98068,15.83082 -6.6625,5.92463 -16.86259,10.4669 -30.21686,13.45607 -13.45921,3.01267 -20.24953,5.86446 -24.80096,10.41589 -9.84788,9.84788 -16.21802,36.35465 -16.18072,67.32958 0.0747,62.0607 28.30546,114.58263 80.9806,150.66053 23.20202,15.89137 51.5354,25.94744 83.00108,29.45872 5.88084,0.65625 15.237991,-0.32955 17.558181,-1.84979 z M -151.07075,483.92049 c -3.86948,-2.71029 -2.95058,-6.79319 2.9277,-13.0086 4.3293,-4.57761 5.28098,-6.28152 5.9707,-10.69014 0.89222,-5.70302 3.45882,-8.74456 7.37909,-8.74456 8.88482,0 11.00893,17.0742 3.2892,26.43957 -5.38747,6.53593 -14.71902,9.39917 -19.56669,6.00373 z m -10.02251,-15.6433 c -3.12877,-3.12877 0.96986,-11.38508 6.86375,-13.82641 2.57248,-1.06555 3.26147,-0.98925 4.96177,0.54951 3.08535,2.7922 2.52795,7.12343 -1.42552,11.0769 -3.56817,3.56817 -8.07786,4.52214 -10.4,2.2 z m 14.1083,-79.75842 c -3.23307,-1.37778 -5.64386,-5.56848 -4.90254,-8.52213 1.4366,-5.72387 14.24591,-8.64804 18.41993,-4.205 2.91189,3.09957 2.739,6.02205 -0.57569,9.73152 -2.99451,3.35114 -8.89985,4.71805 -12.9417,2.99561 z M -4.2932594,628.90058 c 21.8004704,-10.13552 49.2455904,-35.3966 66.1907804,-60.92339 13.66051,-20.57865 25.13079,-51.58333 26.45165,-71.5 0.64958,-9.79476 -0.41312,-13.58212 -4.21678,-15.02827 -3.89624,-1.48135 -7.05344,0.53143 -12.99267,8.28307 -6.60956,8.62653 -8.50834,10.08174 -21.84927,16.7452 -14.56351,7.2741 -14.93164,7.82289 -15.6424,23.31918 -0.84776,18.48297 -4.37023,24.29444 -20.08006,33.12865 -9.2408904,5.19649 -10.1353204,6.80147 -9.3875204,16.84512 0.80552,10.81871 -0.35296,14.13153 -7.97444,22.80386 -9.3014096,10.5839 -13.5853796,17.12612 -14.1960996,21.67943 -0.44796,3.33975 -0.16839,4.20477 1.80591,5.58762 3.18545,2.23118 5.45511,2.05167 11.8908996,-0.94047 z M 726.70674"
       style="fill:#006845;fill-opacity:1" />
  </g>
</svg>
