<svg xmlns="http://www.w3.org/2000/svg" viewBox="0 0 454.08 454.08"><defs><style>.cls-1{fill:#734c5f;}.cls-2{fill:#51a9ab;}.cls-3{fill:#e4c72e;}.cls-4{fill:#728d56;}.cls-5{fill:#51a8aa;}</style></defs><g id="Layer_2" data-name="Layer 2"><g id="Layer_1-2" data-name="Layer 1"><path class="cls-1" d="M.24,268.42c1.92-15.64,21.74-21.94,32.61-10A18.75,18.75,0,1,1,.53,274.56a7.89,7.89,0,0,0-.29-.86Z"/><path class="cls-2" d="M185.9.24c15.72,2,21.75,21.69,10.2,32.45a18.76,18.76,0,1,1-16-32.21,6.86,6.86,0,0,0,.77-.24Z"/><path class="cls-2" d="M273.7.24C288.91,2.15,295.15,21,284.64,31.88A18.75,18.75,0,1,1,267.31.58c.38-.08.74-.23,1.11-.34Z"/><path class="cls-1" d="M.24,180.62c1.85-14.48,19.08-20.89,30.19-12.22a18.75,18.75,0,1,1-30,17.8,3,3,0,0,0-.21-.54Z"/><path class="cls-1" d="M128.12,170.42c31.51,0,56.31,25.17,56.3,57.15,0,30.54-25.59,55.38-57,55.37-30.93,0-55.5-25.52-55.48-57.58C72,195.44,97.54,170.42,128.12,170.42Z"/><path class="cls-3" d="M382.39,226.72c0,31.32-25.15,56.24-56.75,56.24-31,0-55.76-25.48-55.75-57.41,0-30.45,25.69-55.17,57.28-55.15C357.38,170.42,382.39,195.93,382.39,226.72Z"/><path class="cls-4" d="M227.32,382.4A56.21,56.21,0,0,1,171.07,326c0-31.39,25.35-56.15,57.48-56.14,29.94,0,55.12,25.71,55.12,56.23A56.23,56.23,0,0,1,227.32,382.4Z"/><path class="cls-5" d="M283.62,128.11c0,30.87-25.12,56.32-55.61,56.32-31.72,0-56.95-25-56.95-56.36s25.3-56.15,57.46-56.14C258.57,71.93,283.61,97.46,283.62,128.11Z"/><path class="cls-3" d="M416.63,271a18.77,18.77,0,0,1,18.76-18.75c10.52,0,18.71,8.47,18.69,19.27,0,10-8.57,18.28-18.86,18.26A18.75,18.75,0,0,1,416.63,271Z"/><path class="cls-3" d="M384,346.42a18.73,18.73,0,1,1,37.46.48c0,10-8.57,18.35-18.79,18.33A18.7,18.7,0,0,1,384,346.42Z"/><path class="cls-4" d="M346.49,384a18.73,18.73,0,1,1-18.79,18.73A18.67,18.67,0,0,1,346.49,384Z"/><path class="cls-3" d="M384,107.71a18.67,18.67,0,0,1,19.21-18.62c10.22.1,18.33,8.7,18.25,19.34-.08,9.89-8.82,18.32-18.85,18.19A18.78,18.78,0,0,1,384,107.71Z"/><path class="cls-4" d="M183.44,416.62a18.78,18.78,0,0,1,18.67,18.84c-.14,10.7-8.59,18.74-19.59,18.62-9.89-.11-18-8.82-17.93-19.17A18.78,18.78,0,0,1,183.44,416.62Z"/><path class="cls-4" d="M107.77,421.46a18.73,18.73,0,1,1,18.84-18.79A18.67,18.67,0,0,1,107.77,421.46Z"/><path class="cls-4" d="M289.81,435.42c0,10.54-8.36,18.67-19.14,18.66-10.09,0-18.34-8.52-18.32-18.89a18.73,18.73,0,0,1,37.46.23Z"/><path class="cls-2" d="M107.84,70.32a18.73,18.73,0,1,1,18.78-18.74A18.71,18.71,0,0,1,107.84,70.32Z"/><path class="cls-1" d="M70.32,107.85A18.73,18.73,0,1,1,51.72,89.1,18.78,18.78,0,0,1,70.32,107.85Z"/><path class="cls-3" d="M435.31,164.52a18.73,18.73,0,1,1-18.68,18.77A18.62,18.62,0,0,1,435.31,164.52Z"/><path class="cls-2" d="M346.43,70.32A18.78,18.78,0,0,1,327.7,51.53C327.75,41,336.2,32.82,347,32.86c9.92,0,18.23,8.62,18.22,18.78A18.73,18.73,0,0,1,346.43,70.32Z"/><path class="cls-1" d="M70.32,346.56a18.68,18.68,0,0,1-19,18.66c-10.38-.07-18.5-8.63-18.41-19.41.09-9.82,8.79-18.2,18.8-18.1A18.77,18.77,0,0,1,70.32,346.56Z"/></g></g></svg>