<svg xmlns="http://www.w3.org/2000/svg" viewBox="0 0 1200 1200"><defs><style>.cls-1{fill:#020202;}.cls-2{fill:#1dc7cf;}.cls-3{fill:#48cfd3;}.cls-4{fill:#fcfcfc;}.cls-5{fill:#a4a4a4;}.cls-6{fill:#aeaeae;}.cls-7{fill:#4a4a4a;}</style></defs><g id="Layer_2" data-name="Layer 2"><g id="Layer_1-2" data-name="Layer 1"><path class="cls-1" d="M600.56,135.21c75.5,0,151.11,2.5,226.45-1,40.89-1.9,66.18,11.54,87.64,45.59,27.21,43.17,57,85.41,90.87,123.37,14.67,16.43,42.32,21.45,64.31,31.11,25.55,11.23,51.54,21.46,77,32.87,21.74,9.75,29.5,32.87,19.11,54-9.61,19.55-34.59,24.48-59.66,13.26-34.34-15.38-69.07-29.9-103.85-44.26-6-2.47-6,4.93-7.68,8.08q-94.14,176.53-188,353.22c-13.73,25.72-43.93,29.12-64,7.7-44.26-47.11-88.7-94-132.19-141.87-9.06-10-13-8.36-21,.38-41.94,45.84-84.52,91.08-126.8,136.6-29.82,32.11-55.51,24-79.82-22.42q-89-170.1-180.25-339c-4.83-9-14.73,2-21.41,4.68-33.32,13.28-65.81,28.68-99.33,41.41-22,8.35-39.61-.79-48.85-21.92-9.49-21.71,2.58-42.84,26.68-52.74,44-18.07,90.05-32.93,130.6-57,21.8-12.92,34.19-41.95,50.38-64,22.53-30.73,44.5-61.86,67-92.6,7.84-10.7,18.89-15.53,32.35-15.52Q470.31,135.33,600.56,135.21Zm63.6,426.62,1.93,2.09h0l7.67,8.2a.61.61,0,0,1,.48.58l17.89,19.2h0L696,596h0l5.69,6.2.12.12,3.4,3.46L705,606l.23-.22,21.47,23.34Q742.38,645.54,758,662c2.42,1.74,3.73,10.16,8,2.15Q840.38,524.85,914.3,385.36c12-22.68,34.49-45.55,2.27-69.88a.61.61,0,0,0-.37-.62l-12.33-16.67-.07-.06L886.2,273.8,870,252c-3.78-1.3-3.84-13.61-9.45-6-27,36.76-52.67,74.49-78.82,111.88a21.88,21.88,0,0,0-3.53,3.24c-37.43,53.41-75.26,106.56-111.82,160.57-7.22,10.65-29.37,22.68-4.13,38l-.25.18.26-.16,1.91,2.07ZM469,634l2.33-2.27a.42.42,0,0,0,.41-.4l2.34-3.28,4-4q2-2.05,3.94-4.09l1-1,2.4-2.3.3-.32,3.39-4.3h0l8.66-9.25.1-.1,15.39-16.46,0,0,15-15.93.06,0,4.84-5.12h0c9.6-9.56,25.79-17.74,7-33.27h0l-48-68L339.72,245.14c-.31-2.8-2-3.91-3.72-1.57-4.8,6.35-9.17,13-13.71,19.58a.9.9,0,0,0-.51.6q-7,9.51-14,19l0,0-28.48,39.35-1.41,1.71c-4,7.8-17.35,12.39-11.62,23.31C317.86,445.4,370.07,543.32,422,641.38c8.47,16,15.12,38.41,33.27,6.93l.06,0,2.88-3v0l1.9-2.1,5.95-6,3-3.05ZM600.24,213q-91,0-181.94,0a27.4,27.4,0,0,0-5.09.93c.8,1.4,1.51,2.87,2.43,4.19Q505,346.49,594.5,474.78c2.91,4.17,4.76,9.5,10.66,1q89.55-129.21,180-257.82a45.13,45.13,0,0,0,2.29-4.15,32.46,32.46,0,0,0-5.23-.81Q691.21,212.92,600.24,213Z"/><path class="cls-2" d="M665.56,844.23a.55.55,0,0,1-.52-.36l-3.28-3.63-3.93-4.09,0,0c-5.57-6.58-10.91-13.38-16.89-19.58-1.63-1.7-4.82-1.2-5,2.77-2.92,77.59,6.1,155.42-4.79,232.84h0c-10,7-19.33,17-32.66,15-25.52-3.75-35.25-19.59-35-45.22.68-64-.19-128.12-.6-192.18,0-5.67-1.32-11.34-2-17l-10.91,15.27,0,0-16,16.08h0l-2.94,4.08h0c-9.43,5-15.42,13.33-21,22l-.14-.24.16.22-15.07,12,0,0c-14.7,4.31-28.38,1.74-41.29-6.08l0,0c-13.53-16.48-15.11-33.92-4.18-52.36l.26.13-.25-.15c4.95-2.49,9.13-5.67,10.28-11.55L529,740l5.82-6.21,0,0,17.06-18,0,0,4-4h0L567,700.11c13.33-18.86,42.51-23.11,57.11-8.32l14.14,14-.14.26.12-.27c.65.7,1.31,1.39,2,2.08l0,0,2,2,0,0C645,715,647.6,720.3,654,722l0,0,24.91,26,.05,0,7.58,7.88c20,21,39.12,42.85,60.2,62.66,15.13,14.22,16.61,39.05.44,57.47-13,7.64-26.66,10.35-41.38,6.1l.2-.16-.18.18-17.08-13.94.19-.22-.21.19-7.92-8.07h0l-3.94-4.08h0L673,852h0Z"/><path class="cls-3" d="M631.2,1052.2C642.09,974.78,633.07,897,636,819.36c.15-4,3.34-4.47,5-2.77,6,6.2,11.32,13,16.89,19.58-.32-.09-.72-.07-.94-.27q-8.49-7.54-17-15.13c-.44,8.49-1.22,17-1.27,25.46-.4,63.24-.49,126.49-1.22,189.73C637.4,1041.4,633.38,1046.79,631.2,1052.2Z"/><path class="cls-3" d="M550.05,828.07,561,812.8c.7,5.67,2,11.34,2,17,.41,64.06,1.28,128.13.6,192.18-.27,25.63,9.46,41.47,35,45.22,13.33,2,22.67-8,32.66-15-9.43,14.38-23.05,20-39.43,16.42-19.16-4.24-30.1-17.56-30.26-36.9-.55-68.13-.12-136.27-.28-204.4,0-2,3-8.33-3.9-5.62C554.52,822.82,552.46,825.89,550.05,828.07Z"/><path class="cls-3" d="M449.75,823.76c-10.93,18.44-9.35,35.88,4.18,52.36C438.53,866.77,436.05,835.75,449.75,823.76Z"/><path class="cls-3" d="M705.79,882.21c14.72,4.25,28.41,1.54,41.38-6.1C734.75,887.47,721.12,890.61,705.79,882.21Z"/><path class="cls-3" d="M453.89,876.1c12.91,7.82,26.59,10.39,41.29,6.08C480,890.1,466.27,887.49,453.89,876.1Z"/><path class="cls-3" d="M678.9,748.07,654,722Z"/><path class="cls-3" d="M510.21,870.23c5.57-8.71,11.56-17,21-22Q520.7,859.2,510.21,870.23Z"/><path class="cls-3" d="M534.12,844.13l16-16.08Z"/><path class="cls-3" d="M551.86,715.83l-17.06,18Z"/><path class="cls-3" d="M495.16,882.2l15.07-12Z"/><path class="cls-3" d="M688.73,868.29l17.08,13.94C698.33,879.77,692.86,874.85,688.73,868.29Z"/><path class="cls-3" d="M638.25,705.76l-14.14-14Z"/><path class="cls-3" d="M654,722c-6.37-1.71-9-7-11.81-12.2Q648.06,715.92,654,722Z"/><path class="cls-3" d="M460,812.19c-1.15,5.88-5.33,9.06-10.28,11.55Z"/><path class="cls-3" d="M567,700.11l-11.16,11.73Z"/><path class="cls-3" d="M680.79,860.19l7.92,8.07Z"/><path class="cls-3" d="M686.53,756,679,748.1Q682.73,752,686.53,756Z"/><path class="cls-3" d="M665.56,844.23,673,852Z"/><path class="cls-3" d="M534.83,733.8,529,740Z"/><path class="cls-3" d="M555.85,711.84l-4,4Z"/><path class="cls-3" d="M657.83,836.15q2,2.05,3.94,4.09Q659.79,838.2,657.83,836.15Z"/><path class="cls-3" d="M673,852l3.85,4.14Z"/><path class="cls-3" d="M676.88,856.12l3.94,4.08Z"/><path class="cls-3" d="M661.76,840.24l3.28,3.63Z"/><path class="cls-3" d="M531.18,848.2l2.94-4.08Z"/><path class="cls-3" d="M642.19,709.84l-2-2Z"/><path class="cls-3" d="M640.19,707.83c-.65-.69-1.31-1.38-2-2.08C638.88,706.45,639.54,707.14,640.19,707.83Z"/><path class="cls-4" d="M600.24,213q91,0,181.93,0a32.46,32.46,0,0,1,5.23.81,45.13,45.13,0,0,1-2.29,4.15q-90.06,128.85-180,257.82c-5.9,8.51-7.75,3.18-10.66-1Q505,346.52,415.64,218.15c-.92-1.32-1.63-2.79-2.43-4.19a27.4,27.4,0,0,1,5.09-.93Q509.26,213,600.24,213Z"/><path class="cls-4" d="M916.2,314.86a.61.61,0,0,1,.37.62,54.31,54.31,0,0,1,2.78,5.42c3.48,9.09,18.67,14.7,13,25.48q-79.8,153-161.57,305.06c-2.19,4.09-.39,17.31-12.8,10.55q-15.66-16.44-31.3-32.89l-21.47-23.34L705,606l.21-.24-3.4-3.46-.12-.12L696,596h0l-3.92-4.09h0l-17.89-19.2a.61.61,0,0,0-.48-.58l-7.67-8.2h0l-1.93-2.09h0l-1.91-2.07-.26.16.25-.18c-10.34-8.42-12.51-16.9-2.11-27.48,6.08-6.18,10.38-14.13,15.39-21.34q53.12-76.5,106.2-153c26.15-37.39,51.83-75.12,78.82-111.88,5.61-7.63,5.67,4.68,9.45,6l16.2,21.81,17.6,24.32.07.06Z"/><path class="cls-4" d="M466.06,637.08c-2,2-4,4-5.95,6l-1.9,2.1v0l-2.88,3-.06,0c-4.25,4.07-9,7.76-12.63,12.29-4.05,5-5.67,5.38-9-.94C390.6,578.21,345.11,498,305.26,415c-13.33-27.76-52.81-50.84-27.38-91.15l1.41-1.71,28.48-39.35,0,0q7-9.52,14-19a.9.9,0,0,1,.51-.6l17.43-18,152.41,218.7,48,68h0c15.28,14.79-.29,23.1-7,33.27h0l-4.84,5.12-.06,0-15,15.93,0,0-15.39,16.46-.1.1-8.66,9.25h0l-3.39,4.3-.3.32L483,619l-1,1q-2,2-3.94,4.09l-4,4-2.34,3.28a.42.42,0,0,1-.41.4L469,634h0Z"/><path class="cls-5" d="M277.88,323.86c-25.43,40.31,14.05,63.39,27.38,91.15,39.85,83,85.34,163.2,128.37,244.65,3.33,6.32,4.95,5.92,9,.94,3.67-4.53,8.38-8.22,12.63-12.29-18.15,31.48-24.8,9.06-33.27-6.93-51.92-98.06-104.13-196-155.73-294.21C260.53,336.25,273.91,331.66,277.88,323.86Z"/><path class="cls-6" d="M758,662c12.41,6.76,10.61-6.46,12.8-10.55Q852.34,499.29,932.4,346.38c5.62-10.78-9.57-16.39-13-25.48a54.31,54.31,0,0,0-2.78-5.42c32.22,24.33,9.72,47.2-2.27,69.88Q840.47,524.91,766,664.14C761.76,672.15,760.45,663.73,758,662Z"/><path class="cls-7" d="M781.73,357.9q-53.09,76.52-106.2,153c-5,7.21-9.31,15.16-15.39,21.34-10.4,10.58-8.23,19.06,2.11,27.48-25.24-15.36-3.09-27.39,4.13-38,36.56-54,74.39-107.16,111.82-160.57A21.88,21.88,0,0,1,781.73,357.9Z"/><path class="cls-5" d="M540.13,531.87l-48-68Z"/><path class="cls-5" d="M307.77,282.8l-28.48,39.35Z"/><path class="cls-5" d="M533.14,565.14c6.71-10.17,22.28-18.48,7-33.27C558.93,547.4,542.74,555.58,533.14,565.14Z"/><path class="cls-7" d="M705.26,605.76l21.47,23.34Z"/><path class="cls-6" d="M903.8,298.13l-17.6-24.32Z"/><path class="cls-5" d="M339.72,245.14l-17.43,18c4.54-6.55,8.91-13.23,13.71-19.58C337.77,241.23,339.41,242.34,339.72,245.14Z"/><path class="cls-6" d="M886.2,273.8,870,252Z"/><path class="cls-7" d="M674.23,572.69l17.89,19.2Z"/><path class="cls-5" d="M497.84,602.73l15.39-16.46Z"/><path class="cls-5" d="M321.78,263.75q-7,9.51-14,19Q314.78,273.26,321.78,263.75Z"/><path class="cls-5" d="M513.27,586.23l15-15.93Z"/><path class="cls-6" d="M916.2,314.86l-12.33-16.67Z"/><path class="cls-5" d="M489.08,612.08l8.66-9.25Z"/><path class="cls-7" d="M666.08,563.91l7.67,8.2Z"/><path class="cls-7" d="M696,596l5.69,6.2Z"/><path class="cls-5" d="M528.3,570.26l4.84-5.12Z"/><path class="cls-5" d="M485.69,616.37l3.39-4.3Z"/><path class="cls-7" d="M692.12,591.88,696,596Z"/><path class="cls-5" d="M478.09,624.11q2-2.05,3.94-4.09Q480.05,622.06,478.09,624.11Z"/><path class="cls-7" d="M701.84,602.28l3.4,3.46Z"/><path class="cls-5" d="M455.32,648.26l2.88-3Z"/><path class="cls-5" d="M471.77,631.36l2.34-3.28Z"/><path class="cls-5" d="M466.06,637.08l3-3.05Z"/><path class="cls-5" d="M469,634l2.33-2.27Z"/><path class="cls-5" d="M483,619l2.4-2.3Z"/><path class="cls-7" d="M662.26,559.77l1.91,2.07Z"/><path class="cls-7" d="M664.16,561.83l1.93,2.09Z"/><path class="cls-5" d="M458.21,645.19l1.9-2.1Z"/></g></g></svg>