<?xml version="1.0" encoding="UTF-8"?><svg id="Layer_2" xmlns="http://www.w3.org/2000/svg" viewBox="0 0 288 288"><defs><style>.cls-1{fill:#a9a9a9;}.cls-2{fill:#fefdfd;}.cls-3{fill:#fed5bd;}.cls-4{fill:#fdfdfd;}.cls-5{fill:#aaa;}.cls-6{fill:#bebebe;}.cls-7{fill:#fe8740;}.cls-8{fill:#fe6000;}.cls-9{fill:#fefdfc;}.cls-10{fill:#fed6be;}.cls-11{fill:#fefefd;}.cls-12{fill:#fefefe;}</style></defs><g id="Layer_1-2"><g><path class="cls-8" d="M197.04,288H0V0H197.04V151.47h-3.8v11.49h3.8v125.03Zm-48-155.52l.24-.18-.24-.3h-9.35c-.6,1.05-1.18,2.06-1.76,3.06-.56,.97-1.13,1.93-1.69,2.9-.57,.97-1.09,1.97-1.75,3.01-.64-1.17-1.18-2.24-1.78-3.26-.55-.93-1.05-1.88-1.56-2.83-.53-.98-1.14-1.92-1.69-2.83h-9.76c.08,.28,.11,.51,.22,.69,.25,.42,.53,.82,.8,1.23,1.45,2.2,2.9,4.4,4.36,6.59,1.32,1.97,2.67,3.93,3.97,5.92,.23,.36,.48,.8,.24,1.28-.37,.52-.73,1.06-1.08,1.6-1.54,2.32-3.02,4.68-4.63,6.95-1.18,1.67-2.18,3.46-3.48,5.05-.33,.41-.84,.87-.83,1.56h9.8c1.83-3.05,3.64-6.06,5.45-9.09,.6,1.17,1.11,2.38,1.81,3.46,1.18,1.82,2.05,3.8,3.19,5.64,3.89,.14,9.03,.09,10.1-.13-3.39-5.08-6.69-10.16-10.2-15.15-.08-.49,.13-.92,.44-1.34,.43-.58,.84-1.17,1.24-1.77,1.85-2.79,3.7-5.58,5.55-8.38,.8-1.22,1.58-2.46,2.38-3.69Zm-42.96,12.24h.24v18.18h8.13v-30.87h-8.5c-.8,1.35-1.59,2.7-2.39,4.05-.73,1.22-1.48,2.42-2.2,3.65-.64,1.09-1.23,2.21-1.87,3.3-.97,1.64-1.98,3.26-2.96,4.89-.56,.94-1.07,1.93-1.73,2.81h-.24v-18.7h-8.12v30.61l.29,.29h8.69c.46-.76,.92-1.44,1.3-2.17,.9-1.76,2.02-3.39,2.96-5.12,.73-1.34,1.53-2.65,2.32-3.96,.6-.99,1.16-2,1.74-2.99,.77-1.32,1.62-2.6,2.34-3.96ZM27.5,121.17c-.34,.03-.72-.01-1.03,.11-.62,.23-1.21,.55-1.81,.83-.88,.42-1.7,.95-2.5,1.51-1.28,.9-2.29,2.07-3.34,3.18-.61,.64-1.1,1.43-1.57,2.21-.94,1.58-1.48,3.31-2.13,5-.22,.56-.05,1.23-.29,1.67-.23,.43-.05,.89-.38,1.3-.22,.27,0,.85-.05,1.29-.04,.45-.24,.9-.22,1.34,.09,2.17-.27,4.35,.21,6.5,.08,.34-.02,.72,.02,1.08,.04,.33,.15,.65,.23,.98,.08,.33,.22,.65,.23,.98,.02,.66,.25,1.25,.43,1.87,.35,1.22,.97,2.32,1.48,3.47,.73,1.67,1.81,3.07,3.02,4.39,1.03,1.12,2.22,2.05,3.54,2.77,1.19,.66,2.42,1.27,3.79,1.59,.78,.18,1.51,.5,2.33,.44,.07,0,.15,0,.22,.04,.83,.32,1.72,.33,2.58,.42,.9,.09,1.86,.14,2.72-.09,.87-.23,1.74-.09,2.61-.31,1.16-.3,2.34-.53,3.42-1.03,1.46-.68,3-1.26,4.12-2.51,1.28-.64,1.91-1.91,2.87-2.87,.13-.66,.81-.95,1-1.63,.24-.84,.75-1.61,1.17-2.39,.44-.83,.6-1.75,.88-2.64,.18-.57,.25-1.17,.33-1.58-.44-.61-.96-.52-1.46-.52-1.08,0-2.16-.03-3.24,0-1.09,.04-2.17,.16-3.26,.23-.3,.02-.61,0-.93,0,.13,1.32-.79,2.19-1.01,3.29-.79,.75-1.18,1.81-2.17,2.47-1.65,1.09-3.33,1.9-5.33,1.92-.93,0-1.85-.04-2.79-.2-1.26-.22-2.31-.83-3.38-1.41-.5-.27-.96-.67-1.34-1.1-.43-.47-.76-1.04-1.11-1.57-.29-.44-.75-.86-.8-1.33-.07-.62-.64-.93-.66-1.55-.02-.59-.18-1.19-.38-1.75-.24-.68-.47-1.39-.44-2.09,.09-2.86-.34-5.73,.43-8.57,.28-1.05,.54-2.09,.98-3.08,.91-2.09,1.47-2.65,2.88-3.82,1.57-1.3,3.36-2.13,5.49-2.1,1.36,.02,2.69,.09,4,.49,1.37,.41,2.58,1.06,3.56,2.12,.86,.92,1.81,2.81,2.09,4.18,.03,.17,.23,.3,.29,.38h8.6c-.03-.56,.02-1.09-.11-1.57-.33-1.18-.61-2.36-1.09-3.51-.39-.94-.96-1.77-1.45-2.64-.53-.93-1.39-1.59-2.1-2.37-1.51-1.68-3.6-2.47-5.5-3.54-.74,.02-1.35-.42-2.07-.53-.73-.11-1.46-.45-2.21-.41-.76,.04-1.44-.3-2.18-.27-.72,.02-1.44-.02-2.16,.01-.69,.03-1.38-.11-2.07,.21-.47,.21-1.04,.23-1.57,.25-.52,.02-.99,.1-1.38,.46Zm154.86,41.77v-30.92h-8.51c-.32,.57-.62,1.13-.95,1.67-1.15,1.92-2.34,3.82-3.45,5.77-.89,1.55-1.83,3.07-2.7,4.63-.98,1.76-2.13,3.42-3.08,5.21-.31,.57-.7,1.1-1.2,1.88v-19.16h-8.1v30.9h9c.07-.17,.11-.31,.18-.44,.56-.97,1.07-1.97,1.71-2.88,.37-.53,.56-1.14,.92-1.66,1.03-1.51,1.84-3.16,2.8-4.72,.69-1.11,1.27-2.29,1.97-3.38,1.13-1.74,2.06-3.6,3.28-5.46v18.55h8.12Zm-100.78-30.9h-26.86c0,2.19,0,4.35,0,6.5,0,.03,.02,.07,.04,.1,.02,.03,.06,.05,.14,.12h9.18c0,8.03,0,16.02,0,24.01,0,.03,.02,.07,.04,.1,.02,.03,.06,.05,.04,.04h8.08c0-8.03,0-16.02,0-24.01,0-.03,.02-.07,.04-.1,.02-.03,.06-.06,.13-.12h9.17v-6.64Z"/><path class="cls-1" d="M201.12,0h86.88V288h-86.88v-124.79h3.49c.71-.24,.58-.64,.58-.99,0-3.32,0-6.64,0-9.96v-1.08h-4.08V0Zm21.36,159.6h.24c.52,.64,.98,1.35,1.58,1.91,.88,.82,1.96,1.39,3.06,1.86,.68,.29,1.44,.48,2.17,.53,1.23,.08,2.48,.06,3.72,0,.56-.02,1.14-.12,1.66-.32,1.4-.51,2.78-1.01,3.98-1.99,1.82-1.49,2.71-2.67,3.81-5.02,.82-1.76,1.14-3.62,1.59-5.46,.14-.57,0-1.2,.03-1.79,.04-.57,.21-1.13,.22-1.7,0-.85,.05-1.69-.19-2.55-.21-.76-.09-1.6-.23-2.42-.25-1.38-.69-2.68-1.17-3.97-.88-2.36-2.56-4.1-4.57-5.52-1.41-1-3.05-1.69-4.74-1.83-1.74-.15-3.53-.23-5.3,.15-1.72,.37-3.04,1.33-4.26,2.44-.71,.64-1.19,1.55-1.85,2.45v-4.33h-7.92v41.67c0,.24-.04,.49,.01,.72,.04,.17,.18,.33,.29,.52,2.56,0,5.12,0,7.67,0,.04,0,.07-.02,.1-.04,.03-.02,.06-.05,.08-.08v-15.24Zm46.83-27.53c-.02,.18,.01,.39-.06,.55-.55,1.19-.8,2.48-1.12,3.73-.18,.68-.42,1.36-.57,2.06-.15,.7-.4,1.42-.64,2.12-.43,1.23-.66,2.53-1,3.79-.28,1.04-.6,2.07-.9,3.11-.25,.86-.54,1.71-.74,2.57-.37,1.63-.9,3.2-1.35,4.9-.46-1.61-.9-3.11-1.33-4.62-.28-.97-.5-1.95-.84-2.89-.39-1.08-.71-2.19-1.03-3.29-.43-1.5-.87-3.01-1.26-4.53-.13-.5-.33-.98-.47-1.48-.38-1.32-.75-2.65-1.13-3.97-.21-.71-.43-1.42-.63-2.07h-8.75c-.24,.69,.06,1.29,.29,1.81,.92,2.11,1.45,4.35,2.3,6.49,.5,1.27,.83,2.62,1.34,3.88,.84,2.06,1.4,4.21,2.25,6.27,.73,1.78,1.25,3.64,1.9,5.45,.91,2.54,1.73,5.12,2.67,7.66,.21,.56,.43,1.19,.25,1.81-.5,1.77-2.2,3.38-4.05,3.31-.87-.03-1.74,0-2.61,0v6.45c1.02,.12,2-.12,2.96,.24,.42,.16,.95,.06,1.43,.02,.49-.04,.97-.21,1.46-.22,1-.02,1.93-.3,2.83-.71,1.54-.71,2.27-1.45,3.11-2.85,.56-.93,1.08-1.87,1.42-2.89,.34-1.02,.82-1.98,1.16-3,.4-1.23,.75-2.49,1.25-3.68,.8-1.88,1.32-3.85,2.06-5.75,.49-1.24,.83-2.54,1.27-3.8,.3-.87,.64-1.73,.93-2.61,.3-.91,.65-1.81,.99-2.71,.44-1.18,.71-2.44,1.21-3.57,.84-1.87,1.27-3.87,2.09-5.74,.65-1.49,.91-3.13,1.68-4.59,.19-.37,.18-.84,.28-1.32-2.87,0-5.62,0-8.38,0-.07,0-.14,.04-.24,.06Z"/><path class="cls-12" d="M201.12,0V151.18h4.08v1.08c0,3.32,0,6.64,0,9.96,0,.35,.13,.75-.58,.99h-3.49v124.79h-4.08v-125.03h-3.8v-11.49h3.8V0h4.08Z"/><path class="cls-2" d="M27.5,121.17c.39-.36,.86-.44,1.38-.46,.53-.02,1.1-.04,1.57-.25,.69-.32,1.38-.18,2.07-.21,.72-.03,1.44,.01,2.16-.01,.74-.03,1.42,.31,2.18,.27,.75-.04,1.48,.3,2.21,.41,.72,.11,1.34,.55,2.07,.53,1.9,1.08,3.98,1.86,5.5,3.54,.71,.79,1.57,1.45,2.1,2.37,.5,.87,1.06,1.69,1.45,2.64,.48,1.14,.76,2.33,1.09,3.51,.13,.48,.08,1.01,.11,1.57h-8.6c-.06-.08-.26-.21-.29-.38-.29-1.36-1.23-3.25-2.09-4.18-.98-1.06-2.19-1.71-3.56-2.12-1.31-.4-2.64-.47-4-.49-2.13-.03-3.92,.8-5.49,2.1-1.41,1.17-1.96,1.72-2.88,3.82-.43,.99-.7,2.03-.98,3.08-.76,2.84-.33,5.71-.43,8.57-.02,.7,.2,1.4,.44,2.09,.2,.56,.36,1.16,.38,1.75,.03,.62,.59,.93,.66,1.55,.05,.47,.51,.9,.8,1.33,.36,.53,.69,1.1,1.11,1.57,.38,.43,.84,.83,1.34,1.1,1.07,.58,2.12,1.2,3.38,1.41,.93,.16,1.85,.21,2.79,.2,2-.02,3.68-.83,5.33-1.92,.99-.65,1.38-1.71,2.17-2.47,.22-1.1,1.14-1.97,1.01-3.29,.31,0,.62,.02,.93,0,1.09-.07,2.17-.19,3.26-.23,1.08-.04,2.16,0,3.24,0,.5,0,1.02-.09,1.46,.52-.08,.41-.15,1.01-.33,1.58-.28,.88-.44,1.8-.88,2.64-.42,.79-.92,1.55-1.17,2.39-.19,.68-.87,.97-1,1.63-.96,.96-1.59,2.23-2.87,2.87-1.12,1.25-2.66,1.83-4.12,2.51-1.08,.51-2.26,.73-3.42,1.03-.88,.23-1.75,.08-2.61,.31-.86,.23-1.82,.17-2.72,.09-.86-.09-1.75-.1-2.58-.42-.07-.03-.15-.04-.22-.04-.82,.06-1.56-.26-2.33-.44-1.37-.32-2.6-.93-3.79-1.59-1.31-.72-2.51-1.66-3.54-2.77-1.22-1.32-2.29-2.71-3.02-4.39-.5-1.15-1.13-2.25-1.48-3.47-.18-.62-.41-1.21-.43-1.87,0-.33-.15-.65-.23-.98-.08-.33-.19-.65-.23-.98-.04-.36,.06-.73-.02-1.08-.48-2.16-.13-4.34-.21-6.5-.02-.44,.18-.89,.22-1.34,.04-.44-.17-1.02,.05-1.29,.33-.41,.15-.88,.38-1.3,.24-.45,.07-1.11,.29-1.67,.65-1.69,1.19-3.42,2.13-5,.47-.79,.96-1.57,1.57-2.21,1.06-1.11,2.07-2.28,3.34-3.18,.8-.56,1.61-1.09,2.5-1.51,.6-.28,1.19-.6,1.81-.83,.32-.12,.69-.08,1.03-.11Z"/><path class="cls-11" d="M94.8,150.72c.67-.88,1.17-1.86,1.73-2.81,.98-1.64,1.99-3.25,2.96-4.89,.64-1.09,1.23-2.21,1.87-3.3,.72-1.22,1.47-2.43,2.2-3.65,.8-1.34,1.59-2.7,2.39-4.05h8.5v30.87h-8.13v-18.18l-.08-.2-.16,.2c-.72,1.35-1.57,2.63-2.34,3.96-.58,.99-1.14,2.01-1.74,2.99-.79,1.31-1.59,2.63-2.32,3.96-.95,1.73-2.06,3.37-2.96,5.12-.37,.73-.84,1.41-1.3,2.17h-8.69l-.29-.29v-30.61h8.12v18.7l.08,.2,.16-.2Z"/><path class="cls-11" d="M182.36,162.94h-8.12v-18.55c-1.22,1.86-2.15,3.72-3.28,5.46-.7,1.09-1.28,2.27-1.97,3.38-.96,1.56-1.76,3.21-2.8,4.72-.36,.52-.55,1.13-.92,1.66-.64,.91-1.15,1.92-1.71,2.88-.07,.13-.12,.27-.18,.44h-9v-30.9h8.1v19.16c.5-.78,.89-1.31,1.2-1.88,.95-1.78,2.1-3.45,3.08-5.21,.87-1.56,1.81-3.08,2.7-4.63,1.11-1.95,2.3-3.85,3.45-5.77,.32-.54,.62-1.1,.95-1.67h8.51v30.92Z"/><path class="cls-9" d="M149.04,132.48c-.79,1.23-1.57,2.47-2.38,3.69-1.84,2.8-3.69,5.59-5.55,8.38-.4,.6-.81,1.19-1.24,1.77-.31,.42-.52,.85-.44,1.34,3.51,4.99,6.81,10.07,10.2,15.15-1.07,.22-6.21,.27-10.1,.13-1.15-1.84-2.01-3.82-3.19-5.64-.7-1.08-1.21-2.29-1.81-3.46-1.82,3.03-3.62,6.03-5.45,9.09h-9.8c-.01-.69,.49-1.15,.83-1.56,1.3-1.59,2.29-3.39,3.48-5.05,1.61-2.27,3.09-4.63,4.63-6.95,.35-.54,.71-1.07,1.08-1.6,.24-.48-.01-.92-.24-1.28-1.3-1.99-2.65-3.94-3.97-5.92-1.46-2.19-2.91-4.39-4.36-6.59-.27-.41-.56-.81-.8-1.23-.11-.18-.13-.42-.22-.69h9.76c.55,.92,1.15,1.85,1.69,2.83,.52,.95,1.02,1.9,1.56,2.83,.6,1.02,1.15,2.09,1.78,3.26,.66-1.04,1.18-2.04,1.75-3.01,.57-.96,1.13-1.93,1.69-2.9,.58-1,1.15-2.01,1.76-3.06h9.35v.48Z"/><path class="cls-12" d="M81.58,132.04v6.64h-9.17c-.07,.07-.11,.09-.13,.12-.02,.03-.04,.07-.04,.1,0,7.99,0,15.98,0,24.01h-8.08s-.02,0-.04-.04c-.02-.03-.04-.07-.04-.1,0-7.99,0-15.98,0-24.01h-9.18c-.08-.07-.11-.09-.14-.12-.02-.03-.04-.07-.04-.1,0-2.15,0-4.31,0-6.5h26.86Z"/><path class="cls-10" d="M149.04,132.48v-.48l.24,.3-.24,.18Z"/><path class="cls-3" d="M106.08,144.72l.16-.2,.08,.2h-.24Z"/><path class="cls-7" d="M94.8,150.72l-.16,.2-.08-.2h.24Z"/><path class="cls-12" d="M222.48,159.6v15.24s-.05,.06-.08,.08c-.03,.02-.07,.04-.1,.04-2.55,0-5.11,0-7.67,0-.11-.19-.25-.35-.29-.52-.05-.23-.01-.48-.01-.72v-41.67h7.92v4.33c.66-.9,1.13-1.81,1.85-2.45,1.23-1.1,2.55-2.07,4.26-2.44,1.78-.38,3.56-.3,5.3-.15,1.68,.14,3.33,.83,4.74,1.83,2.01,1.42,3.69,3.16,4.57,5.52,.48,1.29,.92,2.59,1.17,3.97,.15,.82,.02,1.65,.23,2.42,.24,.86,.2,1.7,.19,2.55,0,.57-.18,1.13-.22,1.7-.04,.6,.11,1.23-.03,1.79-.45,1.84-.77,3.7-1.59,5.46-1.1,2.34-1.99,3.53-3.81,5.02-1.21,.98-2.59,1.48-3.98,1.99-.52,.19-1.1,.3-1.66,.32-1.24,.05-2.48,.08-3.72,0-.74-.05-1.49-.24-2.17-.53-1.1-.47-2.18-1.04-3.06-1.86-.6-.56-1.06-1.27-1.58-1.91l-.08-.2-.16,.2Zm-.27-12.26c.13,.69-.11,1.35,.19,2.01,.26,.59,.1,1.26,.28,1.92,.43,1.61,1.06,3.04,2.27,4.23,.92,.9,1.96,1.4,3.23,1.48,.21,.01,.42,.17,.63,.2,.18,.03,.38,0,.56-.04,.22-.04,.43-.15,.65-.17,1.34-.08,2.45-.67,3.45-1.52,1.05-.9,1.5-2.15,1.96-3.39,.52-1.41,.54-2.91,.69-4.38,.09-.91-.13-1.85-.21-2.78,0-.04-.02-.07-.04-.1-.38-.76-.52-1.61-.88-2.4-.66-1.45-1.67-2.51-2.81-3.25-1.44-.94-2.99-.6-4.52-.68-.77,.36-1.61,.63-2.29,1.1-.72,.5-1.27,1.24-1.7,2.03-.98,1.8-1.41,3.73-1.46,5.72Z"/><path class="cls-4" d="M269.31,132.07c.1-.03,.17-.06,.24-.06,2.76,0,5.51,0,8.38,0-.09,.47-.08,.95-.28,1.32-.77,1.46-1.02,3.1-1.68,4.59-.82,1.87-1.25,3.87-2.09,5.74-.51,1.13-.78,2.39-1.21,3.57-.33,.9-.68,1.8-.99,2.71-.29,.88-.63,1.74-.93,2.61-.44,1.26-.78,2.56-1.27,3.8-.74,1.9-1.26,3.87-2.06,5.75-.5,1.18-.85,2.45-1.25,3.68-.34,1.03-.81,1.99-1.16,3-.35,1.03-.86,1.96-1.42,2.89-.84,1.4-1.57,2.13-3.11,2.85-.9,.42-1.83,.69-2.83,.71-.49,.01-.97,.18-1.46,.22-.48,.04-1.01,.14-1.43-.02-.97-.36-1.94-.12-2.96-.24v-6.45c.87,0,1.74-.03,2.61,0,1.84,.07,3.54-1.54,4.05-3.31,.18-.63-.05-1.25-.25-1.81-.94-2.54-1.76-5.11-2.67-7.66-.65-1.81-1.17-3.67-1.9-5.45-.85-2.06-1.41-4.21-2.25-6.27-.51-1.27-.84-2.61-1.34-3.88-.85-2.13-1.37-4.38-2.3-6.49-.23-.53-.52-1.13-.29-1.81h8.75c.2,.65,.43,1.36,.63,2.07,.38,1.32,.75,2.65,1.13,3.97,.14,.5,.34,.98,.47,1.48,.39,1.52,.83,3.02,1.26,4.53,.31,1.09,.64,2.2,1.03,3.29,.34,.94,.56,1.93,.84,2.89,.43,1.5,.86,3,1.33,4.62,.45-1.7,.98-3.27,1.35-4.9,.2-.86,.48-1.71,.74-2.57,.3-1.03,.62-2.07,.9-3.11,.34-1.26,.57-2.56,1-3.79,.24-.7,.49-1.42,.64-2.12,.15-.7,.4-1.38,.57-2.06,.32-1.25,.57-2.54,1.12-3.73,.08-.16,.05-.37,.06-.55Z"/><path class="cls-6" d="M222.48,159.6l.16-.2,.08,.2h-.24Z"/><path class="cls-5" d="M222.21,147.34c.05-1.99,.48-3.92,1.46-5.72,.43-.8,.98-1.53,1.7-2.03,.69-.48,1.52-.74,2.29-1.1,1.53,.08,3.08-.26,4.52,.68,1.13,.74,2.14,1.8,2.81,3.25,.36,.79,.5,1.63,.88,2.4,.02,.03,.04,.07,.04,.1,.08,.93,.3,1.87,.21,2.78-.15,1.47-.18,2.97-.69,4.38-.45,1.24-.91,2.49-1.96,3.39-1,.85-2.11,1.44-3.45,1.52-.22,.01-.43,.13-.65,.17-.18,.03-.38,.06-.56,.04-.22-.04-.42-.19-.63-.2-1.27-.07-2.32-.58-3.23-1.48-1.21-1.18-1.84-2.62-2.27-4.23-.18-.65-.02-1.33-.28-1.92-.29-.66-.06-1.32-.19-2.01Z"/></g></g></svg>