<?xml version="1.0" encoding="utf-8"?>
<!-- Generator: Adobe Illustrator 16.0.3, SVG Export Plug-In . SVG Version: 6.00 Build 0)  -->
<!DOCTYPE svg PUBLIC "-//W3C//DTD SVG 1.1//EN" "http://www.w3.org/Graphics/SVG/1.1/DTD/svg11.dtd">
<svg version="1.1" id="Layer_1" xmlns="http://www.w3.org/2000/svg" xmlns:xlink="http://www.w3.org/1999/xlink" x="0px" y="0px"
	 width="250px" height="60px" viewBox="0 0 250 60" enable-background="new 0 0 250 60" xml:space="preserve">
<g>
	<path fill="#FFFFFF" d="M52.013,22.19l-3.08,3.08l3.095-3.093C52.024,22.179,52.021,22.182,52.013,22.19z"/>
</g>
<g>
	<polygon fill="#FFFFFF" points="46.823,27.38 46.823,27.38 48.933,25.271 	"/>
</g>
<g>
	<path fill="#093071" d="M68.583,14.072v26.975c0,0.253,0.197,0.469,0.447,0.489c1.422,0.119,3,0.119,4.659,0
		c1.354-0.103,3.007-0.297,5.046-0.591c-0.074,0.41-0.111,0.855-0.111,1.336c0,0.41,0.042,0.907,0.122,1.446H62.691V14.079
		c0.307,0.027,0.701,0.075,1.189,0.142c0.712,0.122,1.443,0.125,1.879,0.009l1.444-0.006C67.753,14.148,68.208,14.096,68.583,14.072
		z M87.827,15.549c-0.856,0.119-1.427,0.122-1.839,0.006h-1.444c-0.509-0.07-0.898-0.114-1.193-0.142v28.315h5.59V15.407
		C88.619,15.431,88.253,15.477,87.827,15.549z M93.363,15.386c0.054,0.401,0.081,0.802,0.081,1.196c0,0.516-0.025,0.973-0.073,1.362
		h0.933c2.645-0.335,4.865-0.505,6.569-0.505c0.271,0,0.491,0.219,0.491,0.489v25.799h5.422V17.929c0-0.27,0.22-0.489,0.491-0.489
		c1.238,0,3.011,0.113,5.273,0.337c0.571,0.083,1.179,0.135,1.812,0.158c-0.064-0.39-0.064-0.839,0.003-1.34
		c-0.071-0.401-0.067-0.807,0.012-1.208H93.363z M118.825,15.386v28.341h15.313c-0.076-0.512-0.115-0.978-0.115-1.361
		c0-0.441,0.033-0.854,0.098-1.235c-1.045,0.159-2.206,0.287-3.45,0.373c-1.448,0.113-3.445,0.172-5.934,0.172
		c-0.271,0-0.489-0.22-0.489-0.492V30.229c0-0.269,0.218-0.49,0.489-0.49h4.098c1.365,0.081,2.464,0.16,3.56,0.24l0.814,0.057
		c-0.023-0.108-0.051-0.23-0.082-0.361l-0.015-1.97c0-0.057,0.008-0.11,0.026-0.158c0.013-0.039,0.024-0.077,0.036-0.113
		c-1.443,0.178-2.763,0.254-4.34,0.254h-4.098c-0.271,0-0.489-0.22-0.489-0.49v-9.269c0-0.27,0.218-0.489,0.489-0.489
		c3.023,0,6.195,0.196,9.44,0.586c-0.104-0.448-0.154-0.876-0.154-1.275c0-0.477,0.05-0.935,0.155-1.364H118.825z M157.188,35.018
		c-0.116-3.499-2.809-6.608-8.015-9.212c-3.857-1.988-5.73-3.919-5.73-5.899c0-3.192,1.869-4.944,5.408-5.072
		c2.406,0,4.259,1.29,5.514,3.838c0.133-0.447,0.315-1.021,0.554-1.742c0.289-0.765,0.534-1.405,0.739-1.936
		c-1.85-1.102-4.079-1.716-6.633-1.823c-6.422,0.34-9.662,3.298-9.886,9.042c0,3.871,2.452,6.979,7.293,9.228
		c4.045,1.839,6.095,3.944,6.095,6.257c-0.258,3.247-2.194,4.945-5.757,5.073c-3.526-0.123-5.731-1.78-6.569-4.936h-0.063
		c-0.227,1.715-0.584,3.406-1.066,5.033c2.146,0.811,4.371,1.277,6.624,1.389C152.808,44.258,156.733,40.886,157.188,35.018z
		 M166.553,30.939c-0.085,0.007-0.21,0.028-0.311,0.131c-0.092,0.088-0.144,0.211-0.144,0.336v12.321h-5.627V15.381h10.136
		c5.805,0,8.681,2.217,8.787,6.776c0.043,2.481-0.639,4.455-2.024,5.865c-1.907,1.943-5.244,2.927-9.919,2.927
		C167.164,30.949,166.875,30.945,166.553,30.939z M166.502,29.512c0.217,0.033,0.45,0.048,0.687,0.048
		c0.691,0,1.488-0.134,2.368-0.397c2.553-0.73,3.971-2.806,4.21-6.202c-0.239-3.829-1.746-5.958-4.507-6.33h-2.69
		c-0.259,0-0.471,0.212-0.471,0.47V29.05C166.099,29.281,166.271,29.48,166.502,29.512z M201.903,15.381v28.346h15.338
		c-0.075-0.516-0.115-0.99-0.115-1.383c0-0.45,0.032-0.872,0.103-1.258c-1.058,0.163-2.226,0.292-3.474,0.379
		c-1.46,0.113-3.396,0.17-5.921,0.17c-0.26,0-0.47-0.211-0.47-0.469v-10.94c0-0.257,0.21-0.469,0.47-0.469h4.542
		c1.705,0.103,3.26,0.201,4.683,0.299c-0.025-0.117-0.052-0.247-0.088-0.39l-0.015-1.962c0-0.053,0.007-0.105,0.025-0.15
		c0.016-0.051,0.032-0.099,0.047-0.145c-1.419,0.169-2.982,0.257-4.652,0.257h-4.542c-0.26,0-0.47-0.212-0.47-0.468v-9.257
		c0-0.258,0.21-0.469,0.47-0.469c3.028,0,6.205,0.2,9.452,0.59c-0.108-0.457-0.16-0.893-0.16-1.298c0-0.487,0.052-0.949,0.164-1.384
		H201.903z M230.518,43.728h-9.339V15.381l12.013-0.002c8.1,0.55,12.251,4.913,12.691,13.306
		C245.339,38.122,240.169,43.182,230.518,43.728z M239.582,28.712c0-7.792-3.498-11.745-10.396-11.745h-2.081
		c-0.257,0-0.468,0.212-0.468,0.47v24.236c0,0.257,0.211,0.469,0.468,0.469h1.84c3.524,0,6.215-1.15,7.995-3.419
		C238.69,36.489,239.582,33.119,239.582,28.712z M182.536,15.381v28.346h15.335c-0.074-0.516-0.115-0.99-0.115-1.383
		c0-0.45,0.033-0.872,0.101-1.258c-1.06,0.163-2.226,0.292-3.471,0.379c-1.46,0.113-3.398,0.17-5.924,0.17
		c-0.257,0-0.469-0.211-0.469-0.469v-10.94c0-0.257,0.212-0.469,0.469-0.469h4.544c1.708,0.103,3.26,0.201,4.683,0.299
		c-0.024-0.117-0.053-0.247-0.087-0.39l-0.016-1.962c0-0.053,0.01-0.105,0.025-0.15c0.017-0.051,0.031-0.099,0.043-0.145
		c-1.414,0.169-2.977,0.257-4.648,0.257h-4.544c-0.257,0-0.469-0.212-0.469-0.468v-9.257c0-0.258,0.212-0.469,0.469-0.469
		c3.028,0,6.206,0.2,9.453,0.59c-0.106-0.457-0.159-0.893-0.159-1.298c0-0.487,0.056-0.949,0.161-1.384H182.536z"/>
	<g>
		<g>
			<path fill="#5E8CDA" d="M48.215,29.117L34.938,15.841l-5.656,7.178l6.099,6.098c0.562,0.563,0.562,1.483,0,2.045l-1.765,1.765
				c0,0,1.189,1.779,1.244,1.888c0.274,0.55,0.34,1.841-0.438,2.432L20.552,47.893c-0.003,3.572-0.007,10.92-0.002,10.923
				c0.003,0.001,27.665-27.653,27.665-27.653C48.778,30.599,48.778,29.681,48.215,29.117z"/>
			<path fill="#093071" d="M17.375,30.789c-0.562-0.562-0.562-1.479,0-2.043l1.766-1.766l-1.207-1.735
				c-0.576-0.816-0.396-1.975,0.399-2.582l13.871-10.648L32.214,1.1l-0.009-0.006l-0.007-0.01L4.539,28.746
				c-0.563,0.564-0.563,1.481,0.001,2.045l13.276,13.276l5.657-7.181L17.375,30.789z"/>
		</g>
		<g>
			<polygon fill="#FFFFFF" points="26.611,39.554 26.611,39.554 20.192,45.973 			"/>
		</g>
		<g>
			<g>
				<g>
					<path fill="#5E8CDA" d="M39.195,7.751c0.185,0,0.371,0.117,0.453,0.282c0.146,0.302-0.046,0.585-0.239,0.828L27.254,24.289
						c-0.175,0.224-0.188,0.655-0.028,0.888c0,0,6.561,9.514,6.787,9.84c0.249,0.359,0.266,1.422-0.305,1.854L14.166,51.873
						c-0.278,0.214-0.436,0.283-0.629,0.285c-0.175-0.012-0.356-0.131-0.431-0.281c-0.146-0.298,0.047-0.587,0.238-0.833
						l12.153-15.425c0.176-0.232,0.191-0.646,0.029-0.888l-6.783-9.757c-0.431-0.612-0.297-1.481,0.299-1.937L38.589,8.033
						C38.906,7.786,39.067,7.751,39.195,7.751 M39.195,7.501c-0.235,0-0.455,0.096-0.76,0.334L18.891,22.839
						c-0.702,0.537-0.859,1.558-0.352,2.279l6.782,9.755c0.1,0.149,0.088,0.447-0.023,0.594L13.147,50.89
						c-0.16,0.206-0.493,0.635-0.266,1.098c0.114,0.23,0.376,0.402,0.639,0.42c0.306-0.002,0.523-0.125,0.798-0.336L33.86,37.068
						c0.676-0.512,0.678-1.732,0.358-2.194c-0.226-0.326-6.786-9.84-6.786-9.84c-0.1-0.144-0.09-0.453,0.019-0.591L39.605,9.016
						c0.16-0.202,0.494-0.624,0.268-1.092C39.748,7.671,39.477,7.501,39.195,7.501L39.195,7.501z"/>
				</g>
			</g>
			<g>
				<path fill="#F5CD21" d="M33.517,35.054c0.158,0.239,0.299,1.14-0.096,1.44L13.875,51.496c-0.164,0.128-0.27,0.188-0.316,0.185
					c-0.067,0.004-0.019-0.115,0.161-0.346l12.149-15.419c0.307-0.396,0.327-1.048,0.045-1.455l-6.781-9.759
					C19.133,24.702,33.359,34.814,33.517,35.054z"/>
			</g>
			<g>
				<path fill="#FDDD75" d="M33.517,35.054l-6.679-9.607c-0.283-0.408-0.26-1.061,0.044-1.449l12.15-15.425
					c0.181-0.23,0.228-0.346,0.163-0.346c-0.049,0-0.156,0.057-0.317,0.185L19.332,23.415c-0.393,0.301-0.484,0.883-0.199,1.288
					L33.517,35.054z"/>
			</g>
		</g>
	</g>
</g>
</svg>

