<?xml version="1.0" encoding="UTF-8" standalone="no"?>
<!-- Uploaded to: SVG Repo, www.svgrepo.com, Generator: SVG Repo Mixer Tools -->

<svg
   fill="#000000"
   height="342.90466"
   width="310.73828"
   version="1.1"
   id="Capa_1"
   viewBox="0 0 185.11572 204.27816"
   xml:space="preserve"
   sodipodi:docname="collaboration.svg"
   inkscape:version="1.4.2 (f4327f4, 2025-05-13)"
   inkscape:export-filename="collaboration.png"
   inkscape:export-xdpi="96"
   inkscape:export-ydpi="96"
   xmlns:inkscape="http://www.inkscape.org/namespaces/inkscape"
   xmlns:sodipodi="http://sodipodi.sourceforge.net/DTD/sodipodi-0.dtd"
   xmlns="http://www.w3.org/2000/svg"
   xmlns:svg="http://www.w3.org/2000/svg"><defs
   id="defs1"><inkscape:path-effect
     effect="offset"
     id="path-effect1"
     is_visible="true"
     lpeversion="1.3"
     linejoin_type="miter"
     unit="mm"
     offset="0"
     miter_limit="4"
     attempt_force_join="false"
     update_on_knot_move="true" /></defs><sodipodi:namedview
   id="namedview1"
   pagecolor="#ffffff"
   bordercolor="#000000"
   borderopacity="0.25"
   inkscape:showpageshadow="2"
   inkscape:pageopacity="0.0"
   inkscape:pagecheckerboard="0"
   inkscape:deskcolor="#d1d1d1"
   showgrid="true"
   inkscape:zoom="0.70710678"
   inkscape:cx="565.68543"
   inkscape:cy="400.92955"
   inkscape:window-width="2558"
   inkscape:window-height="2113"
   inkscape:window-x="0"
   inkscape:window-y="0"
   inkscape:window-maximized="0"
   inkscape:current-layer="g1"><inkscape:grid
     id="grid2"
     units="px"
     originx="219.77125"
     originy="-196.60833"
     spacingx="0.59572875"
     spacingy="0.59572875"
     empcolor="#0099e5"
     empopacity="0.30196078"
     color="#0099e5"
     opacity="0.14901961"
     empspacing="5"
     enabled="true"
     visible="true" /></sodipodi:namedview>
<g
   id="g1"
   transform="translate(219.77101,-196.60832)"
   inkscape:label="logo"
   style="fill:#000000;fill-opacity:1;stroke:#1e1e1e;stroke-width:2.97864;stroke-dasharray:none;stroke-opacity:1">
	
<g
   id="g2"
   inkscape:label="cup"
   transform="translate(-11.914575,-2.9786436)"
   style="fill:#000000;fill-opacity:1;stroke:#1e1e1e;stroke-width:2.97864;stroke-dasharray:none;stroke-opacity:1"><path
     d="m -206.36711,203.16677 c 0,38.81673 13.93538,126.33324 19.41354,184.73409 -0.33579,6.6565 3.82488,13.83465 11.04076,14.26608 38.82134,0.1246 77.648515,0.0179 116.471953,0.0535 6.583363,0.93866 14.139729,-2.45482 15.293474,-9.58984 5.766449,-59.96279 19.917353,-150.66512 19.917353,-189.46385 0,-2.95105 -42.973917,-2.52981 -42.973917,0 0,20.38784 -9.584601,92.32967 -14.715198,133.534 -1.962141,9.94326 -1.215625,21.33693 -7.774726,29.66077 -10.992049,11.5084 -30.036589,12.38801 -43.731379,5.46279 -8.49964,-3.94148 -12.00855,-13.26304 -12.74883,-22.03382 -6.64215,-45.45656 -16.62338,-116.62358 -16.62338,-146.62374 0,-2.51777 -43.56965,-3.0443 -43.56965,2e-5 z"
     style="clip-rule:evenodd;fill:#6b3fa3;fill-opacity:1;fill-rule:evenodd;stroke:#1e1e1e;stroke-width:2.97864;stroke-dasharray:none;stroke-opacity:1"
     id="path4"
     inkscape:label="cup"
     sodipodi:nodetypes="sccccssccccss" /><path
     id="path2-2"
     style="clip-rule:evenodd;fill:#6b3e26;fill-opacity:1;fill-rule:evenodd;stroke:#1e1e1e;stroke-width:1.78719;stroke-linejoin:round;stroke-miterlimit:2;stroke-dasharray:none;stroke-opacity:1"
     d="m -120.88778,312.016 c -0.57085,-0.18266 -0.95971,-0.71155 -0.96183,-1.31125 -0.0115,-0.23281 -0.0131,-0.41773 -0.0131,-0.41773 0,0 0.009,-6.99307 8.28942,-13.43022 3.33807,-2.59527 6.23709,-6.79946 7.03152,-10.74782 0.11039,-0.5499 0.53739,-0.98289 1.09256,-1.0881 0.55163,-0.10775 1.11332,0.12683 1.42267,0.59523 2.34228,3.5231 4.915051,10.00171 0.49983,17.65862 -4.01447,6.96014 -11.4169,10.52809 -17.36047,8.74129 z m 11.66276,-30.80116 c 0.54658,0.17666 0.91691,0.68432 0.91957,1.25852 0.0109,0.25203 0.0116,0.45753 0.0116,0.45753 0,0 -0.009,6.99306 -8.28944,13.43025 -3.36827,2.61875 -6.28969,6.87565 -7.05266,10.85567 -0.10073,0.5323 -0.51377,0.95068 -1.04308,1.06059 -0.53052,0.10941 -1.07448,-0.11333 -1.37711,-0.5634 -2.35977,-3.4968 -5.03583,-10.03189 -0.57341,-17.77066 4.02384,-6.97764 11.45313,-10.54577 17.40356,-8.72819 z"
     inkscape:label="bean"
     sodipodi:nodetypes="cccccccccccccccccccc" /></g></g>
</svg>
