<?xml version="1.0" encoding="UTF-8" standalone="no"?>
<!-- Uploaded to: SVG Repo, www.svgrepo.com, Generator: SVG Repo Mixer Tools -->

<svg
   fill="#000000"
   height="339"
   width="333.29199"
   version="1.1"
   id="Capa_1"
   viewBox="0 0 198.55161 201.95204"
   xml:space="preserve"
   sodipodi:docname="sustainability.svg"
   inkscape:version="1.4.2 (f4327f4, 2025-05-13)"
   inkscape:export-filename="sustainability.png"
   inkscape:export-xdpi="96"
   inkscape:export-ydpi="96"
   xmlns:inkscape="http://www.inkscape.org/namespaces/inkscape"
   xmlns:sodipodi="http://sodipodi.sourceforge.net/DTD/sodipodi-0.dtd"
   xmlns="http://www.w3.org/2000/svg"
   xmlns:svg="http://www.w3.org/2000/svg"><defs
   id="defs1"><inkscape:path-effect
     effect="offset"
     id="path-effect1"
     is_visible="true"
     lpeversion="1.3"
     linejoin_type="miter"
     unit="mm"
     offset="0"
     miter_limit="4"
     attempt_force_join="false"
     update_on_knot_move="true" /></defs><sodipodi:namedview
   id="namedview1"
   pagecolor="#ffffff"
   bordercolor="#000000"
   borderopacity="0.25"
   inkscape:showpageshadow="2"
   inkscape:pageopacity="0.0"
   inkscape:pagecheckerboard="0"
   inkscape:deskcolor="#d1d1d1"
   showgrid="true"
   inkscape:zoom="0.70710678"
   inkscape:cx="-715.59206"
   inkscape:cy="392.44426"
   inkscape:window-width="2558"
   inkscape:window-height="2113"
   inkscape:window-x="0"
   inkscape:window-y="0"
   inkscape:window-maximized="0"
   inkscape:current-layer="g1"><inkscape:grid
     id="grid2"
     units="px"
     originx="-543.64972"
     originy="-201.65419"
     spacingx="0.59572875"
     spacingy="0.59572875"
     empcolor="#0099e5"
     empopacity="0.30196078"
     color="#0099e5"
     opacity="0.14901961"
     empspacing="5"
     enabled="true"
     visible="true" /></sodipodi:namedview>
<g
   id="g1"
   transform="translate(-543.64999,-201.65418)"
   inkscape:label="logo"
   style="fill:#000000;fill-opacity:1;stroke:#1e1e1e;stroke-width:2.97864;stroke-dasharray:none;stroke-opacity:1">
	
<path
   d="M 702.51976,231.35681 H 583.32939 c -5.73494,0 -10.40104,4.66293 -10.40104,10.39734 v 121.7599 c 0,5.72966 4.66294,10.39576 10.40104,10.39576 h 119.1909 c 5.73337,0 10.39947,-4.66294 10.39947,-10.39576 v -121.7599 c -0.003,-5.73441 -4.66663,-10.39734 -10.4,-10.39734 z m -51.79106,33.67855 h -22.93407 v -7.31593 h -22.30641 v 12.09822 l 36.40728,19.70043 c 5.8888,3.18443 8.8332,7.4653 8.8332,12.84202 v 12.44139 c 0,4.49127 -2.28831,8.39579 -6.85425,11.71713 -4.57307,3.32135 -9.82652,4.98083 -15.76807,4.98083 h -22.61816 c -5.99429,0 -11.23589,-1.64705 -15.72835,-4.95534 -4.4972,-3.29644 -6.73811,-7.19268 -6.73811,-11.68751 v -7.37462 h 22.77168 v 7.31595 h 22.38999 V 302.17994 L 592.00195,283.0621 c -5.98836,-3.18503 -8.98314,-7.50621 -8.98314,-12.95762 v -12.44016 c 0,-4.45455 2.2575,-8.34307 6.779,-11.66382 4.51912,-3.32073 9.77258,-4.9814 15.76093,-4.9814 h 22.54527 c 5.94155,0 11.19501,1.67015 15.76807,5.01223 4.56654,3.34089 6.85426,7.23889 6.85426,11.69165 v 7.31298 h 0.002 z M 722.02363,203.1435 H 563.82501 c -10.31825,0 -18.68572,8.36777 -18.6857,18.68707 l 2.2e-4,161.59916 c 10e-6,10.32089 8.36775,18.68718 18.686,18.68717 l 158.20126,-1.1e-4 c 10.31826,-10e-6 18.6855,-8.36617 18.6855,-18.68706 V 221.83057 c -0.001,-10.3193 -8.36777,-18.68707 -18.68866,-18.68707 z m -1.738,160.36422 c 0,9.79306 -7.96911,17.76533 -17.76534,17.76533 h -119.1909 c -9.79516,0 -17.76745,-7.96963 -17.76745,-17.76533 V 241.75415 c 0,-9.79147 7.96965,-17.76375 17.76745,-17.76375 h 119.1909 c 9.79306,0 17.76534,7.96964 17.76534,17.76375 z"
   id="path1-5"
   inkscape:label="button"
   style="fill:#5ca875;fill-opacity:1;stroke:#1e1e1e;stroke-width:2.97864;stroke-dasharray:none;stroke-opacity:1"
   sodipodi:nodetypes="ssssssscsccccccsscsscsccccccsscsscscccssssssscssssssssss" /></g>
</svg>
