<?xml version="1.0" encoding="UTF-8" standalone="yes"?>
<svg version="1.2" viewBox="0 0 400 400" xml:space="preserve" baseProfile="tiny-ps" xmlns="http://www.w3.org/2000/svg">
  <title>bimi-svg-tiny-12-ps</title>
  <g id="Layer_2_1_">
    <g id="Layer_1-2">
      <path class="st0" d="M196.8,1.4c29.3-0.2,54.7,9.7,77.4,27.5c16.3,12.6,26.3,29.3,31.7,48.7c4,13.9,7.2,28.1,9.6,42.4&#xD;&#xA;&#x9;&#x9;&#x9;c1.7,10.5,2.2,21.2,1.5,31.9c-1.1,15.4-5.1,30.5-9.6,45.4c-2.7,9-3.7,18.4-5.1,27.8c-1.1,7.3-1.8,14.7-2.2,22&#xD;&#xA;&#x9;&#x9;&#x9;c-0.1,3.4,0.4,6.8,1.4,10.1c1.4,5,0.6,10.4-2.3,14.7c-13,20.8-26.1,41.5-39,62.3c-8.2,13.3-16.2,26.6-24.2,40.1&#xD;&#xA;&#x9;&#x9;&#x9;c-1.6,2.8-2.3,6.1-3.9,9c-4.1,7.4-10.6,11.6-18.7,13.5c-9.3,2.2-18.7,2.7-27.7-0.5c-10.5-3.7-16.8-11.6-21.5-21.8&#xD;&#xA;&#x9;&#x9;&#x9;c-5.5-12.3-11.9-24.1-19.2-35.5c-8.2-12.5-17.7-24.2-26.8-36.1c-5.9-7.6-11.6-15.5-18.4-22.3c-5-5.1-6.6-10.4-5.6-16.9&#xD;&#xA;&#x9;&#x9;&#x9;c0.6-4.2,1.6-8.4,2.9-12.4c2.4-7.1,0.9-14-0.5-20.7c-3.3-16.1-7.5-32-10.7-48.1c-1.5-8-1.7-16.4-2.3-24.6&#xD;&#xA;&#x9;&#x9;&#x9;c-0.5-6.4-1.1-13-0.7-19.4c1-13.9,0.3-27.9,4.4-41.5c5.6-18.9,13.3-36.8,25.4-52.7C129.2,22.7,149.9,8.1,177,3.6&#xD;&#xA;&#x9;&#x9;&#x9;C183.5,2.5,190.2,2.1,196.8,1.4z M285.6,251.3l-0.7-0.1c-1.4,4.2-2.7,8.4-4.1,12.6c-0.2,0.6-1.1,1.1-1.6,1.6&#xD;&#xA;&#x9;&#x9;&#x9;c-0.5-0.6-1.2-1.1-1.4-1.8c-0.9-3.1-1.6-6.3-2.3-9.5c-1.2,8.2-2.6,16.1-5.9,23.4l-1.4-0.1v-16.6l-1.1-0.1&#xD;&#xA;&#x9;&#x9;&#x9;c-0.2,0.7-0.5,1.5-0.6,2.2c-1.5,7.8-2.9,15.6-4.4,23.3c-0.2,0.9-1.1,1.6-1.6,2.4c-0.6-0.8-1-1.7-1.2-2.6c-0.6-6.1-1-12.3-1.5-18.4&#xD;&#xA;&#x9;&#x9;&#x9;c-2.1,11-1.7,22.2-4.3,33H252l-2.8-23.2c-2.5,10.2-1.9,20.8-4.9,30.8l-1.3-0.1l-2.8-22.6h-0.3l-3.4,26.3l-1.7-0.1&#xD;&#xA;&#x9;&#x9;&#x9;c-0.6-12.2-1.3-24.5-1.9-36.9c-0.3,0.5-0.6,0.6-0.6,0.9c-1.3,11.1-2.5,22.2-3.9,33.2c-0.3,1.3-0.8,2.6-1.4,3.9l-1.1-0.4l-2.7-32.8&#xD;&#xA;&#x9;&#x9;&#x9;c-0.7,5.3-1,10.5-1.4,15.8c-0.7,8-1.5,16.1-2.4,24.1c-0.1,0.8-1.2,1.5-2.3,2.9c-1.3-14.5-2.4-27.8-3.6-41.2h-0.6l-4.6,42.7h-1.8&#xD;&#xA;&#x9;&#x9;&#x9;c-1.2-8.3-2.5-16.7-3.7-25c-1.1,5.2-2,10.5-2.6,15.8c-0.2,1.1-1.1,2.1-1.6,3.1c-0.6-1-1-2.2-1.3-3.3c-0.8-10.4-1.6-20.7-2.3-31.1&#xD;&#xA;&#x9;&#x9;&#x9;c-0.5,0.3-0.8,0.8-0.8,1.3c-0.5,10.4-1,20.9-1.6,31.3c-0.2,1-0.7,1.9-1.2,2.7c-0.6-0.8-1.5-1.5-1.6-2.4c-0.9-5-1.5-10-2.3-15&#xD;&#xA;&#x9;&#x9;&#x9;c-1-6.4-2.2-12.8-3.3-19.3h-1v35.7l-1.6,0.3c-2.7-9.2-5.5-18.5-8.3-28c-0.7,7.7-1.4,15.1-2.1,22.5h-1.4l-5.8-23.3l-0.7,0.1&#xD;&#xA;&#x9;&#x9;&#x9;c-0.5,6.5-0.9,13-1.4,19.6l-1.7,0.1c-2-9.5-3.9-19.1-5.9-28.7l-0.8-0.1l-2.2,23.5l-1.2,0.2c-3.6-7.9-3.4-16.7-5.4-25.8&#xD;&#xA;&#x9;&#x9;&#x9;c-0.9,4.4-1.7,7.9-2.4,11.5h-1.5c-1.5-6.5-3-13-4.8-20.6c0,3.4,0.1,5.7,0,8c-0.2,1-0.5,2-1,2.9c-0.7-0.8-1.8-1.5-2.1-2.5&#xD;&#xA;&#x9;&#x9;&#x9;c-1.9-6.1-3.6-12.3-5.4-18.6c-0.5,3.6-1,7.1-1.4,10.6l-1.1,0.1c-0.9-2.3-1.7-4.7-2.6-7l-0.5,0.1c1.4,7.8,2.7,15.6,4.2,24l2.4-12&#xD;&#xA;&#x9;&#x9;&#x9;h1.7l3.6,22.9c2-10.1,2-10.1,4.3-11.2c1.2,8.4,2.4,16.8,3.6,25.2c1-3.9,1.7-7.8,2.2-11.7c0.1-0.7,1.1-1.2,1.8-1.8&#xD;&#xA;&#x9;&#x9;&#x9;c0.5,0.6,0.8,1.4,1,2.1c0.2,2.9-0.2,5.8,0.2,8.6c0.9,6.5,2.1,13,3.2,19.5l0.9-0.2l2-19.3l1.8-0.1c2.3,10.2,1.8,20.8,4.9,31&#xD;&#xA;&#x9;&#x9;&#x9;c0.4-1.3,0.6-2.7,0.7-4.1c0.5-4.2,0.8-8.4,1.5-12.5c0.1-0.8,1.1-1.5,1.7-2.3c0.6,0.8,1,1.8,1.2,2.7c0.4,4.6,0.5,9.2,0.8,13.8&#xD;&#xA;&#x9;&#x9;&#x9;c0.2,2.7,0.8,5.3,1.2,7.9c1.1-3.9,1.2-7.8,1.9-11.5c0.7-3.7,0.1-7.8,3.9-11.4c0.7,9.9,1.3,18.8,1.9,27.7h1.1&#xD;&#xA;&#x9;&#x9;&#x9;c1.4-8,0.5-16.5,4.2-24l1.1,0.2c1.2,13.4,2.3,26.8,3.5,40.2c2.1-11.8,2.4-23.8,5.8-35.3h1.3c1.1,9.7,2.3,19.4,3.4,29.2h1&#xD;&#xA;&#x9;&#x9;&#x9;c1.2-7,2.3-14.1,3.5-21.1c0.3-1,0.8-2,1.4-2.8c0.5,1.1,1.3,2.1,1.4,3.3c0.6,6.7,1,13.3,1.4,20c2-6.8,3.3-13.5,4.7-20.3&#xD;&#xA;&#x9;&#x9;&#x9;c0.4-1.1,0.9-2.2,1.4-3.2l1.2,0.4c1.3,9.2,2.7,18.4,4,27.6l0.6-0.1c0.9-9.5,1.8-19,2.7-28.5h1.5l3.8,15.2h0.8&#xD;&#xA;&#x9;&#x9;&#x9;c0.7-7.1,1.4-14.2,2.1-21.3h1.7c1.1,7.5,2.3,15.1,3.4,22.6c1.8-9,2.8-18,3.8-27c0.3-0.9,0.6-1.7,1.1-2.4c0.6,0.7,1.6,1.4,1.8,2.2&#xD;&#xA;&#x9;&#x9;&#x9;c1.5,7.5,2.9,15,4.4,23.3c1.4-11.7,2.7-22.8,4-33.9h1.6c0.9,4.3,1.8,8.7,2.8,13l0.6-0.1c1.2-7,2.4-14.1,3.6-21.1h1.2l1.1,11.4&#xD;&#xA;&#x9;&#x9;&#x9;c1.8-6.5,2.8-12.9,4-19.4c0.2-1,1-1.8,1.6-2.7l1.5,0.5v10.6h1c2.3-8.2,4.6-16.4,6.9-24.6l1.2,0.1v10.5c0.9-0.5,1.6-1.3,1.8-2.2&#xD;&#xA;&#x9;&#x9;&#x9;c1.6-5.9,3-11.8,4.6-17.6c0.2-0.7,0.9-1.2,1.4-1.8c0.5,0.6,1,1.3,1.5,2.1c0.2,0.6,0.3,1.2,0.2,1.8h0.9L285.6,251.3z M111.9,172&#xD;&#xA;&#x9;&#x9;&#x9;c1.5,10.5,4,19.6,9.2,27.8c10.1,15.6,28.8,8.9,34.6-3.3L111.9,172z M289.4,171.9L245,196.8c1.7,2.1,3,3.9,4.4,5.4&#xD;&#xA;&#x9;&#x9;&#x9;c8.2,8.3,20.1,9.2,27.3,1.6C284.9,195.3,287.2,184.2,289.4,171.9L289.4,171.9z M114.2,251.1c0.7,6.1,1.3,11.9,1.9,17.9&#xD;&#xA;&#x9;&#x9;&#x9;c0.5-0.4,0.6-0.4,0.7-0.5c1.6-3.4,0-8.1,4.3-10.4c0.2-0.1,0.1-0.7,0-1.1c-0.5-2.2-1-4.4-1.6-6.7l-1.8,3.3L114.2,251.1z" fill="#010000"/>
      <path class="st1" d="M285.6,251.3l-1.6,23.5h-0.9c0-0.6-0.1-1.2-0.2-1.8c-0.4-0.7-0.9-1.4-1.5-2.1c-0.5,0.6-1.2,1.1-1.4,1.8&#xD;&#xA;&#x9;&#x9;&#x9;c-1.6,5.9-3.1,11.8-4.6,17.6c-0.2,1-0.9,1.8-1.8,2.2v-10.6l-1.2-0.1c-2.3,8.2-4.6,16.4-6.9,24.6h-1v-10.7l-1.5-0.5&#xD;&#xA;&#x9;&#x9;&#x9;c-0.6,0.9-1.4,1.8-1.6,2.7c-1.2,6.4-2.2,12.9-4,19.4l-1.1-11.4H255c-1.2,7-2.4,14-3.6,21.1l-0.6,0.1c-0.9-4.3-1.8-8.7-2.8-13h-1.6&#xD;&#xA;&#x9;&#x9;&#x9;c-1.3,11.1-2.6,22.1-4,33.9c-1.6-8.3-2.9-15.8-4.4-23.3c-0.2-0.8-1.2-1.5-1.8-2.2c-0.5,0.7-0.9,1.6-1.1,2.4c-1,9-1.9,18-3.8,27&#xD;&#xA;&#x9;&#x9;&#x9;c-1.1-7.5-2.3-15.1-3.4-22.6h-1.7c-0.7,7.1-1.4,14.2-2.1,21.3h-0.8l-3.8-15.4H218c-0.9,9.5-1.8,19-2.7,28.5l-0.6,0.1&#xD;&#xA;&#x9;&#x9;&#x9;c-1.3-9.2-2.7-18.4-4-27.6l-1.2-0.4c-0.6,1-1.1,2.1-1.4,3.2c-1.4,6.8-2.7,13.5-4.7,20.3c-0.4-6.7-0.8-13.3-1.4-20&#xD;&#xA;&#x9;&#x9;&#x9;c-0.1-1.1-0.9-2.2-1.4-3.3c-0.6,0.9-1.1,1.8-1.4,2.8c-1.2,7-2.4,14.1-3.5,21.1h-1c-1.1-9.7-2.3-19.4-3.4-29.2H190&#xD;&#xA;&#x9;&#x9;&#x9;c-3.4,11.5-3.7,23.5-5.8,35.3c-1.2-13.4-2.4-26.8-3.5-40.2l-1.1-0.2c-3.7,7.4-2.7,16-4.2,24h-1.1c-0.6-8.9-1.2-17.9-1.9-27.7&#xD;&#xA;&#x9;&#x9;&#x9;c-3.7,3.6-3.2,7.8-3.9,11.4c-0.7,3.6-0.8,7.6-1.9,11.5c-0.4-2.6-1-5.3-1.2-7.9c-0.4-4.6-0.5-9.2-0.8-13.8c-0.2-1-0.6-1.9-1.2-2.8&#xD;&#xA;&#x9;&#x9;&#x9;c-0.6,0.8-1.6,1.5-1.7,2.3c-0.6,4.2-1,8.4-1.5,12.5c-0.1,1.4-0.3,2.8-0.7,4.1c-3-10.1-2.6-20.8-4.9-31l-1.8,0.1l-2,19.3l-0.9,0.2&#xD;&#xA;&#x9;&#x9;&#x9;c-1.1-6.5-2.3-13-3.2-19.5c-0.4-2.8,0-5.7-0.2-8.6c-0.2-0.8-0.5-1.5-1-2.1c-0.6,0.6-1.6,1.1-1.8,1.8c-0.5,3.9-1.2,7.8-2.2,11.7&#xD;&#xA;&#x9;&#x9;&#x9;c-1.2-8.4-2.4-16.8-3.6-25.2c-2.3,1-2.3,1-4.3,11.2l-3.6-22.8h-1.7l-2.4,12c-1.5-8.5-2.8-16.2-4.2-24l0.5-0.1&#xD;&#xA;&#x9;&#x9;&#x9;c0.9,2.3,1.7,4.7,2.6,7l1.2,0.2c0.5-3.5,1-7.1,1.4-10.6c1.8,6.2,3.5,12.4,5.4,18.6c0.3,1,1.4,1.7,2.1,2.5c0.5-0.9,0.8-1.9,1-2.9&#xD;&#xA;&#x9;&#x9;&#x9;c0.2-2.3,0-4.6,0-8c1.8,7.6,3.3,14.1,4.8,20.6h1.5c0.8-3.5,1.5-7.1,2.4-11.5c2,9.2,1.8,18,5.4,25.8l1.2-0.2l2.2-23.5l0.8,0.1&#xD;&#xA;&#x9;&#x9;&#x9;c2,9.6,3.9,19.1,5.9,28.7l1.7-0.1c0.5-6.5,0.9-13,1.4-19.6l0.7-0.1l5.4,23.4h1.4c0.7-7.4,1.3-14.8,2.1-22.5&#xD;&#xA;&#x9;&#x9;&#x9;c2.8,9.5,5.6,18.8,8.3,28l1.6-0.3V282h1c1.1,6.4,2.2,12.8,3.3,19.3c0.8,5,1.5,10,2.3,15c0.2,0.9,1.1,1.6,1.6,2.4&#xD;&#xA;&#x9;&#x9;&#x9;c0.6-0.8,1-1.8,1.2-2.7c0.6-10.4,1-20.9,1.6-31.3c0-0.6,0.3-1.1,0.8-1.3c0.8,10.4,1.5,20.7,2.3,31.1c0.3,1.2,0.7,2.3,1.3,3.3&#xD;&#xA;&#x9;&#x9;&#x9;c0.6-1,1.5-2,1.6-3.1c0.6-5.3,1.5-10.6,2.6-15.8c1.2,8.3,2.5,16.7,3.7,25h1.8l4.6-42.7h0.6c1.2,13.4,2.3,26.7,3.6,41.2&#xD;&#xA;&#x9;&#x9;&#x9;c1.2-1.4,2.2-2.1,2.3-2.9c0.9-8,1.7-16,2.4-24.1c0.5-5.2,0.7-10.5,1.4-15.8l2.7,32.8l1.1,0.4c0.6-1.2,1.1-2.5,1.4-3.9&#xD;&#xA;&#x9;&#x9;&#x9;c1.3-11.1,2.6-22.1,3.9-33.2c0-0.2,0.3-0.4,0.6-0.9c0.6,12.5,1.3,24.7,1.9,36.9l1.7,0.1l3.4-26.3h0.3l2.8,22.6l1.3,0.1&#xD;&#xA;&#x9;&#x9;&#x9;c3-10,2.5-20.6,4.9-30.8l2.9,23.2h1.4c2.6-10.8,2.3-22,4.3-33c0.5,6.1,0.9,12.3,1.5,18.4c0.3,0.9,0.7,1.8,1.2,2.6&#xD;&#xA;&#x9;&#x9;&#x9;c0.6-0.8,1.5-1.5,1.6-2.4c1.6-7.8,3-15.6,4.4-23.3c0.1-0.8,0.4-1.5,0.6-2.2l1.1,0.1v16.6l1.4,0.1c3.2-7.4,4.6-15.3,5.9-23.4&#xD;&#xA;&#x9;&#x9;&#x9;c0.8,3.2,1.5,6.3,2.3,9.5c0.2,0.7,0.9,1.2,1.4,1.8c0.6-0.5,1.4-1,1.6-1.6c1.5-4.2,2.8-8.4,4.1-12.6L285.6,251.3z" fill="#890201"/>
      <path class="st2" d="M111.9,172l43.8,24.6c-5.7,12.1-24.5,18.9-34.6,3.3C115.9,191.6,113.5,182.5,111.9,172z" fill="#115BCB"/>
      <path class="st2" d="M289.4,171.9c-2.1,12.3-4.5,23.3-12.7,31.9c-7.2,7.6-19.1,6.7-27.3-1.6c-1.5-1.5-2.7-3.2-4.4-5.4L289.4,171.9&#xD;&#xA;&#x9;&#x9;&#x9;z" fill="#115BCB"/>
      <path class="st1" d="M114.2,251.1l3.6,2.5l1.8-3.3c0.6,2.3,1.1,4.5,1.6,6.7c0.1,0.4,0.1,1,0,1.1c-4.3,2.3-2.8,7-4.3,10.4&#xD;&#xA;&#x9;&#x9;&#x9;c0,0.1-0.2,0.1-0.7,0.5C115.5,263,114.9,257.2,114.2,251.1z" fill="#890201"/>
    </g>
  </g>
</svg>