<?xml version="1.0" encoding="utf-8"?>
<!-- Generator: Adobe Illustrator 25.3.1, SVG Export Plug-In . SVG Version: 6.00 Build 0)  -->
<svg version="1.1" id="Capa_1" xmlns="http://www.w3.org/2000/svg" xmlns:xlink="http://www.w3.org/1999/xlink" x="0px" y="0px"
	 viewBox="0 0 579.2 579.2" style="enable-background:new 0 0 579.2 579.2;" xml:space="preserve">
<g>
	<g>
		<g>
			<path fill="hsl(192, 50%, 30%)" d="M57.9,578.7h260.6c11.8,0,21.4-9.6,21.4-21.4c0-11.8-9.6-21.4-21.4-21.4H62.6V43.3h255.1c11.8,0,21.4-9.6,21.4-21.4
				s-9.6-21.4-21.4-21.4H57.9c-21.1,0-38.2,17.1-38.2,38.2v501.8C19.7,561.6,36.9,578.7,57.9,578.7z"/>
			<path fill="hsl(192, 50%, 30%)" d="M57.9,0h259.8c12.1,0,21.9,9.8,21.9,21.9s-9.8,21.9-21.9,21.9H63.1v491.5h255.4c12.1,0,21.9,9.8,21.9,21.9
				c0,12.1-9.8,21.9-21.9,21.9H57.9c-21.3,0-38.7-17.4-38.7-38.7V38.7C19.2,17.4,36.6,0,57.9,0z M317.7,42.8
				c11.5,0,20.9-9.4,20.9-20.9S329.2,1,317.7,1H57.9C37.2,1,20.2,17.9,20.2,38.7v501.8c0,20.8,16.9,37.7,37.7,37.7h260.6
				c11.5,0,20.9-9.4,20.9-20.9c0-11.5-9.4-20.9-20.9-20.9H62.1V42.8H317.7z"/>
		</g>
		<g>
			<path fill="hsl(192, 50%, 30%)" d="M159,408.1h139.5v19.7c0,7.9,1.6,15.5,4.8,22.6c3,6.8,7.3,12.8,12.7,17.9c10.4,9.8,24,15.1,38.2,15.1
				c13.8,0,27.1-5.2,37.4-14.6l149.6-136.5c11.5-10.5,18.1-25.5,18.1-41.1c0-15.6-6.6-30.6-18.1-41.1L391.7,113.8
				c-10.3-9.4-23.6-14.6-37.4-14.6c-14.2,0-27.8,5.4-38.2,15.1c-5.4,5.1-9.7,11.1-12.7,17.9c-3.2,7.1-4.8,14.7-4.8,22.6v19.7H159
				c-30.7,0-55.6,25-55.6,55.6v122.2C103.3,383.2,128.3,408.1,159,408.1z M328.6,365.3l-169.6,0c-7.1,0-12.8-5.7-12.8-12.8V230.2
				c0-7.1,5.7-12.8,12.8-12.8h169.6c7.1,0,12.8-5.7,12.8-12.8v-49.8c0-7.7,6.3-12.8,12.9-12.8c3,0,6,1,8.5,3.4l149.6,136.5
				c5.6,5.1,5.6,13.8,0,18.9L362.8,437.3c-2.6,2.3-5.6,3.4-8.5,3.4c-6.6,0-12.9-5.2-12.9-12.8v-49.8
				C341.4,371,335.6,365.3,328.6,365.3L328.6,365.3z"/>
			<path fill="hsl(192, 50%, 30%)" d="M392,113.4l149.6,136.5c11.6,10.6,18.3,25.7,18.3,41.5s-6.7,30.9-18.3,41.5L392,469.4c-10.4,9.5-23.8,14.7-37.8,14.7
				c-14.4,0-28.1-5.4-38.6-15.3c-5.5-5.1-9.8-11.2-12.9-18.1c-3.2-7.2-4.8-14.9-4.8-22.8v-19.2H159c-31,0-56.1-25.2-56.1-56.1V230.2
				c0-31,25.2-56.1,56.1-56.1h139v-19.2c0-7.9,1.6-15.6,4.8-22.8c3-6.9,7.4-12.9,12.9-18.1c10.5-9.8,24.2-15.3,38.6-15.3
				C368.2,98.7,381.6,103.9,392,113.4z M159,407.6h140v20.2c0,7.8,1.6,15.3,4.7,22.4c3,6.7,7.2,12.7,12.6,17.8
				c10.3,9.7,23.8,15,37.9,15c13.7,0,26.9-5.1,37.1-14.4L541,332.1c11.4-10.4,18-25.3,18-40.7c0-15.5-6.6-30.3-18-40.7L391.3,114.1
				c-10.2-9.3-23.4-14.4-37.1-14.4c-14.1,0-27.6,5.3-37.9,15c-5.4,5.1-9.6,11-12.6,17.8c-3.1,7.1-4.7,14.6-4.7,22.4v20.2H159
				c-30.4,0-55.1,24.7-55.1,55.1v122.2C103.8,382.9,128.6,407.6,159,407.6L159,407.6z M363.1,145l149.7,136.5
				c2.8,2.5,4.3,6.1,4.3,9.8c0,3.7-1.6,7.3-4.3,9.8L363.1,437.7c-2.5,2.3-5.6,3.5-8.9,3.5c-6.4,0-13.4-5.1-13.4-13.3v-49.8
				c0-3.3-1.3-6.4-3.6-8.7c-2.3-2.3-5.4-3.6-8.7-3.6h0H159c-7.3,0-13.3-6-13.3-13.3V230.2c0-7.3,6-13.3,13.3-13.3h169.6
				c6.8,0,12.3-5.5,12.3-12.3v-49.8c0-8.2,6.9-13.3,13.4-13.3C357.5,141.5,360.6,142.7,363.1,145z M328.6,364.8
				c7.3,0,13.3,6,13.3,13.3v49.8c0,6.1,4.6,12.3,12.4,12.3c3,0,5.9-1.1,8.2-3.2l149.6-136.5c2.5-2.3,4-5.6,4-9.1s-1.5-6.8-4-9.1
				L362.5,145.8c-2.3-2.1-5.2-3.2-8.2-3.2c-6,0-12.4,4.7-12.4,12.3v49.8c0,7.3-6,13.3-13.3,13.3H159c-6.8,0-12.3,5.5-12.3,12.3
				v122.2c0,6.8,5.5,12.3,12.3,12.3L328.6,364.8z"/>
		</g>
	</g>
</g>
</svg>
