<?xml version="1.0" encoding="UTF-8" standalone="no"?>
<!-- Uploaded to: SVG Repo, www.svgrepo.com, Generator: SVG Repo Mixer Tools -->

<svg
   fill="#000000"
   height="940"
   width="1960.0004"
   version="1.1"
   id="Capa_1"
   viewBox="0 0 1167.6285 559.98502"
   xml:space="preserve"
   sodipodi:docname="rectangle_mono.svg"
   inkscape:version="1.4.2 (f4327f4, 2025-05-13)"
   inkscape:export-filename="rectangle_mono.png"
   inkscape:export-xdpi="96"
   inkscape:export-ydpi="96"
   xmlns:inkscape="http://www.inkscape.org/namespaces/inkscape"
   xmlns:sodipodi="http://sodipodi.sourceforge.net/DTD/sodipodi-0.dtd"
   xmlns="http://www.w3.org/2000/svg"
   xmlns:svg="http://www.w3.org/2000/svg"><defs
   id="defs1"><inkscape:path-effect
     effect="offset"
     id="path-effect1"
     is_visible="true"
     lpeversion="1.3"
     linejoin_type="miter"
     unit="mm"
     offset="0"
     miter_limit="4"
     attempt_force_join="false"
     update_on_knot_move="true" /></defs><sodipodi:namedview
   id="namedview1"
   pagecolor="#ffffff"
   bordercolor="#000000"
   borderopacity="0.25"
   inkscape:showpageshadow="2"
   inkscape:pageopacity="0.0"
   inkscape:pagecheckerboard="0"
   inkscape:deskcolor="#d1d1d1"
   showgrid="true"
   inkscape:zoom="0.70710678"
   inkscape:cx="910.75354"
   inkscape:cy="710.64232"
   inkscape:window-width="2558"
   inkscape:window-height="2113"
   inkscape:window-x="0"
   inkscape:window-y="0"
   inkscape:window-maximized="0"
   inkscape:current-layer="Capa_1"><inkscape:grid
     id="grid2"
     units="px"
     originx="425.42719"
     originy="-12.210973"
     spacingx="0.59572875"
     spacingy="0.59572875"
     empcolor="#0099e5"
     empopacity="0.30196078"
     color="#0099e5"
     opacity="0.14901961"
     empspacing="5"
     enabled="true"
     visible="true" /></sodipodi:namedview>
<g
   id="g1"
   transform="translate(425.42694,-12.210965)"
   inkscape:label="logo"
   style="fill:#000000;fill-opacity:1;stroke:#1e1e1e;stroke-width:2.97864;stroke-dasharray:none;stroke-opacity:1">
	<path
   id="path1"
   inkscape:label="headset"
   d="M 248.71602,13.700173 C 126.05484,17.254442 75.666333,132.00619 80.304387,194.70664 c -3.846897,1.94106 -9.590348,4.73417 -11.901882,8.33642 -32.001872,0.85258 -98.190537,52.85004 -98.19053,99.43075 7e-6,46.58069 66.187659,98.5771 98.19053,99.43069 v 101.22148 c 4.234483,6.62777 11.200103,10.7179 19.638106,10.7179 13.154959,0 23.803759,-10.64797 23.803759,-23.81754 V 216.14245 c 0,-8.04108 -6.99557,-15.33359 -13.092063,-19.64948 C 109.03633,138.65114 165.08521,62.700603 248.71602,61.335269 c 5.0576,0.363822 15.6401,-0.02853 20.2332,1.190877 41.60463,3.842129 115.28692,56.505554 129.73051,133.966824 -6.04954,4.32289 -13.09206,11.64738 -13.09206,19.64948 v 273.88388 c 0,10.01211 5.54956,20.27826 14.28225,23.81754 v 10.12246 c 0,10.64345 -17.05666,18.45861 -43.44187,18.4586 l -67.84073,-10e-6 c -1.48256,-11.99319 -10.46843,-13.39737 -20.82829,-13.39737 -10.35985,0 -20.82828,9.0591 -20.82828,20.84036 0,11.79725 9.51984,20.84035 20.82828,20.84035 11.30845,0 19.44777,-2.94146 20.8283,-13.39736 h 72.00638 c 33.58956,0 55.27659,-8.45737 54.74867,-43.46703 5.46117,-1.67719 10.67736,-5.9982 13.68715,-10.7179 V 401.9045 c 31.96991,-0.88557 98.1905,-52.85 98.19054,-99.43069 4e-5,-46.58077 -66.22063,-98.54745 -98.19054,-99.43102 -2.32751,-3.64023 -8.02401,-6.39509 -11.90188,-8.33615 C 422.26218,118.02099 357.40645,25.646541 274.30508,15.486488 263.58551,13.623396 259.23381,14.421821 248.71602,13.700173 Z M 68.402505,246.50257 v 111.94247 c -22.125049,-0.59013 -54.74866,-29.87271 -54.74866,-55.97123 0,-26.09851 32.624302,-55.38182 54.74866,-55.97124 z m 360.627025,0 c 20.43281,0.5647 54.74867,29.87273 54.74867,55.97124 0,26.09852 -34.31585,55.40523 -54.74867,55.97123 z"
   sodipodi:nodetypes="cccaccsssccccsscssczszcscccaccccccaccacc"
   style="fill:#000000;fill-opacity:1;stroke:#1e1e1e;stroke-width:2.97546;stroke-dasharray:none;stroke-opacity:1" />
<path
   fill="#000000"
   d="m 237.69637,153.08603 c -13.59326,1.2334 -26.86501,4.46042 -39.01543,9.78683 8.00891,17.07195 7.41071,34.75877 -3.50162,42.94016 -10.85657,8.13761 -28.16666,4.15036 -42.27162,-8.17564 -8.46537,10.13593 -15.28623,21.55161 -20.25675,34.196 17.62794,6.42641 29.51103,19.62625 27.58565,33.08822 -1.92692,13.46193 -17.03761,22.79157 -35.75929,24.01816 1.21828,13.44164 4.64284,26.45933 9.86765,38.49457 9.28032,-4.26343 18.65081,-5.77871 26.62429,-4.65735 6.79062,0.97439 12.46773,3.65533 16.23458,8.67951 8.24183,10.99312 3.96171,28.50954 -8.74363,42.71247 10.16929,8.51956 21.99767,15.34251 34.70042,20.33751 6.42484,-17.62688 19.62104,-29.5105 33.0882,-27.58461 13.46665,1.9264 22.79178,17.03704 24.0184,35.75872 13.59326,-1.23235 26.86501,-4.4578 39.01543,-9.78577 -8.21527,-17.1939 -7.43053,-35.21837 3.5657,-43.46073 5.02316,-3.76736 11.7596,-4.70112 18.54713,-3.71264 7.87446,1.12552 16.25229,5.34101 23.7417,11.87006 8.38303,-10.08017 15.31955,-21.62979 20.25673,-34.17933 -17.62793,-6.42588 -29.51102,-19.62001 -27.58462,-33.08822 1.92642,-13.46767 17.0209,-22.80845 35.74257,-24.03454 -1.22973,-13.51876 -4.5719,-26.39918 -9.85142,-38.49384 -16.99329,7.87709 -34.73481,6.84952 -42.87503,-4.0055 -8.17879,-10.91337 -3.77882,-28.06505 8.69568,-42.207 -10.17136,-8.52061 -22.01435,-15.34406 -34.71656,-20.33856 -6.42589,17.62688 -19.62219,29.52394 -33.0883,27.60014 -13.46769,-1.92433 -22.79378,-17.03694 -24.01882,-35.75862 z m 11.28449,60.57538 c 35.4201,0 64.22291,28.80369 64.22291,64.22246 0,35.4201 -28.80281,64.22291 -64.22246,64.22291 -35.41923,0 -64.22212,-28.80288 -64.22212,-64.22255 0,-35.41921 28.80283,-64.22202 64.2225,-64.22202 z"
   id="path1-8"
   inkscape:label="cog"
   style="fill:#000000;fill-opacity:1;stroke:#1e1e1e;stroke-width:3.57437;stroke-dasharray:none;stroke-opacity:1"
   sodipodi:nodetypes="cccccccccccccccccccccccccccccssscc" /><path
   d="M 702.51976,231.35681 H 583.32939 c -5.73494,0 -10.40104,4.66293 -10.40104,10.39734 v 121.7599 c 0,5.72966 4.66294,10.39576 10.40104,10.39576 h 119.1909 c 5.73337,0 10.39947,-4.66294 10.39947,-10.39576 v -121.7599 c -0.003,-5.73441 -4.66663,-10.39734 -10.4,-10.39734 z m -51.79106,33.67855 h -22.93407 v -7.31593 h -22.30641 v 12.09822 l 36.40728,19.70043 c 5.8888,3.18443 8.8332,7.4653 8.8332,12.84202 v 12.44139 c 0,4.49127 -2.28831,8.39579 -6.85425,11.71713 -4.57307,3.32135 -9.82652,4.98083 -15.76807,4.98083 h -22.61816 c -5.99429,0 -11.23589,-1.64705 -15.72835,-4.95534 -4.4972,-3.29644 -6.73811,-7.19268 -6.73811,-11.68751 v -7.37462 h 22.77168 v 7.31595 h 22.38999 V 302.17994 L 592.00195,283.0621 c -5.98836,-3.18503 -8.98314,-7.50621 -8.98314,-12.95762 v -12.44016 c 0,-4.45455 2.2575,-8.34307 6.779,-11.66382 4.51912,-3.32073 9.77258,-4.9814 15.76093,-4.9814 h 22.54527 c 5.94155,0 11.19501,1.67015 15.76807,5.01223 4.56654,3.34089 6.85426,7.23889 6.85426,11.69165 v 7.31298 h 0.002 z M 722.02363,203.1435 H 563.82501 c -10.31825,0 -18.68572,8.36777 -18.6857,18.68707 l 2.2e-4,161.59916 c 10e-6,10.32089 8.36775,18.68718 18.686,18.68717 l 158.20126,-1.1e-4 c 10.31826,-10e-6 18.6855,-8.36617 18.6855,-18.68706 V 221.83057 c -0.001,-10.3193 -8.36777,-18.68707 -18.68866,-18.68707 z m -1.738,160.36422 c 0,9.79306 -7.96911,17.76533 -17.76534,17.76533 h -119.1909 c -9.79516,0 -17.76745,-7.96963 -17.76745,-17.76533 V 241.75415 c 0,-9.79147 7.96965,-17.76375 17.76745,-17.76375 h 119.1909 c 9.79306,0 17.76534,7.96964 17.76534,17.76375 z"
   id="path1-5"
   inkscape:label="button"
   style="fill:#000000;fill-opacity:1;stroke:#1e1e1e;stroke-width:2.97864;stroke-dasharray:none;stroke-opacity:1"
   sodipodi:nodetypes="ssssssscsccccccsscsscsccccccsscsscscccssssssscssssssssss" /><g
   id="g2"
   inkscape:label="cup"
   transform="translate(-11.914575,-2.9786436)"
   style="fill:#000000;fill-opacity:1;stroke:#1e1e1e;stroke-width:2.97864;stroke-dasharray:none;stroke-opacity:1"><path
     d="m -206.36711,203.16677 c 0,38.81673 13.93538,126.33324 19.41354,184.73409 -0.33579,6.6565 3.82488,13.83465 11.04076,14.26608 38.82134,0.1246 77.648515,0.0179 116.471953,0.0535 6.583363,0.93866 14.139729,-2.45482 15.293474,-9.58984 5.766449,-59.96279 19.917353,-150.66512 19.917353,-189.46385 0,-2.95105 -42.973917,-2.52981 -42.973917,0 0,20.38784 -9.584601,92.32967 -14.715198,133.534 -1.962141,9.94326 -1.215625,21.33693 -7.774726,29.66077 -10.992049,11.5084 -30.036589,12.38801 -43.731379,5.46279 -8.49964,-3.94148 -12.00855,-13.26304 -12.74883,-22.03382 -6.64215,-45.45656 -16.62338,-116.62358 -16.62338,-146.62374 0,-2.51777 -43.56965,-3.0443 -43.56965,2e-5 z"
     style="clip-rule:evenodd;fill:#000000;fill-opacity:1;fill-rule:evenodd;stroke:#1e1e1e;stroke-width:2.97864;stroke-dasharray:none;stroke-opacity:1"
     id="path4"
     inkscape:label="cup"
     sodipodi:nodetypes="sccccssccccss" /><path
     id="path2-2"
     style="clip-rule:evenodd;fill:#000000;fill-opacity:1;fill-rule:evenodd;stroke:#1e1e1e;stroke-width:1.78719;stroke-linejoin:round;stroke-miterlimit:2;stroke-dasharray:none;stroke-opacity:1"
     d="m -120.88778,312.016 c -0.57085,-0.18266 -0.95971,-0.71155 -0.96183,-1.31125 -0.0115,-0.23281 -0.0131,-0.41773 -0.0131,-0.41773 0,0 0.009,-6.99307 8.28942,-13.43022 3.33807,-2.59527 6.23709,-6.79946 7.03152,-10.74782 0.11039,-0.5499 0.53739,-0.98289 1.09256,-1.0881 0.55163,-0.10775 1.11332,0.12683 1.42267,0.59523 2.34228,3.5231 4.915051,10.00171 0.49983,17.65862 -4.01447,6.96014 -11.4169,10.52809 -17.36047,8.74129 z m 11.66276,-30.80116 c 0.54658,0.17666 0.91691,0.68432 0.91957,1.25852 0.0109,0.25203 0.0116,0.45753 0.0116,0.45753 0,0 -0.009,6.99306 -8.28944,13.43025 -3.36827,2.61875 -6.28969,6.87565 -7.05266,10.85567 -0.10073,0.5323 -0.51377,0.95068 -1.04308,1.06059 -0.53052,0.10941 -1.07448,-0.11333 -1.37711,-0.5634 -2.35977,-3.4968 -5.03583,-10.03189 -0.57341,-17.77066 4.02384,-6.97764 11.45313,-10.54577 17.40356,-8.72819 z"
     inkscape:label="bean"
     sodipodi:nodetypes="cccccccccccccccccccc" /></g><g
   id="g3"
   inkscape:label="cable"
   transform="translate(-78.636223,42.296746)"
   style="fill:#000000;fill-opacity:1;stroke:#1e1e1e;stroke-width:2.97864;stroke-dasharray:none;stroke-opacity:1"><path
     d="m -207.37076,77.644864 c -32.82305,0.7103 -115.33151,12.767431 -126.62144,46.506406 -8.97213,26.72947 5.33903,54.35614 21.30195,71.23497 21.1032,22.24341 115.11531,69.1106 122.31172,100.47569 3.22075,14.04459 -36.14537,27.58204 -72.24607,32.55914 l -0.01,43.42072 c 35.18524,-5.38753 93.54106,-26.45719 111.69915,-53.75405 18.29941,-27.49585 -1.33851,-57.16037 -19.39493,-79.19818 -21.68266,-26.46779 -69.72095,-49.63762 -98.1797,-73.41471 -7.72635,-6.45531 -20.59069,-27.80601 -9.66405,-34.43338 11.04822,-6.70111 49.88647,-9.82139 70.78407,-10.0457 z"
     style="display:inline;fill:#000000;fill-opacity:1;stroke:#1e1e1e;stroke-width:2.97864;stroke-dasharray:none;stroke-opacity:1"
     id="path5"
     inkscape:label="cable"
     sodipodi:nodetypes="ccccccccsscc"
     transform="translate(2.684519e-6)" /><path
     d="m -262.55212,323.57693 h -82.74928 v 0.0186 53.79943 h 12.39279 l 57.57129,24.9159 3.21484,-7.43846 -40.33735,-17.47743 h 49.88879 z"
     style="display:inline;fill:#000000;fill-opacity:1;stroke:#1e1e1e;stroke-width:2.97864;stroke-dasharray:none;stroke-opacity:1"
     id="path3"
     inkscape:label="bottom jack"
     sodipodi:nodetypes="cccccccccc" /><path
     d="m -207.38968,126.36198 h 82.74928 v -0.0186 -53.799434 h -12.39279 l -57.57129,-24.915899 -3.21484,7.438464 40.33735,17.477425 h -49.88879 z"
     style="display:inline;fill:#000000;fill-opacity:1;stroke:#1e1e1e;stroke-width:2.97864;stroke-dasharray:none;stroke-opacity:1"
     id="path6"
     inkscape:label="top jack"
     sodipodi:nodetypes="cccccccccc" /></g></g>
</svg>
